<svg width="18" height="18" viewBox="0 0 18 18" fill="none" xmlns="http://www.w3.org/2000/svg">
<g clip-path="url(#clip0_160_1528)">
<path d="M17.792 8.99422C17.8546 10.5991 17.8764 12.2066 17.9895 13.8083C18.1381 15.912 16.6669 17.4074 15.3449 17.8022C14.9798 17.9111 14.5887 17.9873 14.2089 17.9889C10.7683 18.0028 7.32718 18.0039 3.88604 17.9942C1.75063 17.9883 0.0145604 16.2837 -0.000129077 14.1762C-0.00556961 13.3336 0.0521 12.4909 0.0841992 11.6483C0.145677 10.0364 0.209331 8.42512 0.271353 6.81382C0.31379 5.72388 0.345345 4.63341 0.399206 3.54402C0.48571 1.80559 1.97968 0.244714 3.73697 0.0424969C3.91161 0.0226506 4.08843 0.00387718 4.26416 0.00387718C7.41314 0.00173164 10.5621 -0.00309582 13.7116 0.00387718C15.5135 0.00816826 17.0543 1.20002 17.4743 2.9261C17.5744 3.33751 17.5924 3.77305 17.6109 4.19894C17.68 5.79683 17.7333 7.39526 17.7926 8.99369L17.792 8.99422ZM1.49275 8.94756H1.49711C1.43236 10.6264 1.37089 12.3048 1.30179 13.9837C1.23977 15.4898 2.40404 16.7085 3.92848 16.7101C7.34241 16.7139 10.7569 16.7123 14.1708 16.7085C14.3591 16.7085 14.5522 16.6897 14.735 16.6468C15.933 16.3663 16.7817 15.2163 16.7388 13.9338C16.7007 12.8036 16.6539 11.6735 16.612 10.5428C16.5271 8.27547 16.4477 6.00817 16.3525 3.74141C16.3411 3.46517 16.2796 3.18088 16.1844 2.9202C15.815 1.90912 14.8863 1.29281 13.7394 1.28852C12.1649 1.28208 10.5899 1.28691 9.01538 1.28691C7.42729 1.28691 5.83865 1.27994 4.25056 1.28959C2.90675 1.29764 1.75662 2.36236 1.70004 3.65129C1.62278 5.41654 1.5613 7.18231 1.49275 8.94756Z" fill="#080808"/>
<path d="M8.98459 8.72396C6.47705 8.71108 4.44827 6.73879 4.42923 4.28591C4.42597 3.8391 4.661 3.57734 5.07013 3.57305C5.48306 3.56876 5.72299 3.82033 5.73224 4.26713C5.76652 5.93261 6.96126 7.23281 8.6723 7.41088C10.2914 7.57931 11.7506 6.57734 12.1423 5.02665C12.207 4.76973 12.2299 4.49939 12.2456 4.23388C12.2696 3.8214 12.5062 3.57252 12.9039 3.57359C13.3006 3.5752 13.5497 3.83105 13.5525 4.23978C13.5682 6.49689 11.8071 8.44235 9.53136 8.67943C9.34965 8.69821 9.16685 8.70947 8.98459 8.72449V8.72396Z" fill="#080808"/>
</g>
<defs>
<clipPath id="clip0_160_1528">
<rect width="18" height="18" fill="white"/>
</clipPath>
</defs>
</svg>
