<svg width="18" height="18" viewBox="0 0 18 18" fill="none" xmlns="http://www.w3.org/2000/svg">
<g clip-path="url(#clip0_111_437)">
<path d="M17.792 8.99416C17.8546 10.599 17.8764 12.2066 17.9895 13.8082C18.1381 15.9119 16.6669 17.4074 15.3449 17.8021C14.9798 17.911 14.5887 17.9872 14.2089 17.9888C10.7683 18.0027 7.32718 18.0038 3.88604 17.9942C1.75063 17.9883 0.0145604 16.2836 -0.000129077 14.1762C-0.00556961 13.3335 0.0521 12.4909 0.0841992 11.6482C0.145677 10.0364 0.209331 8.42506 0.271353 6.81376C0.31379 5.72382 0.345345 4.63335 0.399206 3.54396C0.48571 1.80553 1.97968 0.244653 3.73697 0.0424359C3.91161 0.0225896 4.08843 0.00381615 4.26416 0.00381615C7.41314 0.00167061 10.5621 -0.00315686 13.7116 0.00381615C15.5135 0.00810722 17.0543 1.19995 17.4743 2.92604C17.5744 3.33745 17.5924 3.77299 17.6109 4.19888C17.68 5.79677 17.7333 7.3952 17.7926 8.99362L17.792 8.99416ZM1.49275 8.9475H1.49711C1.43236 10.6264 1.37089 12.3047 1.30179 13.9836C1.23977 15.4898 2.40404 16.7084 3.92848 16.7101C7.34241 16.7138 10.7569 16.7122 14.1708 16.7084C14.3591 16.7084 14.5522 16.6897 14.735 16.6468C15.933 16.3662 16.7817 15.2162 16.7388 13.9337C16.7007 12.8036 16.6539 11.6734 16.612 10.5427C16.5271 8.27541 16.4477 6.00811 16.3525 3.74135C16.3411 3.46511 16.2796 3.18082 16.1844 2.92014C15.815 1.90905 14.8863 1.29275 13.7394 1.28846C12.1649 1.28202 10.5899 1.28685 9.01538 1.28685C7.42729 1.28685 5.83865 1.27988 4.25056 1.28953C2.90675 1.29758 1.75662 2.3623 1.70004 3.65123C1.62278 5.41648 1.5613 7.18225 1.49275 8.9475Z" fill="white"/>
<path d="M8.98459 8.72396C6.47705 8.71108 4.44827 6.73879 4.42923 4.28591C4.42597 3.8391 4.661 3.57734 5.07013 3.57305C5.48306 3.56876 5.72299 3.82033 5.73224 4.26713C5.76652 5.93261 6.96126 7.23281 8.6723 7.41088C10.2914 7.57931 11.7506 6.57734 12.1423 5.02665C12.207 4.76973 12.2299 4.49939 12.2456 4.23388C12.2696 3.8214 12.5062 3.57252 12.9039 3.57359C13.3006 3.5752 13.5497 3.83105 13.5525 4.23978C13.5682 6.49689 11.8071 8.44235 9.53136 8.67943C9.34965 8.69821 9.16685 8.70947 8.98459 8.72449V8.72396Z" fill="white"/>
</g>
<defs>
<clipPath id="clip0_111_437">
<rect width="18" height="18" fill="white"/>
</clipPath>
</defs>
</svg>
