<svg width="25" height="24" viewBox="0 0 25 24" fill="none" xmlns="http://www.w3.org/2000/svg">
<g clip-path="url(#clip0_170_1167)">
<g clip-path="url(#clip1_170_1167)">
<path d="M0.833252 9.01491C0.906169 8.74314 0.954476 8.46199 1.05519 8.2005C1.69139 6.54754 3.53117 5.92891 5.07563 6.83942C6.67069 7.77988 7.2882 9.89503 6.4255 11.4631C5.68358 12.8116 3.98462 13.264 2.64159 12.4728C1.63397 11.8797 1.06248 11.0031 0.873812 9.87447C0.867887 9.84005 0.84738 9.80786 0.833252 9.77479V9.01491ZM5.44478 9.77389C5.40649 9.0824 5.0729 8.40567 4.3255 7.96628C3.58267 7.52957 2.71359 7.80938 2.36906 8.58401C1.94888 9.5276 2.38364 10.7966 3.30148 11.3071C3.89621 11.6378 4.53514 11.5806 4.97765 11.1399C5.31489 10.8042 5.44159 10.3818 5.44432 9.77434L5.44478 9.77389Z" fill="#080808"/>
<path d="M24.1667 12.7696C24.0026 13.2287 23.9032 13.7235 23.6622 14.1392C23.0515 15.1928 22.1186 15.8275 20.8585 15.8985C19.4913 15.9759 18.4008 15.1512 18.084 13.8415C17.5882 11.7907 19.3719 9.60586 21.5102 9.6443C22.8346 9.66799 23.9178 10.5982 24.1211 11.885C24.1302 11.9423 24.1507 11.9981 24.1657 12.0545V12.7696H24.1667ZM19.3751 13.1165C19.3455 14.1423 20.1945 14.7945 21.1871 14.508C22.1118 14.2411 22.8122 13.3083 22.7995 12.3602C22.7872 11.4282 22.0338 10.8333 21.1046 11.0215C20.1617 11.2123 19.4038 12.1304 19.3751 13.1165Z" fill="#080808"/>
<path d="M11.681 21.1253C10.6278 21.1136 9.67258 21.3537 8.74244 21.7247C6.67662 22.5489 4.40253 21.4145 3.8748 19.2922C3.66152 18.4353 3.72623 17.5793 4.19836 16.8279C5.16998 15.2831 6.10559 13.7035 7.22349 12.2633C8.58977 10.5039 10.5043 9.85045 12.7392 10.2478C14.3301 10.5308 15.556 11.3872 16.4379 12.7058C17.2869 13.9753 18.1223 15.2536 18.9458 16.5396C20.2979 18.6521 19.1864 21.3519 16.7428 21.903C16.0469 22.0599 15.3523 22.0326 14.6856 21.768C13.7067 21.3796 12.7059 21.1025 11.681 21.1248V21.1253ZM18.1601 18.4626C18.1738 18.0705 18.0635 17.6852 17.8379 17.3402C16.921 15.9366 16.046 14.5036 15.0639 13.1452C13.446 10.908 9.8608 10.9103 8.24023 13.1497C7.25722 14.5076 6.3804 15.9393 5.46711 17.3455C5.12349 17.8748 5.04967 18.4621 5.22786 19.0633C5.61112 20.3538 6.94687 20.9541 8.2621 20.4794C8.91334 20.2442 9.58554 20.0444 10.2646 19.9077C11.3948 19.6797 12.5337 19.7383 13.6497 20.0239C14.1834 20.1602 14.7006 20.3587 15.2234 20.5357C16.6525 21.0189 18.1642 19.9649 18.1605 18.4626H18.1601Z" fill="#080808"/>
<path d="M13.3603 5.89867C13.3193 7.03804 12.9273 8.08757 11.9803 8.88499C10.712 9.95285 8.99485 9.90815 7.76438 8.79023C6.15703 7.32993 6.08092 4.5662 7.60533 3.02142C9.10058 1.50613 11.3879 1.70146 12.6097 3.44605C13.1156 4.16839 13.3452 4.97117 13.3603 5.89912V5.89867ZM9.82519 8.3124C10.5758 8.31106 11.0734 8.00219 11.4389 7.50202C12.1717 6.49898 12.1681 5.19735 11.4594 4.17688C10.6897 3.06835 9.16529 3.06567 8.40149 4.18001C7.74205 5.14192 7.69511 6.16195 8.21829 7.18376C8.56009 7.85201 9.1138 8.2829 9.82519 8.31285V8.3124Z" fill="#080808"/>
<path d="M20.1889 6.81711C20.1164 8.33507 19.6005 9.44181 18.4475 10.1999C16.7536 11.3134 14.6964 10.6335 14.0001 8.74809C13.3429 6.96908 14.2648 4.79717 15.9898 4.06098C17.5903 3.37754 19.3339 4.09898 19.9236 5.71305C20.0722 6.12025 20.1287 6.55964 20.1884 6.81755L20.1889 6.81711ZM18.8148 6.92662C18.7766 6.75185 18.7424 6.4689 18.6521 6.20429C18.3409 5.2902 17.3793 4.89908 16.5016 5.31344C15.4315 5.81809 14.8623 7.25515 15.2998 8.34714C15.6872 9.31398 16.6419 9.67291 17.5634 9.16424C18.3978 8.70339 18.7401 7.94217 18.8153 6.92662H18.8148Z" fill="#080808"/>
</g>
</g>
<defs>
<clipPath id="clip0_170_1167">
<rect width="24" height="24" fill="white" transform="translate(0.5)"/>
</clipPath>
<clipPath id="clip1_170_1167">
<rect width="23.3333" height="20" fill="white" transform="translate(0.833252 2)"/>
</clipPath>
</defs>
</svg>
