<svg width="25" height="24" viewBox="0 0 25 24" fill="none" xmlns="http://www.w3.org/2000/svg">
<g clip-path="url(#clip0_160_1579)">
<path d="M0.833252 9.01503C0.906169 8.74326 0.954476 8.46211 1.05519 8.20062C1.69139 6.54766 3.53117 5.92903 5.07563 6.83954C6.67069 7.78 7.2882 9.89515 6.4255 11.4632C5.68358 12.8117 3.98462 13.2641 2.64158 12.4729C1.63397 11.8798 1.06248 11.0032 0.873812 9.87459C0.867887 9.84017 0.84738 9.80799 0.833252 9.77491V9.01503Z" fill="#080808"/>
<path d="M24.1669 12.7698C24.0028 13.2288 23.9035 13.7236 23.6624 14.1393C23.0517 15.1929 22.1189 15.8276 20.8588 15.8987C19.4916 15.976 18.401 15.1513 18.0843 13.8416C17.5885 11.7909 19.3722 9.60598 21.5105 9.64442C22.8348 9.66811 23.9181 10.5983 24.1213 11.8852C24.1304 11.9424 24.151 11.9983 24.166 12.0546L24.1669 12.7698Z" fill="#080808"/>
<path d="M11.681 21.1253C10.6278 21.1136 9.67258 21.3537 8.74244 21.7247C6.67662 22.5489 4.40253 21.4145 3.8748 19.2922C3.66152 18.4353 3.72623 17.5793 4.19836 16.8279C5.16998 15.2831 6.10559 13.7035 7.2235 12.2633C8.58977 10.5039 10.5043 9.85045 12.7392 10.2478C14.3301 10.5308 15.556 11.3872 16.4379 12.7058C17.2869 13.9753 18.1223 15.2536 18.9458 16.5396C20.2979 18.6521 19.1864 21.3519 16.7428 21.903C16.0469 22.0599 15.3523 22.0326 14.6856 21.768C13.7067 21.3796 12.7059 21.1029 11.681 21.1253Z" fill="#080808"/>
<path d="M13.3603 5.89855C13.3193 7.03792 12.9273 8.08745 11.9803 8.88487C10.712 9.95273 8.99485 9.90803 7.76438 8.79011C6.15703 7.3298 6.08092 4.56608 7.60533 3.02129C9.10058 1.50601 11.3879 1.70134 12.6097 3.44593C13.1156 4.16826 13.3452 4.97061 13.3603 5.89855Z" fill="#080808"/>
<path d="M20.1889 6.81723C20.1164 8.3352 19.6005 9.44194 18.4475 10.2C16.7536 11.3135 14.6964 10.6336 14.0001 8.74821C13.3429 6.9692 14.2648 4.79729 15.9898 4.0611C17.5903 3.37766 19.3339 4.0991 19.9236 5.71317C20.0722 6.12037 20.1292 6.55932 20.1889 6.81723Z" fill="#080808"/>
</g>
<defs>
<clipPath id="clip0_160_1579">
<rect width="24" height="24" fill="white" transform="translate(0.5)"/>
</clipPath>
</defs>
</svg>
