<svg width="25" height="24" viewBox="0 0 25 24" fill="none" xmlns="http://www.w3.org/2000/svg">
<g clip-path="url(#clip0_225_352)">
<path d="M20.5464 10.4147C21.8055 11.9039 21.5437 13.7263 21.5437 15.3333C21.5437 19.7601 15.5744 21 12.4997 21C9.42496 21 3.45569 19.7601 3.45569 15.3333C3.45569 13.7263 3.19389 11.9039 4.45302 10.4147M20.5464 10.4147C20.3254 10.154 20.059 9.90467 19.7349 9.66667L20.5464 10.4147ZM20.5464 10.4147C21.3397 10.8714 21.5426 9.16233 21.5437 8.6036V6.47973C21.5437 4.63807 20.2778 4 19.192 4C18.1074 4 15.936 5.7714 15.2129 5.7714C14.3448 5.7714 14.177 5.59347 12.4997 5.59347C10.8224 5.59347 10.6546 5.7714 9.78649 5.7714C9.06342 5.7714 6.89196 4 5.80736 4C4.72276 4 3.45569 4.63807 3.45569 6.47973V8.60473C3.45796 9.16233 3.65969 10.8714 4.45302 10.4147M4.45302 10.4147C4.67402 10.154 4.94036 9.90467 5.26449 9.66667L4.45302 10.4147Z" fill="#080808"/>
<path d="M20.5464 10.4147C21.8055 11.9039 21.5437 13.7263 21.5437 15.3333C21.5437 19.7601 15.5744 21 12.4997 21C9.42496 21 3.45569 19.7601 3.45569 15.3333C3.45569 13.7263 3.19389 11.9039 4.45302 10.4147M20.5464 10.4147C20.3254 10.154 20.059 9.90467 19.7349 9.66667M20.5464 10.4147C21.3397 10.8714 21.5426 9.16233 21.5437 8.6036V6.47973C21.5437 4.63807 20.2778 4 19.192 4C18.1074 4 15.936 5.7714 15.2129 5.7714C14.3448 5.7714 14.177 5.59347 12.4997 5.59347C10.8224 5.59347 10.6546 5.7714 9.78649 5.7714C9.06342 5.7714 6.89196 4 5.80736 4C4.72276 4 3.45569 4.63807 3.45569 6.47973V8.60473C3.45796 9.16233 3.65969 10.8714 4.45302 10.4147M4.45302 10.4147C4.67402 10.154 4.94036 9.90467 5.26449 9.66667" stroke="#080808" stroke-width="1.5" stroke-linecap="round"/>
<path d="M13.4359 16.4667C13.4359 16.6627 13.0267 16.8214 12.5213 16.8214C12.0169 16.8214 11.6078 16.6627 11.6078 16.4667C11.6078 16.2706 12.0169 16.1131 12.5213 16.1131C13.0256 16.1131 13.4359 16.2717 13.4359 16.4667ZM16.4664 13.7399C16.4664 14.2283 16.2205 14.625 15.9179 14.625C15.6153 14.625 15.3693 14.2283 15.3693 13.7399C15.3693 13.2514 15.6153 12.8547 15.9179 12.8547C16.2205 12.8547 16.4664 13.2525 16.4664 13.7399ZM9.6664 13.7399C9.6664 14.2283 9.42047 14.625 9.11787 14.625C8.81527 14.625 8.56934 14.2283 8.56934 13.7399C8.56934 13.2514 8.81527 12.8547 9.11787 12.8547C9.42047 12.8547 9.6664 13.2525 9.6664 13.7399Z" stroke="white" stroke-width="1.5"/>
<path d="M23.8332 15.8649C23.2858 15.5101 20.9092 14.625 19.9946 14.625M22.0051 18.6982C21.4566 18.3435 20.177 17.4583 19.2624 17.4583M1.1665 15.8649C1.71504 15.5101 4.0905 14.625 5.0051 14.625M2.99457 18.6982C3.5431 18.3435 4.82264 17.4583 5.73724 17.4583" stroke="#080808" stroke-width="1.5" stroke-linecap="round"/>
</g>
<defs>
<clipPath id="clip0_225_352">
<rect width="24" height="24" fill="white" transform="translate(0.5)"/>
</clipPath>
</defs>
</svg>
