<svg width="64" height="64" viewBox="0 0 64 64" fill="none" xmlns="http://www.w3.org/2000/svg">
<rect x="1" y="1" width="62" height="62" rx="31" stroke="#5E5E5E" stroke-width="2" stroke-dasharray="8 8"/>
<mask id="mask0_302_906" style="mask-type:alpha" maskUnits="userSpaceOnUse" x="20" y="20" width="24" height="24">
<rect x="20" y="20" width="24" height="24" fill="#D9D9D9"/>
</mask>
<g mask="url(#mask0_302_906)">
<path d="M31 33H26C25.7167 33 25.4792 32.9042 25.2875 32.7125C25.0958 32.5208 25 32.2833 25 32C25 31.7167 25.0958 31.4792 25.2875 31.2875C25.4792 31.0958 25.7167 31 26 31H31V26C31 25.7167 31.0958 25.4792 31.2875 25.2875C31.4792 25.0958 31.7167 25 32 25C32.2833 25 32.5208 25.0958 32.7125 25.2875C32.9042 25.4792 33 25.7167 33 26V31H38C38.2833 31 38.5208 31.0958 38.7125 31.2875C38.9042 31.4792 39 31.7167 39 32C39 32.2833 38.9042 32.5208 38.7125 32.7125C38.5208 32.9042 38.2833 33 38 33H33V38C33 38.2833 32.9042 38.5208 32.7125 38.7125C32.5208 38.9042 32.2833 39 32 39C31.7167 39 31.4792 38.9042 31.2875 38.7125C31.0958 38.5208 31 38.2833 31 38V33Z" fill="#5E5E5E"/>
</g>
</svg>
