<svg width="404" height="31" viewBox="0 0 404 31" fill="none" xmlns="http://www.w3.org/2000/svg">
<path d="M402.761 18.9339V20.184H404V28.9344H402.761V30.1844H397.804V28.9344H396.564V20.184H397.804V18.9339H402.761ZM400.282 27.6843H399.043V28.9344H401.522V23.9341H400.282V21.434H401.522V20.184H399.043V25.1842H400.282V27.6843Z" fill="white" fill-opacity="0.14"/>
<path d="M392.848 18.9339V20.184H394.087V28.9344H392.848V30.1844H387.891V28.9344H386.651V20.184H387.891V18.9339H392.848ZM390.369 27.6843H389.13V28.9344H391.608V23.9341H390.369V21.434H391.608V20.184H389.13V25.1842H390.369V27.6843Z" fill="white" fill-opacity="0.14"/>
<path d="M382.933 18.9339V20.184H384.172V28.9344H382.933V30.1844H377.976V28.9344H376.736V20.184H377.976V18.9339H382.933ZM380.454 27.6843H379.215V28.9344H381.693V23.9341H380.454V21.434H381.693V20.184H379.215V25.1842H380.454V27.6843Z" fill="white" fill-opacity="0.14"/>
<path d="M373.019 18.9339V20.184H374.258V28.9344H373.019V30.1844H368.062V28.9344H366.823V20.184H368.062V18.9339H373.019ZM370.541 27.6843H369.301V28.9344H371.78V23.9341H370.541V21.434H371.78V20.184H369.301V25.1842H370.541V27.6843Z" fill="white" fill-opacity="0.14"/>
<path d="M363.105 18.9339V20.184H364.344V28.9344H363.105V30.1844H358.147V28.9344H356.908V20.184H358.147V18.9339H363.105ZM360.626 27.6843H359.387V28.9344H361.865V23.9341H360.626V21.434H361.865V20.184H359.387V25.1842H360.626V27.6843Z" fill="white" fill-opacity="0.14"/>
<path d="M353.191 18.9339V20.184H354.43V28.9344H353.191V30.1844H348.234V28.9344H346.995V20.184H348.234V18.9339H353.191ZM350.712 27.6843H349.473V28.9344H351.952V23.9341H350.712V21.434H351.952V20.184H349.473V25.1842H350.712V27.6843Z" fill="white" fill-opacity="0.14"/>
<path d="M343.276 18.9339V20.184H344.515V28.9344H343.276V30.1844H338.319V28.9344H337.08V20.184H338.319V18.9339H343.276ZM340.797 27.6843H339.558V28.9344H342.037V23.9341H340.797V21.434H342.037V20.184H339.558V25.1842H340.797V27.6843Z" fill="white" fill-opacity="0.14"/>
<path d="M333.362 18.9339V20.184H334.602V28.9344H333.362V30.1844H328.405V28.9344H327.166V20.184H328.405V18.9339H333.362ZM330.884 27.6843H329.645V28.9344H332.123V23.9341H330.884V21.434H332.123V20.184H329.645V25.1842H330.884V27.6843Z" fill="white" fill-opacity="0.14"/>
<path d="M323.449 18.9339V20.184H324.688V28.9344H323.449V30.1844H318.492V28.9344H317.252V20.184H318.492V18.9339H323.449ZM320.97 27.6843H319.731V28.9344H322.21V23.9341H320.97V21.434H322.21V20.184H319.731V25.1842H320.97V27.6843Z" fill="white" fill-opacity="0.14"/>
<path d="M313.534 18.9339V20.184H314.773V28.9344H313.534V30.1844H308.577V28.9344H307.338V20.184H308.577V18.9339H313.534ZM311.056 27.6843H309.816V28.9344H312.295V23.9341H311.056V21.434H312.295V20.184H309.816V25.1842H311.056V27.6843Z" fill="white" fill-opacity="0.14"/>
<path d="M303.62 18.9339V20.184H304.859V28.9344H303.62V30.1844H298.663V28.9344H297.424V20.184H298.663V18.9339H303.62ZM301.142 27.6843H299.902V28.9344H302.381V23.9341H301.142V21.434H302.381V20.184H299.902V25.1842H301.142V27.6843Z" fill="white" fill-opacity="0.14"/>
<path d="M293.706 18.9339V20.184H294.945V28.9344H293.706V30.1844H288.749V28.9344H287.51V20.184H288.749V18.9339H293.706ZM291.228 27.6843H289.988V28.9344H292.467V23.9341H291.228V21.434H292.467V20.184H289.988V25.1842H291.228V27.6843Z" fill="white" fill-opacity="0.14"/>
<path d="M283.792 18.9339V20.184H285.031V28.9344H283.792V30.1844H278.835V28.9344H277.596V20.184H278.835V18.9339H283.792ZM281.314 27.6843H280.074V28.9344H282.553V23.9341H281.314V21.434H282.553V20.184H280.074V25.1842H281.314V27.6843Z" fill="white" fill-opacity="0.14"/>
<path d="M273.877 18.9339V20.184H275.117V28.9344H273.877V30.1844H268.92V28.9344H267.681V20.184H268.92V18.9339H273.877ZM271.399 27.6843H270.16V28.9344H272.638V23.9341H271.399V21.434H272.638V20.184H270.16V25.1842H271.399V27.6843Z" fill="white" fill-opacity="0.14"/>
<path d="M263.963 18.9339V20.184H265.203V28.9344H263.963V30.1844H259.006V28.9344H257.767V20.184H259.006V18.9339H263.963ZM261.485 27.6843H260.246V28.9344H262.724V23.9341H261.485V21.434H262.724V20.184H260.246V25.1842H261.485V27.6843Z" fill="white" fill-opacity="0.14"/>
<path d="M254.049 18.9339V20.184H255.289V28.9344H254.049V30.1844H249.092V28.9344H247.853V20.184H249.092V18.9339H254.049ZM251.571 27.6843H250.332V28.9344H252.81V23.9341H251.571V21.434H252.81V20.184H250.332V25.1842H251.571V27.6843Z" fill="white" fill-opacity="0.14"/>
<path d="M244.135 18.9339V20.184H245.374V28.9344H244.135V30.1844H239.178V28.9344H237.938V20.184H239.178V18.9339H244.135ZM241.656 27.6843H240.417V28.9344H242.896V23.9341H241.656V21.434H242.896V20.184H240.417V25.1842H241.656V27.6843Z" fill="white" fill-opacity="0.14"/>
<path d="M234.221 18.9339V20.184H235.46V28.9344H234.221V30.1844H229.264V28.9344H228.025V20.184H229.264V18.9339H234.221ZM231.743 27.6843H230.503V28.9344H232.982V23.9341H231.743V21.434H232.982V20.184H230.503V25.1842H231.743V27.6843Z" fill="white" fill-opacity="0.14"/>
<path d="M224.307 18.9339V20.184H225.546V28.9344H224.307V30.1844H219.35V28.9344H218.11V20.184H219.35V18.9339H224.307ZM221.828 27.6843H220.589V28.9344H223.067V23.9341H221.828V21.434H223.067V20.184H220.589V25.1842H221.828V27.6843Z" fill="white" fill-opacity="0.14"/>
<path d="M214.393 18.9339V20.184H215.632V28.9344H214.393V30.1844H209.436V28.9344H208.196V20.184H209.436V18.9339H214.393ZM211.914 27.6843H210.675V28.9344H213.153V23.9341H211.914V21.434H213.153V20.184H210.675V25.1842H211.914V27.6843Z" fill="white" fill-opacity="0.14"/>
<path d="M204.479 18.9339V20.184H205.718V28.9344H204.479V30.1844H199.522V28.9344H198.283V20.184H199.522V18.9339H204.479ZM202.001 27.6843H200.761V28.9344H203.24V23.9341H202.001V21.434H203.24V20.184H200.761V25.1842H202.001V27.6843Z" fill="white" fill-opacity="0.14"/>
<path d="M194.564 18.9339V20.184H195.803V28.9344H194.564V30.1844H189.606V28.9344H188.367V20.184H189.606V18.9339H194.564ZM192.085 27.6843H190.846V28.9344H193.324V23.9341H192.085V21.434H193.324V20.184H190.846V25.1842H192.085V27.6843Z" fill="white" fill-opacity="0.14"/>
<path d="M184.651 18.9339V20.184H185.89V28.9344H184.651V30.1844H179.694V28.9344H178.455V20.184H179.694V18.9339H184.651ZM182.172 27.6843H180.933V28.9344H183.412V23.9341H182.172V21.434H183.412V20.184H180.933V25.1842H182.172V27.6843Z" fill="white" fill-opacity="0.14"/>
<path d="M174.735 18.9339V20.184H175.975V28.9344H174.735V30.1844H169.778V28.9344H168.539V20.184H169.778V18.9339H174.735ZM172.257 27.6843H171.018V28.9344H173.496V23.9341H172.257V21.434H173.496V20.184H171.018V25.1842H172.257V27.6843Z" fill="white" fill-opacity="0.14"/>
<path d="M164.823 18.9339V20.184H166.062V28.9344H164.823V30.1844H159.866V28.9344H158.626V20.184H159.866V18.9339H164.823ZM162.344 27.6843H161.105V28.9344H163.584V23.9341H162.344V21.434H163.584V20.184H161.105V25.1842H162.344V27.6843Z" fill="white" fill-opacity="0.14"/>
<path d="M154.908 18.9339V20.184H156.147V28.9344H154.908V30.1844H149.951V28.9344H148.711V20.184H149.951V18.9339H154.908ZM152.429 27.6843H151.19V28.9344H153.668V23.9341H152.429V21.434H153.668V20.184H151.19V25.1842H152.429V27.6843Z" fill="white" fill-opacity="0.14"/>
<path d="M144.994 18.9339V20.184H146.233V28.9344H144.994V30.1844H140.037V28.9344H138.798V20.184H140.037V18.9339H144.994ZM142.516 27.6843H141.276V28.9344H143.755V23.9341H142.516V21.434H143.755V20.184H141.276V25.1842H142.516V27.6843Z" fill="white" fill-opacity="0.14"/>
<path d="M135.08 18.9339V20.184H136.319V28.9344H135.08V30.1844H130.123V28.9344H128.883V20.184H130.123V18.9339H135.08ZM132.601 27.6843H131.362V28.9344H133.84V23.9341H132.601V21.434H133.84V20.184H131.362V25.1842H132.601V27.6843Z" fill="white" fill-opacity="0.14"/>
<path d="M125.166 18.9339V20.184H126.405V23.9341H125.166V26.4343H126.405V30.1844H123.927V26.4343H122.688V25.1842H121.448V30.1844H118.97V18.9339H125.166ZM123.927 20.184H121.448V23.9341H123.927V20.184Z" fill="white" fill-opacity="0.14"/>
<path d="M115.252 18.9339V20.184H116.491V28.9344H115.252V30.1844H110.294V28.9344H109.055V20.184H110.294V18.9339H115.252ZM114.012 20.184H111.534V28.9344H114.012V20.184Z" fill="white" fill-opacity="0.14"/>
<path d="M101.62 18.9339V23.9341H102.859V21.434H104.099V18.9339H106.577V21.434H105.338V23.9341H104.099V25.1842H105.338V27.6843H106.577V30.1844H104.099V27.6843H102.859V25.1842H101.62V30.1844H99.1416V18.9339H101.62Z" fill="white" fill-opacity="0.14"/>
<path d="M95.4229 18.9339V20.184H96.6622V28.9344H95.4229V30.1844H90.4658V28.9344H89.2266V20.184H90.4658V18.9339H95.4229ZM92.9444 27.6843H91.7051V28.9344H94.1836V23.9341H92.9444V21.434H94.1836V20.184H91.7051V25.1842H92.9444V27.6843Z" fill="white" fill-opacity="0.14"/>
<path d="M83.0308 27.6843V26.4343H80.5523V25.1842H79.313V20.184H80.5523V18.9339H85.5093V20.184H86.7486V26.4343H85.5093V27.6843H84.2701V30.1844H80.5523V28.9344H81.7915V27.6843H83.0308ZM84.2701 20.184H81.7915V25.1842H84.2701V20.184Z" fill="white" fill-opacity="0.14"/>
<path d="M69.3984 23.9341V20.184H70.6377V18.9339H75.5948V20.184H76.834V23.9341H75.5948V25.1842H76.834V28.9344H75.5948V30.1844H70.6377V28.9344H69.3984V25.1842H70.6377V23.9341H69.3984ZM71.877 22.6841H73.1162V23.9341H74.3555V20.184H71.877V22.6841ZM73.1162 25.1842H71.877V28.9344H74.3555V26.4343H73.1162V25.1842Z" fill="white" fill-opacity="0.14"/>
<path d="M61.9634 26.4343V23.9341H63.2027V21.434H64.4419V20.184H59.4849V18.9339H66.9205V21.434H65.6812V23.9341H64.4419V26.4343H63.2027V30.1844H60.7241V26.4343H61.9634Z" fill="white" fill-opacity="0.14"/>
<path d="M52.0488 21.434V18.9339H55.7666V20.184H54.5274V21.434H53.2881V22.6841H55.7666V23.9341H57.0059V28.9344H55.7666V30.1844H50.8096V28.9344H49.5703V22.6841H50.8096V21.434H52.0488ZM54.5274 23.9341H52.0488V28.9344H54.5274V23.9341Z" fill="white" fill-opacity="0.14"/>
<path d="M44.6138 27.6843V25.1842H39.6567V18.9339H47.0923V20.184H42.1353V23.9341H45.8531V25.1842H47.0923V27.6843H45.8531V28.9344H44.6138V30.1844H39.6567V28.9344H43.3745V27.6843H44.6138Z" fill="white" fill-opacity="0.14"/>
<path d="M33.4595 18.9339V25.1842H32.2202V26.4343H34.6988V21.434H37.1773V26.4343H38.4166V27.6843H37.1773V30.1844H34.6988V27.6843H29.7417V25.1842H30.981V18.9339H33.4595Z" fill="white" fill-opacity="0.14"/>
<path d="M24.7852 28.9344V25.1842H22.3067V23.9341H24.7852V20.184H22.3067V22.6841H19.8281V20.184H21.0674V18.9339H26.0245V20.184H27.2637V23.9341H26.0245V25.1842H27.2637V28.9344H26.0245V30.1844H21.0674V28.9344H19.8281V26.4343H22.3067V28.9344H24.7852Z" fill="white" fill-opacity="0.14"/>
<path d="M14.8706 23.9341V20.184H12.3921V22.6841H9.91357V20.184H11.1528V18.9339H16.1099V20.184H17.3492V23.9341H16.1099V25.1842H14.8706V26.4343H13.6314V27.6843H12.3921V28.9344H17.3492V30.1844H9.91357V27.6843H11.1528V26.4343H12.3921V25.1842H13.6314V23.9341H14.8706Z" fill="white" fill-opacity="0.14"/>
<path d="M6.19633 18.9339V30.1844H3.7178V22.6841H0V21.434H2.47853V20.184H3.7178V18.9339H6.19633Z" fill="white" fill-opacity="0.14"/>
<path d="M396.564 6.99478V5.74472H397.804V4.49467H399.043V3.24462H400.282V1.99456H401.522V0.744507H404V1.99456H402.761V3.24462H401.522V4.49467H400.282V5.74472H399.043V6.99478H400.282V8.24483H401.522V9.49489H402.761V10.7449H404V11.995H401.522V10.7449H400.282V9.49489H399.043V8.24483H397.804V6.99478H396.564Z" fill="white" fill-opacity="0.14"/>
<path d="M386.651 6.99478V5.74472H387.891V4.49467H389.13V3.24462H390.369V1.99456H391.608V0.744507H394.087V1.99456H392.848V3.24462H391.608V4.49467H390.369V5.74472H389.13V6.99478H390.369V8.24483H391.608V9.49489H392.848V10.7449H394.087V11.995H391.608V10.7449H390.369V9.49489H389.13V8.24483H387.891V6.99478H386.651Z" fill="white" fill-opacity="0.14"/>
<path d="M376.736 6.99478V5.74472H377.976V4.49467H379.215V3.24462H380.454V1.99456H381.693V0.744507H384.172V1.99456H382.933V3.24462H381.693V4.49467H380.454V5.74472H379.215V6.99478H380.454V8.24483H381.693V9.49489H382.933V10.7449H384.172V11.995H381.693V10.7449H380.454V9.49489H379.215V8.24483H377.976V6.99478H376.736Z" fill="white" fill-opacity="0.14"/>
<path d="M366.823 6.99478V5.74472H368.062V4.49467H369.301V3.24462H370.541V1.99456H371.78V0.744507H374.258V1.99456H373.019V3.24462H371.78V4.49467H370.541V5.74472H369.301V6.99478H370.541V8.24483H371.78V9.49489H373.019V10.7449H374.258V11.995H371.78V10.7449H370.541V9.49489H369.301V8.24483H368.062V6.99478H366.823Z" fill="white" fill-opacity="0.14"/>
<path d="M356.908 6.99478V5.74472H358.147V4.49467H359.387V3.24462H360.626V1.99456H361.865V0.744507H364.344V1.99456H363.105V3.24462H361.865V4.49467H360.626V5.74472H359.387V6.99478H360.626V8.24483H361.865V9.49489H363.105V10.7449H364.344V11.995H361.865V10.7449H360.626V9.49489H359.387V8.24483H358.147V6.99478H356.908Z" fill="white" fill-opacity="0.14"/>
<path d="M346.995 6.99478V5.74472H348.234V4.49467H349.473V3.24462H350.712V1.99456H351.952V0.744507H354.43V1.99456H353.191V3.24462H351.952V4.49467H350.712V5.74472H349.473V6.99478H350.712V8.24483H351.952V9.49489H353.191V10.7449H354.43V11.995H351.952V10.7449H350.712V9.49489H349.473V8.24483H348.234V6.99478H346.995Z" fill="white" fill-opacity="0.14"/>
<path d="M337.08 6.99478V5.74472H338.319V4.49467H339.558V3.24462H340.797V1.99456H342.037V0.744507H344.515V1.99456H343.276V3.24462H342.037V4.49467H340.797V5.74472H339.558V6.99478H340.797V8.24483H342.037V9.49489H343.276V10.7449H344.515V11.995H342.037V10.7449H340.797V9.49489H339.558V8.24483H338.319V6.99478H337.08Z" fill="white" fill-opacity="0.14"/>
<path d="M327.166 6.99478V5.74472H328.405V4.49467H329.645V3.24462H330.884V1.99456H332.123V0.744507H334.602V1.99456H333.362V3.24462H332.123V4.49467H330.884V5.74472H329.645V6.99478H330.884V8.24483H332.123V9.49489H333.362V10.7449H334.602V11.995H332.123V10.7449H330.884V9.49489H329.645V8.24483H328.405V6.99478H327.166Z" fill="white" fill-opacity="0.14"/>
<path d="M317.252 6.99478V5.74472H318.492V4.49467H319.731V3.24462H320.97V1.99456H322.21V0.744507H324.688V1.99456H323.449V3.24462H322.21V4.49467H320.97V5.74472H319.731V6.99478H320.97V8.24483H322.21V9.49489H323.449V10.7449H324.688V11.995H322.21V10.7449H320.97V9.49489H319.731V8.24483H318.492V6.99478H317.252Z" fill="white" fill-opacity="0.14"/>
<path d="M307.338 6.99478V5.74472H308.577V4.49467H309.816V3.24462H311.056V1.99456H312.295V0.744507H314.773V1.99456H313.534V3.24462H312.295V4.49467H311.056V5.74472H309.816V6.99478H311.056V8.24483H312.295V9.49489H313.534V10.7449H314.773V11.995H312.295V10.7449H311.056V9.49489H309.816V8.24483H308.577V6.99478H307.338Z" fill="white" fill-opacity="0.14"/>
<path d="M297.424 6.99478V5.74472H298.663V4.49467H299.902V3.24462H301.142V1.99456H302.381V0.744507H304.859V1.99456H303.62V3.24462H302.381V4.49467H301.142V5.74472H299.902V6.99478H301.142V8.24483H302.381V9.49489H303.62V10.7449H304.859V11.995H302.381V10.7449H301.142V9.49489H299.902V8.24483H298.663V6.99478H297.424Z" fill="white" fill-opacity="0.14"/>
<path d="M287.51 6.99478V5.74472H288.749V4.49467H289.988V3.24462H291.228V1.99456H292.467V0.744507H294.945V1.99456H293.706V3.24462H292.467V4.49467H291.228V5.74472H289.988V6.99478H291.228V8.24483H292.467V9.49489H293.706V10.7449H294.945V11.995H292.467V10.7449H291.228V9.49489H289.988V8.24483H288.749V6.99478H287.51Z" fill="white" fill-opacity="0.14"/>
<path d="M277.596 6.99478V5.74472H278.835V4.49467H280.074V3.24462H281.314V1.99456H282.553V0.744507H285.031V1.99456H283.792V3.24462H282.553V4.49467H281.314V5.74472H280.074V6.99478H281.314V8.24483H282.553V9.49489H283.792V10.7449H285.031V11.995H282.553V10.7449H281.314V9.49489H280.074V8.24483H278.835V6.99478H277.596Z" fill="white" fill-opacity="0.14"/>
<path d="M267.681 6.99478V5.74472H268.92V4.49467H270.16V3.24462H271.399V1.99456H272.638V0.744507H275.117V1.99456H273.877V3.24462H272.638V4.49467H271.399V5.74472H270.16V6.99478H271.399V8.24483H272.638V9.49489H273.877V10.7449H275.117V11.995H272.638V10.7449H271.399V9.49489H270.16V8.24483H268.92V6.99478H267.681Z" fill="white" fill-opacity="0.14"/>
<path d="M257.767 6.99478V5.74472H259.006V4.49467H260.246V3.24462H261.485V1.99456H262.724V0.744507H265.203V1.99456H263.963V3.24462H262.724V4.49467H261.485V5.74472H260.246V6.99478H261.485V8.24483H262.724V9.49489H263.963V10.7449H265.203V11.995H262.724V10.7449H261.485V9.49489H260.246V8.24483H259.006V6.99478H257.767Z" fill="white" fill-opacity="0.14"/>
<path d="M247.853 6.99478V5.74472H249.092V4.49467H250.332V3.24462H251.571V1.99456H252.81V0.744507H255.289V1.99456H254.049V3.24462H252.81V4.49467H251.571V5.74472H250.332V6.99478H251.571V8.24483H252.81V9.49489H254.049V10.7449H255.289V11.995H252.81V10.7449H251.571V9.49489H250.332V8.24483H249.092V6.99478H247.853Z" fill="white" fill-opacity="0.14"/>
<path d="M237.938 6.99478V5.74472H239.178V4.49467H240.417V3.24462H241.656V1.99456H242.896V0.744507H245.374V1.99456H244.135V3.24462H242.896V4.49467H241.656V5.74472H240.417V6.99478H241.656V8.24483H242.896V9.49489H244.135V10.7449H245.374V11.995H242.896V10.7449H241.656V9.49489H240.417V8.24483H239.178V6.99478H237.938Z" fill="white" fill-opacity="0.14"/>
<path d="M228.025 6.99478V5.74472H229.264V4.49467H230.503V3.24462H231.743V1.99456H232.982V0.744507H235.46V1.99456H234.221V3.24462H232.982V4.49467H231.743V5.74472H230.503V6.99478H231.743V8.24483H232.982V9.49489H234.221V10.7449H235.46V11.995H232.982V10.7449H231.743V9.49489H230.503V8.24483H229.264V6.99478H228.025Z" fill="white" fill-opacity="0.14"/>
<path d="M218.11 6.99478V5.74472H219.35V4.49467H220.589V3.24462H221.828V1.99456H223.067V0.744507H225.546V1.99456H224.307V3.24462H223.067V4.49467H221.828V5.74472H220.589V6.99478H221.828V8.24483H223.067V9.49489H224.307V10.7449H225.546V11.995H223.067V10.7449H221.828V9.49489H220.589V8.24483H219.35V6.99478H218.11Z" fill="white" fill-opacity="0.14"/>
<path d="M208.196 6.99478V5.74472H209.436V4.49467H210.675V3.24462H211.914V1.99456H213.153V0.744507H215.632V1.99456H214.393V3.24462H213.153V4.49467H211.914V5.74472H210.675V6.99478H211.914V8.24483H213.153V9.49489H214.393V10.7449H215.632V11.995H213.153V10.7449H211.914V9.49489H210.675V8.24483H209.436V6.99478H208.196Z" fill="white" fill-opacity="0.14"/>
<path d="M198.283 6.99478V5.74472H199.522V4.49467H200.761V3.24462H202.001V1.99456H203.24V0.744507H205.718V1.99456H204.479V3.24462H203.24V4.49467H202.001V5.74472H200.761V6.99478H202.001V8.24483H203.24V9.49489H204.479V10.7449H205.718V11.995H203.24V10.7449H202.001V9.49489H200.761V8.24483H199.522V6.99478H198.283Z" fill="white" fill-opacity="0.14"/>
<path d="M188.367 6.99478V5.74472H189.606V4.49467H190.846V3.24462H192.085V1.99456H193.324V0.744507H195.803V1.99456H194.564V3.24462H193.324V4.49467H192.085V5.74472H190.846V6.99478H192.085V8.24483H193.324V9.49489H194.564V10.7449H195.803V11.995H193.324V10.7449H192.085V9.49489H190.846V8.24483H189.606V6.99478H188.367Z" fill="white" fill-opacity="0.14"/>
<path d="M180.933 6.99478V10.7449H185.89V11.995H178.455V0.744507H185.89V1.99456H180.933V5.74472H184.651V6.99478H180.933Z" fill="white" fill-opacity="0.14"/>
<path d="M171.018 0.744507V10.7449H175.975V11.995H168.539V0.744507H171.018Z" fill="white" fill-opacity="0.14"/>
<path d="M166.062 1.99456V4.49467H163.584V1.99456H161.105V10.7449H163.584V8.24483H162.344V6.99478H166.062V11.995H159.866V10.7449H158.626V1.99456H159.866V0.744507H164.823V1.99456H166.062Z" fill="white" fill-opacity="0.14"/>
<path d="M148.711 11.995V0.744507H151.19V3.24462H152.429V4.49467H153.668V5.74472H154.908V0.744507H157.386V11.995H154.908V8.24483H153.668V6.99478H152.429V5.74472H151.19V11.995H148.711Z" fill="white" fill-opacity="0.14"/>
<path d="M144.994 0.744507V1.99456H146.233V10.7449H144.994V11.995H140.037V10.7449H138.798V1.99456H140.037V0.744507H144.994ZM143.755 1.99456H141.276V10.7449H143.755V1.99456Z" fill="white" fill-opacity="0.14"/>
<path d="M135.08 1.99456V3.24462H136.319V9.49489H135.08V10.7449H133.84V11.995H128.883V0.744507H133.84V1.99456H135.08ZM133.84 3.24462H132.601V1.99456H131.362V10.7449H132.601V9.49489H133.84V3.24462Z" fill="white" fill-opacity="0.14"/>
<path d="M118.97 6.99478V5.74472H120.209V4.49467H121.448V3.24462H122.688V1.99456H123.927V0.744507H126.405V1.99456H125.166V3.24462H123.927V4.49467H122.688V5.74472H121.448V6.99478H122.688V8.24483H123.927V9.49489H125.166V10.7449H126.405V11.995H123.927V10.7449H122.688V9.49489H121.448V8.24483H120.209V6.99478H118.97Z" fill="white" fill-opacity="0.14"/>
<path d="M109.055 6.99478V5.74472H110.294V4.49467H111.534V3.24462H112.773V1.99456H114.012V0.744507H116.491V1.99456H115.252V3.24462H114.012V4.49467H112.773V5.74472H111.534V6.99478H112.773V8.24483H114.012V9.49489H115.252V10.7449H116.491V11.995H114.012V10.7449H112.773V9.49489H111.534V8.24483H110.294V6.99478H109.055Z" fill="white" fill-opacity="0.14"/>
<path d="M105.338 0.744507V1.99456H106.577V5.74472H105.338V8.24483H106.577V11.995H104.099V8.24483H102.859V6.99478H101.62V11.995H99.1416V0.744507H105.338ZM104.099 1.99456H101.62V5.74472H104.099V1.99456Z" fill="white" fill-opacity="0.14"/>
<path d="M95.4229 0.744507V1.99456H96.6622V10.7449H95.4229V11.995H90.4658V10.7449H89.2266V1.99456H90.4658V0.744507H95.4229ZM94.1836 1.99456H91.7051V10.7449H94.1836V1.99456Z" fill="white" fill-opacity="0.14"/>
<path d="M81.7915 0.744507V5.74472H83.0308V3.24462H84.2701V0.744507H86.7486V3.24462H85.5093V5.74472H84.2701V6.99478H85.5093V9.49489H86.7486V11.995H84.2701V9.49489H83.0308V6.99478H81.7915V11.995H79.313V0.744507H81.7915Z" fill="white" fill-opacity="0.14"/>
<path d="M74.3555 1.99456V11.995H71.877V1.99456H69.3984V0.744507H76.834V1.99456H74.3555Z" fill="white" fill-opacity="0.14"/>
<path d="M65.6812 0.744507V1.99456H66.9205V5.74472H65.6812V8.24483H66.9205V11.995H64.4419V8.24483H63.2027V6.99478H61.9634V11.995H59.4849V0.744507H65.6812ZM64.4419 1.99456H61.9634V5.74472H64.4419V1.99456Z" fill="white" fill-opacity="0.14"/>
<path d="M55.7666 0.744507V1.99456H57.0059V10.7449H55.7666V11.995H50.8096V10.7449H49.5703V1.99456H50.8096V0.744507H55.7666ZM54.5274 1.99456H52.0488V10.7449H54.5274V1.99456Z" fill="white" fill-opacity="0.14"/>
<path d="M47.0923 1.99456V5.74472H45.8531V6.99478H42.1353V11.995H39.6567V0.744507H45.8531V1.99456H47.0923ZM44.6138 1.99456H42.1353V5.74472H44.6138V1.99456Z" fill="white" fill-opacity="0.14"/>
<path d="M34.6988 10.7449V8.24483H33.4595V6.99478H32.2202V5.74472H30.981V4.49467H29.7417V1.99456H30.981V0.744507H35.938V1.99456H37.1773V3.24462H34.6988V1.99456H32.2202V4.49467H33.4595V5.74472H34.6988V6.99478H35.938V8.24483H37.1773V10.7449H35.938V11.995H30.981V10.7449H29.7417V9.49489H32.2202V10.7449H34.6988Z" fill="white" fill-opacity="0.14"/>
<path d="M24.7852 1.99456V11.995H22.3067V1.99456H19.8281V0.744507H27.2637V1.99456H24.7852Z" fill="white" fill-opacity="0.14"/>
<path d="M12.3921 6.99478V10.7449H17.3492V11.995H9.91357V0.744507H17.3492V1.99456H12.3921V5.74472H16.1099V6.99478H12.3921Z" fill="white" fill-opacity="0.14"/>
<path d="M7.43559 1.99456V5.74472H6.19633V6.99478H2.47853V11.995H0V0.744507H6.19633V1.99456H7.43559ZM4.95706 1.99456H2.47853V5.74472H4.95706V1.99456Z" fill="white" fill-opacity="0.14"/>
</svg>
