<svg width="326" height="25" viewBox="0 0 326 25" fill="none" xmlns="http://www.w3.org/2000/svg">
<path d="M325 16V17H326V24H325V25H321V24H320V17H321V16H325ZM323 23H322V24H324V20H323V18H324V17H322V21H323V23Z" fill="#545454"/>
<path d="M317 16V17H318V24H317V25H313V24H312V17H313V16H317ZM315 23H314V24H316V20H315V18H316V17H314V21H315V23Z" fill="#545454"/>
<path d="M309 16V17H310V24H309V25H305V24H304V17H305V16H309ZM307 23H306V24H308V20H307V18H308V17H306V21H307V23Z" fill="#545454"/>
<path d="M301 16V17H302V24H301V25H297V24H296V17H297V16H301ZM299 23H298V24H300V20H299V18H300V17H298V21H299V23Z" fill="#545454"/>
<path d="M293 16V17H294V24H293V25H289V24H288V17H289V16H293ZM291 23H290V24H292V20H291V18H292V17H290V21H291V23Z" fill="#545454"/>
<path d="M285 16V17H286V24H285V25H281V24H280V17H281V16H285ZM283 23H282V24H284V20H283V18H284V17H282V21H283V23Z" fill="#545454"/>
<path d="M277 16V17H278V24H277V25H273V24H272V17H273V16H277ZM275 23H274V24H276V20H275V18H276V17H274V21H275V23Z" fill="#545454"/>
<path d="M269 16V17H270V24H269V25H265V24H264V17H265V16H269ZM267 23H266V24H268V20H267V18H268V17H266V21H267V23Z" fill="#545454"/>
<path d="M261 16V17H262V24H261V25H257V24H256V17H257V16H261ZM259 23H258V24H260V20H259V18H260V17H258V21H259V23Z" fill="#545454"/>
<path d="M253 16V17H254V24H253V25H249V24H248V17H249V16H253ZM251 23H250V24H252V20H251V18H252V17H250V21H251V23Z" fill="#545454"/>
<path d="M245 16V17H246V24H245V25H241V24H240V17H241V16H245ZM243 23H242V24H244V20H243V18H244V17H242V21H243V23Z" fill="#545454"/>
<path d="M237 16V17H238V24H237V25H233V24H232V17H233V16H237ZM235 23H234V24H236V20H235V18H236V17H234V21H235V23Z" fill="#545454"/>
<path d="M229 16V17H230V24H229V25H225V24H224V17H225V16H229ZM227 23H226V24H228V20H227V18H228V17H226V21H227V23Z" fill="#545454"/>
<path d="M221 16V17H222V24H221V25H217V24H216V17H217V16H221ZM219 23H218V24H220V20H219V18H220V17H218V21H219V23Z" fill="#545454"/>
<path d="M213 16V17H214V24H213V25H209V24H208V17H209V16H213ZM211 23H210V24H212V20H211V18H212V17H210V21H211V23Z" fill="#545454"/>
<path d="M205 16V17H206V24H205V25H201V24H200V17H201V16H205ZM203 23H202V24H204V20H203V18H204V17H202V21H203V23Z" fill="#545454"/>
<path d="M197 16V17H198V24H197V25H193V24H192V17H193V16H197ZM195 23H194V24H196V20H195V18H196V17H194V21H195V23Z" fill="#545454"/>
<path d="M189 16V17H190V24H189V25H185V24H184V17H185V16H189ZM187 23H186V24H188V20H187V18H188V17H186V21H187V23Z" fill="#545454"/>
<path d="M181 16V17H182V24H181V25H177V24H176V17H177V16H181ZM179 23H178V24H180V20H179V18H180V17H178V21H179V23Z" fill="#545454"/>
<path d="M173 16V17H174V24H173V25H169V24H168V17H169V16H173ZM171 23H170V24H172V20H171V18H172V17H170V21H171V23Z" fill="#545454"/>
<path d="M165 16V17H166V24H165V25H161V24H160V17H161V16H165ZM163 23H162V24H164V20H163V18H164V17H162V21H163V23Z" fill="#545454"/>
<path d="M157 16V17H158V24H157V25H153V24H152V17H153V16H157ZM155 23H154V24H156V20H155V18H156V17H154V21H155V23Z" fill="#545454"/>
<path d="M149 16V17H150V24H149V25H145V24H144V17H145V16H149ZM147 23H146V24H148V20H147V18H148V17H146V21H147V23Z" fill="#545454"/>
<path d="M141 16V17H142V24H141V25H137V24H136V17H137V16H141ZM139 23H138V24H140V20H139V18H140V17H138V21H139V23Z" fill="#545454"/>
<path d="M133 16V17H134V24H133V25H129V24H128V17H129V16H133ZM131 23H130V24H132V20H131V18H132V17H130V21H131V23Z" fill="#545454"/>
<path d="M125 16V17H126V24H125V25H121V24H120V17H121V16H125ZM123 23H122V24H124V20H123V18H124V17H122V21H123V23Z" fill="#545454"/>
<path d="M117 16V17H118V24H117V25H113V24H112V17H113V16H117ZM115 23H114V24H116V20H115V18H116V17H114V21H115V23Z" fill="#545454"/>
<path d="M109 16V17H110V24H109V25H105V24H104V17H105V16H109ZM107 23H106V24H108V20H107V18H108V17H106V21H107V23Z" fill="#545454"/>
<path d="M101 16V17H102V20H101V22H102V25H100V22H99V21H98V25H96V16H101ZM100 17H98V20H100V17Z" fill="#545454"/>
<path d="M93 16V17H94V24H93V25H89V24H88V17H89V16H93ZM92 17H90V24H92V17Z" fill="#545454"/>
<path d="M82 16V20H83V18H84V16H86V18H85V20H84V21H85V23H86V25H84V23H83V21H82V25H80V16H82Z" fill="#545454"/>
<path d="M77 16V17H78V24H77V25H73V24H72V17H73V16H77ZM75 23H74V24H76V20H75V18H76V17H74V21H75V23Z" fill="#545454"/>
<path d="M67 23V22H65V21H64V17H65V16H69V17H70V22H69V23H68V25H65V24H66V23H67ZM68 17H66V21H68V17Z" fill="#545454"/>
<path d="M56 20V17H57V16H61V17H62V20H61V21H62V24H61V25H57V24H56V21H57V20H56ZM58 19H59V20H60V17H58V19ZM59 21H58V24H60V22H59V21Z" fill="#545454"/>
<path d="M50 22V20H51V18H52V17H48V16H54V18H53V20H52V22H51V25H49V22H50Z" fill="#545454"/>
<path d="M42 18V16H45V17H44V18H43V19H45V20H46V24H45V25H41V24H40V19H41V18H42ZM44 20H42V24H44V20Z" fill="#545454"/>
<path d="M36 23V21H32V16H38V17H34V20H37V21H38V23H37V24H36V25H32V24H35V23H36Z" fill="#545454"/>
<path d="M27 16V21H26V22H28V18H30V22H31V23H30V25H28V23H24V21H25V16H27Z" fill="#545454"/>
<path d="M20 24V21H18V20H20V17H18V19H16V17H17V16H21V17H22V20H21V21H22V24H21V25H17V24H16V22H18V24H20Z" fill="#545454"/>
<path d="M12 20V17H10V19H8V17H9V16H13V17H14V20H13V21H12V22H11V23H10V24H14V25H8V23H9V22H10V21H11V20H12Z" fill="#545454"/>
<path d="M5 16V25H3V19H0V18H2V17H3V16H5Z" fill="#545454"/>
<path d="M320 5V4H321V3H322V2H323V1H324V0H326V1H325V2H324V3H323V4H322V5H323V6H324V7H325V8H326V9H324V8H323V7H322V6H321V5H320Z" fill="#545454"/>
<path d="M312 5V4H313V3H314V2H315V1H316V0H318V1H317V2H316V3H315V4H314V5H315V6H316V7H317V8H318V9H316V8H315V7H314V6H313V5H312Z" fill="#545454"/>
<path d="M304 5V4H305V3H306V2H307V1H308V0H310V1H309V2H308V3H307V4H306V5H307V6H308V7H309V8H310V9H308V8H307V7H306V6H305V5H304Z" fill="#545454"/>
<path d="M296 5V4H297V3H298V2H299V1H300V0H302V1H301V2H300V3H299V4H298V5H299V6H300V7H301V8H302V9H300V8H299V7H298V6H297V5H296Z" fill="#545454"/>
<path d="M288 5V4H289V3H290V2H291V1H292V0H294V1H293V2H292V3H291V4H290V5H291V6H292V7H293V8H294V9H292V8H291V7H290V6H289V5H288Z" fill="#545454"/>
<path d="M280 5V4H281V3H282V2H283V1H284V0H286V1H285V2H284V3H283V4H282V5H283V6H284V7H285V8H286V9H284V8H283V7H282V6H281V5H280Z" fill="#545454"/>
<path d="M272 5V4H273V3H274V2H275V1H276V0H278V1H277V2H276V3H275V4H274V5H275V6H276V7H277V8H278V9H276V8H275V7H274V6H273V5H272Z" fill="#545454"/>
<path d="M264 5V4H265V3H266V2H267V1H268V0H270V1H269V2H268V3H267V4H266V5H267V6H268V7H269V8H270V9H268V8H267V7H266V6H265V5H264Z" fill="#545454"/>
<path d="M256 5V4H257V3H258V2H259V1H260V0H262V1H261V2H260V3H259V4H258V5H259V6H260V7H261V8H262V9H260V8H259V7H258V6H257V5H256Z" fill="#545454"/>
<path d="M248 5V4H249V3H250V2H251V1H252V0H254V1H253V2H252V3H251V4H250V5H251V6H252V7H253V8H254V9H252V8H251V7H250V6H249V5H248Z" fill="#545454"/>
<path d="M240 5V4H241V3H242V2H243V1H244V0H246V1H245V2H244V3H243V4H242V5H243V6H244V7H245V8H246V9H244V8H243V7H242V6H241V5H240Z" fill="#545454"/>
<path d="M232 5V4H233V3H234V2H235V1H236V0H238V1H237V2H236V3H235V4H234V5H235V6H236V7H237V8H238V9H236V8H235V7H234V6H233V5H232Z" fill="#545454"/>
<path d="M224 5V4H225V3H226V2H227V1H228V0H230V1H229V2H228V3H227V4H226V5H227V6H228V7H229V8H230V9H228V8H227V7H226V6H225V5H224Z" fill="#545454"/>
<path d="M216 5V4H217V3H218V2H219V1H220V0H222V1H221V2H220V3H219V4H218V5H219V6H220V7H221V8H222V9H220V8H219V7H218V6H217V5H216Z" fill="#545454"/>
<path d="M208 5V4H209V3H210V2H211V1H212V0H214V1H213V2H212V3H211V4H210V5H211V6H212V7H213V8H214V9H212V8H211V7H210V6H209V5H208Z" fill="#545454"/>
<path d="M200 5V4H201V3H202V2H203V1H204V0H206V1H205V2H204V3H203V4H202V5H203V6H204V7H205V8H206V9H204V8H203V7H202V6H201V5H200Z" fill="#545454"/>
<path d="M192 5V4H193V3H194V2H195V1H196V0H198V1H197V2H196V3H195V4H194V5H195V6H196V7H197V8H198V9H196V8H195V7H194V6H193V5H192Z" fill="#545454"/>
<path d="M184 5V4H185V3H186V2H187V1H188V0H190V1H189V2H188V3H187V4H186V5H187V6H188V7H189V8H190V9H188V8H187V7H186V6H185V5H184Z" fill="#545454"/>
<path d="M176 5V4H177V3H178V2H179V1H180V0H182V1H181V2H180V3H179V4H178V5H179V6H180V7H181V8H182V9H180V8H179V7H178V6H177V5H176Z" fill="#545454"/>
<path d="M168 5V4H169V3H170V2H171V1H172V0H174V1H173V2H172V3H171V4H170V5H171V6H172V7H173V8H174V9H172V8H171V7H170V6H169V5H168Z" fill="#545454"/>
<path d="M160 5V4H161V3H162V2H163V1H164V0H166V1H165V2H164V3H163V4H162V5H163V6H164V7H165V8H166V9H164V8H163V7H162V6H161V5H160Z" fill="#545454"/>
<path d="M152 5V4H153V3H154V2H155V1H156V0H158V1H157V2H156V3H155V4H154V5H155V6H156V7H157V8H158V9H156V8H155V7H154V6H153V5H152Z" fill="#545454"/>
<path d="M146 5V8H150V9H144V0H150V1H146V4H149V5H146Z" fill="#545454"/>
<path d="M138 0V8H142V9H136V0H138Z" fill="#545454"/>
<path d="M134 1V3H132V1H130V8H132V6H131V5H134V9H129V8H128V1H129V0H133V1H134Z" fill="#545454"/>
<path d="M120 9V0H122V2H123V3H124V4H125V0H127V9H125V6H124V5H123V4H122V9H120Z" fill="#545454"/>
<path d="M117 0V1H118V8H117V9H113V8H112V1H113V0H117ZM116 1H114V8H116V1Z" fill="#545454"/>
<path d="M109 1V2H110V7H109V8H108V9H104V0H108V1H109ZM108 2H107V1H106V8H107V7H108V2Z" fill="#545454"/>
<path d="M96 5V4H97V3H98V2H99V1H100V0H102V1H101V2H100V3H99V4H98V5H99V6H100V7H101V8H102V9H100V8H99V7H98V6H97V5H96Z" fill="#545454"/>
<path d="M88 5V4H89V3H90V2H91V1H92V0H94V1H93V2H92V3H91V4H90V5H91V6H92V7H93V8H94V9H92V8H91V7H90V6H89V5H88Z" fill="#545454"/>
<path d="M85 0V1H86V4H85V6H86V9H84V6H83V5H82V9H80V0H85ZM84 1H82V4H84V1Z" fill="#545454"/>
<path d="M77 0V1H78V8H77V9H73V8H72V1H73V0H77ZM76 1H74V8H76V1Z" fill="#545454"/>
<path d="M66 0V4H67V2H68V0H70V2H69V4H68V5H69V7H70V9H68V7H67V5H66V9H64V0H66Z" fill="#545454"/>
<path d="M60 1V9H58V1H56V0H62V1H60Z" fill="#545454"/>
<path d="M53 0V1H54V4H53V6H54V9H52V6H51V5H50V9H48V0H53ZM52 1H50V4H52V1Z" fill="#545454"/>
<path d="M45 0V1H46V8H45V9H41V8H40V1H41V0H45ZM44 1H42V8H44V1Z" fill="#545454"/>
<path d="M38 1V4H37V5H34V9H32V0H37V1H38ZM36 1H34V4H36V1Z" fill="#545454"/>
<path d="M28 8V6H27V5H26V4H25V3H24V1H25V0H29V1H30V2H28V1H26V3H27V4H28V5H29V6H30V8H29V9H25V8H24V7H26V8H28Z" fill="#545454"/>
<path d="M20 1V9H18V1H16V0H22V1H20Z" fill="#545454"/>
<path d="M10 5V8H14V9H8V0H14V1H10V4H13V5H10Z" fill="#545454"/>
<path d="M6 1V4H5V5H2V9H0V0H5V1H6ZM4 1H2V4H4V1Z" fill="#545454"/>
</svg>
