<svg width="702" height="54" viewBox="0 0 702 54" fill="none" xmlns="http://www.w3.org/2000/svg">
<path d="M699.438 34.4623V36.6332H701.59V51.8292H699.438V54H690.829V51.8292H688.677V36.6332H690.829V34.4623H699.438ZM695.134 49.6583H692.981V51.8292H697.286V43.1457H695.134V38.804H697.286V36.6332H692.981V45.3166H695.134V49.6583Z" fill="white" fill-opacity="0.14"/>
<path d="M682.222 34.4623V36.6332H684.374V51.8292H682.222V54H673.613V51.8292H671.461V36.6332H673.613V34.4623H682.222ZM677.917 49.6583H675.765V51.8292H680.069V43.1457H677.917V38.804H680.069V36.6332H675.765V45.3166H677.917V49.6583Z" fill="white" fill-opacity="0.14"/>
<path d="M665.003 34.4623V36.6332H667.155V51.8292H665.003V54H656.394V51.8292H654.242V36.6332H656.394V34.4623H665.003ZM660.699 49.6583H658.546V51.8292H662.851V43.1457H660.699V38.804H662.851V36.6332H658.546V45.3166H660.699V49.6583Z" fill="white" fill-opacity="0.14"/>
<path d="M647.788 34.4623V36.6332H649.94V51.8292H647.788V54H639.179V51.8292H637.027V36.6332H639.179V34.4623H647.788ZM643.484 49.6583H641.332V51.8292H645.636V43.1457H643.484V38.804H645.636V36.6332H641.332V45.3166H643.484V49.6583Z" fill="white" fill-opacity="0.14"/>
<path d="M630.569 34.4623V36.6332H632.721V51.8292H630.569V54H621.961V51.8292H619.809V36.6332H621.961V34.4623H630.569ZM626.265 49.6583H624.113V51.8292H628.417V43.1457H626.265V38.804H628.417V36.6332H624.113V45.3166H626.265V49.6583Z" fill="white" fill-opacity="0.14"/>
<path d="M613.353 34.4623V36.6332H615.505V51.8292H613.353V54H604.745V51.8292H602.593V36.6332H604.745V34.4623H613.353ZM609.049 49.6583H606.897V51.8292H611.201V43.1457H609.049V38.804H611.201V36.6332H606.897V45.3166H609.049V49.6583Z" fill="white" fill-opacity="0.14"/>
<path d="M596.135 34.4623V36.6332H598.287V51.8292H596.135V54H587.526V51.8292H585.374V36.6332H587.526V34.4623H596.135ZM591.83 49.6583H589.678V51.8292H593.982V43.1457H591.83V38.804H593.982V36.6332H589.678V45.3166H591.83V49.6583Z" fill="white" fill-opacity="0.14"/>
<path d="M578.92 34.4623V36.6332H581.072V51.8292H578.92V54H570.311V51.8292H568.159V36.6332H570.311V34.4623H578.92ZM574.616 49.6583H572.463V51.8292H576.768V43.1457H574.616V38.804H576.768V36.6332H572.463V45.3166H574.616V49.6583Z" fill="white" fill-opacity="0.14"/>
<path d="M561.703 34.4623V36.6332H563.855V51.8292H561.703V54H553.095V51.8292H550.942V36.6332H553.095V34.4623H561.703ZM557.399 49.6583H555.247V51.8292H559.551V43.1457H557.399V38.804H559.551V36.6332H555.247V45.3166H557.399V49.6583Z" fill="white" fill-opacity="0.14"/>
<path d="M544.485 34.4623V36.6332H546.637V51.8292H544.485V54H535.877V51.8292H533.725V36.6332H535.877V34.4623H544.485ZM540.181 49.6583H538.029V51.8292H542.333V43.1457H540.181V38.804H542.333V36.6332H538.029V45.3166H540.181V49.6583Z" fill="white" fill-opacity="0.14"/>
<path d="M527.269 34.4623V36.6332H529.421V51.8292H527.269V54H518.661V51.8292H516.509V36.6332H518.661V34.4623H527.269ZM522.965 49.6583H520.813V51.8292H525.117V43.1457H522.965V38.804H525.117V36.6332H520.813V45.3166H522.965V49.6583Z" fill="white" fill-opacity="0.14"/>
<path d="M510.051 34.4623V36.6332H512.203V51.8292H510.051V54H501.443V51.8292H499.291V36.6332H501.443V34.4623H510.051ZM505.747 49.6583H503.595V51.8292H507.899V43.1457H505.747V38.804H507.899V36.6332H503.595V45.3166H505.747V49.6583Z" fill="white" fill-opacity="0.14"/>
<path d="M492.835 34.4623V36.6332H494.987V51.8292H492.835V54H484.226V51.8292H482.074V36.6332H484.226V34.4623H492.835ZM488.531 49.6583H486.378V51.8292H490.683V43.1457H488.531V38.804H490.683V36.6332H486.378V45.3166H488.531V49.6583Z" fill="white" fill-opacity="0.14"/>
<path d="M475.618 34.4623V36.6332H477.77V51.8292H475.618V54H467.009V51.8292H464.857V36.6332H467.009V34.4623H475.618ZM471.313 49.6583H469.161V51.8292H473.465V43.1457H471.313V38.804H473.465V36.6332H469.161V45.3166H471.313V49.6583Z" fill="white" fill-opacity="0.14"/>
<path d="M458.401 34.4623V36.6332H460.553V51.8292H458.401V54H449.793V51.8292H447.641V36.6332H449.793V34.4623H458.401ZM454.097 49.6583H451.945V51.8292H456.249V43.1457H454.097V38.804H456.249V36.6332H451.945V45.3166H454.097V49.6583Z" fill="white" fill-opacity="0.14"/>
<path d="M441.184 34.4623V36.6332H443.337V51.8292H441.184V54H432.576V51.8292H430.424V36.6332H432.576V34.4623H441.184ZM436.88 49.6583H434.728V51.8292H439.032V43.1457H436.88V38.804H439.032V36.6332H434.728V45.3166H436.88V49.6583Z" fill="white" fill-opacity="0.14"/>
<path d="M423.967 34.4623V36.6332H426.119V51.8292H423.967V54H415.358V51.8292H413.206V36.6332H415.358V34.4623H423.967ZM419.662 49.6583H417.51V51.8292H421.815V43.1457H419.662V38.804H421.815V36.6332H417.51V45.3166H419.662V49.6583Z" fill="white" fill-opacity="0.14"/>
<path d="M406.75 34.4623V36.6332H408.902V51.8292H406.75V54H398.141V51.8292H395.989V36.6332H398.141V34.4623H406.75ZM402.446 49.6583H400.293V51.8292H404.598V43.1457H402.446V38.804H404.598V36.6332H400.293V45.3166H402.446V49.6583Z" fill="white" fill-opacity="0.14"/>
<path d="M389.533 34.4623V36.6332H391.685V51.8292H389.533V54H380.925V51.8292H378.772V36.6332H380.925V34.4623H389.533ZM385.229 49.6583H383.077V51.8292H387.381V43.1457H385.229V38.804H387.381V36.6332H383.077V45.3166H385.229V49.6583Z" fill="white" fill-opacity="0.14"/>
<path d="M372.316 34.4623V36.6332H374.468V51.8292H372.316V54H363.708V51.8292H361.556V36.6332H363.708V34.4623H372.316ZM368.012 49.6583H365.86V51.8292H370.164V43.1457H368.012V38.804H370.164V36.6332H365.86V45.3166H368.012V49.6583Z" fill="white" fill-opacity="0.14"/>
<path d="M355.1 34.4623V36.6332H357.252V51.8292H355.1V54H346.491V51.8292H344.339V36.6332H346.491V34.4623H355.1ZM350.796 49.6583H348.644V51.8292H352.948V43.1457H350.796V38.804H352.948V36.6332H348.644V45.3166H350.796V49.6583Z" fill="white" fill-opacity="0.14"/>
<path d="M337.881 34.4623V36.6332H340.033V51.8292H337.881V54H329.273V51.8292H327.121V36.6332H329.273V34.4623H337.881ZM333.577 49.6583H331.425V51.8292H335.729V43.1457H333.577V38.804H335.729V36.6332H331.425V45.3166H333.577V49.6583Z" fill="white" fill-opacity="0.14"/>
<path d="M320.665 34.4623V36.6332H322.817V51.8292H320.665V54H312.057V51.8292H309.905V36.6332H312.057V34.4623H320.665ZM316.361 49.6583H314.209V51.8292H318.513V43.1457H316.361V38.804H318.513V36.6332H314.209V45.3166H316.361V49.6583Z" fill="white" fill-opacity="0.14"/>
<path d="M303.447 34.4623V36.6332H305.599V51.8292H303.447V54H294.838V51.8292H292.686V36.6332H294.838V34.4623H303.447ZM299.142 49.6583H296.99V51.8292H301.295V43.1457H299.142V38.804H301.295V36.6332H296.99V45.3166H299.142V49.6583Z" fill="white" fill-opacity="0.14"/>
<path d="M286.232 34.4623V36.6332H288.384V51.8292H286.232V54H277.624V51.8292H275.472V36.6332H277.624V34.4623H286.232ZM281.928 49.6583H279.776V51.8292H284.08V43.1457H281.928V38.804H284.08V36.6332H279.776V45.3166H281.928V49.6583Z" fill="white" fill-opacity="0.14"/>
<path d="M269.014 34.4623V36.6332H271.166V51.8292H269.014V54H260.405V51.8292H258.253V36.6332H260.405V34.4623H269.014ZM264.709 49.6583H262.557V51.8292H266.861V43.1457H264.709V38.804H266.861V36.6332H262.557V45.3166H264.709V49.6583Z" fill="white" fill-opacity="0.14"/>
<path d="M251.798 34.4623V36.6332H253.95V51.8292H251.798V54H243.19V51.8292H241.038V36.6332H243.19V34.4623H251.798ZM247.494 49.6583H245.342V51.8292H249.646V43.1457H247.494V38.804H249.646V36.6332H245.342V45.3166H247.494V49.6583Z" fill="white" fill-opacity="0.14"/>
<path d="M234.58 34.4623V36.6332H236.733V51.8292H234.58V54H225.972V51.8292H223.82V36.6332H225.972V34.4623H234.58ZM230.276 49.6583H228.124V51.8292H232.428V43.1457H230.276V38.804H232.428V36.6332H228.124V45.3166H230.276V49.6583Z" fill="white" fill-opacity="0.14"/>
<path d="M217.364 34.4623V36.6332H219.516V43.1457H217.364V47.4874H219.516V54H215.212V47.4874H213.06V45.3166H210.908V54H206.604V34.4623H217.364ZM215.212 36.6332H210.908V43.1457H215.212V36.6332Z" fill="white" fill-opacity="0.14"/>
<path d="M200.146 34.4623V36.6332H202.298V51.8292H200.146V54H191.538V51.8292H189.386V36.6332H191.538V34.4623H200.146ZM197.994 36.6332H193.69V51.8292H197.994V36.6332Z" fill="white" fill-opacity="0.14"/>
<path d="M176.474 34.4623V43.1457H178.626V38.804H180.778V34.4623H185.082V38.804H182.93V43.1457H180.778V45.3166H182.93V49.6583H185.082V54H180.778V49.6583H178.626V45.3166H176.474V54H172.169V34.4623H176.474Z" fill="white" fill-opacity="0.14"/>
<path d="M165.712 34.4623V36.6332H167.864V51.8292H165.712V54H157.104V51.8292H154.952V36.6332H157.104V34.4623H165.712ZM161.408 49.6583H159.256V51.8292H163.56V43.1457H161.408V38.804H163.56V36.6332H159.256V45.3166H161.408V49.6583Z" fill="white" fill-opacity="0.14"/>
<path d="M144.192 49.6583V47.4874H139.887V45.3166H137.735V36.6332H139.887V34.4623H148.496V36.6332H150.648V47.4874H148.496V49.6583H146.344V54H139.887V51.8292H142.04V49.6583H144.192ZM146.344 36.6332H142.04V45.3166H146.344V36.6332Z" fill="white" fill-opacity="0.14"/>
<path d="M120.518 43.1457V36.6332H122.67V34.4623H131.278V36.6332H133.43V43.1457H131.278V45.3166H133.43V51.8292H131.278V54H122.67V51.8292H120.518V45.3166H122.67V43.1457H120.518ZM124.822 40.9749H126.974V43.1457H129.126V36.6332H124.822V40.9749ZM126.974 45.3166H124.822V51.8292H129.126V47.4874H126.974V45.3166Z" fill="white" fill-opacity="0.14"/>
<path d="M107.607 47.4874V43.1457H109.759V38.804H111.911V36.6332H103.303V34.4623H116.215V38.804H114.063V43.1457H111.911V47.4874H109.759V54H105.455V47.4874H107.607Z" fill="white" fill-opacity="0.14"/>
<path d="M90.3877 38.804V34.4623H96.8441V36.6332H94.692V38.804H92.5398V40.9749H96.8441V43.1457H98.9962V51.8292H96.8441V54H88.2356V51.8292H86.0835V40.9749H88.2356V38.804H90.3877ZM94.692 43.1457H90.3877V51.8292H94.692V43.1457Z" fill="white" fill-opacity="0.14"/>
<path d="M77.4766 49.6583V45.3166H68.8682V34.4623H81.7809V36.6332H73.1724V43.1457H79.6288V45.3166H81.7809V49.6583H79.6288V51.8292H77.4766V54H68.8682V51.8292H75.3245V49.6583H77.4766Z" fill="white" fill-opacity="0.14"/>
<path d="M58.1058 34.4623V45.3166H55.9536V47.4874H60.2579V38.804H64.5621V47.4874H66.7142V49.6583H64.5621V54H60.2579V49.6583H51.6494V45.3166H53.8015V34.4623H58.1058Z" fill="white" fill-opacity="0.14"/>
<path d="M43.043 51.8292V45.3166H38.7388V43.1457H43.043V36.6332H38.7388V40.9749H34.4346V36.6332H36.5867V34.4623H45.1952V36.6332H47.3473V43.1457H45.1952V45.3166H47.3473V51.8292H45.1952V54H36.5867V51.8292H34.4346V47.4874H38.7388V51.8292H43.043Z" fill="white" fill-opacity="0.14"/>
<path d="M25.8238 43.1457V36.6332H21.5196V40.9749H17.2153V36.6332H19.3674V34.4623H27.9759V36.6332H30.128V43.1457H27.9759V45.3166H25.8238V47.4874H23.6717V49.6583H21.5196V51.8292H30.128V54H17.2153V49.6583H19.3674V47.4874H21.5196V45.3166H23.6717V43.1457H25.8238Z" fill="white" fill-opacity="0.14"/>
<path d="M10.7606 34.4623V54H6.45635V40.9749H0V38.804H4.30423V36.6332H6.45635V34.4623H10.7606Z" fill="white" fill-opacity="0.14"/>
<path d="M688.677 10.8543V8.68341H690.829V6.51256H692.981V4.34171H695.134V2.17085H697.286V0H701.59V2.17085H699.438V4.34171H697.286V6.51256H695.134V8.68341H692.981V10.8543H695.134V13.0251H697.286V15.196H699.438V17.3668H701.59V19.5377H697.286V17.3668H695.134V15.196H692.981V13.0251H690.829V10.8543H688.677Z" fill="white" fill-opacity="0.14"/>
<path d="M671.461 10.8543V8.68341H673.613V6.51256H675.765V4.34171H677.917V2.17085H680.069V0H684.374V2.17085H682.222V4.34171H680.069V6.51256H677.917V8.68341H675.765V10.8543H677.917V13.0251H680.069V15.196H682.222V17.3668H684.374V19.5377H680.069V17.3668H677.917V15.196H675.765V13.0251H673.613V10.8543H671.461Z" fill="white" fill-opacity="0.14"/>
<path d="M654.242 10.8543V8.68341H656.394V6.51256H658.546V4.34171H660.699V2.17085H662.851V0H667.155V2.17085H665.003V4.34171H662.851V6.51256H660.699V8.68341H658.546V10.8543H660.699V13.0251H662.851V15.196H665.003V17.3668H667.155V19.5377H662.851V17.3668H660.699V15.196H658.546V13.0251H656.394V10.8543H654.242Z" fill="white" fill-opacity="0.14"/>
<path d="M637.027 10.8543V8.68341H639.179V6.51256H641.332V4.34171H643.484V2.17085H645.636V0H649.94V2.17085H647.788V4.34171H645.636V6.51256H643.484V8.68341H641.332V10.8543H643.484V13.0251H645.636V15.196H647.788V17.3668H649.94V19.5377H645.636V17.3668H643.484V15.196H641.332V13.0251H639.179V10.8543H637.027Z" fill="white" fill-opacity="0.14"/>
<path d="M619.809 10.8543V8.68341H621.961V6.51256H624.113V4.34171H626.265V2.17085H628.417V0H632.721V2.17085H630.569V4.34171H628.417V6.51256H626.265V8.68341H624.113V10.8543H626.265V13.0251H628.417V15.196H630.569V17.3668H632.721V19.5377H628.417V17.3668H626.265V15.196H624.113V13.0251H621.961V10.8543H619.809Z" fill="white" fill-opacity="0.14"/>
<path d="M602.593 10.8543V8.68341H604.745V6.51256H606.897V4.34171H609.049V2.17085H611.201V0H615.505V2.17085H613.353V4.34171H611.201V6.51256H609.049V8.68341H606.897V10.8543H609.049V13.0251H611.201V15.196H613.353V17.3668H615.505V19.5377H611.201V17.3668H609.049V15.196H606.897V13.0251H604.745V10.8543H602.593Z" fill="white" fill-opacity="0.14"/>
<path d="M585.374 10.8543V8.68341H587.526V6.51256H589.678V4.34171H591.83V2.17085H593.982V0H598.287V2.17085H596.135V4.34171H593.982V6.51256H591.83V8.68341H589.678V10.8543H591.83V13.0251H593.982V15.196H596.135V17.3668H598.287V19.5377H593.982V17.3668H591.83V15.196H589.678V13.0251H587.526V10.8543H585.374Z" fill="white" fill-opacity="0.14"/>
<path d="M568.159 10.8543V8.68341H570.311V6.51256H572.463V4.34171H574.616V2.17085H576.768V0H581.072V2.17085H578.92V4.34171H576.768V6.51256H574.616V8.68341H572.463V10.8543H574.616V13.0251H576.768V15.196H578.92V17.3668H581.072V19.5377H576.768V17.3668H574.616V15.196H572.463V13.0251H570.311V10.8543H568.159Z" fill="white" fill-opacity="0.14"/>
<path d="M550.942 10.8543V8.68341H553.095V6.51256H555.247V4.34171H557.399V2.17085H559.551V0H563.855V2.17085H561.703V4.34171H559.551V6.51256H557.399V8.68341H555.247V10.8543H557.399V13.0251H559.551V15.196H561.703V17.3668H563.855V19.5377H559.551V17.3668H557.399V15.196H555.247V13.0251H553.095V10.8543H550.942Z" fill="white" fill-opacity="0.14"/>
<path d="M533.725 10.8543V8.68341H535.877V6.51256H538.029V4.34171H540.181V2.17085H542.333V0H546.637V2.17085H544.485V4.34171H542.333V6.51256H540.181V8.68341H538.029V10.8543H540.181V13.0251H542.333V15.196H544.485V17.3668H546.637V19.5377H542.333V17.3668H540.181V15.196H538.029V13.0251H535.877V10.8543H533.725Z" fill="white" fill-opacity="0.14"/>
<path d="M516.509 10.8543V8.68341H518.661V6.51256H520.813V4.34171H522.965V2.17085H525.117V0H529.421V2.17085H527.269V4.34171H525.117V6.51256H522.965V8.68341H520.813V10.8543H522.965V13.0251H525.117V15.196H527.269V17.3668H529.421V19.5377H525.117V17.3668H522.965V15.196H520.813V13.0251H518.661V10.8543H516.509Z" fill="white" fill-opacity="0.14"/>
<path d="M499.291 10.8543V8.68341H501.443V6.51256H503.595V4.34171H505.747V2.17085H507.899V0H512.203V2.17085H510.051V4.34171H507.899V6.51256H505.747V8.68341H503.595V10.8543H505.747V13.0251H507.899V15.196H510.051V17.3668H512.203V19.5377H507.899V17.3668H505.747V15.196H503.595V13.0251H501.443V10.8543H499.291Z" fill="white" fill-opacity="0.14"/>
<path d="M482.074 10.8543V8.68341H484.226V6.51256H486.378V4.34171H488.531V2.17085H490.683V0H494.987V2.17085H492.835V4.34171H490.683V6.51256H488.531V8.68341H486.378V10.8543H488.531V13.0251H490.683V15.196H492.835V17.3668H494.987V19.5377H490.683V17.3668H488.531V15.196H486.378V13.0251H484.226V10.8543H482.074Z" fill="white" fill-opacity="0.14"/>
<path d="M464.857 10.8543V8.68341H467.009V6.51256H469.161V4.34171H471.313V2.17085H473.465V0H477.77V2.17085H475.618V4.34171H473.465V6.51256H471.313V8.68341H469.161V10.8543H471.313V13.0251H473.465V15.196H475.618V17.3668H477.77V19.5377H473.465V17.3668H471.313V15.196H469.161V13.0251H467.009V10.8543H464.857Z" fill="white" fill-opacity="0.14"/>
<path d="M447.641 10.8543V8.68341H449.793V6.51256H451.945V4.34171H454.097V2.17085H456.249V0H460.553V2.17085H458.401V4.34171H456.249V6.51256H454.097V8.68341H451.945V10.8543H454.097V13.0251H456.249V15.196H458.401V17.3668H460.553V19.5377H456.249V17.3668H454.097V15.196H451.945V13.0251H449.793V10.8543H447.641Z" fill="white" fill-opacity="0.14"/>
<path d="M430.424 10.8543V8.68341H432.576V6.51256H434.728V4.34171H436.88V2.17085H439.032V0H443.337V2.17085H441.184V4.34171H439.032V6.51256H436.88V8.68341H434.728V10.8543H436.88V13.0251H439.032V15.196H441.184V17.3668H443.337V19.5377H439.032V17.3668H436.88V15.196H434.728V13.0251H432.576V10.8543H430.424Z" fill="white" fill-opacity="0.14"/>
<path d="M413.206 10.8543V8.68341H415.358V6.51256H417.51V4.34171H419.662V2.17085H421.815V0H426.119V2.17085H423.967V4.34171H421.815V6.51256H419.662V8.68341H417.51V10.8543H419.662V13.0251H421.815V15.196H423.967V17.3668H426.119V19.5377H421.815V17.3668H419.662V15.196H417.51V13.0251H415.358V10.8543H413.206Z" fill="white" fill-opacity="0.14"/>
<path d="M395.989 10.8543V8.68341H398.141V6.51256H400.293V4.34171H402.446V2.17085H404.598V0H408.902V2.17085H406.75V4.34171H404.598V6.51256H402.446V8.68341H400.293V10.8543H402.446V13.0251H404.598V15.196H406.75V17.3668H408.902V19.5377H404.598V17.3668H402.446V15.196H400.293V13.0251H398.141V10.8543H395.989Z" fill="white" fill-opacity="0.14"/>
<path d="M378.772 10.8543V8.68341H380.925V6.51256H383.077V4.34171H385.229V2.17085H387.381V0H391.685V2.17085H389.533V4.34171H387.381V6.51256H385.229V8.68341H383.077V10.8543H385.229V13.0251H387.381V15.196H389.533V17.3668H391.685V19.5377H387.381V17.3668H385.229V15.196H383.077V13.0251H380.925V10.8543H378.772Z" fill="white" fill-opacity="0.14"/>
<path d="M361.556 10.8543V8.68341H363.708V6.51256H365.86V4.34171H368.012V2.17085H370.164V0H374.468V2.17085H372.316V4.34171H370.164V6.51256H368.012V8.68341H365.86V10.8543H368.012V13.0251H370.164V15.196H372.316V17.3668H374.468V19.5377H370.164V17.3668H368.012V15.196H365.86V13.0251H363.708V10.8543H361.556Z" fill="white" fill-opacity="0.14"/>
<path d="M344.339 10.8543V8.68341H346.491V6.51256H348.644V4.34171H350.796V2.17085H352.948V0H357.252V2.17085H355.1V4.34171H352.948V6.51256H350.796V8.68341H348.644V10.8543H350.796V13.0251H352.948V15.196H355.1V17.3668H357.252V19.5377H352.948V17.3668H350.796V15.196H348.644V13.0251H346.491V10.8543H344.339Z" fill="white" fill-opacity="0.14"/>
<path d="M327.121 10.8543V8.68341H329.273V6.51256H331.425V4.34171H333.577V2.17085H335.729V0H340.033V2.17085H337.881V4.34171H335.729V6.51256H333.577V8.68341H331.425V10.8543H333.577V13.0251H335.729V15.196H337.881V17.3668H340.033V19.5377H335.729V17.3668H333.577V15.196H331.425V13.0251H329.273V10.8543H327.121Z" fill="white" fill-opacity="0.14"/>
<path d="M314.209 10.8543V17.3668H322.817V19.5377H309.905V0H322.817V2.17085H314.209V8.68341H320.665V10.8543H314.209Z" fill="white" fill-opacity="0.14"/>
<path d="M296.99 0V17.3668H305.599V19.5377H292.686V0H296.99Z" fill="white" fill-opacity="0.14"/>
<path d="M288.384 2.17085V6.51256H284.08V2.17085H279.776V17.3668H284.08V13.0251H281.928V10.8543H288.384V19.5377H277.624V17.3668H275.472V2.17085H277.624V0H286.232V2.17085H288.384Z" fill="white" fill-opacity="0.14"/>
<path d="M258.253 19.5377V0H262.557V4.34171H264.709V6.51256H266.861V8.68341H269.014V0H273.318V19.5377H269.014V13.0251H266.861V10.8543H264.709V8.68341H262.557V19.5377H258.253Z" fill="white" fill-opacity="0.14"/>
<path d="M251.798 0V2.17085H253.95V17.3668H251.798V19.5377H243.19V17.3668H241.038V2.17085H243.19V0H251.798ZM249.646 2.17085H245.342V17.3668H249.646V2.17085Z" fill="white" fill-opacity="0.14"/>
<path d="M234.58 2.17085V4.34171H236.733V15.196H234.58V17.3668H232.428V19.5377H223.82V0H232.428V2.17085H234.58ZM232.428 4.34171H230.276V2.17085H228.124V17.3668H230.276V15.196H232.428V4.34171Z" fill="white" fill-opacity="0.14"/>
<path d="M206.604 10.8543V8.68341H208.756V6.51256H210.908V4.34171H213.06V2.17085H215.212V0H219.516V2.17085H217.364V4.34171H215.212V6.51256H213.06V8.68341H210.908V10.8543H213.06V13.0251H215.212V15.196H217.364V17.3668H219.516V19.5377H215.212V17.3668H213.06V15.196H210.908V13.0251H208.756V10.8543H206.604Z" fill="white" fill-opacity="0.14"/>
<path d="M189.386 10.8543V8.68341H191.538V6.51256H193.69V4.34171H195.842V2.17085H197.994V0H202.298V2.17085H200.146V4.34171H197.994V6.51256H195.842V8.68341H193.69V10.8543H195.842V13.0251H197.994V15.196H200.146V17.3668H202.298V19.5377H197.994V17.3668H195.842V15.196H193.69V13.0251H191.538V10.8543H189.386Z" fill="white" fill-opacity="0.14"/>
<path d="M182.93 0V2.17085H185.082V8.68341H182.93V13.0251H185.082V19.5377H180.778V13.0251H178.626V10.8543H176.474V19.5377H172.169V0H182.93ZM180.778 2.17085H176.474V8.68341H180.778V2.17085Z" fill="white" fill-opacity="0.14"/>
<path d="M165.712 0V2.17085H167.864V17.3668H165.712V19.5377H157.104V17.3668H154.952V2.17085H157.104V0H165.712ZM163.56 2.17085H159.256V17.3668H163.56V2.17085Z" fill="white" fill-opacity="0.14"/>
<path d="M142.04 0V8.68341H144.192V4.34171H146.344V0H150.648V4.34171H148.496V8.68341H146.344V10.8543H148.496V15.196H150.648V19.5377H146.344V15.196H144.192V10.8543H142.04V19.5377H137.735V0H142.04Z" fill="white" fill-opacity="0.14"/>
<path d="M129.126 2.17085V19.5377H124.822V2.17085H120.518V0H133.43V2.17085H129.126Z" fill="white" fill-opacity="0.14"/>
<path d="M114.063 0V2.17085H116.215V8.68341H114.063V13.0251H116.215V19.5377H111.911V13.0251H109.759V10.8543H107.607V19.5377H103.303V0H114.063ZM111.911 2.17085H107.607V8.68341H111.911V2.17085Z" fill="white" fill-opacity="0.14"/>
<path d="M96.8441 0V2.17085H98.9962V17.3668H96.8441V19.5377H88.2356V17.3668H86.0835V2.17085H88.2356V0H96.8441ZM94.692 2.17085H90.3877V17.3668H94.692V2.17085Z" fill="white" fill-opacity="0.14"/>
<path d="M81.7809 2.17085V8.68341H79.6288V10.8543H73.1724V19.5377H68.8682V0H79.6288V2.17085H81.7809ZM77.4766 2.17085H73.1724V8.68341H77.4766V2.17085Z" fill="white" fill-opacity="0.14"/>
<path d="M60.2579 17.3668V13.0251H58.1058V10.8543H55.9536V8.68341H53.8015V6.51256H51.6494V2.17085H53.8015V0H62.41V2.17085H64.5621V4.34171H60.2579V2.17085H55.9536V6.51256H58.1058V8.68341H60.2579V10.8543H62.41V13.0251H64.5621V17.3668H62.41V19.5377H53.8015V17.3668H51.6494V15.196H55.9536V17.3668H60.2579Z" fill="white" fill-opacity="0.14"/>
<path d="M43.043 2.17085V19.5377H38.7388V2.17085H34.4346V0H47.3473V2.17085H43.043Z" fill="white" fill-opacity="0.14"/>
<path d="M21.5196 10.8543V17.3668H30.128V19.5377H17.2153V0H30.128V2.17085H21.5196V8.68341H27.9759V10.8543H21.5196Z" fill="white" fill-opacity="0.14"/>
<path d="M12.9127 2.17085V8.68341H10.7606V10.8543H4.30423V19.5377H0V0H10.7606V2.17085H12.9127ZM8.60847 2.17085H4.30423V8.68341H8.60847V2.17085Z" fill="white" fill-opacity="0.14"/>
</svg>
