<svg width="310" height="25" viewBox="0 0 310 25" fill="none" xmlns="http://www.w3.org/2000/svg">
<path d="M308.654 15.416V16.373H309.603V23.0716H308.654V24.0286H304.859V23.0716H303.911V16.373H304.859V15.416H308.654ZM306.757 22.1147H305.808V23.0716H307.705V19.2438H306.757V17.3299H307.705V16.373H305.808V20.2008H306.757V22.1147Z" fill="white" fill-opacity="0.14"/>
<path d="M301.065 15.416V16.373H302.014V23.0716H301.065V24.0286H297.27V23.0716H296.322V16.373H297.27V15.416H301.065ZM299.168 22.1147H298.219V23.0716H300.117V19.2438H299.168V17.3299H300.117V16.373H298.219V20.2008H299.168V22.1147Z" fill="white" fill-opacity="0.14"/>
<path d="M293.475 15.416V16.373H294.424V23.0716H293.475V24.0286H289.68V23.0716H288.731V16.373H289.68V15.416H293.475ZM291.578 22.1147H290.629V23.0716H292.526V19.2438H291.578V17.3299H292.526V16.373H290.629V20.2008H291.578V22.1147Z" fill="white" fill-opacity="0.14"/>
<path d="M285.886 15.416V16.373H286.835V23.0716H285.886V24.0286H282.091V23.0716H281.143V16.373H282.091V15.416H285.886ZM283.989 22.1147H283.04V23.0716H284.937V19.2438H283.989V17.3299H284.937V16.373H283.04V20.2008H283.989V22.1147Z" fill="white" fill-opacity="0.14"/>
<path d="M278.296 15.416V16.373H279.244V23.0716H278.296V24.0286H274.501V23.0716H273.552V16.373H274.501V15.416H278.296ZM276.398 22.1147H275.45V23.0716H277.347V19.2438H276.398V17.3299H277.347V16.373H275.45V20.2008H276.398V22.1147Z" fill="white" fill-opacity="0.14"/>
<path d="M270.707 15.416V16.373H271.656V23.0716H270.707V24.0286H266.912V23.0716H265.963V16.373H266.912V15.416H270.707ZM268.809 22.1147H267.861V23.0716H269.758V19.2438H268.809V17.3299H269.758V16.373H267.861V20.2008H268.809V22.1147Z" fill="white" fill-opacity="0.14"/>
<path d="M263.117 15.416V16.373H264.065V23.0716H263.117V24.0286H259.322V23.0716H258.373V16.373H259.322V15.416H263.117ZM261.219 22.1147H260.27V23.0716H262.168V19.2438H261.219V17.3299H262.168V16.373H260.27V20.2008H261.219V22.1147Z" fill="white" fill-opacity="0.14"/>
<path d="M255.528 15.416V16.373H256.476V23.0716H255.528V24.0286H251.733V23.0716H250.784V16.373H251.733V15.416H255.528ZM253.63 22.1147H252.682V23.0716H254.579V19.2438H253.63V17.3299H254.579V16.373H252.682V20.2008H253.63V22.1147Z" fill="white" fill-opacity="0.14"/>
<path d="M247.938 15.416V16.373H248.887V23.0716H247.938V24.0286H244.144V23.0716H243.195V16.373H244.144V15.416H247.938ZM246.041 22.1147H245.092V23.0716H246.99V19.2438H246.041V17.3299H246.99V16.373H245.092V20.2008H246.041V22.1147Z" fill="white" fill-opacity="0.14"/>
<path d="M240.348 15.416V16.373H241.297V23.0716H240.348V24.0286H236.554V23.0716H235.605V16.373H236.554V15.416H240.348ZM238.451 22.1147H237.502V23.0716H239.4V19.2438H238.451V17.3299H239.4V16.373H237.502V20.2008H238.451V22.1147Z" fill="white" fill-opacity="0.14"/>
<path d="M232.759 15.416V16.373H233.708V23.0716H232.759V24.0286H228.964V23.0716H228.016V16.373H228.964V15.416H232.759ZM230.862 22.1147H229.913V23.0716H231.81V19.2438H230.862V17.3299H231.81V16.373H229.913V20.2008H230.862V22.1147Z" fill="white" fill-opacity="0.14"/>
<path d="M225.169 15.416V16.373H226.118V23.0716H225.169V24.0286H221.374V23.0716H220.426V16.373H221.374V15.416H225.169ZM223.272 22.1147H222.323V23.0716H224.221V19.2438H223.272V17.3299H224.221V16.373H222.323V20.2008H223.272V22.1147Z" fill="white" fill-opacity="0.14"/>
<path d="M217.58 15.416V16.373H218.529V23.0716H217.58V24.0286H213.785V23.0716H212.836V16.373H213.785V15.416H217.58ZM215.683 22.1147H214.734V23.0716H216.631V19.2438H215.683V17.3299H216.631V16.373H214.734V20.2008H215.683V22.1147Z" fill="white" fill-opacity="0.14"/>
<path d="M209.99 15.416V16.373H210.939V23.0716H209.99V24.0286H206.195V23.0716H205.247V16.373H206.195V15.416H209.99ZM208.093 22.1147H207.144V23.0716H209.041V19.2438H208.093V17.3299H209.041V16.373H207.144V20.2008H208.093V22.1147Z" fill="white" fill-opacity="0.14"/>
<path d="M202.401 15.416V16.373H203.349V23.0716H202.401V24.0286H198.606V23.0716H197.657V16.373H198.606V15.416H202.401ZM200.503 22.1147H199.555V23.0716H201.452V19.2438H200.503V17.3299H201.452V16.373H199.555V20.2008H200.503V22.1147Z" fill="white" fill-opacity="0.14"/>
<path d="M194.811 15.416V16.373H195.76V23.0716H194.811V24.0286H191.017V23.0716H190.068V16.373H191.017V15.416H194.811ZM192.914 22.1147H191.965V23.0716H193.863V19.2438H192.914V17.3299H193.863V16.373H191.965V20.2008H192.914V22.1147Z" fill="white" fill-opacity="0.14"/>
<path d="M187.221 15.416V16.373H188.17V23.0716H187.221V24.0286H183.427V23.0716H182.478V16.373H183.427V15.416H187.221ZM185.324 22.1147H184.375V23.0716H186.273V19.2438H185.324V17.3299H186.273V16.373H184.375V20.2008H185.324V22.1147Z" fill="white" fill-opacity="0.14"/>
<path d="M179.632 15.416V16.373H180.581V23.0716H179.632V24.0286H175.837V23.0716H174.889V16.373H175.837V15.416H179.632ZM177.735 22.1147H176.786V23.0716H178.683V19.2438H177.735V17.3299H178.683V16.373H176.786V20.2008H177.735V22.1147Z" fill="white" fill-opacity="0.14"/>
<path d="M172.042 15.416V16.373H172.991V23.0716H172.042V24.0286H168.248V23.0716H167.299V16.373H168.248V15.416H172.042ZM170.145 22.1147H169.196V23.0716H171.094V19.2438H170.145V17.3299H171.094V16.373H169.196V20.2008H170.145V22.1147Z" fill="white" fill-opacity="0.14"/>
<path d="M164.453 15.416V16.373H165.402V23.0716H164.453V24.0286H160.658V23.0716H159.709V16.373H160.658V15.416H164.453ZM162.556 22.1147H161.607V23.0716H163.504V19.2438H162.556V17.3299H163.504V16.373H161.607V20.2008H162.556V22.1147Z" fill="white" fill-opacity="0.14"/>
<path d="M156.864 15.416V16.373H157.812V23.0716H156.864V24.0286H153.069V23.0716H152.12V16.373H153.069V15.416H156.864ZM154.966 22.1147H154.018V23.0716H155.915V19.2438H154.966V17.3299H155.915V16.373H154.018V20.2008H154.966V22.1147Z" fill="white" fill-opacity="0.14"/>
<path d="M149.273 15.416V16.373H150.222V23.0716H149.273V24.0286H145.478V23.0716H144.53V16.373H145.478V15.416H149.273ZM147.376 22.1147H146.427V23.0716H148.325V19.2438H147.376V17.3299H148.325V16.373H146.427V20.2008H147.376V22.1147Z" fill="white" fill-opacity="0.14"/>
<path d="M141.684 15.416V16.373H142.633V23.0716H141.684V24.0286H137.89V23.0716H136.941V16.373H137.89V15.416H141.684ZM139.787 22.1147H138.838V23.0716H140.736V19.2438H139.787V17.3299H140.736V16.373H138.838V20.2008H139.787V22.1147Z" fill="white" fill-opacity="0.14"/>
<path d="M134.094 15.416V16.373H135.043V23.0716H134.094V24.0286H130.299V23.0716H129.351V16.373H130.299V15.416H134.094ZM132.197 22.1147H131.248V23.0716H133.145V19.2438H132.197V17.3299H133.145V16.373H131.248V20.2008H132.197V22.1147Z" fill="white" fill-opacity="0.14"/>
<path d="M126.506 15.416V16.373H127.454V23.0716H126.506V24.0286H122.711V23.0716H121.762V16.373H122.711V15.416H126.506ZM124.608 22.1147H123.66V23.0716H125.557V19.2438H124.608V17.3299H125.557V16.373H123.66V20.2008H124.608V22.1147Z" fill="white" fill-opacity="0.14"/>
<path d="M118.915 15.416V16.373H119.864V23.0716H118.915V24.0286H115.121V23.0716H114.172V16.373H115.121V15.416H118.915ZM117.018 22.1147H116.069V23.0716H117.967V19.2438H117.018V17.3299H117.967V16.373H116.069V20.2008H117.018V22.1147Z" fill="white" fill-opacity="0.14"/>
<path d="M111.326 15.416V16.373H112.275V23.0716H111.326V24.0286H107.532V23.0716H106.583V16.373H107.532V15.416H111.326ZM109.429 22.1147H108.48V23.0716H110.378V19.2438H109.429V17.3299H110.378V16.373H108.48V20.2008H109.429V22.1147Z" fill="white" fill-opacity="0.14"/>
<path d="M103.737 15.416V16.373H104.685V23.0716H103.737V24.0286H99.9419V23.0716H98.9932V16.373H99.9419V15.416H103.737ZM101.839 22.1147H100.891V23.0716H102.788V19.2438H101.839V17.3299H102.788V16.373H100.891V20.2008H101.839V22.1147Z" fill="white" fill-opacity="0.14"/>
<path d="M96.1473 15.416V16.373H97.096V19.2438H96.1473V21.1577H97.096V24.0286H95.1986V21.1577H94.2499V20.2008H93.3012V24.0286H91.4038V15.416H96.1473ZM95.1986 16.373H93.3012V19.2438H95.1986V16.373Z" fill="white" fill-opacity="0.14"/>
<path d="M88.5574 15.416V16.373H89.5061V23.0716H88.5574V24.0286H84.7627V23.0716H83.814V16.373H84.7627V15.416H88.5574ZM87.6087 16.373H85.7114V23.0716H87.6087V16.373Z" fill="white" fill-opacity="0.14"/>
<path d="M78.122 15.416V19.2438H79.0707V17.3299H80.0194V15.416H81.9168V17.3299H80.9681V19.2438H80.0194V20.2008H80.9681V22.1147H81.9168V24.0286H80.0194V22.1147H79.0707V20.2008H78.122V24.0286H76.2246V15.416H78.122Z" fill="white" fill-opacity="0.14"/>
<path d="M73.3782 15.416V16.373H74.3269V23.0716H73.3782V24.0286H69.5835V23.0716H68.6348V16.373H69.5835V15.416H73.3782ZM71.4808 22.1147H70.5322V23.0716H72.4295V19.2438H71.4808V17.3299H72.4295V16.373H70.5322V20.2008H71.4808V22.1147Z" fill="white" fill-opacity="0.14"/>
<path d="M63.8915 22.1147V21.1577H61.9941V20.2008H61.0454V16.373H61.9941V15.416H65.7889V16.373H66.7376V21.1577H65.7889V22.1147H64.8402V24.0286H61.9941V23.0716H62.9428V22.1147H63.8915ZM64.8402 16.373H62.9428V20.2008H64.8402V16.373Z" fill="white" fill-opacity="0.14"/>
<path d="M53.4556 19.2438V16.373H54.4043V15.416H58.199V16.373H59.1477V19.2438H58.199V20.2008H59.1477V23.0716H58.199V24.0286H54.4043V23.0716H53.4556V20.2008H54.4043V19.2438H53.4556ZM55.353 18.2869H56.3016V19.2438H57.2503V16.373H55.353V18.2869ZM56.3016 20.2008H55.353V23.0716H57.2503V21.1577H56.3016V20.2008Z" fill="white" fill-opacity="0.14"/>
<path d="M47.7641 21.1577V19.2438H48.7128V17.3299H49.6615V16.373H45.8667V15.416H51.5589V17.3299H50.6102V19.2438H49.6615V21.1577H48.7128V24.0286H46.8154V21.1577H47.7641Z" fill="white" fill-opacity="0.14"/>
<path d="M40.1738 17.3299V15.416H43.0198V16.373H42.0711V17.3299H41.1224V18.2869H43.0198V19.2438H43.9685V23.0716H43.0198V24.0286H39.2251V23.0716H38.2764V18.2869H39.2251V17.3299H40.1738ZM42.0711 19.2438H40.1738V23.0716H42.0711V19.2438Z" fill="white" fill-opacity="0.14"/>
<path d="M34.4823 22.1147V20.2008H30.6875V15.416H36.3797V16.373H32.5849V19.2438H35.431V20.2008H36.3797V22.1147H35.431V23.0716H34.4823V24.0286H30.6875V23.0716H33.5336V22.1147H34.4823Z" fill="white" fill-opacity="0.14"/>
<path d="M25.9432 15.416V20.2008H24.9946V21.1577H26.8919V17.3299H28.7893V21.1577H29.738V22.1147H28.7893V24.0286H26.8919V22.1147H23.0972V20.2008H24.0459V15.416H25.9432Z" fill="white" fill-opacity="0.14"/>
<path d="M19.3031 23.0716V20.2008H17.4057V19.2438H19.3031V16.373H17.4057V18.2869H15.5083V16.373H16.457V15.416H20.2518V16.373H21.2005V19.2438H20.2518V20.2008H21.2005V23.0716H20.2518V24.0286H16.457V23.0716H15.5083V21.1577H17.4057V23.0716H19.3031Z" fill="white" fill-opacity="0.14"/>
<path d="M11.7127 19.2438V16.373H9.81536V18.2869H7.91797V16.373H8.86666V15.416H12.6614V16.373H13.6101V19.2438H12.6614V20.2008H11.7127V21.1577H10.764V22.1147H9.81536V23.0716H13.6101V24.0286H7.91797V22.1147H8.86666V21.1577H9.81536V20.2008H10.764V19.2438H11.7127Z" fill="white" fill-opacity="0.14"/>
<path d="M5.07257 15.4159V24.0285H3.17518V18.2868H0.329102V17.3298H2.22649V16.3728H3.17518V15.4159H5.07257Z" fill="white" fill-opacity="0.14"/>
<path d="M303.911 4.8895V3.93255H304.859V2.97559H305.808V2.01864H306.757V1.06169H307.705V0.104736H309.603V1.06169H308.654V2.01864H307.705V2.97559H306.757V3.93255H305.808V4.8895H306.757V5.84645H307.705V6.8034H308.654V7.76036H309.603V8.71731H307.705V7.76036H306.757V6.8034H305.808V5.84645H304.859V4.8895H303.911Z" fill="white" fill-opacity="0.14"/>
<path d="M296.322 4.8895V3.93255H297.27V2.97559H298.219V2.01864H299.168V1.06169H300.117V0.104736H302.014V1.06169H301.065V2.01864H300.117V2.97559H299.168V3.93255H298.219V4.8895H299.168V5.84645H300.117V6.8034H301.065V7.76036H302.014V8.71731H300.117V7.76036H299.168V6.8034H298.219V5.84645H297.27V4.8895H296.322Z" fill="white" fill-opacity="0.14"/>
<path d="M288.731 4.8895V3.93255H289.68V2.97559H290.629V2.01864H291.578V1.06169H292.526V0.104736H294.424V1.06169H293.475V2.01864H292.526V2.97559H291.578V3.93255H290.629V4.8895H291.578V5.84645H292.526V6.8034H293.475V7.76036H294.424V8.71731H292.526V7.76036H291.578V6.8034H290.629V5.84645H289.68V4.8895H288.731Z" fill="white" fill-opacity="0.14"/>
<path d="M281.143 4.8895V3.93255H282.091V2.97559H283.04V2.01864H283.989V1.06169H284.937V0.104736H286.835V1.06169H285.886V2.01864H284.937V2.97559H283.989V3.93255H283.04V4.8895H283.989V5.84645H284.937V6.8034H285.886V7.76036H286.835V8.71731H284.937V7.76036H283.989V6.8034H283.04V5.84645H282.091V4.8895H281.143Z" fill="white" fill-opacity="0.14"/>
<path d="M273.552 4.8895V3.93255H274.501V2.97559H275.45V2.01864H276.398V1.06169H277.347V0.104736H279.244V1.06169H278.296V2.01864H277.347V2.97559H276.398V3.93255H275.45V4.8895H276.398V5.84645H277.347V6.8034H278.296V7.76036H279.244V8.71731H277.347V7.76036H276.398V6.8034H275.45V5.84645H274.501V4.8895H273.552Z" fill="white" fill-opacity="0.14"/>
<path d="M265.963 4.8895V3.93255H266.912V2.97559H267.861V2.01864H268.809V1.06169H269.758V0.104736H271.656V1.06169H270.707V2.01864H269.758V2.97559H268.809V3.93255H267.861V4.8895H268.809V5.84645H269.758V6.8034H270.707V7.76036H271.656V8.71731H269.758V7.76036H268.809V6.8034H267.861V5.84645H266.912V4.8895H265.963Z" fill="white" fill-opacity="0.14"/>
<path d="M258.373 4.8895V3.93255H259.322V2.97559H260.27V2.01864H261.219V1.06169H262.168V0.104736H264.065V1.06169H263.117V2.01864H262.168V2.97559H261.219V3.93255H260.27V4.8895H261.219V5.84645H262.168V6.8034H263.117V7.76036H264.065V8.71731H262.168V7.76036H261.219V6.8034H260.27V5.84645H259.322V4.8895H258.373Z" fill="white" fill-opacity="0.14"/>
<path d="M250.784 4.8895V3.93255H251.733V2.97559H252.682V2.01864H253.63V1.06169H254.579V0.104736H256.476V1.06169H255.528V2.01864H254.579V2.97559H253.63V3.93255H252.682V4.8895H253.63V5.84645H254.579V6.8034H255.528V7.76036H256.476V8.71731H254.579V7.76036H253.63V6.8034H252.682V5.84645H251.733V4.8895H250.784Z" fill="white" fill-opacity="0.14"/>
<path d="M243.195 4.8895V3.93255H244.144V2.97559H245.092V2.01864H246.041V1.06169H246.99V0.104736H248.887V1.06169H247.938V2.01864H246.99V2.97559H246.041V3.93255H245.092V4.8895H246.041V5.84645H246.99V6.8034H247.938V7.76036H248.887V8.71731H246.99V7.76036H246.041V6.8034H245.092V5.84645H244.144V4.8895H243.195Z" fill="white" fill-opacity="0.14"/>
<path d="M235.605 4.8895V3.93255H236.554V2.97559H237.502V2.01864H238.451V1.06169H239.4V0.104736H241.297V1.06169H240.348V2.01864H239.4V2.97559H238.451V3.93255H237.502V4.8895H238.451V5.84645H239.4V6.8034H240.348V7.76036H241.297V8.71731H239.4V7.76036H238.451V6.8034H237.502V5.84645H236.554V4.8895H235.605Z" fill="white" fill-opacity="0.14"/>
<path d="M228.016 4.8895V3.93255H228.964V2.97559H229.913V2.01864H230.862V1.06169H231.81V0.104736H233.708V1.06169H232.759V2.01864H231.81V2.97559H230.862V3.93255H229.913V4.8895H230.862V5.84645H231.81V6.8034H232.759V7.76036H233.708V8.71731H231.81V7.76036H230.862V6.8034H229.913V5.84645H228.964V4.8895H228.016Z" fill="white" fill-opacity="0.14"/>
<path d="M220.426 4.8895V3.93255H221.374V2.97559H222.323V2.01864H223.272V1.06169H224.221V0.104736H226.118V1.06169H225.169V2.01864H224.221V2.97559H223.272V3.93255H222.323V4.8895H223.272V5.84645H224.221V6.8034H225.169V7.76036H226.118V8.71731H224.221V7.76036H223.272V6.8034H222.323V5.84645H221.374V4.8895H220.426Z" fill="white" fill-opacity="0.14"/>
<path d="M212.836 4.8895V3.93255H213.785V2.97559H214.734V2.01864H215.683V1.06169H216.631V0.104736H218.529V1.06169H217.58V2.01864H216.631V2.97559H215.683V3.93255H214.734V4.8895H215.683V5.84645H216.631V6.8034H217.58V7.76036H218.529V8.71731H216.631V7.76036H215.683V6.8034H214.734V5.84645H213.785V4.8895H212.836Z" fill="white" fill-opacity="0.14"/>
<path d="M205.247 4.8895V3.93255H206.195V2.97559H207.144V2.01864H208.093V1.06169H209.041V0.104736H210.939V1.06169H209.99V2.01864H209.041V2.97559H208.093V3.93255H207.144V4.8895H208.093V5.84645H209.041V6.8034H209.99V7.76036H210.939V8.71731H209.041V7.76036H208.093V6.8034H207.144V5.84645H206.195V4.8895H205.247Z" fill="white" fill-opacity="0.14"/>
<path d="M197.657 4.8895V3.93255H198.606V2.97559H199.555V2.01864H200.503V1.06169H201.452V0.104736H203.349V1.06169H202.401V2.01864H201.452V2.97559H200.503V3.93255H199.555V4.8895H200.503V5.84645H201.452V6.8034H202.401V7.76036H203.349V8.71731H201.452V7.76036H200.503V6.8034H199.555V5.84645H198.606V4.8895H197.657Z" fill="white" fill-opacity="0.14"/>
<path d="M190.068 4.8895V3.93255H191.017V2.97559H191.965V2.01864H192.914V1.06169H193.863V0.104736H195.76V1.06169H194.811V2.01864H193.863V2.97559H192.914V3.93255H191.965V4.8895H192.914V5.84645H193.863V6.8034H194.811V7.76036H195.76V8.71731H193.863V7.76036H192.914V6.8034H191.965V5.84645H191.017V4.8895H190.068Z" fill="white" fill-opacity="0.14"/>
<path d="M182.478 4.8895V3.93255H183.427V2.97559H184.375V2.01864H185.324V1.06169H186.273V0.104736H188.17V1.06169H187.221V2.01864H186.273V2.97559H185.324V3.93255H184.375V4.8895H185.324V5.84645H186.273V6.8034H187.221V7.76036H188.17V8.71731H186.273V7.76036H185.324V6.8034H184.375V5.84645H183.427V4.8895H182.478Z" fill="white" fill-opacity="0.14"/>
<path d="M174.889 4.8895V3.93255H175.837V2.97559H176.786V2.01864H177.735V1.06169H178.683V0.104736H180.581V1.06169H179.632V2.01864H178.683V2.97559H177.735V3.93255H176.786V4.8895H177.735V5.84645H178.683V6.8034H179.632V7.76036H180.581V8.71731H178.683V7.76036H177.735V6.8034H176.786V5.84645H175.837V4.8895H174.889Z" fill="white" fill-opacity="0.14"/>
<path d="M167.299 4.8895V3.93255H168.248V2.97559H169.196V2.01864H170.145V1.06169H171.094V0.104736H172.991V1.06169H172.042V2.01864H171.094V2.97559H170.145V3.93255H169.196V4.8895H170.145V5.84645H171.094V6.8034H172.042V7.76036H172.991V8.71731H171.094V7.76036H170.145V6.8034H169.196V5.84645H168.248V4.8895H167.299Z" fill="white" fill-opacity="0.14"/>
<path d="M159.709 4.8895V3.93255H160.658V2.97559H161.607V2.01864H162.556V1.06169H163.504V0.104736H165.402V1.06169H164.453V2.01864H163.504V2.97559H162.556V3.93255H161.607V4.8895H162.556V5.84645H163.504V6.8034H164.453V7.76036H165.402V8.71731H163.504V7.76036H162.556V6.8034H161.607V5.84645H160.658V4.8895H159.709Z" fill="white" fill-opacity="0.14"/>
<path d="M152.12 4.8895V3.93255H153.069V2.97559H154.018V2.01864H154.966V1.06169H155.915V0.104736H157.812V1.06169H156.864V2.01864H155.915V2.97559H154.966V3.93255H154.018V4.8895H154.966V5.84645H155.915V6.8034H156.864V7.76036H157.812V8.71731H155.915V7.76036H154.966V6.8034H154.018V5.84645H153.069V4.8895H152.12Z" fill="white" fill-opacity="0.14"/>
<path d="M144.53 4.8895V3.93255H145.478V2.97559H146.427V2.01864H147.376V1.06169H148.325V0.104736H150.222V1.06169H149.273V2.01864H148.325V2.97559H147.376V3.93255H146.427V4.8895H147.376V5.84645H148.325V6.8034H149.273V7.76036H150.222V8.71731H148.325V7.76036H147.376V6.8034H146.427V5.84645H145.478V4.8895H144.53Z" fill="white" fill-opacity="0.14"/>
<path d="M138.838 4.8895V7.76036H142.633V8.71731H136.941V0.104736H142.633V1.06169H138.838V3.93255H141.684V4.8895H138.838Z" fill="white" fill-opacity="0.14"/>
<path d="M131.248 0.104736V7.76036H135.043V8.71731H129.351V0.104736H131.248Z" fill="white" fill-opacity="0.14"/>
<path d="M127.454 1.06169V2.97559H125.557V1.06169H123.66V7.76036H125.557V5.84645H124.608V4.8895H127.454V8.71731H122.711V7.76036H121.762V1.06169H122.711V0.104736H126.506V1.06169H127.454Z" fill="white" fill-opacity="0.14"/>
<path d="M114.172 8.71731V0.104736H116.069V2.01864H117.018V2.97559H117.967V3.93255H118.915V0.104736H120.813V8.71731H118.915V5.84645H117.967V4.8895H117.018V3.93255H116.069V8.71731H114.172Z" fill="white" fill-opacity="0.14"/>
<path d="M111.326 0.104736V1.06169H112.275V7.76036H111.326V8.71731H107.532V7.76036H106.583V1.06169H107.532V0.104736H111.326ZM110.378 1.06169H108.48V7.76036H110.378V1.06169Z" fill="white" fill-opacity="0.14"/>
<path d="M103.737 1.06169V2.01864H104.685V6.8034H103.737V7.76036H102.788V8.71731H98.9932V0.104736H102.788V1.06169H103.737ZM102.788 2.01864H101.839V1.06169H100.891V7.76036H101.839V6.8034H102.788V2.01864Z" fill="white" fill-opacity="0.14"/>
<path d="M91.4038 4.8895V3.93255H92.3525V2.97559H93.3012V2.01864H94.2499V1.06169H95.1986V0.104736H97.096V1.06169H96.1473V2.01864H95.1986V2.97559H94.2499V3.93255H93.3012V4.8895H94.2499V5.84645H95.1986V6.8034H96.1473V7.76036H97.096V8.71731H95.1986V7.76036H94.2499V6.8034H93.3012V5.84645H92.3525V4.8895H91.4038Z" fill="white" fill-opacity="0.14"/>
<path d="M83.814 4.8895V3.93255H84.7627V2.97559H85.7114V2.01864H86.66V1.06169H87.6087V0.104736H89.5061V1.06169H88.5574V2.01864H87.6087V2.97559H86.66V3.93255H85.7114V4.8895H86.66V5.84645H87.6087V6.8034H88.5574V7.76036H89.5061V8.71731H87.6087V7.76036H86.66V6.8034H85.7114V5.84645H84.7627V4.8895H83.814Z" fill="white" fill-opacity="0.14"/>
<path d="M80.9681 0.104736V1.06169H81.9168V3.93255H80.9681V5.84645H81.9168V8.71731H80.0194V5.84645H79.0707V4.8895H78.122V8.71731H76.2246V0.104736H80.9681ZM80.0194 1.06169H78.122V3.93255H80.0194V1.06169Z" fill="white" fill-opacity="0.14"/>
<path d="M73.3782 0.104736V1.06169H74.3269V7.76036H73.3782V8.71731H69.5835V7.76036H68.6348V1.06169H69.5835V0.104736H73.3782ZM72.4295 1.06169H70.5322V7.76036H72.4295V1.06169Z" fill="white" fill-opacity="0.14"/>
<path d="M62.9428 0.104736V3.93255H63.8915V2.01864H64.8402V0.104736H66.7376V2.01864H65.7889V3.93255H64.8402V4.8895H65.7889V6.8034H66.7376V8.71731H64.8402V6.8034H63.8915V4.8895H62.9428V8.71731H61.0454V0.104736H62.9428Z" fill="white" fill-opacity="0.14"/>
<path d="M57.2503 1.06169V8.71731H55.353V1.06169H53.4556V0.104736H59.1477V1.06169H57.2503Z" fill="white" fill-opacity="0.14"/>
<path d="M50.6102 0.104736V1.06169H51.5589V3.93255H50.6102V5.84645H51.5589V8.71731H49.6615V5.84645H48.7128V4.8895H47.7641V8.71731H45.8667V0.104736H50.6102ZM49.6615 1.06169H47.7641V3.93255H49.6615V1.06169Z" fill="white" fill-opacity="0.14"/>
<path d="M43.0198 0.104736V1.06169H43.9685V7.76036H43.0198V8.71731H39.2251V7.76036H38.2764V1.06169H39.2251V0.104736H43.0198ZM42.0711 1.06169H40.1738V7.76036H42.0711V1.06169Z" fill="white" fill-opacity="0.14"/>
<path d="M36.3797 1.06169V3.93255H35.431V4.8895H32.5849V8.71731H30.6875V0.104736H35.431V1.06169H36.3797ZM34.4823 1.06169H32.5849V3.93255H34.4823V1.06169Z" fill="white" fill-opacity="0.14"/>
<path d="M26.8919 7.76036V5.84645H25.9432V4.8895H24.9946V3.93255H24.0459V2.97559H23.0972V1.06169H24.0459V0.104736H27.8406V1.06169H28.7893V2.01864H26.8919V1.06169H24.9946V2.97559H25.9432V3.93255H26.8919V4.8895H27.8406V5.84645H28.7893V7.76036H27.8406V8.71731H24.0459V7.76036H23.0972V6.8034H24.9946V7.76036H26.8919Z" fill="white" fill-opacity="0.14"/>
<path d="M19.3031 1.06169V8.71731H17.4057V1.06169H15.5083V0.104736H21.2005V1.06169H19.3031Z" fill="white" fill-opacity="0.14"/>
<path d="M9.81536 4.8895V7.76036H13.6101V8.71731H7.91797V0.104736H13.6101V1.06169H9.81536V3.93255H12.6614V4.8895H9.81536Z" fill="white" fill-opacity="0.14"/>
<path d="M6.02126 1.06169V3.93255H5.07257V4.8895H2.22649V8.71731H0.329102V0.104736H5.07257V1.06169H6.02126ZM4.12387 1.06169H2.22649V3.93255H4.12387V1.06169Z" fill="white" fill-opacity="0.14"/>
</svg>
