<svg width="40" height="40" viewBox="0 0 40 40" fill="none" xmlns="http://www.w3.org/2000/svg">
<g clip-path="url(#clip0_606_946)">
<path d="M31.6667 6.66683H30V3.3335H26.6667V6.66683H13.3333V3.3335H10V6.66683H8.33333C6.48333 6.66683 5.01667 8.16683 5.01667 10.0002L5 33.3335C5 35.1668 6.48333 36.6668 8.33333 36.6668H31.6667C33.5 36.6668 35 35.1668 35 33.3335V10.0002C35 8.16683 33.5 6.66683 31.6667 6.66683ZM31.6667 33.3335H8.33333V16.6668H31.6667V33.3335ZM15 23.3335H11.6667V20.0002H15V23.3335ZM21.6667 23.3335H18.3333V20.0002H21.6667V23.3335ZM28.3333 23.3335H25V20.0002H28.3333V23.3335ZM15 30.0002H11.6667V26.6668H15V30.0002ZM21.6667 30.0002H18.3333V26.6668H21.6667V30.0002ZM28.3333 30.0002H25V26.6668H28.3333V30.0002Z" fill="#666666"/>
</g>
<defs>
<clipPath id="clip0_606_946">
<rect width="40" height="40" fill="white"/>
</clipPath>
</defs>
</svg>
