<svg width="24" height="24" viewBox="0 0 24 24" fill="none" xmlns="http://www.w3.org/2000/svg">
<mask id="mask0_469_1569" style="mask-type:alpha" maskUnits="userSpaceOnUse" x="-1" y="-1" width="26" height="26">
<rect x="-0.5" y="-0.5" width="25" height="25" fill="#D9D9D9" stroke="black"/>
</mask>
<g mask="url(#mask0_469_1569)">
<path d="M9.55145 14.4417L6.355 11.2227L6.35376 11.2214C6.06298 10.9307 5.69949 10.775 5.28771 10.775C4.87593 10.775 4.51243 10.9307 4.22165 11.2214C3.93439 11.5087 3.77525 11.8661 3.76294 12.2724C3.7503 12.6895 3.90226 13.0592 4.19665 13.3536L8.49665 17.6536C8.78411 17.941 9.14226 18.1 9.55021 18.1C9.95815 18.1 10.3163 17.941 10.6038 17.6536L10.6042 17.6531L19.7788 8.45355C19.7789 8.45344 19.779 8.45333 19.7791 8.45321C20.0697 8.16249 20.2252 7.79912 20.2252 7.3875C20.2252 6.97572 20.0695 6.61222 19.7788 6.32145C19.4913 6.03399 19.1332 5.875 18.7252 5.875C18.3173 5.875 17.9591 6.03399 17.6717 6.32145L9.55145 14.4417Z" fill="#E55737" stroke="#E55737"/>
</g>
</svg>
