<svg width="24" height="24" viewBox="0 0 24 24" fill="none" xmlns="http://www.w3.org/2000/svg">
<mask id="mask0_105_1627" style="mask-type:alpha" maskUnits="userSpaceOnUse" x="0" y="0" width="24" height="24">
<rect width="24" height="24" fill="#D9D9D9"/>
</mask>
<g mask="url(#mask0_105_1627)">
<path d="M11.0036 19.4464L10.9955 19.4383L10.9871 19.4307L9.26255 17.856C7.50668 16.2493 5.92273 14.6568 4.51002 13.0789C3.15698 11.5676 2.5 9.92911 2.5 8.1499C2.5 6.70773 2.97791 5.5291 3.92855 4.57846C4.8792 3.62781 6.05783 3.1499 7.5 3.1499C8.30993 3.1499 9.06935 3.32122 9.7841 3.66339C10.5051 4.00853 11.1148 4.47787 11.6183 5.07287L12 5.52397L12.3817 5.07287C12.8852 4.47787 13.4949 4.00853 14.2159 3.66339C14.9306 3.32122 15.6901 3.1499 16.5 3.1499C17.9422 3.1499 19.1208 3.62781 20.0714 4.57846C21.0221 5.5291 21.5 6.70773 21.5 8.1499C21.5 9.93016 20.8464 11.5736 19.5007 13.0934C18.0981 14.6775 16.5035 16.2723 14.7159 17.8779L14.7159 17.8779L14.7131 17.8804L13.0131 19.4304L13.0046 19.4382L12.9964 19.4464C12.866 19.5768 12.7184 19.669 12.5495 19.7272C12.3553 19.7942 12.1728 19.8249 12 19.8249C11.8272 19.8249 11.6447 19.7942 11.4505 19.7272C11.2816 19.669 11.134 19.5768 11.0036 19.4464Z" stroke="#FF0059"/>
</g>
</svg>
