<svg width="24" height="30" viewBox="0 0 24 30" fill="none" xmlns="http://www.w3.org/2000/svg">
<path fill-rule="evenodd" clip-rule="evenodd" d="M2 14.5C2 9.643 6.656 6 12 6C17.344 6 22 9.643 22 14.5C22 19.357 17.344 23 12 23C11.474 23 10.9587 22.9667 10.454 22.9L7.554 24.832C7.38945 24.9416 7.1961 25 6.99839 24.9997C6.80068 24.9995 6.60749 24.9406 6.44321 24.8306C6.27894 24.7206 6.15097 24.5643 6.07546 24.3816C5.99995 24.1989 5.98031 23.9979 6.019 23.804L6.464 21.583C3.828 20.09 2 17.517 2 14.5ZM10 10C10.2652 10 10.5196 10.1054 10.7071 10.2929C10.8946 10.4804 11 10.7348 11 11V18C11 18.2652 10.8946 18.5196 10.7071 18.7071C10.5196 18.8946 10.2652 19 10 19C9.73478 19 9.48043 18.8946 9.29289 18.7071C9.10536 18.5196 9 18.2652 9 18V11C9 10.7348 9.10536 10.4804 9.29289 10.2929C9.48043 10.1054 9.73478 10 10 10ZM11 15.5C11 15.279 11.073 15.058 11.22 14.875L13.22 12.375C13.3887 12.1774 13.6277 12.0533 13.8864 12.0288C14.145 12.0044 14.403 12.0815 14.6058 12.244C14.8085 12.4064 14.9401 12.6414 14.9726 12.8992C15.0051 13.157 14.936 13.4173 14.78 13.625L13.28 15.5L14.78 17.375C14.867 17.4769 14.9326 17.5952 14.973 17.7229C15.0134 17.8506 15.0277 17.9851 15.0151 18.1185C15.0025 18.2518 14.9632 18.3813 14.8996 18.4992C14.836 18.6171 14.7494 18.721 14.6448 18.8047C14.5403 18.8885 14.42 18.9504 14.2911 18.9868C14.1622 19.0232 14.0273 19.0333 13.8944 19.0165C13.7615 18.9997 13.6333 18.9564 13.5174 18.8892C13.4016 18.8219 13.3005 18.7321 13.22 18.625L11.22 16.125C11.0778 15.9477 11.0002 15.7273 11 15.5Z" fill="#FFC700"/>
</svg>
