<svg width="24" height="24" viewBox="0 0 24 24" fill="none" xmlns="http://www.w3.org/2000/svg">
<mask id="mask0_469_1572" style="mask-type:alpha" maskUnits="userSpaceOnUse" x="0" y="0" width="24" height="24">
<rect x="0.5" y="0.5" width="23" height="23" fill="#919191" stroke="black"/>
</mask>
<g mask="url(#mask0_469_1572)">
<path d="M9.19542 15.5023L9.54896 15.8583L9.90376 15.5036L18.3788 7.02855C18.4913 6.91601 18.5998 6.875 18.7252 6.875C18.8506 6.875 18.9591 6.91601 19.0717 7.02855C19.1809 7.13778 19.2252 7.24928 19.2252 7.3875C19.2252 7.52572 19.1809 7.63722 19.0717 7.74645L19.0712 7.74693L9.89665 16.9464C9.89661 16.9465 9.89657 16.9465 9.89653 16.9466C9.78403 17.059 9.67555 17.1 9.55021 17.1C9.42482 17.1 9.31631 17.059 9.20376 16.9464L4.90376 12.6464L4.55021 13L4.90376 12.6464C4.79816 12.5408 4.75845 12.4355 4.76248 12.3026C4.76683 12.1589 4.81602 12.0413 4.92876 11.9286C5.03798 11.8193 5.14949 11.775 5.28771 11.775C5.42571 11.775 5.53707 11.8192 5.64613 11.928C5.64631 11.9282 5.64648 11.9284 5.64665 11.9286L9.19542 15.5023Z" fill="#9D9D9D" stroke="#9D9D9D"/>
</g>
</svg>
