<svg width="50" height="50" viewBox="0 0 50 50" fill="none" xmlns="http://www.w3.org/2000/svg">
<g clip-path="url(#clip0_778_1147)">
<path d="M19.1457 13.2293C14.8957 18.0001 11.979 24.8543 11.7082 25.5001L4.1665 22.2709L12.604 13.8334C13.5832 12.8543 14.9998 12.4168 16.3748 12.6876L19.1457 13.2293ZM23.2707 35.4168C23.2707 35.4168 31.0623 32.1876 35.5415 27.7084C46.7915 16.4584 44.9165 7.66676 44.3123 5.68759C42.3332 5.06259 33.5415 3.20842 22.2915 14.4584C17.8123 18.9376 14.5832 26.7293 14.5832 26.7293L23.2707 35.4168ZM36.7707 30.8543C31.9998 35.1043 25.1457 38.0209 24.4998 38.2918L27.729 45.8334L36.1665 37.3959C37.1457 36.4168 37.5832 35.0001 37.3123 33.6251L36.7707 30.8543ZM18.7498 37.5001C18.7498 39.2293 18.0415 40.7918 16.9165 41.9168C14.4582 44.3751 4.1665 45.8334 4.1665 45.8334C4.1665 45.8334 5.62484 35.5418 8.08317 33.0834C9.20817 31.9584 10.7707 31.2501 12.4998 31.2501C15.9582 31.2501 18.7498 34.0418 18.7498 37.5001ZM27.0832 18.7501C27.0832 16.4584 28.9582 14.5834 31.2498 14.5834C33.5415 14.5834 35.4165 16.4584 35.4165 18.7501C35.4165 21.0418 33.5415 22.9168 31.2498 22.9168C28.9582 22.9168 27.0832 21.0418 27.0832 18.7501Z" fill="#E55737"/>
</g>
<defs>
<clipPath id="clip0_778_1147">
<rect width="50" height="50" fill="white"/>
</clipPath>
</defs>
</svg>
