<svg width="30" height="30" viewBox="0 0 30 30" fill="none" xmlns="http://www.w3.org/2000/svg">
<g clip-path="url(#clip0_778_1147)">
<path d="M11.4875 7.9376C8.9375 10.8001 7.1875 14.9126 7.025 15.3001L2.5 13.3626L7.5625 8.3001C8.15 7.7126 9 7.4501 9.825 7.6126L11.4875 7.9376ZM13.9625 21.2501C13.9625 21.2501 18.6375 19.3126 21.325 16.6251C28.075 9.8751 26.95 4.6001 26.5875 3.4126C25.4 3.0376 20.125 1.9251 13.375 8.6751C10.6875 11.3626 8.75 16.0376 8.75 16.0376L13.9625 21.2501ZM22.0625 18.5126C19.2 21.0626 15.0875 22.8126 14.7 22.9751L16.6375 27.5001L21.7 22.4376C22.2875 21.8501 22.55 21.0001 22.3875 20.1751L22.0625 18.5126ZM11.25 22.5001C11.25 23.5376 10.825 24.4751 10.15 25.1501C8.675 26.6251 2.5 27.5001 2.5 27.5001C2.5 27.5001 3.375 21.3251 4.85 19.8501C5.525 19.1751 6.4625 18.7501 7.5 18.7501C9.575 18.7501 11.25 20.4251 11.25 22.5001ZM16.25 11.2501C16.25 9.8751 17.375 8.7501 18.75 8.7501C20.125 8.7501 21.25 9.8751 21.25 11.2501C21.25 12.6251 20.125 13.7501 18.75 13.7501C17.375 13.7501 16.25 12.6251 16.25 11.2501Z" fill="#E55737"/>
</g>
<defs>
<clipPath id="clip0_778_1147">
<rect width="30" height="30" fill="white"/>
</clipPath>
</defs>
</svg>
