<svg width="20" height="20" viewBox="0 0 20 20" fill="none" xmlns="http://www.w3.org/2000/svg">
<g clip-path="url(#clip0_584_895)">
<path d="M7.65817 5.2919C5.95817 7.20023 4.7915 9.9419 4.68317 10.2002L1.6665 8.90856L5.0415 5.53356C5.43317 5.1419 5.99984 4.9669 6.54984 5.07523L7.65817 5.2919ZM9.30817 14.1669C9.30817 14.1669 12.4248 12.8752 14.2165 11.0836C18.7165 6.58356 17.9665 3.0669 17.7248 2.27523C16.9332 2.02523 13.4165 1.28357 8.9165 5.78357C7.12484 7.57523 5.83317 10.6919 5.83317 10.6919L9.30817 14.1669ZM14.7082 12.3419C12.7998 14.0419 10.0582 15.2086 9.79984 15.3169L11.0915 18.3336L14.4665 14.9586C14.8582 14.5669 15.0332 14.0002 14.9248 13.4502L14.7082 12.3419ZM7.49984 15.0002C7.49984 15.6919 7.2165 16.3169 6.7665 16.7669C5.78317 17.7502 1.6665 18.3336 1.6665 18.3336C1.6665 18.3336 2.24984 14.2169 3.23317 13.2336C3.68317 12.7836 4.30817 12.5002 4.99984 12.5002C6.38317 12.5002 7.49984 13.6169 7.49984 15.0002ZM10.8332 7.50023C10.8332 6.58357 11.5832 5.83357 12.4998 5.83357C13.4165 5.83357 14.1665 6.58357 14.1665 7.50023C14.1665 8.4169 13.4165 9.1669 12.4998 9.1669C11.5832 9.1669 10.8332 8.4169 10.8332 7.50023Z" fill="#E55737"/>
</g>
<defs>
<clipPath id="clip0_584_895">
<rect width="20" height="20" fill="white"/>
</clipPath>
</defs>
</svg>
