<svg width="25" height="25" viewBox="0 0 25 25" fill="none" xmlns="http://www.w3.org/2000/svg">
<mask id="mask0_636_941" style="mask-type:alpha" maskUnits="userSpaceOnUse" x="0" y="0" width="25" height="25">
<rect x="0.139648" y="0.750732" width="24" height="24" fill="#D9D9D9"/>
</mask>
<g mask="url(#mask0_636_941)">
<path d="M12.1395 14.1507L9.23945 17.0507C9.05612 17.234 8.82279 17.3257 8.53945 17.3257C8.25612 17.3257 8.02279 17.234 7.83945 17.0507C7.65612 16.8674 7.56445 16.634 7.56445 16.3507C7.56445 16.0674 7.65612 15.834 7.83945 15.6507L10.7395 12.7507L7.83945 9.87568C7.65612 9.69235 7.56445 9.45902 7.56445 9.17568C7.56445 8.89235 7.65612 8.65902 7.83945 8.47568C8.02279 8.29235 8.25612 8.20068 8.53945 8.20068C8.82279 8.20068 9.05612 8.29235 9.23945 8.47568L12.1395 11.3757L15.0145 8.47568C15.1978 8.29235 15.4311 8.20068 15.7145 8.20068C15.9978 8.20068 16.2311 8.29235 16.4145 8.47568C16.6145 8.67568 16.7145 8.91318 16.7145 9.18818C16.7145 9.46318 16.6145 9.69235 16.4145 9.87568L13.5145 12.7507L16.4145 15.6507C16.5978 15.834 16.6895 16.0674 16.6895 16.3507C16.6895 16.634 16.5978 16.8674 16.4145 17.0507C16.2145 17.2507 15.977 17.3507 15.702 17.3507C15.427 17.3507 15.1978 17.2507 15.0145 17.0507L12.1395 14.1507Z" fill="#919191"/>
</g>
</svg>
