<svg width="16" height="16" viewBox="0 0 16 16" fill="none" xmlns="http://www.w3.org/2000/svg">
<mask id="mask0_702_936" style="mask-type:alpha" maskUnits="userSpaceOnUse" x="0" y="0" width="16" height="16">
<rect width="16" height="16" fill="#D9D9D9"/>
</mask>
<g mask="url(#mask0_702_936)">
<path d="M8.0002 8.93322L6.06686 10.8666C5.94464 10.9888 5.78908 11.0499 5.6002 11.0499C5.41131 11.0499 5.25575 10.9888 5.13353 10.8666C5.01131 10.7443 4.9502 10.5888 4.9502 10.3999C4.9502 10.211 5.01131 10.0554 5.13353 9.93322L7.06686 7.99989L5.13353 6.08322C5.01131 5.961 4.9502 5.80544 4.9502 5.61655C4.9502 5.42766 5.01131 5.27211 5.13353 5.14989C5.25575 5.02766 5.41131 4.96655 5.6002 4.96655C5.78908 4.96655 5.94464 5.02766 6.06686 5.14989L8.0002 7.08322L9.91686 5.14989C10.0391 5.02766 10.1946 4.96655 10.3835 4.96655C10.5724 4.96655 10.728 5.02766 10.8502 5.14989C10.9835 5.28322 11.0502 5.44155 11.0502 5.62489C11.0502 5.80822 10.9835 5.961 10.8502 6.08322L8.91686 7.99989L10.8502 9.93322C10.9724 10.0554 11.0335 10.211 11.0335 10.3999C11.0335 10.5888 10.9724 10.7443 10.8502 10.8666C10.7169 10.9999 10.5585 11.0666 10.3752 11.0666C10.1919 11.0666 10.0391 10.9999 9.91686 10.8666L8.0002 8.93322Z" fill="#919191"/>
</g>
</svg>
