<svg width="24" height="24" viewBox="0 0 24 24" fill="none" xmlns="http://www.w3.org/2000/svg">
<mask id="mask0_118_280" style="mask-type:alpha" maskUnits="userSpaceOnUse" x="0" y="0" width="24" height="24">
<rect width="24" height="24" transform="matrix(-1 0 0 1 24 0)" fill="#D9D9D9"/>
</mask>
<g mask="url(#mask0_118_280)">
<path d="M5.71893 13.1061L5.46287 12.85H5.825H21C21.2456 12.85 21.4443 12.7686 21.6064 12.6065C21.7686 12.4443 21.85 12.2456 21.85 12C21.85 11.7545 21.7686 11.5558 21.6064 11.3936C21.4443 11.2315 21.2456 11.15 21 11.15H5.825H5.46451L5.71859 10.8943L9.59359 6.99432L9.59393 6.99398C9.74849 6.83943 9.83032 6.64738 9.83757 6.40801C9.84461 6.17564 9.76562 5.9778 9.59393 5.80611C9.44148 5.65366 9.24761 5.57505 9 5.57505C8.75239 5.57505 8.55852 5.65366 8.40607 5.80611L2.80606 11.4061C2.71954 11.4926 2.66197 11.5825 2.62876 11.6755C2.5933 11.7748 2.575 11.8826 2.575 12C2.575 12.1175 2.5933 12.2253 2.62876 12.3246C2.66197 12.4176 2.71954 12.5075 2.80606 12.594L8.40607 18.194C8.55943 18.3473 8.7496 18.425 8.9875 18.425C9.22443 18.425 9.42484 18.3478 9.59624 18.1917C9.76744 18.0194 9.85 17.8205 9.85 17.5875C9.85 17.3536 9.7667 17.1539 9.59393 16.9811L5.71893 13.1061Z" fill="#1C1B1F" stroke="#F8F8F8" stroke-width="0.3"/>
</g>
</svg>
