<svg width="25" height="24" viewBox="0 0 25 24" fill="none" xmlns="http://www.w3.org/2000/svg">
<g clip-path="url(#clip0_111_862)">
<path d="M1 9.70326C1.05163 9.57454 1.08884 9.43858 1.15668 9.31822C1.46463 8.76991 1.95388 8.4874 2.62322 8.48684C4.00872 8.48517 5.39362 8.48294 6.77851 8.49075C6.96521 8.49186 7.04865 8.43669 7.12189 8.27844C7.87227 6.66695 8.63225 5.05936 9.39103 3.45121C9.54471 3.12468 9.80704 2.96699 10.1174 3.00543C10.5886 3.06339 10.839 3.48855 10.6409 3.91482C10.2231 4.81307 9.79744 5.70797 9.37602 6.60454C9.08668 7.22027 8.79793 7.83601 8.49958 8.4718H16.5016C16.4596 8.37819 16.4248 8.29683 16.387 8.21603C15.714 6.78508 15.0399 5.35469 14.3693 3.92318C14.1682 3.49356 14.4072 3.07119 14.8778 3.00711C15.184 2.96531 15.4583 3.11855 15.6024 3.42279C16.0532 4.37565 16.501 5.33017 16.95 6.28414C17.267 6.95838 17.5876 7.63095 17.8967 8.30798C17.9586 8.44338 18.0348 8.49019 18.1945 8.48963C19.6172 8.48406 21.0399 8.47681 22.462 8.4913C23.4495 8.50133 24.1555 9.32212 23.9694 10.2198C23.8847 10.6283 23.7785 11.0334 23.6782 11.439C22.9945 14.2123 22.3083 16.9856 21.6252 19.7589C21.4325 20.5413 20.8424 20.9971 19.981 20.9976C14.9943 21.0004 10.0075 21.0004 5.02083 20.9976C4.169 20.9976 3.5729 20.5418 3.3844 19.7756C2.60221 16.5961 1.81941 13.4166 1.03602 10.2371C1.02941 10.2109 1.01201 10.1869 1 10.1619C1 10.0092 1 9.8565 1 9.70326ZM6.42073 9.75676C6.36731 9.74673 6.3457 9.73893 6.32409 9.73893C5.09647 9.73837 3.86825 9.7367 2.64063 9.73893C2.3903 9.73948 2.32007 9.837 2.3795 10.0783C3.14308 13.1759 3.90727 16.274 4.67205 19.3717C4.7627 19.7389 4.7765 19.7478 5.17871 19.7478C8.46536 19.7478 11.752 19.7478 15.0387 19.7478C16.6631 19.7478 18.2881 19.7461 19.9125 19.75C20.1292 19.7506 20.2637 19.6932 20.3159 19.4798C21.0807 16.361 21.8497 13.2427 22.6175 10.1245C22.6949 9.80969 22.6319 9.73781 22.2825 9.73781C21.1221 9.73725 19.9618 9.73781 18.8014 9.73781C18.7377 9.73781 18.6741 9.74506 18.5847 9.75007C18.6417 9.87266 18.6897 9.97296 18.7347 10.0744C18.892 10.4299 18.748 10.7937 18.3956 10.9331C18.0468 11.0707 17.6758 10.9297 17.5041 10.5859C17.3877 10.353 17.2772 10.1173 17.1752 9.87935C17.1301 9.77403 17.0689 9.73503 16.9434 9.73503C13.9863 9.73837 11.0287 9.73837 8.07157 9.73503C7.9329 9.73503 7.87587 9.78629 7.82844 9.89495C7.72459 10.1329 7.61474 10.3686 7.49648 10.6004C7.32299 10.9403 6.9442 11.0735 6.59782 10.9258C6.26225 10.7832 6.12118 10.4349 6.26405 10.0989C6.31028 9.99023 6.3631 9.8838 6.42193 9.75676H6.42073Z" fill="#080808"/>
<path d="M7.78542 15.3608C7.78542 14.6253 7.78482 13.8892 7.78542 13.1537C7.78602 12.728 8.05256 12.4499 8.45716 12.4493C8.86297 12.4482 9.1325 12.7257 9.1331 13.1498C9.1343 14.6281 9.1343 16.1064 9.1331 17.5847C9.1331 17.9982 8.84376 18.2918 8.45056 18.2851C8.06276 18.2785 7.78722 17.992 7.78602 17.5886C7.78422 16.8458 7.78602 16.1031 7.78602 15.3608H7.78542Z" fill="#080808"/>
<path d="M13.1771 15.3608C13.1771 16.0964 13.1777 16.8325 13.1771 17.568C13.1771 17.9898 12.9076 18.2785 12.5126 18.2851C12.1122 18.2918 11.83 17.9954 11.83 17.5641C11.8294 16.0925 11.8294 14.6214 11.83 13.1498C11.83 12.7257 12.1002 12.4482 12.506 12.4493C12.9112 12.4505 13.1771 12.7274 13.1777 13.1537C13.1789 13.8892 13.1771 14.6253 13.1771 15.3608Z" fill="#080808"/>
<path d="M17.2213 15.3642C17.2213 16.0931 17.2213 16.8219 17.2213 17.5508C17.2213 17.9899 16.9547 18.2813 16.5531 18.2858C16.1527 18.2902 15.8742 17.9943 15.8736 17.5614C15.8736 16.0831 15.8724 14.6047 15.8736 13.1264C15.8742 12.66 16.2806 12.3519 16.7296 12.47C17.0328 12.5497 17.2189 12.7899 17.2201 13.1158C17.2225 13.8653 17.2207 14.6153 17.2207 15.3648L17.2213 15.3642Z" fill="#080808"/>
</g>
<defs>
<clipPath id="clip0_111_862">
<rect width="23" height="18" fill="white" transform="translate(1 3)"/>
</clipPath>
</defs>
</svg>
