<svg width="25" height="24" viewBox="0 0 25 24" fill="none" xmlns="http://www.w3.org/2000/svg">
<g clip-path="url(#clip0_111_854)">
<path d="M0.833496 9.01503C0.906413 8.74326 0.95472 8.46211 1.05544 8.20062C1.69163 6.54766 3.53141 5.92903 5.07588 6.83954C6.67093 7.78 7.28844 9.89515 6.42575 11.4632C5.68382 12.8117 3.98486 13.2641 2.64183 12.4729C1.63421 11.8798 1.06273 11.0032 0.874056 9.87459C0.868132 9.84017 0.847624 9.80799 0.833496 9.77491V9.01503Z" fill="#080808"/>
<path d="M24.1671 12.7698C24.0031 13.2288 23.9037 13.7236 23.6627 14.1393C23.052 15.1929 22.1191 15.8276 20.859 15.8987C19.4918 15.976 18.4013 15.1513 18.0845 13.8416C17.5887 11.7909 19.3724 9.60598 21.5107 9.64442C22.835 9.66811 23.9183 10.5983 24.1216 11.8852C24.1307 11.9424 24.1512 11.9983 24.1662 12.0546L24.1671 12.7698Z" fill="#080808"/>
<path d="M11.6812 21.1253C10.628 21.1136 9.67283 21.3537 8.74268 21.7247C6.67686 22.5489 4.40278 21.4145 3.87504 19.2922C3.66176 18.4353 3.72647 17.5793 4.19861 16.8279C5.17022 15.2831 6.10584 13.7035 7.22374 12.2633C8.59002 10.5039 10.5045 9.85045 12.7394 10.2478C14.3304 10.5308 15.5563 11.3872 16.4381 12.7058C17.2872 13.9753 18.1225 15.2536 18.946 16.5396C20.2982 18.6521 19.1866 21.3519 16.743 21.903C16.0471 22.0599 15.3526 22.0326 14.6858 21.768C13.7069 21.3796 12.7062 21.1029 11.6812 21.1253Z" fill="#080808"/>
<path d="M13.3603 5.89855C13.3193 7.03792 12.9273 8.08745 11.9803 8.88487C10.712 9.95273 8.99485 9.90803 7.76438 8.79011C6.15703 7.3298 6.08092 4.56608 7.60533 3.02129C9.10058 1.50601 11.3879 1.70134 12.6097 3.44593C13.1156 4.16826 13.3452 4.97061 13.3603 5.89855Z" fill="#080808"/>
<path d="M20.1891 6.81723C20.1166 8.3352 19.6008 9.44194 18.4478 10.2C16.7538 11.3135 14.6967 10.6336 14.0003 8.74821C13.3431 6.9692 14.2651 4.79729 15.99 4.0611C17.5905 3.37766 19.3342 4.0991 19.9239 5.71317C20.0724 6.12037 20.1294 6.55932 20.1891 6.81723Z" fill="#080808"/>
</g>
<defs>
<clipPath id="clip0_111_854">
<rect width="24" height="24" fill="white" transform="translate(0.5)"/>
</clipPath>
</defs>
</svg>
