<svg width="25" height="24" viewBox="0 0 25 24" fill="none" xmlns="http://www.w3.org/2000/svg">
<path d="M17.1975 14.6332V15.1594M12.1985 17.0011H13.7771L12.9878 17.7904L12.1985 17.0011Z" stroke="#080808" stroke-width="2" stroke-linecap="round" stroke-linejoin="round"/>
<path d="M8.77832 14.6332V15.1594" stroke="#080808" stroke-width="2" stroke-linecap="round" stroke-linejoin="round"/>
<path d="M5.01062 11.7357C4.71662 12.8732 4.5681 14.0433 4.5686 15.2182C4.5686 19.6089 8.33837 22 12.988 22C17.6375 22 21.4073 19.6089 21.4073 15.2182C21.4021 14.0385 21.2273 12.8657 20.8885 11.7357" stroke="#080808" stroke-width="1.2" stroke-linecap="round" stroke-linejoin="round"/>
<path d="M9.30435 8.84479C8.90022 9.94983 8.16458 10.9791 6.83748 11.4758C4.80526 12.2357 3.07403 11.1633 2.98984 10.4234C2.87092 9.37732 4.22854 3.55113 7.19951 3.05649C9.22331 2.71867 11.0419 3.94579 11.0419 5.40865C12.373 5.07074 13.7692 5.08597 15.0927 5.45285C15.0927 3.98999 17.0333 2.71867 19.0571 3.05649C22.0281 3.55113 23.3857 9.37732 23.2668 10.4234C23.1826 11.1633 21.4514 12.2357 19.4191 11.4758C18.092 10.9791 17.4669 9.94983 17.0628 8.84479" stroke="#080808" stroke-width="1.2" stroke-linecap="round" stroke-linejoin="round"/>
</svg>
