<svg width="25" height="24" viewBox="0 0 25 24" fill="none" xmlns="http://www.w3.org/2000/svg">
<path d="M20.5612 20.9996C20.5463 19.1962 19.9869 17.5808 18.8368 16.1935C17.5606 14.6539 15.9285 13.7152 13.9338 13.4748C11.628 13.197 9.59907 13.8433 7.87817 15.4081C6.46665 16.691 5.66729 18.2985 5.44712 20.1934C5.41592 20.4602 5.41724 20.7306 5.40361 20.9996H4C4 20.8239 4 20.6482 4 20.4721C4.04614 20.1256 4.08042 19.7774 4.14062 19.4335C4.47153 17.5407 5.33242 15.9241 6.69517 14.5768C7.6145 13.6681 8.68325 12.9896 9.89834 12.5463C9.93525 12.5326 9.97085 12.5141 10.0231 12.4908C8.51626 11.3447 7.72261 9.85309 7.80391 7.95417C7.86851 6.44887 8.50132 5.19716 9.64653 4.22635C11.7779 2.41946 15.0386 2.58853 16.9621 4.87136C18.8324 7.09079 18.5727 10.6007 15.9373 12.4903C16.0054 12.5185 16.0604 12.5419 16.1157 12.5643C19.1967 13.8112 21.104 16.0531 21.8031 19.3129C21.8726 19.6378 21.8893 19.9737 21.9354 20.3039C21.9438 20.362 21.9776 20.4166 22 20.4725V21L20.5612 20.9996ZM12.9622 11.9999C15.036 12.0179 16.745 10.3277 16.7709 8.23287C16.7964 6.15168 15.0966 4.42624 13.0022 4.40819C10.9284 4.39014 9.21939 6.08036 9.19346 8.17519C9.16797 10.2564 10.8678 11.9818 12.9622 11.9999Z" fill="#080808"/>
<circle cx="12.5" cy="8.5" r="4.5" fill="#080808"/>
<path d="M6.5 15.5L4.5 21H21.5L19.5 16L15.5 13H11L6.5 15.5Z" fill="#080808"/>
</svg>
