<svg width="143" height="37" viewBox="0 0 143 37" fill="none" xmlns="http://www.w3.org/2000/svg">
<mask id="path-1-outside-1_225_448" maskUnits="userSpaceOnUse" x="0.5" y="5" width="103" height="32" fill="black">
<rect fill="white" x="0.5" y="5" width="103" height="32"/>
<path d="M10.508 13.476H12.812C13.388 13.476 14.036 13.908 14.036 14.808C14.036 15.636 13.46 16.14 12.884 16.14H10.616C6.44 16.14 4.28 18.804 4.28 22.152C4.28 25.644 6.044 28.056 10.436 28.056H14.396C14.864 28.056 14.828 27.696 14.864 27.48C15.26 21 15.116 12.72 14.936 7.536C14.936 7.104 15.332 6.204 16.376 6.204C17.6 6.204 17.816 7.212 17.816 7.572C17.96 10.812 18.068 26.22 17.636 29.136C17.456 30.18 16.592 30.72 15.692 30.72H10.508C4.712 30.684 1.472 27.372 1.472 22.152C1.472 17.724 4.46 13.44 10.508 13.476ZM29.8766 31.08C24.9086 31.08 20.9486 27.66 20.9486 22.188C20.9486 16.536 25.0886 13.188 29.8766 13.188C34.6286 13.188 38.7686 16.536 38.7686 22.188C38.7686 27.66 34.8086 31.08 29.8766 31.08ZM29.8766 28.308C33.2606 28.308 35.8886 26.184 35.8886 22.152C35.8886 17.832 33.0806 15.96 29.8766 15.96C26.6726 15.96 23.8286 17.832 23.8286 22.152C23.8286 26.184 26.3846 28.308 29.8766 28.308ZM44.6287 29.424C44.6287 29.82 44.2327 30.72 43.2247 30.72C42.0007 30.72 41.7847 29.712 41.7847 29.388C41.7127 24.744 41.6767 18.948 41.7847 14.736C41.7847 14.376 42.0007 13.368 43.2247 13.368C44.2327 13.368 44.6287 14.268 44.6287 14.7C44.5207 18.732 44.4847 23.772 44.6287 29.424ZM54.2047 22.188C54.2047 18.696 52.7647 16.14 48.6247 16.14H46.7167C46.1407 16.14 45.5647 15.636 45.5647 14.808C45.5647 13.98 46.2127 13.476 46.7887 13.476H48.3367C54.7807 13.476 57.0487 17.436 57.0487 22.116C57.0487 24.384 56.9767 27.372 56.9407 29.388C56.9407 29.712 56.7247 30.72 55.5007 30.72C54.4567 30.72 54.0607 29.82 54.0607 29.424C54.1327 27.084 54.2047 24.24 54.2047 22.188ZM68.1448 36.624C66.0568 36.588 64.4728 36.228 63.2128 35.508C62.7808 35.292 62.1688 34.752 62.3488 33.924C62.4928 33.096 63.6088 32.7 64.1128 32.952C65.5528 33.6 66.2368 33.924 68.0368 33.924C70.5568 33.924 73.0048 33.132 73.2208 28.488C73.3648 24.96 73.1848 20.316 72.9688 16.716C72.9328 16.464 72.9688 16.14 72.5008 16.14H68.9008C64.5448 16.14 62.7448 18.912 62.7448 21.54C62.7448 24.312 64.9048 26.976 69.0808 26.976H70.9888C71.5648 26.976 72.1408 27.48 72.1408 28.344C72.1408 29.172 71.4928 29.676 70.9168 29.676H68.9728C62.9248 29.712 59.9368 25.572 59.9368 21.54C59.9368 17.364 63.1408 13.512 68.9728 13.476H73.7968C74.6968 13.476 75.5608 14.016 75.7408 15.096C75.9928 16.752 76.2088 23.628 76.0288 28.488C75.8128 34.248 72.3928 36.732 68.1448 36.624ZM82.877 7.392C83.237 12.216 83.237 23.808 82.877 29.568C82.841 30.288 82.013 30.792 81.329 30.72C80.573 30.684 80.033 30.036 80.069 29.316C80.249 23.736 80.357 13.296 80.069 7.644C80.033 6.888 80.537 6.312 81.329 6.204C81.977 6.132 82.841 6.6 82.877 7.392ZM86.1986 22.152C86.1986 16.572 89.8706 13.188 94.7306 13.188C97.8626 13.188 102.507 15.24 102.687 21.072C102.723 22.62 101.535 23.34 100.779 23.34H91.4906C90.9506 23.34 90.3026 22.872 90.3026 22.08C90.3026 21.252 90.8786 20.676 91.4546 20.676H99.8426C99.7346 17.436 97.3946 15.924 94.7306 15.924C91.5626 15.924 89.1146 17.868 89.1146 22.188C89.1146 26.328 91.6346 28.164 94.9106 28.344C96.6386 28.452 98.0426 28.056 99.5906 27.228C100.131 26.976 101.211 27.408 101.355 28.236C101.535 29.064 100.923 29.604 100.491 29.856C99.1226 30.576 96.8906 31.188 94.8026 31.08C89.7986 30.864 86.1986 27.336 86.1986 22.152Z"/>
</mask>
<path d="M10.508 13.476H12.812C13.388 13.476 14.036 13.908 14.036 14.808C14.036 15.636 13.46 16.14 12.884 16.14H10.616C6.44 16.14 4.28 18.804 4.28 22.152C4.28 25.644 6.044 28.056 10.436 28.056H14.396C14.864 28.056 14.828 27.696 14.864 27.48C15.26 21 15.116 12.72 14.936 7.536C14.936 7.104 15.332 6.204 16.376 6.204C17.6 6.204 17.816 7.212 17.816 7.572C17.96 10.812 18.068 26.22 17.636 29.136C17.456 30.18 16.592 30.72 15.692 30.72H10.508C4.712 30.684 1.472 27.372 1.472 22.152C1.472 17.724 4.46 13.44 10.508 13.476ZM29.8766 31.08C24.9086 31.08 20.9486 27.66 20.9486 22.188C20.9486 16.536 25.0886 13.188 29.8766 13.188C34.6286 13.188 38.7686 16.536 38.7686 22.188C38.7686 27.66 34.8086 31.08 29.8766 31.08ZM29.8766 28.308C33.2606 28.308 35.8886 26.184 35.8886 22.152C35.8886 17.832 33.0806 15.96 29.8766 15.96C26.6726 15.96 23.8286 17.832 23.8286 22.152C23.8286 26.184 26.3846 28.308 29.8766 28.308ZM44.6287 29.424C44.6287 29.82 44.2327 30.72 43.2247 30.72C42.0007 30.72 41.7847 29.712 41.7847 29.388C41.7127 24.744 41.6767 18.948 41.7847 14.736C41.7847 14.376 42.0007 13.368 43.2247 13.368C44.2327 13.368 44.6287 14.268 44.6287 14.7C44.5207 18.732 44.4847 23.772 44.6287 29.424ZM54.2047 22.188C54.2047 18.696 52.7647 16.14 48.6247 16.14H46.7167C46.1407 16.14 45.5647 15.636 45.5647 14.808C45.5647 13.98 46.2127 13.476 46.7887 13.476H48.3367C54.7807 13.476 57.0487 17.436 57.0487 22.116C57.0487 24.384 56.9767 27.372 56.9407 29.388C56.9407 29.712 56.7247 30.72 55.5007 30.72C54.4567 30.72 54.0607 29.82 54.0607 29.424C54.1327 27.084 54.2047 24.24 54.2047 22.188ZM68.1448 36.624C66.0568 36.588 64.4728 36.228 63.2128 35.508C62.7808 35.292 62.1688 34.752 62.3488 33.924C62.4928 33.096 63.6088 32.7 64.1128 32.952C65.5528 33.6 66.2368 33.924 68.0368 33.924C70.5568 33.924 73.0048 33.132 73.2208 28.488C73.3648 24.96 73.1848 20.316 72.9688 16.716C72.9328 16.464 72.9688 16.14 72.5008 16.14H68.9008C64.5448 16.14 62.7448 18.912 62.7448 21.54C62.7448 24.312 64.9048 26.976 69.0808 26.976H70.9888C71.5648 26.976 72.1408 27.48 72.1408 28.344C72.1408 29.172 71.4928 29.676 70.9168 29.676H68.9728C62.9248 29.712 59.9368 25.572 59.9368 21.54C59.9368 17.364 63.1408 13.512 68.9728 13.476H73.7968C74.6968 13.476 75.5608 14.016 75.7408 15.096C75.9928 16.752 76.2088 23.628 76.0288 28.488C75.8128 34.248 72.3928 36.732 68.1448 36.624ZM82.877 7.392C83.237 12.216 83.237 23.808 82.877 29.568C82.841 30.288 82.013 30.792 81.329 30.72C80.573 30.684 80.033 30.036 80.069 29.316C80.249 23.736 80.357 13.296 80.069 7.644C80.033 6.888 80.537 6.312 81.329 6.204C81.977 6.132 82.841 6.6 82.877 7.392ZM86.1986 22.152C86.1986 16.572 89.8706 13.188 94.7306 13.188C97.8626 13.188 102.507 15.24 102.687 21.072C102.723 22.62 101.535 23.34 100.779 23.34H91.4906C90.9506 23.34 90.3026 22.872 90.3026 22.08C90.3026 21.252 90.8786 20.676 91.4546 20.676H99.8426C99.7346 17.436 97.3946 15.924 94.7306 15.924C91.5626 15.924 89.1146 17.868 89.1146 22.188C89.1146 26.328 91.6346 28.164 94.9106 28.344C96.6386 28.452 98.0426 28.056 99.5906 27.228C100.131 26.976 101.211 27.408 101.355 28.236C101.535 29.064 100.923 29.604 100.491 29.856C99.1226 30.576 96.8906 31.188 94.8026 31.08C89.7986 30.864 86.1986 27.336 86.1986 22.152Z" fill="#35241E"/>
<path d="M10.508 13.476L10.5068 13.676H10.508V13.476ZM14.864 27.48L15.0613 27.5129L15.063 27.5026L15.0636 27.4922L14.864 27.48ZM14.936 7.536H14.7359L14.7361 7.54294L14.936 7.536ZM17.816 7.572H17.6158L17.6162 7.58088L17.816 7.572ZM17.636 29.136L17.8331 29.17L17.8338 29.1653L17.636 29.136ZM10.508 30.72L10.5068 30.92H10.508V30.72ZM10.508 13.676H12.812V13.276H10.508V13.676ZM12.812 13.676C13.2889 13.676 13.836 14.0295 13.836 14.808H14.236C14.236 13.7865 13.4871 13.276 12.812 13.276V13.676ZM13.836 14.808C13.836 15.5371 13.3383 15.94 12.884 15.94V16.34C13.5817 16.34 14.236 15.7349 14.236 14.808H13.836ZM12.884 15.94H10.616V16.34H12.884V15.94ZM10.616 15.94C8.48403 15.94 6.84507 16.6212 5.7391 17.7506C4.63436 18.8787 4.08 20.4352 4.08 22.152H4.48C4.48 20.5208 5.00564 19.0713 6.0249 18.0304C7.04293 16.9908 8.57197 16.34 10.616 16.34V15.94ZM4.08 22.152C4.08 23.9291 4.52891 25.4623 5.56617 26.5514C6.6052 27.6424 8.20411 28.256 10.436 28.256V27.856C8.27589 27.856 6.7968 27.2636 5.85583 26.2756C4.91309 25.2857 4.48 23.8669 4.48 22.152H4.08ZM10.436 28.256H14.396V27.856H10.436V28.256ZM14.396 28.256C14.538 28.256 14.6612 28.2287 14.763 28.1687C14.8671 28.1074 14.9327 28.0215 14.9736 27.9328C15.0129 27.8477 15.0296 27.7596 15.0396 27.6889C15.0446 27.6532 15.0483 27.6179 15.0515 27.5888C15.0549 27.5579 15.0578 27.5338 15.0613 27.5129L14.6667 27.4471C14.6612 27.4802 14.6573 27.5146 14.654 27.5448C14.6504 27.5766 14.6474 27.6049 14.6434 27.6333C14.6354 27.6909 14.6251 27.7333 14.6104 27.7652C14.5973 27.7935 14.5819 27.8111 14.56 27.8241C14.5358 27.8383 14.488 27.856 14.396 27.856V28.256ZM15.0636 27.4922C15.4602 21.0023 15.3159 12.7146 15.1359 7.52906L14.7361 7.54294C14.9161 12.7254 15.0598 20.9977 14.6644 27.4678L15.0636 27.4922ZM15.136 7.536C15.136 7.36876 15.2173 7.08017 15.419 6.83505C15.6141 6.59788 15.9192 6.404 16.376 6.404V6.004C15.7888 6.004 15.374 6.26012 15.11 6.58095C14.8527 6.89383 14.736 7.27123 14.736 7.536H15.136ZM16.376 6.404C16.9229 6.404 17.2215 6.62431 17.3909 6.86736C17.5686 7.12234 17.616 7.42119 17.616 7.572H18.016C18.016 7.36281 17.9554 6.97766 17.7191 6.63864C17.4745 6.28769 17.0531 6.004 16.376 6.004V6.404ZM17.6162 7.58088C17.688 9.19584 17.751 13.8538 17.742 18.4751C17.733 23.1045 17.6515 27.6669 17.4382 29.1067L17.8338 29.1653C18.0525 27.6891 18.133 23.0895 18.142 18.4759C18.151 13.8542 18.088 9.18815 18.0158 7.56312L17.6162 7.58088ZM17.4389 29.102C17.2785 30.0326 16.5135 30.52 15.692 30.52V30.92C16.6705 30.92 17.6335 30.3274 17.8331 29.17L17.4389 29.102ZM15.692 30.52H10.508V30.92H15.692V30.52ZM10.5092 30.52C7.64858 30.5022 5.44405 29.6767 3.95558 28.2363C2.46797 26.7967 1.672 24.72 1.672 22.152H1.272C1.272 24.804 2.09603 26.9933 3.67742 28.5237C5.25795 30.0533 7.57142 30.9018 10.5068 30.92L10.5092 30.52ZM1.672 22.152C1.672 19.9816 2.40431 17.8543 3.86862 16.276C5.33006 14.7008 7.53361 13.6583 10.5068 13.676L10.5092 13.276C7.43439 13.2577 5.11995 14.3392 3.57538 16.004C2.03369 17.6657 1.272 19.8944 1.272 22.152H1.672ZM29.8766 30.88C27.4386 30.88 25.2578 30.0413 23.6877 28.5414C22.119 27.0428 21.1486 24.8734 21.1486 22.188H20.7486C20.7486 24.9746 21.7581 27.2512 23.4114 28.8306C25.0634 30.4087 27.3465 31.28 29.8766 31.28V30.88ZM21.1486 22.188C21.1486 16.657 25.1882 13.388 29.8766 13.388V12.988C24.9889 12.988 20.7486 16.415 20.7486 22.188H21.1486ZM29.8766 13.388C34.5284 13.388 38.5686 16.6565 38.5686 22.188H38.9686C38.9686 16.4155 34.7287 12.988 29.8766 12.988V13.388ZM38.5686 22.188C38.5686 24.8734 37.5981 27.0429 36.0337 28.5416C34.468 30.0415 32.2962 30.88 29.8766 30.88V31.28C32.389 31.28 34.6631 30.4085 36.3104 28.8304C37.959 27.2511 38.9686 24.9746 38.9686 22.188H38.5686ZM29.8766 28.508C31.61 28.508 33.166 27.9635 34.2899 26.8864C35.4156 25.8077 36.0886 24.2132 36.0886 22.152H35.6886C35.6886 24.1228 35.0476 25.6063 34.0132 26.5976C32.9772 27.5905 31.5271 28.108 29.8766 28.108V28.508ZM36.0886 22.152C36.0886 19.9463 35.3701 18.3408 34.219 17.2884C33.0712 16.239 31.5158 15.76 29.8766 15.76V16.16C31.4413 16.16 32.8919 16.617 33.9491 17.5836C35.0031 18.5472 35.6886 20.0377 35.6886 22.152H36.0886ZM29.8766 15.76C28.2374 15.76 26.6733 16.2389 25.5167 17.2878C24.3566 18.3399 23.6286 19.9455 23.6286 22.152H24.0286C24.0286 20.0385 24.7225 18.5481 25.7854 17.5842C26.8518 16.6171 28.3117 16.16 29.8766 16.16V15.76ZM23.6286 22.152C23.6286 24.2116 24.2826 25.8065 25.4044 26.8861C26.5248 27.9643 28.0905 28.508 29.8766 28.508V28.108C28.1706 28.108 26.7124 27.5897 25.6817 26.5979C24.6526 25.6075 24.0286 24.1244 24.0286 22.152H23.6286ZM44.6287 29.424H44.8288L44.8286 29.4189L44.6287 29.424ZM41.7847 29.388H41.9847L41.9847 29.3849L41.7847 29.388ZM41.7847 14.736L41.9847 14.7411V14.736H41.7847ZM44.6287 14.7L44.8287 14.7054V14.7H44.6287ZM56.9407 29.388L56.7407 29.3844V29.388H56.9407ZM54.0607 29.424L53.8607 29.4178V29.424H54.0607ZM44.4287 29.424C44.4287 29.5709 44.3489 29.851 44.15 30.0937C43.9579 30.3281 43.6611 30.52 43.2247 30.52V30.92C43.7962 30.92 44.2015 30.6619 44.4594 30.3473C44.7104 30.041 44.8287 29.6731 44.8287 29.424H44.4287ZM43.2247 30.52C42.6776 30.52 42.3785 30.2995 42.2089 30.06C42.031 29.8086 41.9847 29.5186 41.9847 29.388H41.5847C41.5847 29.5814 41.6463 29.9574 41.8824 30.291C42.1269 30.6365 42.5478 30.92 43.2247 30.92V30.52ZM41.9847 29.3849C41.9127 24.7415 41.8767 18.9489 41.9846 14.7411L41.5848 14.7309C41.4766 18.9471 41.5127 24.7465 41.5847 29.3911L41.9847 29.3849ZM41.9847 14.736C41.9847 14.5852 42.0321 14.2863 42.2098 14.0314C42.3792 13.7883 42.6777 13.568 43.2247 13.568V13.168C42.5476 13.168 42.1262 13.4517 41.8816 13.8026C41.6453 14.1417 41.5847 14.5268 41.5847 14.736H41.9847ZM43.2247 13.568C43.661 13.568 43.9572 13.7597 44.149 13.9976C44.3471 14.2432 44.4287 14.5325 44.4287 14.7H44.8287C44.8287 14.4355 44.7122 14.0588 44.4604 13.7464C44.2022 13.4263 43.7964 13.168 43.2247 13.168V13.568ZM44.4288 14.6946C44.3207 18.7298 44.2847 23.7733 44.4288 29.4291L44.8286 29.4189C44.6847 23.7707 44.7207 18.7342 44.8286 14.7054L44.4288 14.6946ZM54.4047 22.188C54.4047 20.4195 54.0408 18.854 53.1222 17.7281C52.1972 16.5944 50.7379 15.94 48.6247 15.94V16.34C50.6514 16.34 51.9822 16.9636 52.8122 17.9809C53.6485 19.006 54.0047 20.4645 54.0047 22.188H54.4047ZM48.6247 15.94H46.7167V16.34H48.6247V15.94ZM46.7167 15.94C46.2624 15.94 45.7647 15.5371 45.7647 14.808H45.3647C45.3647 15.7349 46.019 16.34 46.7167 16.34V15.94ZM45.7647 14.808C45.7647 14.0941 46.3195 13.676 46.7887 13.676V13.276C46.1059 13.276 45.3647 13.8659 45.3647 14.808H45.7647ZM46.7887 13.676H48.3367V13.276H46.7887V13.676ZM48.3367 13.676C51.516 13.676 53.6328 14.6512 54.9584 16.1724C56.2884 17.6986 56.8487 19.8049 56.8487 22.116H57.2487C57.2487 19.7471 56.675 17.5334 55.26 15.9096C53.8406 14.2808 51.6014 13.276 48.3367 13.276V13.676ZM56.8487 22.116C56.8487 24.3816 56.7768 27.3662 56.7407 29.3844L57.1407 29.3916C57.1766 27.3778 57.2487 24.3864 57.2487 22.116H56.8487ZM56.7407 29.388C56.7407 29.5186 56.6943 29.8086 56.5164 30.06C56.3469 30.2995 56.0478 30.52 55.5007 30.52V30.92C56.1776 30.92 56.5985 30.6365 56.8429 30.291C57.079 29.9574 57.1407 29.5814 57.1407 29.388H56.7407ZM55.5007 30.52C55.0438 30.52 54.738 30.3259 54.5426 30.0922C54.3402 29.8501 54.2607 29.5706 54.2607 29.424H53.8607C53.8607 29.6734 53.9792 30.0419 54.2358 30.3488C54.4993 30.6641 54.9136 30.92 55.5007 30.92V30.52ZM54.2606 29.4302C54.3326 27.09 54.4047 24.2433 54.4047 22.188H54.0047C54.0047 24.2367 53.9328 27.078 53.8608 29.4178L54.2606 29.4302ZM68.1448 36.624L68.1499 36.4241L68.1483 36.424L68.1448 36.624ZM63.2128 35.508L63.3122 35.3341L63.3023 35.3291L63.2128 35.508ZM62.3488 33.924L62.5444 33.9665L62.5459 33.9583L62.3488 33.924ZM64.1128 32.952L64.0233 33.131L64.0308 33.1344L64.1128 32.952ZM73.2208 28.488L73.4206 28.4973L73.4207 28.4962L73.2208 28.488ZM72.9688 16.716L73.1685 16.704L73.168 16.6958L73.1668 16.6877L72.9688 16.716ZM68.9728 29.676V29.476L68.9717 29.476L68.9728 29.676ZM68.9728 13.476V13.276L68.9716 13.276L68.9728 13.476ZM75.7408 15.096L75.9386 15.0659L75.9381 15.0631L75.7408 15.096ZM76.0288 28.488L76.2287 28.4955V28.4954L76.0288 28.488ZM68.1483 36.424C66.0803 36.3884 64.533 36.032 63.3121 35.3344L63.1136 35.6816C64.4127 36.424 66.0334 36.7876 68.1414 36.824L68.1483 36.424ZM63.3023 35.3291C62.8987 35.1273 62.394 34.6578 62.5443 33.9665L62.1534 33.8815C61.9437 34.8462 62.663 35.4567 63.1234 35.6869L63.3023 35.3291ZM62.5459 33.9583C62.6031 33.629 62.8582 33.3673 63.1817 33.2137C63.5131 33.0562 63.8486 33.0435 64.0234 33.1309L64.2023 32.7731C63.8731 32.6085 63.3986 32.6678 63.01 32.8523C62.6135 33.0407 62.2385 33.391 62.1518 33.8897L62.5459 33.9583ZM64.0308 33.1344C64.7465 33.4565 65.2923 33.7066 65.8857 33.8735C66.4838 34.0417 67.1238 34.124 68.0368 34.124V33.724C67.1499 33.724 66.5479 33.6443 65.994 33.4885C65.4354 33.3314 64.9192 33.0955 64.1949 32.7696L64.0308 33.1344ZM68.0368 34.124C69.3117 34.124 70.6112 33.9251 71.6193 33.1025C72.6331 32.2752 73.3111 30.852 73.4206 28.4973L73.0211 28.4787C72.9146 30.768 72.2606 32.0628 71.3664 32.7925C70.4665 33.5269 69.282 33.724 68.0368 33.724V34.124ZM73.4207 28.4962C73.5651 24.9577 73.3846 20.3055 73.1685 16.704L72.7692 16.728C72.9851 20.3265 73.1646 24.9623 73.021 28.4798L73.4207 28.4962ZM73.1668 16.6877C73.163 16.6608 73.16 16.6321 73.1566 16.5985C73.1533 16.5664 73.1495 16.5295 73.1445 16.4926C73.1346 16.42 73.1177 16.3314 73.0771 16.247C73.0345 16.158 72.9666 16.0759 72.862 16.0189C72.7609 15.9638 72.6396 15.94 72.5008 15.94V16.34C72.5961 16.34 72.6458 16.3567 72.6707 16.3702C72.6921 16.3819 72.7052 16.3965 72.7165 16.42C72.73 16.4481 72.7401 16.4878 72.7482 16.5468C72.7521 16.5757 72.7552 16.6055 72.7586 16.6393C72.762 16.6717 72.7657 16.7082 72.7709 16.7443L73.1668 16.6877ZM72.5008 15.94H68.9008V16.34H72.5008V15.94ZM68.9008 15.94C66.6784 15.94 65.0844 16.6485 64.046 17.715C63.0101 18.779 62.5448 20.1817 62.5448 21.54H62.9448C62.9448 20.2703 63.3796 18.973 64.3326 17.994C65.2833 17.0175 66.7673 16.34 68.9008 16.34V15.94ZM62.5448 21.54C62.5448 22.9783 63.1056 24.3904 64.2088 25.4423C65.3132 26.4951 66.949 27.176 69.0808 27.176V26.776C67.0367 26.776 65.5045 26.1249 64.4849 25.1527C63.4641 24.1796 62.9448 22.8737 62.9448 21.54H62.5448ZM69.0808 27.176H70.9888V26.776H69.0808V27.176ZM70.9888 27.176C71.4396 27.176 71.9408 27.5751 71.9408 28.344H72.3408C72.3408 27.3849 71.6901 26.776 70.9888 26.776V27.176ZM71.9408 28.344C71.9408 29.0579 71.3861 29.476 70.9168 29.476V29.876C71.5996 29.876 72.3408 29.2861 72.3408 28.344H71.9408ZM70.9168 29.476H68.9728V29.876H70.9168V29.476ZM68.9717 29.476C65.9962 29.4937 63.791 28.4855 62.3297 26.9936C60.866 25.4992 60.1368 23.5076 60.1368 21.54H59.7368C59.7368 23.6044 60.5017 25.6988 62.044 27.2734C63.5887 28.8505 65.9015 29.8943 68.974 29.876L68.9717 29.476ZM60.1368 21.54C60.1368 17.4801 63.2458 13.7114 68.9741 13.676L68.9716 13.276C63.0359 13.3126 59.7368 17.2479 59.7368 21.54H60.1368ZM68.9728 13.676H73.7968V13.276H68.9728V13.676ZM73.7968 13.676C74.616 13.676 75.3823 14.1611 75.5436 15.1289L75.9381 15.0631C75.7394 13.8709 74.7777 13.276 73.7968 13.276V13.676ZM75.5431 15.1261C75.7922 16.7626 76.0089 23.6231 75.829 28.4806L76.2287 28.4954C76.4088 23.6329 76.1935 16.7414 75.9386 15.0659L75.5431 15.1261ZM75.829 28.4805C75.7224 31.3219 74.8275 33.3278 73.4619 34.6107C72.0957 35.8943 70.2341 36.4771 68.1499 36.4241L68.1398 36.8239C70.3036 36.8789 72.276 36.2737 73.7358 34.9023C75.1962 33.5302 76.1193 31.4141 76.2287 28.4955L75.829 28.4805ZM82.877 7.392L82.6771 7.40108L82.6776 7.40688L82.877 7.392ZM82.877 29.568L82.6774 29.5555L82.6772 29.558L82.877 29.568ZM81.329 30.72L81.35 30.5208L81.3385 30.5202L81.329 30.72ZM80.069 29.316L80.2688 29.326L80.2689 29.3224L80.069 29.316ZM80.069 7.644L79.8692 7.65351L79.8693 7.65418L80.069 7.644ZM81.329 6.204L81.3069 6.00516L81.302 6.00583L81.329 6.204ZM82.6776 7.40688C83.0368 12.2202 83.0369 23.803 82.6774 29.5555L83.0766 29.5805C83.4371 23.813 83.4372 12.2118 83.0764 7.37712L82.6776 7.40688ZM82.6772 29.558C82.6632 29.8398 82.493 30.0947 82.2316 30.2769C81.9696 30.4595 81.639 30.5515 81.3499 30.5211L81.3081 30.9189C81.703 30.9605 82.1284 30.8365 82.4604 30.6051C82.793 30.3733 83.0548 30.0162 83.0768 29.578L82.6772 29.558ZM81.3385 30.5202C80.6992 30.4898 80.238 29.9418 80.2688 29.326L79.8692 29.306C79.828 30.1302 80.4468 30.8782 81.3195 30.9198L81.3385 30.5202ZM80.2689 29.3224C80.449 23.7408 80.5572 13.2942 80.2687 7.63382L79.8693 7.65418C80.1568 13.2978 80.049 23.7312 79.8691 29.3096L80.2689 29.3224ZM80.2688 7.63449C80.2381 6.99092 80.6576 6.4974 81.356 6.40217L81.302 6.00583C80.4164 6.1266 79.8279 6.78508 79.8692 7.65351L80.2688 7.63449ZM81.3511 6.40278C81.6231 6.37255 81.9537 6.4565 82.2193 6.63888C82.4822 6.81936 82.6627 7.08202 82.6772 7.40108L83.0768 7.38292C83.0553 6.90998 82.7858 6.54263 82.4457 6.30912C82.1083 6.0775 81.6829 5.96344 81.3069 6.00522L81.3511 6.40278ZM102.687 21.072L102.887 21.0674L102.886 21.0658L102.687 21.072ZM99.8426 20.676V20.876H100.049L100.042 20.6693L99.8426 20.676ZM94.9106 28.344L94.923 28.1444L94.9215 28.1443L94.9106 28.344ZM99.5906 27.228L99.5059 27.0465L99.4962 27.0516L99.5906 27.228ZM101.355 28.236L101.157 28.2703L101.159 28.2785L101.355 28.236ZM100.491 29.856L100.584 30.0332L100.591 30.0288L100.491 29.856ZM94.8026 31.08L94.8129 30.8803L94.8112 30.8802L94.8026 31.08ZM86.3986 22.152C86.3986 19.4071 87.3008 17.2191 88.7843 15.7181C90.2681 14.2168 92.3479 13.388 94.7306 13.388V12.988C92.2532 12.988 90.067 13.8512 88.4998 15.4369C86.9323 17.0229 85.9986 19.3169 85.9986 22.152H86.3986ZM94.7306 13.388C96.258 13.388 98.1567 13.8896 99.6917 15.1C101.22 16.3053 102.398 18.221 102.487 21.0782L102.886 21.0658C102.795 18.091 101.561 16.0647 99.9394 14.786C98.3245 13.5124 96.3352 12.988 94.7306 12.988V13.388ZM102.487 21.0766C102.52 22.5014 101.434 23.14 100.779 23.14V23.54C101.635 23.54 102.925 22.7386 102.887 21.0674L102.487 21.0766ZM100.779 23.14H91.4906V23.54H100.779V23.14ZM91.4906 23.14C91.0494 23.14 90.5026 22.7503 90.5026 22.08H90.1026C90.1026 22.9937 90.8517 23.54 91.4906 23.54V23.14ZM90.5026 22.08C90.5026 21.336 91.0137 20.876 91.4546 20.876V20.476C90.7434 20.476 90.1026 21.168 90.1026 22.08H90.5026ZM91.4546 20.876H99.8426V20.476H91.4546V20.876ZM100.042 20.6693C99.9868 18.9984 99.3529 17.755 98.3738 16.9319C97.3986 16.1122 96.0986 15.724 94.7306 15.724V16.124C96.0266 16.124 97.2286 16.4918 98.1164 17.2381C99.0002 17.981 99.5904 19.1136 99.6427 20.6827L100.042 20.6693ZM94.7306 15.724C93.1059 15.724 91.6457 16.2232 90.5919 17.2958C89.5379 18.3686 88.9146 19.9904 88.9146 22.188H89.3146C89.3146 20.0656 89.9152 18.5554 90.8772 17.5762C91.8394 16.5968 93.1872 16.124 94.7306 16.124V15.724ZM88.9146 22.188C88.9146 24.3004 89.5588 25.8509 90.6455 26.8952C91.7291 27.9366 93.2291 28.4519 94.8996 28.5437L94.9215 28.1443C93.316 28.0561 91.918 27.5634 90.9226 26.6068C89.9303 25.6531 89.3146 24.2156 89.3146 22.188H88.9146ZM94.8981 28.5436C96.6708 28.6544 98.1116 28.2459 99.6849 27.4044L99.4962 27.0516C97.9735 27.8661 96.6063 28.2496 94.923 28.1444L94.8981 28.5436ZM99.6751 27.4092C99.8689 27.3188 100.206 27.341 100.531 27.5054C100.849 27.6665 101.1 27.9368 101.158 28.2703L101.552 28.2017C101.466 27.7072 101.104 27.3475 100.711 27.1486C100.325 26.953 99.8522 26.8852 99.506 27.0468L99.6751 27.4092ZM101.159 28.2785C101.309 28.9701 100.806 29.4404 100.39 29.6832L100.591 30.0288C101.039 29.7676 101.76 29.1579 101.55 28.1935L101.159 28.2785ZM100.397 29.679C99.0584 30.3838 96.8619 30.9862 94.8129 30.8803L94.7922 31.2797C96.9192 31.3897 99.1867 30.7682 100.584 30.033L100.397 29.679ZM94.8112 30.8802C92.3547 30.7742 90.2534 29.8562 88.7669 28.339C87.281 26.8224 86.3986 24.696 86.3986 22.152H85.9986C85.9986 24.792 86.9161 27.0216 88.4812 28.619C90.0457 30.2158 92.2464 31.1698 94.7939 31.2798L94.8112 30.8802Z" fill="#35241E" mask="url(#path-1-outside-1_225_448)"/>
<g clip-path="url(#clip0_225_448)">
<path d="M111.768 17.7422C111.299 19.5543 111.063 21.4185 111.063 23.2902C111.063 30.2852 117.069 34.0945 124.477 34.0945C131.884 34.0945 137.89 30.2852 137.89 23.2902C137.881 21.4108 137.603 19.5424 137.063 17.7422" fill="#FFB59D"/>
<path d="M111.768 17.7422C111.299 19.5543 111.063 21.4185 111.063 23.2902C111.063 30.2852 117.069 34.0945 124.477 34.0945C131.884 34.0945 137.89 30.2852 137.89 23.2902C137.881 21.4108 137.603 19.5424 137.063 17.7422" stroke="#E55737" stroke-width="2.5" stroke-linecap="round" stroke-linejoin="round"/>
<rect x="114.417" y="11.8191" width="20.1198" height="8.62276" fill="#FFB59D"/>
<path d="M118.608 13.1365C117.965 14.897 116.793 16.5368 114.678 17.3281C111.441 18.5387 108.683 16.8302 108.549 15.6515C108.359 13.9849 110.522 4.70298 115.255 3.91495C118.479 3.37675 121.377 5.33172 121.377 7.66226C123.497 7.12392 125.722 7.14819 127.83 7.73268C127.83 5.40214 130.922 3.37675 134.146 3.91495C138.879 4.70298 141.042 13.9849 140.853 15.6515C140.718 16.8302 137.96 18.5387 134.723 17.3281C132.608 16.5368 131.613 14.897 130.969 13.1365" fill="#FFB59D"/>
<path d="M118.608 13.1365C117.965 14.897 116.793 16.5368 114.678 17.3281C111.441 18.5387 108.683 16.8302 108.549 15.6515C108.359 13.9849 110.522 4.70298 115.255 3.91495C118.479 3.37675 121.377 5.33172 121.377 7.66226C123.497 7.12392 125.722 7.14819 127.83 7.73268C127.83 5.40214 130.922 3.37675 134.146 3.91495C138.879 4.70298 141.042 13.9849 140.853 15.6515C140.718 16.8302 137.96 18.5387 134.723 17.3281C132.608 16.5368 131.613 14.897 130.969 13.1365" stroke="#E55737" stroke-width="2.5" stroke-linecap="round" stroke-linejoin="round"/>
<path d="M123.219 26.1306H125.734L124.476 27.3881L123.219 26.1306Z" stroke="#35241E" stroke-width="3" stroke-linecap="round" stroke-linejoin="round"/>
<path d="M131.184 22.3579V23.1962" stroke="#35241E" stroke-width="3" stroke-linecap="round" stroke-linejoin="round"/>
<path d="M117.771 22.3582V23.1965" stroke="#35241E" stroke-width="3" stroke-linecap="round" stroke-linejoin="round"/>
</g>
<defs>
<clipPath id="clip0_225_448">
<rect width="36" height="36" fill="white" transform="translate(106.5 1)"/>
</clipPath>
</defs>
</svg>
