<svg width="98" height="38" viewBox="0 0 98 38" fill="none" xmlns="http://www.w3.org/2000/svg">
<mask id="path-1-outside-1_224_2509" maskUnits="userSpaceOnUse" x="0" y="3.5" width="59" height="31" fill="black">
<rect fill="white" y="3.5" width="59" height="31"/>
<path d="M6.984 11.888C7.02 12.032 7.092 12.104 7.272 12.176C8.424 12.644 12.6 13.04 15.624 13.04C18.648 13.04 21.672 12.572 24.12 11.78C24.66 11.564 25.524 11.924 25.74 12.644C25.992 13.364 25.632 14.048 25.164 14.264C22.824 15.272 19.332 15.632 16.236 15.74V18.44C20.412 18.404 24.408 18.296 26.928 17.972C27.684 17.9 28.44 18.368 28.476 19.124C28.548 19.844 27.936 20.528 27.252 20.636C23.076 21.176 7.128 21.32 2.268 20.636C1.512 20.528 0.936 19.844 1.044 19.124C1.152 18.332 1.836 17.9 2.556 17.972C5.112 18.224 9.108 18.368 13.284 18.404V15.704C10.512 15.632 7.56 15.308 6.084 14.696C5.22 14.336 4.428 13.76 4.212 12.716C3.852 11.024 3.96 8.108 4.176 6.596C4.32 5.624 5.112 4.652 6.012 4.652H23.688C24.192 4.652 24.912 5.192 24.912 5.948C24.912 6.596 24.336 7.28 23.76 7.28H7.488C6.984 7.28 6.948 7.64 6.912 7.928C6.804 8.792 6.732 10.736 6.984 11.888ZM26.388 28.556C26.388 32.948 21.168 34.244 14.76 34.244C8.352 34.244 3.06 32.876 3.132 28.556C3.132 24.272 8.352 22.868 14.76 22.868C21.168 22.868 26.388 24.236 26.388 28.556ZM23.436 28.592C23.436 26.216 19.944 25.568 14.724 25.568C9.54 25.568 6.084 26.216 6.084 28.592C6.084 30.86 9.54 31.544 14.724 31.544C19.944 31.544 23.436 30.932 23.436 28.592ZM53.9393 13.076C53.7953 13.58 53.1833 14.12 52.3193 13.976C51.4553 13.832 51.0953 13.112 51.1673 12.572C51.4913 11.06 51.8153 8.792 51.6353 7.568C51.5993 7.28 51.5993 7.28 51.0953 7.28H35.1833C34.6073 7.28 34.0312 6.596 34.0312 5.948C34.0312 5.192 34.7513 4.652 35.2553 4.652H52.4633C53.3993 4.652 54.1913 5.192 54.4073 6.236C54.7313 8.072 54.4073 11.492 53.9393 13.076ZM31.7993 17.288C31.0433 17.18 30.4673 16.496 30.5753 15.776C30.6833 14.984 31.3673 14.48 32.0873 14.588C37.7753 15.128 50.8433 15.236 56.4593 14.588C57.2513 14.48 57.9713 15.056 58.0073 15.776C58.0793 16.496 57.4673 17.18 56.7833 17.288C52.6073 17.828 36.6593 17.972 31.7993 17.288ZM35.9753 28.124C35.9393 28.484 35.9033 29.528 36.0473 30.212C36.0833 30.356 36.1553 30.428 36.3353 30.5C37.4873 30.968 42.2033 31.256 45.2633 31.256C48.2873 31.256 51.7073 30.788 54.1553 29.996C54.6953 29.78 55.5593 30.104 55.7753 30.824C56.0273 31.544 55.6673 32.192 55.1993 32.408C52.6073 33.524 48.2513 33.848 44.9753 33.884C41.7353 33.884 37.0193 33.704 35.1473 32.948C34.2832 32.588 33.4913 32.012 33.2753 30.968C32.9513 29.528 33.1673 27.44 33.3113 26.792C33.4553 26.252 33.9593 25.46 34.7153 25.46H52.3193C52.3913 25.136 52.4633 24.38 52.4273 23.732C52.4273 23.48 52.2113 23.12 51.7073 23.12H34.8593C34.3193 23.12 33.6713 22.472 33.6713 21.752C33.6713 21.104 34.2473 20.456 34.8593 20.456H53.1833C54.0833 20.456 54.9833 20.996 55.1273 22.076C55.3433 23.696 55.2713 25.46 55.0193 26.684C54.8753 27.368 54.2273 28.124 53.1113 28.124H35.9753Z"/>
</mask>
<path d="M6.984 11.888C7.02 12.032 7.092 12.104 7.272 12.176C8.424 12.644 12.6 13.04 15.624 13.04C18.648 13.04 21.672 12.572 24.12 11.78C24.66 11.564 25.524 11.924 25.74 12.644C25.992 13.364 25.632 14.048 25.164 14.264C22.824 15.272 19.332 15.632 16.236 15.74V18.44C20.412 18.404 24.408 18.296 26.928 17.972C27.684 17.9 28.44 18.368 28.476 19.124C28.548 19.844 27.936 20.528 27.252 20.636C23.076 21.176 7.128 21.32 2.268 20.636C1.512 20.528 0.936 19.844 1.044 19.124C1.152 18.332 1.836 17.9 2.556 17.972C5.112 18.224 9.108 18.368 13.284 18.404V15.704C10.512 15.632 7.56 15.308 6.084 14.696C5.22 14.336 4.428 13.76 4.212 12.716C3.852 11.024 3.96 8.108 4.176 6.596C4.32 5.624 5.112 4.652 6.012 4.652H23.688C24.192 4.652 24.912 5.192 24.912 5.948C24.912 6.596 24.336 7.28 23.76 7.28H7.488C6.984 7.28 6.948 7.64 6.912 7.928C6.804 8.792 6.732 10.736 6.984 11.888ZM26.388 28.556C26.388 32.948 21.168 34.244 14.76 34.244C8.352 34.244 3.06 32.876 3.132 28.556C3.132 24.272 8.352 22.868 14.76 22.868C21.168 22.868 26.388 24.236 26.388 28.556ZM23.436 28.592C23.436 26.216 19.944 25.568 14.724 25.568C9.54 25.568 6.084 26.216 6.084 28.592C6.084 30.86 9.54 31.544 14.724 31.544C19.944 31.544 23.436 30.932 23.436 28.592ZM53.9393 13.076C53.7953 13.58 53.1833 14.12 52.3193 13.976C51.4553 13.832 51.0953 13.112 51.1673 12.572C51.4913 11.06 51.8153 8.792 51.6353 7.568C51.5993 7.28 51.5993 7.28 51.0953 7.28H35.1833C34.6073 7.28 34.0312 6.596 34.0312 5.948C34.0312 5.192 34.7513 4.652 35.2553 4.652H52.4633C53.3993 4.652 54.1913 5.192 54.4073 6.236C54.7313 8.072 54.4073 11.492 53.9393 13.076ZM31.7993 17.288C31.0433 17.18 30.4673 16.496 30.5753 15.776C30.6833 14.984 31.3673 14.48 32.0873 14.588C37.7753 15.128 50.8433 15.236 56.4593 14.588C57.2513 14.48 57.9713 15.056 58.0073 15.776C58.0793 16.496 57.4673 17.18 56.7833 17.288C52.6073 17.828 36.6593 17.972 31.7993 17.288ZM35.9753 28.124C35.9393 28.484 35.9033 29.528 36.0473 30.212C36.0833 30.356 36.1553 30.428 36.3353 30.5C37.4873 30.968 42.2033 31.256 45.2633 31.256C48.2873 31.256 51.7073 30.788 54.1553 29.996C54.6953 29.78 55.5593 30.104 55.7753 30.824C56.0273 31.544 55.6673 32.192 55.1993 32.408C52.6073 33.524 48.2513 33.848 44.9753 33.884C41.7353 33.884 37.0193 33.704 35.1473 32.948C34.2832 32.588 33.4913 32.012 33.2753 30.968C32.9513 29.528 33.1673 27.44 33.3113 26.792C33.4553 26.252 33.9593 25.46 34.7153 25.46H52.3193C52.3913 25.136 52.4633 24.38 52.4273 23.732C52.4273 23.48 52.2113 23.12 51.7073 23.12H34.8593C34.3193 23.12 33.6713 22.472 33.6713 21.752C33.6713 21.104 34.2473 20.456 34.8593 20.456H53.1833C54.0833 20.456 54.9833 20.996 55.1273 22.076C55.3433 23.696 55.2713 25.46 55.0193 26.684C54.8753 27.368 54.2273 28.124 53.1113 28.124H35.9753Z" fill="#35241E"/>
<path d="M6.984 11.888L6.78853 11.9308L6.78997 11.9365L6.984 11.888ZM7.272 12.176L7.34728 11.9907L7.34628 11.9903L7.272 12.176ZM24.12 11.78L24.1817 11.9707L24.1943 11.9657L24.12 11.78ZM25.74 12.644L25.5482 12.7015L25.5512 12.7101L25.74 12.644ZM25.164 14.264L25.2432 14.4477L25.2478 14.4456L25.164 14.264ZM16.236 15.74L16.229 15.5401L16.036 15.5469V15.74H16.236ZM16.236 18.44H16.036V18.6417L16.2377 18.64L16.236 18.44ZM26.928 17.972L26.909 17.7728L26.9025 17.7736L26.928 17.972ZM28.476 19.124L28.276 19.1335L28.277 19.1439L28.476 19.124ZM27.252 20.636L27.2777 20.8344L27.2832 20.8336L27.252 20.636ZM2.268 20.636L2.23972 20.834L2.24013 20.834L2.268 20.636ZM1.044 19.124L1.2418 19.1537L1.24217 19.151L1.044 19.124ZM2.556 17.972L2.5361 18.171L2.53638 18.171L2.556 17.972ZM13.284 18.404L13.2823 18.604L13.484 18.6057V18.404H13.284ZM13.284 15.704H13.484V15.5091L13.2892 15.5041L13.284 15.704ZM6.084 14.696L6.00708 14.8806L6.0074 14.8807L6.084 14.696ZM4.212 12.716L4.40786 12.6755L4.40762 12.6744L4.212 12.716ZM4.176 6.596L3.97816 6.56669L3.97801 6.56771L4.176 6.596ZM6.912 7.928L6.71354 7.90319L6.912 7.928ZM3.132 28.556L3.332 28.5593V28.556H3.132ZM6.78997 11.9365C6.81422 12.0335 6.85542 12.1233 6.93258 12.2004C7.00557 12.2734 7.09761 12.3216 7.19772 12.3617L7.34628 11.9903C7.26639 11.9583 7.23243 11.9346 7.21542 11.9176C7.20258 11.9047 7.18978 11.8865 7.17803 11.8395L6.78997 11.9365ZM7.19672 12.3613C7.50633 12.4871 8.00184 12.6024 8.60397 12.7056C9.21065 12.8095 9.93999 12.9034 10.726 12.9825C12.2978 13.1406 14.1045 13.24 15.624 13.24V12.84C14.1195 12.84 12.3262 12.7414 10.766 12.5845C9.98601 12.5061 9.26635 12.4132 8.67153 12.3113C8.07216 12.2086 7.61367 12.0989 7.34728 11.9907L7.19672 12.3613ZM15.624 13.24C18.6668 13.24 21.7118 12.7693 24.1816 11.9703L24.0584 11.5897C21.6322 12.3747 18.6292 12.84 15.624 12.84V13.24ZM24.1943 11.9657C24.3983 11.8841 24.689 11.9053 24.9631 12.0404C25.2336 12.1737 25.4593 12.4044 25.5484 12.7015L25.9316 12.5865C25.8047 12.1636 25.4904 11.8543 25.1399 11.6816C24.793 11.5107 24.3817 11.4599 24.0457 11.5943L24.1943 11.9657ZM25.5512 12.7101C25.771 13.3379 25.4498 13.9118 25.0802 14.0824L25.2478 14.4456C25.8142 14.1842 26.213 13.3901 25.9288 12.5779L25.5512 12.7101ZM25.0849 14.0803C22.7825 15.0721 19.3242 15.4321 16.229 15.5401L16.243 15.9399C19.3398 15.8318 22.8655 15.4719 25.2431 14.4477L25.0849 14.0803ZM16.036 15.74V18.44H16.436V15.74H16.036ZM16.2377 18.64C20.412 18.604 24.4198 18.4961 26.9535 18.1704L26.9025 17.7736C24.3962 18.0959 20.412 18.204 16.2343 18.24L16.2377 18.64ZM26.947 18.1711C27.6301 18.106 28.2474 18.5287 28.2762 19.1335L28.6758 19.1145C28.6326 18.2073 27.7379 17.694 26.909 17.7729L26.947 18.1711ZM28.277 19.1439C28.3067 19.4406 28.1959 19.7398 27.9941 19.9812C27.7917 20.2232 27.5094 20.3929 27.2208 20.4384L27.2832 20.8336C27.6786 20.7711 28.0443 20.5448 28.3009 20.2378C28.5581 19.9302 28.7173 19.5274 28.675 19.1041L28.277 19.1439ZM27.2264 20.4377C25.1526 20.7058 20.1337 20.877 15.0158 20.895C9.89719 20.913 4.70939 20.7776 2.29587 20.438L2.24013 20.834C4.68661 21.1784 9.90281 21.313 15.0172 21.295C20.1323 21.277 25.1754 21.1062 27.2776 20.8343L27.2264 20.4377ZM2.29628 20.438C1.63231 20.3432 1.15281 19.7469 1.24179 19.1537L0.846213 19.0943C0.719191 19.9411 1.39169 20.7128 2.23972 20.834L2.29628 20.438ZM1.24217 19.151C1.33352 18.4811 1.90706 18.1081 2.5361 18.171L2.5759 17.773C1.76494 17.6919 0.970481 18.1829 0.845834 19.097L1.24217 19.151ZM2.53638 18.171C5.10153 18.4239 9.10474 18.568 13.2823 18.604L13.2857 18.204C9.11126 18.168 5.12247 18.0241 2.57562 17.773L2.53638 18.171ZM13.484 18.404V15.704H13.084V18.404H13.484ZM13.2892 15.5041C11.9085 15.4682 10.4847 15.3696 9.22402 15.2042C7.95924 15.0383 6.87355 14.8069 6.1606 14.5113L6.0074 14.8807C6.77045 15.1971 7.89876 15.4337 9.17198 15.6008C10.4493 15.7684 11.8875 15.8678 13.2788 15.9039L13.2892 15.5041ZM6.16092 14.5114C5.32216 14.1619 4.60416 13.6243 4.40785 12.6755L4.01615 12.7565C4.25184 13.8957 5.11784 14.5101 6.00708 14.8806L6.16092 14.5114ZM4.40762 12.6744C4.05459 11.0151 4.15952 8.12556 4.37399 6.62428L3.97801 6.56771C3.76048 8.09044 3.64941 11.0329 4.01638 12.7576L4.40762 12.6744ZM4.37384 6.62531C4.43989 6.17947 4.6561 5.72956 4.95907 5.39339C5.26296 5.05619 5.63589 4.852 6.012 4.852V4.452C5.48811 4.452 5.01504 4.7338 4.66193 5.1256C4.3079 5.51843 4.05611 6.04053 3.97816 6.56669L4.37384 6.62531ZM6.012 4.852H23.688V4.452H6.012V4.852ZM23.688 4.852C23.8766 4.852 24.1358 4.958 24.3517 5.1619C24.5637 5.36213 24.712 5.6363 24.712 5.948H25.112C25.112 5.5037 24.9003 5.12987 24.6263 4.8711C24.3562 4.616 24.0034 4.452 23.688 4.452V4.852ZM24.712 5.948C24.712 6.21577 24.5911 6.50408 24.4002 6.72684C24.2074 6.95174 23.9702 7.08 23.76 7.08V7.48C24.1258 7.48 24.4646 7.26626 24.7039 6.98716C24.9449 6.70592 25.112 6.32823 25.112 5.948H24.712ZM23.76 7.08H7.488V7.48H23.76V7.08ZM7.488 7.08C7.33854 7.08 7.20888 7.10669 7.09939 7.16267C6.98816 7.21954 6.90894 7.30096 6.85354 7.3922C6.75031 7.56224 6.72992 7.77218 6.71354 7.90319L7.11046 7.95281C7.13008 7.79581 7.14569 7.68176 7.19546 7.59979C7.21656 7.56504 7.24309 7.53845 7.28148 7.51882C7.32162 7.4983 7.38546 7.48 7.488 7.48V7.08ZM6.71354 7.90319C6.60446 8.77589 6.52949 10.7461 6.78862 11.9307L7.17938 11.8453C6.93451 10.7259 7.00354 8.80811 7.11046 7.95281L6.71354 7.90319ZM26.188 28.556C26.188 29.6111 25.8757 30.471 25.3159 31.1729C24.7536 31.8779 23.9327 32.4343 22.9004 32.8622C20.8316 33.7198 17.9567 34.044 14.76 34.044V34.444C17.9713 34.444 20.9104 34.1202 23.0536 33.2318C24.1273 32.7867 25.0119 32.1956 25.6286 31.4223C26.2478 30.646 26.588 29.6969 26.588 28.556H26.188ZM14.76 34.044C11.5643 34.044 8.6711 33.702 6.59298 32.8354C5.55575 32.4029 4.73265 31.8441 4.17381 31.1426C3.61768 30.4445 3.31472 29.5947 3.33197 28.5593L2.93203 28.5527C2.91328 29.6773 3.24482 30.6185 3.86094 31.3919C4.47435 32.1619 5.36126 32.7551 6.43902 33.2046C8.5909 34.102 11.5477 34.444 14.76 34.444V34.044ZM3.332 28.556C3.332 27.5291 3.64358 26.6826 4.20369 25.9852C4.76634 25.2845 5.58786 24.7246 6.62059 24.2898C8.6897 23.4189 11.5648 23.068 14.76 23.068V22.668C11.5472 22.668 8.6083 23.0191 6.46541 23.9212C5.39214 24.3729 4.50816 24.9672 3.89181 25.7347C3.27292 26.5054 2.932 27.4409 2.932 28.556H3.332ZM14.76 23.068C17.9557 23.068 20.8307 23.41 22.8997 24.2765C23.9323 24.7089 24.7536 25.2677 25.3162 25.9698C25.8762 26.6687 26.188 27.5197 26.188 28.556H26.588C26.588 27.4323 26.2473 26.4923 25.6283 25.7197C25.0119 24.9503 24.1277 24.3571 23.0543 23.9075C20.9113 23.01 17.9723 22.668 14.76 22.668V23.068ZM23.636 28.592C23.636 27.9421 23.3945 27.4047 22.9477 26.9733C22.5069 26.5476 21.8736 26.2317 21.0951 25.9975C19.5395 25.5294 17.3362 25.368 14.724 25.368V25.768C17.3318 25.768 19.4845 25.9306 20.9799 26.3805C21.7269 26.6053 22.2929 26.8969 22.6699 27.261C23.041 27.6193 23.236 28.0539 23.236 28.592H23.636ZM14.724 25.368C12.1298 25.368 9.94424 25.5294 8.4019 25.9976C7.62997 26.232 7.00224 26.548 6.56538 26.9739C6.12269 27.4055 5.884 27.9428 5.884 28.592H6.284C6.284 28.0532 6.47731 27.6185 6.84462 27.2603C7.21777 26.8965 7.77803 26.605 8.5181 26.3804C9.99976 25.9306 12.1342 25.768 14.724 25.768V25.368ZM5.884 28.592C5.884 29.2171 6.12499 29.7368 6.56757 30.1554C7.00417 30.5683 7.63116 30.8782 8.40243 31.11C9.9441 31.5735 12.1289 31.744 14.724 31.744V31.344C12.1351 31.344 9.9999 31.1725 8.51757 30.727C7.77684 30.5043 7.21584 30.2179 6.84243 29.8648C6.47501 29.5172 6.284 29.1009 6.284 28.592H5.884ZM14.724 31.744C17.3358 31.744 19.5386 31.5916 21.0936 31.1375C21.8716 30.9103 22.505 30.6027 22.9462 30.1858C23.3936 29.763 23.636 29.234 23.636 28.592H23.236C23.236 29.12 23.0419 29.545 22.6714 29.8951C22.2947 30.2511 21.7289 30.5352 20.9814 30.7535C19.4854 31.1904 17.3322 31.344 14.724 31.344V31.744ZM53.9393 13.076L53.7474 13.0193L53.7469 13.0211L53.9393 13.076ZM51.1673 12.572L50.9717 12.5301L50.97 12.5378L50.969 12.5456L51.1673 12.572ZM51.6353 7.568L51.4367 7.59281L51.4374 7.5971L51.6353 7.568ZM54.4073 6.236L54.6043 6.20123L54.6031 6.19548L54.4073 6.236ZM31.7992 17.288L31.771 17.486L31.7714 17.486L31.7992 17.288ZM30.5753 15.776L30.7731 15.8057L30.7734 15.803L30.5753 15.776ZM32.0872 14.588L32.0575 14.7861L32.0683 14.7871L32.0872 14.588ZM56.4593 14.588L56.4822 14.7867L56.4863 14.7862L56.4593 14.588ZM58.0073 15.776L57.8073 15.786L57.8082 15.7959L58.0073 15.776ZM56.7833 17.288L56.8089 17.4864L56.8144 17.4856L56.7833 17.288ZM35.9753 28.124V27.924H35.7943L35.7762 28.1041L35.9753 28.124ZM36.0472 30.212L35.8514 30.2532L35.8532 30.2605L36.0472 30.212ZM36.3353 30.5L36.4105 30.3147L36.4095 30.3143L36.3353 30.5ZM54.1553 29.996L54.217 30.1867L54.2295 30.1817L54.1553 29.996ZM55.7752 30.824L55.5835 30.8815L55.5865 30.8901L55.7752 30.824ZM55.1993 32.408L55.2784 32.5918L55.2831 32.5896L55.1993 32.408ZM44.9753 33.884V34.084L44.9774 34.084L44.9753 33.884ZM35.1473 32.948L35.0703 33.1326L35.0724 33.1334L35.1473 32.948ZM33.2752 30.968L33.4711 30.9275L33.4704 30.9241L33.2752 30.968ZM33.3112 26.792L33.1178 26.7404L33.116 26.7486L33.3112 26.792ZM52.3193 25.46V25.66H52.4797L52.5145 25.5034L52.3193 25.46ZM52.4272 23.732H52.2269L52.2276 23.7431L52.4272 23.732ZM55.1273 22.076L55.3255 22.0496L55.1273 22.076ZM55.0192 26.684L55.215 26.7252L55.2151 26.7243L55.0192 26.684ZM53.7469 13.0211C53.63 13.4305 53.1125 13.9055 52.3521 13.7787L52.2864 14.1733C53.254 14.3345 53.9605 13.7295 54.1316 13.1309L53.7469 13.0211ZM52.3521 13.7787C51.6011 13.6535 51.3069 13.0381 51.3655 12.5984L50.969 12.5456C50.8836 13.1859 51.3094 14.0105 52.2864 14.1733L52.3521 13.7787ZM51.3628 12.6139C51.5261 11.8521 51.6892 10.9003 51.7891 9.98365C51.8884 9.07138 51.927 8.17732 51.8331 7.5389L51.4374 7.5971C51.5235 8.18268 51.4901 9.03462 51.3914 9.94034C51.2933 10.8417 51.1324 11.7799 50.9717 12.5301L51.3628 12.6139ZM51.8337 7.54319C51.8257 7.47893 51.817 7.40299 51.7971 7.34064C51.7728 7.26455 51.7261 7.1882 51.6349 7.13953C51.5604 7.09983 51.4745 7.0896 51.3998 7.08489C51.3205 7.0799 51.2185 7.08 51.0953 7.08V7.48C51.224 7.48 51.311 7.48009 51.3746 7.4841C51.4428 7.4884 51.4536 7.49616 51.4466 7.49247C51.4229 7.4798 51.4145 7.45745 51.416 7.46236C51.422 7.48101 51.4268 7.51306 51.4368 7.59281L51.8337 7.54319ZM51.0953 7.08H35.1833V7.48H51.0953V7.08ZM35.1833 7.08C34.973 7.08 34.7359 6.95174 34.5431 6.72684C34.3522 6.50408 34.2313 6.21577 34.2313 5.948H33.8312C33.8312 6.32823 33.9983 6.70592 34.2394 6.98716C34.4786 7.26626 34.8175 7.48 35.1833 7.48V7.08ZM34.2313 5.948C34.2313 5.6363 34.3796 5.36213 34.5916 5.1619C34.8075 4.958 35.0666 4.852 35.2552 4.852V4.452C34.9399 4.452 34.587 4.616 34.3169 4.8711C34.0429 5.12987 33.8312 5.5037 33.8312 5.948H34.2313ZM35.2552 4.852H52.4632V4.452H35.2552V4.852ZM52.4632 4.852C52.8928 4.852 53.2801 4.97565 53.5826 5.21048C53.8839 5.4444 54.1122 5.79717 54.2114 6.27652L54.6031 6.19548C54.4863 5.63083 54.2106 5.1916 53.8279 4.89452C53.4464 4.59835 52.9697 4.452 52.4632 4.452V4.852ZM54.2103 6.27076C54.3679 7.16408 54.3694 8.45842 54.2708 9.73511C54.1724 11.0108 53.9758 12.2463 53.7474 13.0193L54.1311 13.1327C54.3707 12.3217 54.5701 11.0552 54.6697 9.76589C54.7691 8.47758 54.7706 7.14392 54.6042 6.20124L54.2103 6.27076ZM31.8275 17.09C31.1636 16.9952 30.6841 16.3989 30.773 15.8057L30.3775 15.7463C30.2504 16.5931 30.9229 17.3648 31.771 17.486L31.8275 17.09ZM30.7734 15.803C30.867 15.1165 31.4528 14.6951 32.0576 14.7858L32.1169 14.3902C31.2817 14.2649 30.4995 14.8515 30.3771 15.749L30.7734 15.803ZM32.0683 14.7871C37.7666 15.3281 50.849 15.4367 56.4822 14.7867L56.4363 14.3893C50.8375 15.0353 37.7839 14.9279 32.1062 14.3889L32.0683 14.7871ZM56.4863 14.7862C57.1747 14.6923 57.778 15.1953 57.8075 15.786L58.207 15.766C58.1645 14.9167 57.3278 14.2677 56.4322 14.3898L56.4863 14.7862ZM57.8082 15.7959C57.8379 16.0926 57.7272 16.3918 57.5253 16.6332C57.323 16.8752 57.0407 17.0449 56.7521 17.0904L56.8144 17.4856C57.2099 17.4231 57.5755 17.1968 57.8322 16.8898C58.0893 16.5822 58.2486 16.1794 58.2063 15.7561L57.8082 15.7959ZM56.7576 17.0897C54.6839 17.3578 49.665 17.529 44.547 17.547C39.4284 17.565 34.2406 17.4296 31.8271 17.09L31.7714 17.486C34.2179 17.8304 39.4341 17.965 44.5485 17.947C49.6635 17.929 54.7066 17.7582 56.8089 17.4863L56.7576 17.0897ZM35.7762 28.1041C35.7395 28.4716 35.7013 29.5395 35.8515 30.2532L36.243 30.1708C36.1052 29.5165 36.139 28.4964 36.1743 28.1439L35.7762 28.1041ZM35.8532 30.2605C35.8775 30.3575 35.9187 30.4473 35.9958 30.5244C36.0688 30.5974 36.1609 30.6457 36.261 30.6857L36.4095 30.3143C36.3296 30.2824 36.2957 30.2586 36.2787 30.2416C36.2658 30.2287 36.253 30.2105 36.2413 30.1635L35.8532 30.2605ZM36.26 30.6853C36.5733 30.8126 37.1064 30.9208 37.7577 31.0136C38.4155 31.1072 39.2133 31.1875 40.0685 31.2529C41.779 31.3838 43.7281 31.456 45.2632 31.456V31.056C43.7384 31.056 41.7995 30.9842 40.099 30.8541C39.2487 30.789 38.4602 30.7095 37.8141 30.6176C37.1616 30.5247 36.6732 30.4214 36.4105 30.3147L36.26 30.6853ZM45.2632 31.456C48.3033 31.456 51.7448 30.9861 54.2168 30.1863L54.0937 29.8057C51.6697 30.5899 48.2712 31.056 45.2632 31.056V31.456ZM54.2295 30.1817C54.4373 30.0986 54.7301 30.1141 55.0026 30.2404C55.2715 30.3652 55.4951 30.5863 55.5837 30.8815L55.9668 30.7665C55.8394 30.3417 55.523 30.0408 55.1709 29.8776C54.8224 29.7159 54.4132 29.6774 54.081 29.8103L54.2295 30.1817ZM55.5865 30.8901C55.8049 31.5141 55.4886 32.0542 55.1154 32.2264L55.2831 32.5896C55.8459 32.3298 56.2496 31.5739 55.964 30.7579L55.5865 30.8901ZM55.1202 32.2243C53.8502 32.7711 52.1353 33.1283 50.3192 33.3525C48.5063 33.5763 46.6061 33.6661 44.9731 33.684L44.9774 34.084C46.6204 34.0659 48.5362 33.9757 50.3683 33.7495C52.1972 33.5237 53.9563 33.1609 55.2783 32.5917L55.1202 32.2243ZM44.9753 33.684C43.3582 33.684 41.3747 33.6391 39.5636 33.5001C37.7435 33.3604 36.1258 33.1275 35.2221 32.7626L35.0724 33.1334C36.0407 33.5245 37.717 33.7596 39.5329 33.8989C41.3578 34.0389 43.3523 34.084 44.9753 34.084V33.684ZM35.2242 32.7634C34.3854 32.4139 33.6674 31.8763 33.4711 30.9275L33.0794 31.0085C33.3151 32.1477 34.1811 32.7621 35.0703 33.1326L35.2242 32.7634ZM33.4704 30.9241C33.314 30.2289 33.2864 29.367 33.3176 28.591C33.3488 27.8155 33.4379 27.1441 33.5065 26.8354L33.116 26.7486C33.0406 27.0879 32.9497 27.7845 32.9179 28.575C32.8861 29.365 32.9125 30.2671 33.0801 31.0119L33.4704 30.9241ZM33.5045 26.8435C33.5691 26.6012 33.717 26.2971 33.9325 26.0572C34.1475 25.8179 34.4124 25.66 34.7153 25.66V25.26C34.2621 25.26 33.897 25.4981 33.635 25.7898C33.3735 26.0809 33.1974 26.4428 33.118 26.7405L33.5045 26.8435ZM34.7153 25.66H52.3193V25.26H34.7153V25.66ZM52.5145 25.5034C52.591 25.1592 52.6638 24.3846 52.6269 23.7209L52.2276 23.7431C52.2627 24.3754 52.1915 25.1128 52.124 25.4166L52.5145 25.5034ZM52.6273 23.732C52.6273 23.3767 52.3288 22.92 51.7073 22.92V23.32C52.0937 23.32 52.2273 23.5833 52.2273 23.732H52.6273ZM51.7073 22.92H34.8592V23.32H51.7073V22.92ZM34.8592 22.92C34.664 22.92 34.4168 22.7977 34.2106 22.5713C34.0078 22.3486 33.8713 22.0528 33.8713 21.752H33.4712C33.4712 22.1712 33.6587 22.5594 33.9149 22.8407C34.1677 23.1183 34.5145 23.32 34.8592 23.32V22.92ZM33.8713 21.752C33.8713 21.4854 33.9912 21.2077 34.1839 20.9954C34.3771 20.7824 34.6238 20.656 34.8592 20.656V20.256C34.4827 20.256 34.1354 20.4536 33.8876 20.7266C33.6393 21.0003 33.4712 21.3706 33.4712 21.752H33.8713ZM34.8592 20.656H53.1833V20.256H34.8592V20.656ZM53.1833 20.656C54.0086 20.656 54.8014 21.1452 54.929 22.1024L55.3255 22.0496C55.1651 20.8468 54.1579 20.256 53.1833 20.256V20.656ZM54.929 22.1024C55.1423 23.7021 55.0705 25.4435 54.8234 26.6437L55.2151 26.7243C55.472 25.4765 55.5442 23.6899 55.3255 22.0496L54.929 22.1024ZM54.8235 26.6428C54.697 27.2439 54.1232 27.924 53.1113 27.924V28.324C54.3313 28.324 55.0535 27.4921 55.215 26.7252L54.8235 26.6428ZM53.1113 27.924H35.9753V28.324H53.1113V27.924Z" fill="#35241E" mask="url(#path-1-outside-1_224_2509)"/>
<path d="M67.2672 18.2422C66.7988 20.0543 66.5622 21.9185 66.563 23.7902C66.563 30.7852 72.5687 34.5945 79.9762 34.5945C87.3836 34.5945 93.3893 30.7852 93.3893 23.7902C93.381 21.9108 93.1026 20.0424 92.5628 18.2422" fill="#FFB59D"/>
<path d="M67.2672 18.2422C66.7988 20.0543 66.5622 21.9185 66.563 23.7902C66.563 30.7852 72.5687 34.5945 79.9762 34.5945C87.3836 34.5945 93.3893 30.7852 93.3893 23.7902C93.381 21.9108 93.1026 20.0424 92.5628 18.2422" stroke="#E55737" stroke-width="2.5" stroke-linecap="round" stroke-linejoin="round"/>
<rect x="69.9165" y="12.3191" width="20.1198" height="8.62276" fill="#FFB59D"/>
<path d="M74.1079 13.6365C73.4641 15.397 72.2921 17.0368 70.1779 17.8281C66.9403 19.0387 64.1822 17.3302 64.0481 16.1515C63.8586 14.4849 66.0215 5.20298 70.7546 4.41495C73.9788 3.87675 76.8761 5.83172 76.8761 8.16226C78.9967 7.62392 81.2211 7.64819 83.3295 8.23268C83.3295 5.90214 86.4212 3.87675 89.6454 4.41495C94.3786 5.20298 96.5415 14.4849 96.352 16.1515C96.2179 17.3302 93.4598 19.0387 90.2222 17.8281C88.1079 17.0368 87.112 15.397 86.4682 13.6365" fill="#FFB59D"/>
<path d="M74.1079 13.6365C73.4641 15.397 72.2921 17.0368 70.1779 17.8281C66.9403 19.0387 64.1822 17.3302 64.0481 16.1515C63.8586 14.4849 66.0215 5.20298 70.7546 4.41495C73.9788 3.87675 76.8761 5.83172 76.8761 8.16226C78.9967 7.62392 81.2211 7.64819 83.3295 8.23268C83.3295 5.90214 86.4212 3.87675 89.6454 4.41495C94.3786 5.20298 96.5415 14.4849 96.352 16.1515C96.2179 17.3302 93.4598 19.0387 90.2222 17.8281C88.1079 17.0368 87.112 15.397 86.4682 13.6365" stroke="#E55737" stroke-width="2.5" stroke-linecap="round" stroke-linejoin="round"/>
<path d="M78.7188 26.6306H81.2337L79.9762 27.8881L78.7188 26.6306Z" stroke="#35241E" stroke-width="3" stroke-linecap="round" stroke-linejoin="round"/>
<path d="M86.6826 22.858V23.6964" stroke="#35241E" stroke-width="3" stroke-linecap="round" stroke-linejoin="round"/>
<path d="M73.27 22.8582V23.6965" stroke="#35241E" stroke-width="3" stroke-linecap="round" stroke-linejoin="round"/>
</svg>
