<svg width="208" height="44" viewBox="0 0 208 44" fill="none" xmlns="http://www.w3.org/2000/svg">
<mask id="path-1-outside-1_767_1670" maskUnits="userSpaceOnUse" x="0.5" y="8.5" width="152" height="27" fill="black">
<rect fill="white" x="0.5" y="8.5" width="152" height="27"/>
<path d="M17.27 14.01H6.17C6.2 14.37 6.2 14.7 6.26 15.06C6.29 15.21 6.29 15.36 6.53 15.48C7.43 15.9 10.34 16.2 12.8 16.2C15.26 16.2 18.17 15.9 19.07 15.48C19.31 15.36 19.31 15.18 19.34 15C19.52 13.47 19.43 11.88 19.19 10.77C19.04 10.14 19.61 9.57 20.27 9.48C20.9 9.42 21.5 9.78 21.65 10.38C22.01 11.94 21.92 14.31 21.68 15.9C21.53 16.74 20.99 17.22 20.09 17.55C18.74 18.06 15.65 18.42 12.8 18.42C9.98 18.42 6.86 18.06 5.48 17.55C4.61 17.22 4.07 16.74 3.92 15.9C3.62 13.74 3.65 11.76 3.95 10.38C4.07 9.78 4.7 9.42 5.3 9.48C5.99 9.57 6.53 10.14 6.41 10.77C6.32 11.13 6.26 11.49 6.23 11.85H17.24C17.66 11.85 18.26 12.3 18.26 12.93C18.26 13.47 17.78 14.01 17.27 14.01ZM2.39 21.54C1.76 21.45 1.28 20.88 1.37 20.28C1.46 19.62 2.03 19.26 2.63 19.32C7.37 19.77 18.26 19.86 22.94 19.32C23.57 19.26 24.2 19.65 24.23 20.28C24.29 20.88 23.78 21.45 23.21 21.54C21.59 21.75 17.93 21.9 14.03 21.93V23.73H20.21C20.99 23.73 21.65 24.18 21.8 24.99C21.98 25.83 21.98 27.75 21.74 28.65C21.59 29.19 21.08 29.82 20.15 29.82H5.87C5.84 30.12 5.81 30.69 5.93 31.26C5.96 31.38 6.02 31.44 6.17 31.5C7.13 31.89 11.06 32.13 13.61 32.13C16.13 32.13 18.98 31.74 21.02 31.08C21.47 30.9 22.19 31.17 22.37 31.77C22.58 32.37 22.28 32.91 21.89 33.09C19.73 34.02 16.1 34.29 13.37 34.32C10.67 34.32 6.74 34.17 5.18 33.54C4.46 33.24 3.8 32.76 3.62 31.89C3.35 30.66 3.53 29.25 3.65 28.71C3.77 28.26 4.19 27.6 4.82 27.6H19.49C19.55 27.39 19.61 26.85 19.58 26.43C19.58 26.25 19.43 25.95 19.01 25.95H4.94C4.49 25.95 3.95 25.41 3.95 24.81C3.95 24.27 4.43 23.73 4.94 23.73H11.57V21.93C7.79 21.9 4.19 21.81 2.39 21.54ZM27.3894 28.44C27.0294 27.03 27.2094 22.11 27.4494 20.94C27.5394 20.49 27.9894 19.83 28.6194 19.83H37.3194C37.5294 18.63 37.5894 15.42 37.4094 14.49C37.3794 14.25 37.3194 13.95 36.8994 13.95H28.7094C28.2594 13.95 27.7494 13.38 27.7494 12.84C27.7494 12.3 28.2294 11.76 28.7394 11.76H38.0694C38.8494 11.76 39.4794 12.39 39.6294 13.38C39.8394 14.82 39.8394 19.08 39.5394 20.82C39.4194 21.39 38.8794 22.02 37.9494 22.02H29.6394C29.4894 23.1 29.4594 26.01 29.6094 27.3C29.6394 27.6 29.6994 27.84 29.9094 27.96C30.9894 28.44 32.6994 28.68 34.4994 28.68C36.4194 28.68 38.4594 28.23 39.2094 27.87C39.6594 27.66 40.5594 27.96 40.7394 28.65C40.8894 29.28 40.4394 29.79 40.0194 29.97C38.6694 30.63 36.2694 30.96 34.3494 30.96C32.0094 30.96 29.9394 30.51 28.9494 30.09C28.2594 29.76 27.5994 29.31 27.3894 28.44ZM46.5894 10.86C47.1594 14.88 46.9194 28.92 46.5894 32.16C46.4994 32.76 45.8394 33.18 45.2394 33.12C44.6094 33.09 44.1294 32.58 44.1594 31.95C44.3394 29.7 44.4594 25.77 44.4594 21.78H41.2794C40.7994 21.78 40.2894 21.21 40.2894 20.67C40.2894 20.13 40.7694 19.56 41.2794 19.56H44.4594C44.4294 16.23 44.3394 13.05 44.1594 11.07C44.0694 10.44 44.5794 9.99 45.2094 9.9C45.8394 9.84 46.4994 10.2 46.5894 10.86ZM69.7735 18.03C69.7735 21.87 66.6535 25.29 61.2835 25.29C55.7935 25.29 52.7935 21.84 52.7935 18.03C52.7935 13.95 56.1835 10.77 61.2835 10.77C66.7735 10.77 69.7735 14.31 69.7735 18.03ZM67.3735 18.03C67.3735 15.27 65.3035 12.96 61.2835 12.96C57.2635 12.96 55.1935 15.09 55.1935 18.03C55.1935 21.18 57.5635 23.1 61.2835 23.1C65.1535 23.1 67.3735 21 67.3735 18.03ZM50.9935 31.62C50.3635 31.53 49.8835 30.96 49.9735 30.36C50.0635 29.7 50.6335 29.28 51.2335 29.37C53.3635 29.58 56.6935 29.7 60.1735 29.73V27.12C60.1735 26.67 60.6535 26.1 61.3435 26.1C62.0035 26.1 62.6335 26.58 62.6335 27.09V29.73C66.1135 29.73 69.4435 29.61 71.5435 29.37C72.2035 29.28 72.8035 29.76 72.8335 30.36C72.8935 30.96 72.3835 31.53 71.8135 31.62C68.3335 32.07 55.0435 32.19 50.9935 31.62ZM80.0129 10.65C79.8029 11.91 79.6829 14.82 79.8029 16.35C79.8329 16.65 79.8329 16.86 80.0729 16.98C81.0329 17.37 83.3129 17.7 85.5929 17.7C88.3529 17.7 91.4729 17.31 93.5129 16.65C93.9629 16.5 94.6829 16.77 94.8629 17.34C95.0729 17.94 94.7729 18.54 94.3829 18.72C92.2229 19.65 88.2929 19.92 85.5929 19.92C82.8629 19.92 80.6429 19.71 79.0829 19.08C78.3629 18.81 77.6729 18.3 77.5229 17.43C77.2829 15.87 77.4329 11.82 77.7029 10.38C77.7929 9.9 78.4229 9.51 79.0829 9.57C79.7429 9.69 80.0729 10.29 80.0129 10.65ZM75.6029 24.63C74.9729 24.54 74.4929 23.97 74.5829 23.37C74.6729 22.71 75.2429 22.29 75.8429 22.38C80.5829 22.83 91.4729 22.92 96.1529 22.38C96.8129 22.29 97.4129 22.77 97.4429 23.37C97.5029 23.97 96.9929 24.54 96.4229 24.63C92.9429 25.08 79.6529 25.2 75.6029 24.63ZM79.8629 27.18C79.6229 28.5 79.5029 29.79 79.6829 31.17C79.6829 31.26 79.7429 31.32 79.9229 31.38C80.8829 31.77 84.2129 32.1 86.4929 32.1C89.2529 32.1 92.2229 31.71 94.2629 31.05C94.6829 30.87 95.4329 31.08 95.6129 31.71C95.8229 32.31 95.5229 32.91 95.1329 33.09C92.9729 34.02 89.2229 34.29 86.4929 34.32C83.7629 34.32 80.4929 34.08 78.9329 33.45C78.2129 33.18 77.5229 32.67 77.3729 31.8C77.1329 30.21 77.2829 28.26 77.5529 26.82C77.6429 26.34 78.2729 25.89 78.9329 26.01C79.5929 26.13 79.9229 26.73 79.8629 27.18ZM112.095 19.35C111.555 19.44 110.895 18.96 110.805 18.42C110.745 17.94 111.045 17.31 111.615 17.16C115.425 16.44 118.755 15.06 119.235 12.18H112.725C112.245 12.18 111.735 11.61 111.735 11.07C111.735 10.53 112.215 9.96 112.695 9.96H128.295C128.745 9.96 129.315 10.44 129.315 11.07C129.315 11.61 128.835 12.18 128.355 12.18H121.725C121.395 16.47 116.385 18.78 112.095 19.35ZM123.495 14.4L129.675 17.01C130.155 17.22 130.575 17.85 130.185 18.6C129.825 19.26 128.985 19.26 128.565 19.08L122.445 16.53C122.055 16.35 121.455 15.63 121.875 14.85C122.265 14.16 122.985 14.19 123.495 14.4ZM110.115 22.74C109.485 22.65 109.005 22.08 109.095 21.48C109.185 20.82 109.755 20.46 110.355 20.52C115.095 20.97 125.985 21.06 130.665 20.52C131.295 20.46 131.925 20.85 131.955 21.48C132.015 22.08 131.505 22.65 130.935 22.74C129.315 22.95 125.655 23.1 121.755 23.13V25.17C126.525 25.35 130.215 26.55 130.215 29.88C130.215 33.54 125.865 34.62 120.525 34.62C115.185 34.62 110.775 33.48 110.835 29.88C110.835 26.61 114.525 25.35 119.295 25.17V23.13C115.515 23.1 111.915 23.01 110.115 22.74ZM127.755 29.91C127.755 27.93 124.845 27.39 120.495 27.39C116.175 27.39 113.295 27.93 113.295 29.91C113.295 31.8 116.175 32.37 120.495 32.37C124.845 32.37 127.755 31.86 127.755 29.91ZM137.664 31.92C137.574 32.55 136.944 32.94 136.374 32.91C135.744 32.82 135.264 32.4 135.264 31.92C135.264 31.47 135.264 31.02 135.234 30.63C135.204 30 135.804 29.49 136.404 29.49C137.064 29.49 137.634 29.94 137.664 30.51C137.694 30.84 137.724 31.35 137.664 31.92ZM144.9 31.92C144.81 32.55 144.18 32.94 143.61 32.91C142.98 32.82 142.5 32.4 142.5 31.92C142.5 31.47 142.5 31.02 142.47 30.63C142.44 30 143.04 29.49 143.64 29.49C144.3 29.49 144.87 29.94 144.9 30.51C144.93 30.84 144.96 31.35 144.9 31.92ZM152.137 31.92C152.047 32.55 151.417 32.94 150.847 32.91C150.217 32.82 149.737 32.4 149.737 31.92C149.737 31.47 149.737 31.02 149.707 30.63C149.677 30 150.277 29.49 150.877 29.49C151.537 29.49 152.107 29.94 152.137 30.51C152.167 30.84 152.197 31.35 152.137 31.92Z"/>
</mask>
<path d="M17.27 14.01H6.17C6.2 14.37 6.2 14.7 6.26 15.06C6.29 15.21 6.29 15.36 6.53 15.48C7.43 15.9 10.34 16.2 12.8 16.2C15.26 16.2 18.17 15.9 19.07 15.48C19.31 15.36 19.31 15.18 19.34 15C19.52 13.47 19.43 11.88 19.19 10.77C19.04 10.14 19.61 9.57 20.27 9.48C20.9 9.42 21.5 9.78 21.65 10.38C22.01 11.94 21.92 14.31 21.68 15.9C21.53 16.74 20.99 17.22 20.09 17.55C18.74 18.06 15.65 18.42 12.8 18.42C9.98 18.42 6.86 18.06 5.48 17.55C4.61 17.22 4.07 16.74 3.92 15.9C3.62 13.74 3.65 11.76 3.95 10.38C4.07 9.78 4.7 9.42 5.3 9.48C5.99 9.57 6.53 10.14 6.41 10.77C6.32 11.13 6.26 11.49 6.23 11.85H17.24C17.66 11.85 18.26 12.3 18.26 12.93C18.26 13.47 17.78 14.01 17.27 14.01ZM2.39 21.54C1.76 21.45 1.28 20.88 1.37 20.28C1.46 19.62 2.03 19.26 2.63 19.32C7.37 19.77 18.26 19.86 22.94 19.32C23.57 19.26 24.2 19.65 24.23 20.28C24.29 20.88 23.78 21.45 23.21 21.54C21.59 21.75 17.93 21.9 14.03 21.93V23.73H20.21C20.99 23.73 21.65 24.18 21.8 24.99C21.98 25.83 21.98 27.75 21.74 28.65C21.59 29.19 21.08 29.82 20.15 29.82H5.87C5.84 30.12 5.81 30.69 5.93 31.26C5.96 31.38 6.02 31.44 6.17 31.5C7.13 31.89 11.06 32.13 13.61 32.13C16.13 32.13 18.98 31.74 21.02 31.08C21.47 30.9 22.19 31.17 22.37 31.77C22.58 32.37 22.28 32.91 21.89 33.09C19.73 34.02 16.1 34.29 13.37 34.32C10.67 34.32 6.74 34.17 5.18 33.54C4.46 33.24 3.8 32.76 3.62 31.89C3.35 30.66 3.53 29.25 3.65 28.71C3.77 28.26 4.19 27.6 4.82 27.6H19.49C19.55 27.39 19.61 26.85 19.58 26.43C19.58 26.25 19.43 25.95 19.01 25.95H4.94C4.49 25.95 3.95 25.41 3.95 24.81C3.95 24.27 4.43 23.73 4.94 23.73H11.57V21.93C7.79 21.9 4.19 21.81 2.39 21.54ZM27.3894 28.44C27.0294 27.03 27.2094 22.11 27.4494 20.94C27.5394 20.49 27.9894 19.83 28.6194 19.83H37.3194C37.5294 18.63 37.5894 15.42 37.4094 14.49C37.3794 14.25 37.3194 13.95 36.8994 13.95H28.7094C28.2594 13.95 27.7494 13.38 27.7494 12.84C27.7494 12.3 28.2294 11.76 28.7394 11.76H38.0694C38.8494 11.76 39.4794 12.39 39.6294 13.38C39.8394 14.82 39.8394 19.08 39.5394 20.82C39.4194 21.39 38.8794 22.02 37.9494 22.02H29.6394C29.4894 23.1 29.4594 26.01 29.6094 27.3C29.6394 27.6 29.6994 27.84 29.9094 27.96C30.9894 28.44 32.6994 28.68 34.4994 28.68C36.4194 28.68 38.4594 28.23 39.2094 27.87C39.6594 27.66 40.5594 27.96 40.7394 28.65C40.8894 29.28 40.4394 29.79 40.0194 29.97C38.6694 30.63 36.2694 30.96 34.3494 30.96C32.0094 30.96 29.9394 30.51 28.9494 30.09C28.2594 29.76 27.5994 29.31 27.3894 28.44ZM46.5894 10.86C47.1594 14.88 46.9194 28.92 46.5894 32.16C46.4994 32.76 45.8394 33.18 45.2394 33.12C44.6094 33.09 44.1294 32.58 44.1594 31.95C44.3394 29.7 44.4594 25.77 44.4594 21.78H41.2794C40.7994 21.78 40.2894 21.21 40.2894 20.67C40.2894 20.13 40.7694 19.56 41.2794 19.56H44.4594C44.4294 16.23 44.3394 13.05 44.1594 11.07C44.0694 10.44 44.5794 9.99 45.2094 9.9C45.8394 9.84 46.4994 10.2 46.5894 10.86ZM69.7735 18.03C69.7735 21.87 66.6535 25.29 61.2835 25.29C55.7935 25.29 52.7935 21.84 52.7935 18.03C52.7935 13.95 56.1835 10.77 61.2835 10.77C66.7735 10.77 69.7735 14.31 69.7735 18.03ZM67.3735 18.03C67.3735 15.27 65.3035 12.96 61.2835 12.96C57.2635 12.96 55.1935 15.09 55.1935 18.03C55.1935 21.18 57.5635 23.1 61.2835 23.1C65.1535 23.1 67.3735 21 67.3735 18.03ZM50.9935 31.62C50.3635 31.53 49.8835 30.96 49.9735 30.36C50.0635 29.7 50.6335 29.28 51.2335 29.37C53.3635 29.58 56.6935 29.7 60.1735 29.73V27.12C60.1735 26.67 60.6535 26.1 61.3435 26.1C62.0035 26.1 62.6335 26.58 62.6335 27.09V29.73C66.1135 29.73 69.4435 29.61 71.5435 29.37C72.2035 29.28 72.8035 29.76 72.8335 30.36C72.8935 30.96 72.3835 31.53 71.8135 31.62C68.3335 32.07 55.0435 32.19 50.9935 31.62ZM80.0129 10.65C79.8029 11.91 79.6829 14.82 79.8029 16.35C79.8329 16.65 79.8329 16.86 80.0729 16.98C81.0329 17.37 83.3129 17.7 85.5929 17.7C88.3529 17.7 91.4729 17.31 93.5129 16.65C93.9629 16.5 94.6829 16.77 94.8629 17.34C95.0729 17.94 94.7729 18.54 94.3829 18.72C92.2229 19.65 88.2929 19.92 85.5929 19.92C82.8629 19.92 80.6429 19.71 79.0829 19.08C78.3629 18.81 77.6729 18.3 77.5229 17.43C77.2829 15.87 77.4329 11.82 77.7029 10.38C77.7929 9.9 78.4229 9.51 79.0829 9.57C79.7429 9.69 80.0729 10.29 80.0129 10.65ZM75.6029 24.63C74.9729 24.54 74.4929 23.97 74.5829 23.37C74.6729 22.71 75.2429 22.29 75.8429 22.38C80.5829 22.83 91.4729 22.92 96.1529 22.38C96.8129 22.29 97.4129 22.77 97.4429 23.37C97.5029 23.97 96.9929 24.54 96.4229 24.63C92.9429 25.08 79.6529 25.2 75.6029 24.63ZM79.8629 27.18C79.6229 28.5 79.5029 29.79 79.6829 31.17C79.6829 31.26 79.7429 31.32 79.9229 31.38C80.8829 31.77 84.2129 32.1 86.4929 32.1C89.2529 32.1 92.2229 31.71 94.2629 31.05C94.6829 30.87 95.4329 31.08 95.6129 31.71C95.8229 32.31 95.5229 32.91 95.1329 33.09C92.9729 34.02 89.2229 34.29 86.4929 34.32C83.7629 34.32 80.4929 34.08 78.9329 33.45C78.2129 33.18 77.5229 32.67 77.3729 31.8C77.1329 30.21 77.2829 28.26 77.5529 26.82C77.6429 26.34 78.2729 25.89 78.9329 26.01C79.5929 26.13 79.9229 26.73 79.8629 27.18ZM112.095 19.35C111.555 19.44 110.895 18.96 110.805 18.42C110.745 17.94 111.045 17.31 111.615 17.16C115.425 16.44 118.755 15.06 119.235 12.18H112.725C112.245 12.18 111.735 11.61 111.735 11.07C111.735 10.53 112.215 9.96 112.695 9.96H128.295C128.745 9.96 129.315 10.44 129.315 11.07C129.315 11.61 128.835 12.18 128.355 12.18H121.725C121.395 16.47 116.385 18.78 112.095 19.35ZM123.495 14.4L129.675 17.01C130.155 17.22 130.575 17.85 130.185 18.6C129.825 19.26 128.985 19.26 128.565 19.08L122.445 16.53C122.055 16.35 121.455 15.63 121.875 14.85C122.265 14.16 122.985 14.19 123.495 14.4ZM110.115 22.74C109.485 22.65 109.005 22.08 109.095 21.48C109.185 20.82 109.755 20.46 110.355 20.52C115.095 20.97 125.985 21.06 130.665 20.52C131.295 20.46 131.925 20.85 131.955 21.48C132.015 22.08 131.505 22.65 130.935 22.74C129.315 22.95 125.655 23.1 121.755 23.13V25.17C126.525 25.35 130.215 26.55 130.215 29.88C130.215 33.54 125.865 34.62 120.525 34.62C115.185 34.62 110.775 33.48 110.835 29.88C110.835 26.61 114.525 25.35 119.295 25.17V23.13C115.515 23.1 111.915 23.01 110.115 22.74ZM127.755 29.91C127.755 27.93 124.845 27.39 120.495 27.39C116.175 27.39 113.295 27.93 113.295 29.91C113.295 31.8 116.175 32.37 120.495 32.37C124.845 32.37 127.755 31.86 127.755 29.91ZM137.664 31.92C137.574 32.55 136.944 32.94 136.374 32.91C135.744 32.82 135.264 32.4 135.264 31.92C135.264 31.47 135.264 31.02 135.234 30.63C135.204 30 135.804 29.49 136.404 29.49C137.064 29.49 137.634 29.94 137.664 30.51C137.694 30.84 137.724 31.35 137.664 31.92ZM144.9 31.92C144.81 32.55 144.18 32.94 143.61 32.91C142.98 32.82 142.5 32.4 142.5 31.92C142.5 31.47 142.5 31.02 142.47 30.63C142.44 30 143.04 29.49 143.64 29.49C144.3 29.49 144.87 29.94 144.9 30.51C144.93 30.84 144.96 31.35 144.9 31.92ZM152.137 31.92C152.047 32.55 151.417 32.94 150.847 32.91C150.217 32.82 149.737 32.4 149.737 31.92C149.737 31.47 149.737 31.02 149.707 30.63C149.677 30 150.277 29.49 150.877 29.49C151.537 29.49 152.107 29.94 152.137 30.51C152.167 30.84 152.197 31.35 152.137 31.92Z" fill="#35241E"/>
<path d="M6.17 14.01V13.81H5.95264L5.97069 14.0266L6.17 14.01ZM6.26 15.06L6.06262 15.0929L6.06388 15.0992L6.26 15.06ZM6.53 15.48L6.44052 15.6589L6.44542 15.6612L6.53 15.48ZM19.07 15.48L19.1546 15.6613L19.1594 15.6589L19.07 15.48ZM19.34 15L19.5375 15.0329L19.5386 15.0234L19.34 15ZM19.19 10.77L19.3855 10.7277L19.3846 10.7237L19.19 10.77ZM20.27 9.48L20.251 9.28074L20.243 9.28183L20.27 9.48ZM21.65 10.38L21.8449 10.335L21.844 10.3315L21.65 10.38ZM21.68 15.9L21.877 15.9352L21.8778 15.9298L21.68 15.9ZM20.09 17.55L20.0211 17.3622L20.0193 17.3629L20.09 17.55ZM5.48 17.55L5.40907 17.737L5.41067 17.7376L5.48 17.55ZM3.92 15.9L3.72175 15.9275L3.72311 15.9352L3.92 15.9ZM3.95 10.38L4.14546 10.4225L4.14612 10.4192L3.95 10.38ZM5.3 9.48L5.32588 9.28159L5.3199 9.28099L5.3 9.48ZM6.41 10.77L6.60434 10.8186L6.60647 10.8074L6.41 10.77ZM6.23 11.85L6.03069 11.8334L6.01264 12.05H6.23V11.85ZM2.39 21.54L2.41967 21.3422L2.41828 21.342L2.39 21.54ZM1.37 20.28L1.5678 20.3097L1.56817 20.307L1.37 20.28ZM2.63 19.32L2.6101 19.519L2.6111 19.5191L2.63 19.32ZM22.94 19.32L22.921 19.1209L22.9171 19.1213L22.94 19.32ZM24.23 20.28L24.03 20.2895L24.031 20.2999L24.23 20.28ZM23.21 21.54L23.2357 21.7384L23.2412 21.7376L23.21 21.54ZM14.03 21.93L14.0285 21.73L13.83 21.7315V21.93H14.03ZM14.03 23.73H13.83V23.93H14.03V23.73ZM21.8 24.99L21.6033 25.0264L21.6044 25.0319L21.8 24.99ZM21.74 28.65L21.9327 28.7035L21.9332 28.7015L21.74 28.65ZM5.87 29.82V29.62H5.689L5.67099 29.8001L5.87 29.82ZM5.93 31.26L5.73415 31.3012L5.73597 31.3085L5.93 31.26ZM6.17 31.5L6.24528 31.3147L6.24428 31.3143L6.17 31.5ZM21.02 31.08L21.0817 31.2707L21.0943 31.2657L21.02 31.08ZM22.37 31.77L22.1782 31.8275L22.1812 31.8361L22.37 31.77ZM21.89 33.09L21.9691 33.2738L21.9738 33.2716L21.89 33.09ZM13.37 34.32L13.37 34.52L13.3722 34.52L13.37 34.32ZM5.18 33.54L5.10307 33.7246L5.10511 33.7254L5.18 33.54ZM3.62 31.89L3.81587 31.8495L3.81535 31.8471L3.62 31.89ZM3.65 28.71L3.45658 28.6584L3.45476 28.6666L3.65 28.71ZM19.49 27.6V27.8H19.6409L19.6823 27.6549L19.49 27.6ZM19.58 26.43H19.38V26.4371L19.3805 26.4442L19.58 26.43ZM11.57 23.73V23.93H11.77V23.73H11.57ZM11.57 21.93H11.77V21.7316L11.5716 21.73L11.57 21.93ZM17.27 13.81H6.17V14.21H17.27V13.81ZM5.97069 14.0266C5.9989 14.3651 6.0011 14.7231 6.06272 15.0929L6.45728 15.0271C6.3989 14.6769 6.4011 14.3749 6.36931 13.9934L5.97069 14.0266ZM6.06388 15.0992C6.07392 15.1494 6.0878 15.2662 6.1355 15.3669C6.19126 15.4846 6.28696 15.5821 6.44056 15.6589L6.61944 15.3011C6.53304 15.2579 6.50874 15.2204 6.497 15.1956C6.4772 15.1538 6.47608 15.1206 6.45612 15.0208L6.06388 15.0992ZM6.44542 15.6612C6.69307 15.7768 7.06314 15.878 7.50438 15.9658C7.94946 16.0545 8.48044 16.1321 9.05791 16.1963C10.2129 16.3246 11.5628 16.4 12.8 16.4V16C11.5772 16 10.2421 15.9254 9.10209 15.7987C8.53206 15.7354 8.01304 15.6593 7.5825 15.5735C7.14811 15.487 6.81693 15.3932 6.61458 15.2988L6.44542 15.6612ZM12.8 16.4C14.0372 16.4 15.3871 16.3246 16.5421 16.1963C17.1196 16.1321 17.6505 16.0545 18.0956 15.9658C18.5369 15.878 18.9069 15.7768 19.1546 15.6612L18.9854 15.2988C18.7831 15.3932 18.4519 15.487 18.0175 15.5735C17.587 15.6593 17.0679 15.7354 16.4979 15.7987C15.3579 15.9254 14.0228 16 12.8 16V16.4ZM19.1594 15.6589C19.3216 15.5778 19.4163 15.4668 19.4689 15.3382C19.5138 15.2283 19.526 15.1004 19.5373 15.0329L19.1427 14.9671C19.124 15.0796 19.1212 15.1317 19.0986 15.1868C19.0837 15.2232 19.0584 15.2622 18.9806 15.3011L19.1594 15.6589ZM19.5386 15.0234C19.721 13.4733 19.6305 11.861 19.3855 10.7277L18.9945 10.8123C19.2295 11.899 19.319 13.4667 19.1414 14.9766L19.5386 15.0234ZM19.3846 10.7237C19.3275 10.4842 19.4039 10.249 19.5759 10.0552C19.7495 9.8595 20.013 9.71689 20.297 9.67817L20.243 9.28183C19.867 9.33311 19.5155 9.5205 19.2766 9.78978C19.0361 10.061 18.9025 10.4258 18.9954 10.8163L19.3846 10.7237ZM20.289 9.6791C20.838 9.62681 21.334 9.94061 21.456 10.4285L21.844 10.3315C21.666 9.61939 20.962 9.21319 20.251 9.2809L20.289 9.6791ZM21.4551 10.425C21.807 11.9497 21.7206 14.2912 21.4822 15.8701L21.8778 15.9298C22.1194 14.3288 22.213 11.9303 21.8449 10.335L21.4551 10.425ZM21.4831 15.8648C21.4148 16.2473 21.2603 16.5394 21.0248 16.7748C20.7863 17.0133 20.4554 17.203 20.0212 17.3622L20.1589 17.7378C20.6246 17.567 21.0137 17.3517 21.3077 17.0577C21.6047 16.7606 21.7952 16.3927 21.8769 15.9352L21.4831 15.8648ZM20.0193 17.3629C19.3681 17.6089 18.2781 17.8243 16.984 17.9776C15.6944 18.1305 14.2172 18.22 12.8 18.22V18.62C14.2328 18.62 15.7256 18.5295 17.031 18.3749C18.3319 18.2207 19.4619 18.0011 20.1607 17.7371L20.0193 17.3629ZM12.8 18.22C11.3978 18.22 9.92064 18.1305 8.6234 17.9776C7.32184 17.8243 6.21623 17.6089 5.54933 17.3624L5.41067 17.7376C6.12377 18.0011 7.26816 18.2207 8.5766 18.3749C9.88937 18.5295 11.3822 18.62 12.8 18.62V18.22ZM5.55093 17.363C5.13174 17.204 4.80778 17.0146 4.57242 16.7758C4.3399 16.54 4.18519 16.2474 4.11689 15.8648L3.72311 15.9352C3.80481 16.3926 3.9951 16.76 4.28758 17.0567C4.57722 17.3504 4.95826 17.566 5.40907 17.737L5.55093 17.363ZM4.1181 15.8725C3.82012 13.7271 3.85202 11.7722 4.14544 10.4225L3.75456 10.3375C3.44798 11.7478 3.41988 13.7529 3.7219 15.9275L4.1181 15.8725ZM4.14612 10.4192C4.24118 9.9439 4.75642 9.62664 5.2801 9.67901L5.3199 9.28099C4.64358 9.21336 3.89882 9.6161 3.75388 10.3408L4.14612 10.4192ZM5.27413 9.67832C5.89 9.75865 6.30514 10.2516 6.21353 10.7326L6.60647 10.8074C6.75486 10.0284 6.09 9.38135 5.32587 9.28168L5.27413 9.67832ZM6.21597 10.7215C6.12342 11.0917 6.06161 11.4623 6.03069 11.8334L6.42931 11.8666C6.45839 11.5177 6.51658 11.1683 6.60403 10.8185L6.21597 10.7215ZM6.23 12.05H17.24V11.65H6.23V12.05ZM17.24 12.05C17.3866 12.05 17.5948 12.1335 17.7702 12.2992C17.9417 12.4611 18.06 12.6813 18.06 12.93H18.46C18.46 12.5487 18.2783 12.2289 18.0448 12.0083C17.8152 11.7915 17.5134 11.65 17.24 11.65V12.05ZM18.06 12.93C18.06 13.1426 17.9641 13.3663 17.8081 13.5381C17.6516 13.7106 17.4544 13.81 17.27 13.81V14.21C17.5956 14.21 17.8934 14.0394 18.1044 13.8069C18.3159 13.5737 18.46 13.2574 18.46 12.93H18.06ZM2.41828 21.342C1.88031 21.2652 1.49681 20.7829 1.56779 20.3097L1.17221 20.2503C1.06319 20.9771 1.63969 21.6348 2.36172 21.738L2.41828 21.342ZM1.56817 20.307C1.64152 19.7691 2.10106 19.4681 2.6101 19.519L2.6499 19.121C1.95894 19.0519 1.27848 19.4709 1.17183 20.253L1.56817 20.307ZM2.6111 19.5191C7.36133 19.9701 18.2658 20.0607 22.9629 19.5187L22.9171 19.1213C18.2542 19.6593 7.37867 19.5699 2.6489 19.1209L2.6111 19.5191ZM22.959 19.5191C23.5161 19.466 24.0074 19.8107 24.0302 20.2895L24.4298 20.2705C24.3926 19.4893 23.6239 19.054 22.921 19.1209L22.959 19.5191ZM24.031 20.2999C24.0547 20.5366 23.9664 20.7773 23.8028 20.973C23.6387 21.1692 23.4104 21.3059 23.1788 21.3424L23.2412 21.7376C23.5796 21.6841 23.8913 21.4908 24.1097 21.2295C24.3286 20.9677 24.4653 20.6234 24.429 20.2601L24.031 20.2999ZM23.1843 21.3417C21.5778 21.5499 17.9289 21.7 14.0285 21.73L14.0315 22.13C17.9311 22.1 21.6022 21.9501 23.2357 21.7383L23.1843 21.3417ZM13.83 21.93V23.73H14.23V21.93H13.83ZM14.03 23.93H20.21V23.53H14.03V23.93ZM20.21 23.93C20.9092 23.93 21.4736 24.3258 21.6033 25.0264L21.9967 24.9536C21.8264 24.0342 21.0708 23.53 20.21 23.53V23.93ZM21.6044 25.0319C21.6898 25.4304 21.735 26.1031 21.7275 26.7953C21.7201 27.4883 21.6602 28.1732 21.5468 28.5985L21.9332 28.7015C22.0598 28.2268 22.1199 27.5017 22.1275 26.7997C22.135 26.0969 22.0902 25.3896 21.9956 24.9481L21.6044 25.0319ZM21.5473 28.5965C21.4159 29.0696 20.9713 29.62 20.15 29.62V30.02C21.1887 30.02 21.7641 29.3104 21.9327 28.7035L21.5473 28.5965ZM20.15 29.62H5.87V30.02H20.15V29.62ZM5.67099 29.8001C5.64013 30.1087 5.60817 30.7021 5.73429 31.3012L6.12571 31.2188C6.01183 30.6779 6.03987 30.1313 6.06901 29.8399L5.67099 29.8001ZM5.73597 31.3085C5.75722 31.3935 5.79392 31.4743 5.86358 31.5439C5.92907 31.6094 6.01061 31.6517 6.09572 31.6857L6.24428 31.3143C6.17939 31.2883 6.15593 31.2706 6.14642 31.2611C6.14108 31.2557 6.13278 31.2465 6.12403 31.2115L5.73597 31.3085ZM6.09472 31.6853C6.36005 31.7931 6.80806 31.8837 7.35072 31.961C7.89982 32.0391 8.56542 32.1061 9.27849 32.1607C10.7047 32.2698 12.3298 32.33 13.61 32.33V31.93C12.3402 31.93 10.7253 31.8702 9.30901 31.7618C8.60083 31.7076 7.94455 31.6415 7.4071 31.565C6.86319 31.4875 6.45995 31.4019 6.24528 31.3147L6.09472 31.6853ZM13.61 32.33C16.1461 32.33 19.0175 31.9381 21.0816 31.2703L20.9584 30.8897C18.9425 31.5419 16.1139 31.93 13.61 31.93V32.33ZM21.0943 31.2657C21.2571 31.2006 21.4914 31.2116 21.7121 31.3139C21.9293 31.4147 22.1079 31.5923 22.1784 31.8275L22.5616 31.7125C22.4521 31.3477 22.1807 31.0903 21.8804 30.9511C21.5836 30.8134 21.2329 30.7794 20.9457 30.8943L21.0943 31.2657ZM22.1812 31.8361C22.3576 32.3401 22.1014 32.7722 21.8062 32.9084L21.9738 33.2716C22.4586 33.0478 22.8024 32.3999 22.5588 31.7039L22.1812 31.8361ZM21.8109 32.9063C20.7569 33.3601 19.3316 33.6573 17.8192 33.844C16.3101 34.0303 14.7279 34.1051 13.3678 34.12L13.3722 34.52C14.7421 34.5049 16.3399 34.4297 17.8683 34.241C19.3934 34.0527 20.8631 33.7499 21.9691 33.2737L21.8109 32.9063ZM13.37 34.12C12.023 34.12 10.3709 34.0826 8.8628 33.9668C7.34571 33.8504 6.0025 33.6565 5.25489 33.3546L5.10511 33.7254C5.9175 34.0535 7.31929 34.2496 8.8322 34.3657C10.3541 34.4824 12.017 34.52 13.37 34.52V34.12ZM5.25692 33.3554C4.56216 33.0659 3.97616 32.6243 3.81585 31.8495L3.42415 31.9305C3.62384 32.8957 4.35784 33.4141 5.10308 33.7246L5.25692 33.3554ZM3.81535 31.8471C3.55393 30.6562 3.72865 29.278 3.84524 28.7534L3.45476 28.6666C3.33135 29.222 3.14607 30.6638 3.42465 31.9329L3.81535 31.8471ZM3.84325 28.7615C3.89586 28.5642 4.01674 28.3156 4.19253 28.1199C4.36772 27.9249 4.5802 27.8 4.82 27.8V27.4C4.4298 27.4 4.11728 27.6051 3.89497 27.8526C3.67326 28.0994 3.52414 28.4058 3.45675 28.6585L3.84325 28.7615ZM4.82 27.8H19.49V27.4H4.82V27.8ZM19.6823 27.6549C19.7499 27.4185 19.8108 26.8545 19.7795 26.4158L19.3805 26.4442C19.4092 26.8455 19.3501 27.3615 19.2977 27.5451L19.6823 27.6549ZM19.78 26.43C19.78 26.291 19.7244 26.1222 19.5995 25.9868C19.4692 25.8457 19.2721 25.75 19.01 25.75V26.15C19.1679 26.15 19.2558 26.2043 19.3055 26.2582C19.3606 26.3178 19.38 26.389 19.38 26.43H19.78ZM19.01 25.75H4.94V26.15H19.01V25.75ZM4.94 25.75C4.78976 25.75 4.59201 25.6547 4.42412 25.4703C4.25952 25.2896 4.15 25.0508 4.15 24.81H3.75C3.75 25.1692 3.91048 25.5004 4.12838 25.7397C4.34299 25.9753 4.64024 26.15 4.94 26.15V25.75ZM4.15 24.81C4.15 24.5974 4.24595 24.3737 4.40186 24.2019C4.55838 24.0294 4.75555 23.93 4.94 23.93V23.53C4.61445 23.53 4.31662 23.7006 4.10564 23.9331C3.89405 24.1663 3.75 24.4826 3.75 24.81H4.15ZM4.94 23.93H11.57V23.53H4.94V23.93ZM11.77 23.73V21.93H11.37V23.73H11.77ZM11.5716 21.73C7.7869 21.7 4.2027 21.6097 2.41967 21.3422L2.36033 21.7378C4.1773 22.0103 7.7931 22.1 11.5684 22.13L11.5716 21.73ZM27.3894 28.44L27.5838 28.3931L27.5832 28.3905L27.3894 28.44ZM27.4494 20.94L27.6453 20.9802L27.6455 20.9792L27.4494 20.94ZM37.3194 19.83V20.03H37.4874L37.5164 19.8645L37.3194 19.83ZM37.4094 14.49L37.2105 14.5149L37.213 14.528L37.4094 14.49ZM39.6294 13.38L39.8273 13.3511L39.8271 13.35L39.6294 13.38ZM39.5394 20.82L39.7352 20.8612L39.7365 20.854L39.5394 20.82ZM29.6394 22.02V21.82H29.4652L29.4413 21.9925L29.6394 22.02ZM29.6094 27.3L29.8084 27.2801L29.808 27.2769L29.6094 27.3ZM29.9094 27.96L29.8101 28.1336L29.8189 28.1387L29.8281 28.1428L29.9094 27.96ZM39.2094 27.87L39.1248 27.6888L39.1228 27.6897L39.2094 27.87ZM40.7394 28.65L40.934 28.6037L40.9329 28.5995L40.7394 28.65ZM40.0194 29.97L39.9405 29.7859L39.9315 29.7903L40.0194 29.97ZM28.9494 30.09L28.863 30.2706L28.8713 30.2741L28.9494 30.09ZM46.5894 10.86L46.3912 10.887L46.3914 10.8881L46.5894 10.86ZM46.5894 32.16L46.7874 32.1897L46.7883 32.1803L46.5894 32.16ZM45.2394 33.12L45.2593 32.9207L45.2489 32.9202L45.2394 33.12ZM44.1594 31.95L43.9599 31.934L43.9596 31.9405L44.1594 31.95ZM44.4594 21.78H44.6594V21.58H44.4594V21.78ZM44.4594 19.56V19.76H44.6612L44.6594 19.5582L44.4594 19.56ZM44.1594 11.07L44.3588 11.0519L44.3574 11.0417L44.1594 11.07ZM45.2094 9.9L45.1904 9.70068L45.1811 9.70201L45.2094 9.9ZM27.5832 28.3905C27.4987 28.0598 27.4429 27.5061 27.4129 26.829C27.3832 26.1566 27.3794 25.3773 27.3943 24.6039C27.4244 23.05 27.5295 21.5448 27.6453 20.9802L27.2535 20.8998C27.1293 21.5052 27.0244 23.045 26.9944 24.5961C26.9794 25.3752 26.9831 26.1634 27.0133 26.8467C27.0434 27.5252 27.1 28.1152 27.1956 28.4895L27.5832 28.3905ZM27.6455 20.9792C27.6829 20.7921 27.8001 20.5472 27.9794 20.3513C28.1579 20.1563 28.3782 20.03 28.6194 20.03V19.63C28.2306 19.63 27.9108 19.8337 27.6843 20.0812C27.4587 20.3278 27.3058 20.6379 27.2533 20.9008L27.6455 20.9792ZM28.6194 20.03H37.3194V19.63H28.6194V20.03ZM37.5164 19.8645C37.6243 19.2481 37.6918 18.1323 37.7106 17.0623C37.7293 15.9963 37.7003 14.9407 37.6057 14.452L37.213 14.528C37.2984 14.9693 37.3295 15.9837 37.3107 17.0552C37.2919 18.1227 37.2245 19.2119 37.1224 19.7955L37.5164 19.8645ZM37.6078 14.4652C37.5931 14.3471 37.5674 14.1669 37.4661 14.0177C37.3523 13.85 37.1656 13.75 36.8994 13.75V14.15C37.0531 14.15 37.1064 14.2 37.1351 14.2423C37.1764 14.3031 37.1957 14.3929 37.2109 14.5148L37.6078 14.4652ZM36.8994 13.75H28.7094V14.15H36.8994V13.75ZM28.7094 13.75C28.5639 13.75 28.3742 13.6521 28.2111 13.4658C28.0511 13.2829 27.9494 13.0504 27.9494 12.84H27.5494C27.5494 13.1696 27.7027 13.4921 27.9101 13.7292C28.1146 13.9629 28.4048 14.15 28.7094 14.15V13.75ZM27.9494 12.84C27.9494 12.6274 28.0453 12.4037 28.2012 12.2319C28.3578 12.0594 28.5549 11.96 28.7394 11.96V11.56C28.4138 11.56 28.116 11.7306 27.905 11.9631C27.6934 12.1963 27.5494 12.5126 27.5494 12.84H27.9494ZM28.7394 11.96H38.0694V11.56H28.7394V11.96ZM38.0694 11.96C38.7209 11.96 39.2915 12.4853 39.4316 13.41L39.8271 13.35C39.6672 12.2947 38.9778 11.56 38.0694 11.56V11.96ZM39.4315 13.4089C39.5341 14.1126 39.5869 15.5244 39.5756 16.986C39.5644 18.4474 39.4893 19.9333 39.3423 20.786L39.7365 20.854C39.8895 19.9667 39.9644 18.4526 39.9756 16.989C39.9869 15.5256 39.9347 14.0874 39.8273 13.3511L39.4315 13.4089ZM39.3437 20.7788C39.2411 21.2659 38.7753 21.82 37.9494 21.82V22.22C38.9834 22.22 39.5976 21.5141 39.7351 20.8612L39.3437 20.7788ZM37.9494 21.82H29.6394V22.22H37.9494V21.82ZM29.4413 21.9925C29.3644 22.5463 29.3194 23.555 29.3119 24.5798C29.3044 25.6054 29.3342 26.6654 29.4107 27.3231L29.808 27.2769C29.7345 26.6446 29.7044 25.6046 29.7119 24.5827C29.7194 23.56 29.7644 22.5737 29.8375 22.0475L29.4413 21.9925ZM29.4104 27.3199C29.4399 27.6154 29.5031 27.9582 29.8101 28.1336L30.0086 27.7864C29.8957 27.7218 29.8388 27.5846 29.8084 27.2801L29.4104 27.3199ZM29.8281 28.1428C30.9462 28.6397 32.6893 28.88 34.4994 28.88V28.48C32.7094 28.48 31.0326 28.2403 29.9906 27.7772L29.8281 28.1428ZM34.4994 28.88C35.4739 28.88 36.4763 28.7659 37.3298 28.6066C38.1789 28.4481 38.897 28.2418 39.2959 28.0503L39.1228 27.6897C38.7718 27.8582 38.0948 28.0569 37.2564 28.2134C36.4224 28.3691 35.4449 28.48 34.4994 28.48V28.88ZM39.294 28.0512C39.449 27.9789 39.7229 27.9846 39.9944 28.1053C40.2597 28.2232 40.4754 28.4304 40.5459 28.7005L40.9329 28.5995C40.8233 28.1796 40.499 27.8918 40.1569 27.7397C39.8208 27.5904 39.4197 27.5511 39.1248 27.6888L39.294 28.0512ZM40.5448 28.6963C40.6645 29.199 40.306 29.6296 39.9406 29.7862L40.0982 30.1538C40.5727 29.9504 41.1143 29.361 40.9339 28.6037L40.5448 28.6963ZM39.9315 29.7903C38.6227 30.4302 36.2593 30.76 34.3494 30.76V31.16C36.2795 31.16 38.7161 30.8298 40.1072 30.1497L39.9315 29.7903ZM34.3494 30.76C32.0288 30.76 29.9867 30.3128 29.0275 29.9059L28.8713 30.2741C29.892 30.7072 31.99 31.16 34.3494 31.16V30.76ZM29.0357 29.9096C28.3599 29.5864 27.7718 29.172 27.5838 28.3931L27.195 28.4869C27.427 29.448 28.1589 29.9336 28.8631 30.2704L29.0357 29.9096ZM46.3914 10.8881C46.6739 12.8806 46.7569 17.38 46.7269 21.8011C46.6969 26.2194 46.5543 30.5304 46.3904 32.1397L46.7883 32.1803C46.9544 30.5496 47.0969 26.2206 47.1269 21.8039C47.1568 17.39 47.0749 12.8594 46.7874 10.8319L46.3914 10.8881ZM46.3916 32.1303C46.3565 32.3644 46.2081 32.5746 45.9924 32.7226C45.7764 32.8709 45.508 32.9459 45.2593 32.921L45.2195 33.319C45.5708 33.3541 45.9323 33.2491 46.2188 33.0524C46.5057 32.8554 46.7323 32.5556 46.7872 32.1897L46.3916 32.1303ZM45.2489 32.9202C44.7252 32.8953 44.3346 32.4752 44.3592 31.9595L43.9596 31.9405C43.9242 32.6848 44.4935 33.2847 45.2299 33.3198L45.2489 32.9202ZM44.3587 31.9659C44.5394 29.7083 44.6594 25.7723 44.6594 21.78H44.2594C44.2594 25.7677 44.1394 29.6917 43.96 31.9341L44.3587 31.9659ZM44.4594 21.58H41.2794V21.98H44.4594V21.58ZM41.2794 21.58C41.1156 21.58 40.9181 21.4786 40.7536 21.2943C40.5909 21.1121 40.4894 20.8802 40.4894 20.67H40.0894C40.0894 20.9998 40.2429 21.3229 40.4552 21.5607C40.6656 21.7964 40.9632 21.98 41.2794 21.98V21.58ZM40.4894 20.67C40.4894 20.4564 40.5861 20.2242 40.7436 20.0442C40.9021 19.8631 41.0988 19.76 41.2794 19.76V19.36C40.9499 19.36 40.6517 19.5419 40.4426 19.7808C40.2326 20.0208 40.0894 20.3436 40.0894 20.67H40.4894ZM41.2794 19.76H44.4594V19.36H41.2794V19.76ZM44.6594 19.5582C44.6294 16.228 44.5394 13.0408 44.3586 11.0519L43.9602 11.0881C44.1394 13.0592 44.2294 16.232 44.2594 19.5618L44.6594 19.5582ZM44.3574 11.0417C44.3217 10.7923 44.4029 10.5828 44.5584 10.4212C44.7176 10.256 44.9592 10.1378 45.2377 10.098L45.1811 9.70201C44.8296 9.75223 44.5012 9.90404 44.2703 10.1438C44.0359 10.3872 43.907 10.7177 43.9614 11.0983L44.3574 11.0417ZM45.2283 10.0991C45.7885 10.0457 46.3203 10.3666 46.3912 10.887L46.7875 10.833C46.6785 10.0334 45.8902 9.63425 45.1904 9.7009L45.2283 10.0991ZM50.9935 31.62L50.9652 31.818L50.9656 31.818L50.9935 31.62ZM49.9735 30.36L50.1713 30.3897L50.1717 30.387L49.9735 30.36ZM51.2335 29.37L51.2038 29.568L51.2139 29.569L51.2335 29.37ZM60.1735 29.73L60.1718 29.93L60.3735 29.9317V29.73H60.1735ZM62.6335 29.73H62.4335V29.93H62.6335V29.73ZM71.5435 29.37L71.5662 29.5688L71.5705 29.5682L71.5435 29.37ZM72.8335 30.36L72.6335 30.37L72.6345 30.3799L72.8335 30.36ZM71.8135 31.62L71.8392 31.8184L71.8447 31.8176L71.8135 31.62ZM69.5735 18.03C69.5735 21.7441 66.5591 25.09 61.2835 25.09V25.49C66.7479 25.49 69.9735 21.9958 69.9735 18.03H69.5735ZM61.2835 25.09C58.5813 25.09 56.51 24.2417 55.1161 22.9424C53.7219 21.6428 52.9935 19.8814 52.9935 18.03H52.5935C52.5935 19.9886 53.3652 21.8572 54.8434 23.235C56.322 24.6133 58.4957 25.49 61.2835 25.49V25.09ZM52.9935 18.03C52.9935 14.084 56.2689 10.97 61.2835 10.97V10.57C56.0981 10.57 52.5935 13.816 52.5935 18.03H52.9935ZM61.2835 10.97C66.6749 10.97 69.5735 14.4319 69.5735 18.03H69.9735C69.9735 14.1881 66.8721 10.57 61.2835 10.57V10.97ZM67.5735 18.03C67.5735 16.5982 67.0355 15.2752 65.9702 14.3117C64.9057 13.349 63.3317 12.76 61.2835 12.76V13.16C63.2554 13.16 64.7263 13.726 65.7019 14.6083C66.6765 15.4898 67.1735 16.7018 67.1735 18.03H67.5735ZM61.2835 12.76C59.2395 12.76 57.665 13.3017 56.5987 14.2425C55.5299 15.1856 54.9935 16.5108 54.9935 18.03H55.3935C55.3935 16.6092 55.8921 15.3994 56.8633 14.5425C57.8371 13.6833 59.3075 13.16 61.2835 13.16V12.76ZM54.9935 18.03C54.9935 19.6595 55.6088 20.9855 56.7161 21.9004C57.819 22.8117 59.3912 23.3 61.2835 23.3V22.9C59.4559 22.9 57.983 22.4283 56.9709 21.5921C55.9633 20.7595 55.3935 19.5505 55.3935 18.03H54.9935ZM61.2835 23.3C63.2535 23.3 64.8266 22.7653 65.9104 21.8302C66.997 20.8927 67.5735 19.568 67.5735 18.03H67.1735C67.1735 19.462 66.64 20.6723 65.6491 21.5273C64.6554 22.3847 63.1835 22.9 61.2835 22.9V23.3ZM51.0218 31.422C50.4838 31.3452 50.1003 30.8629 50.1713 30.3897L49.7757 30.3303C49.6667 31.0571 50.2432 31.7148 50.9652 31.818L51.0218 31.422ZM50.1717 30.387C50.2473 29.8325 50.7191 29.4951 51.2038 29.5678L51.2632 29.1722C50.548 29.0649 49.8797 29.5675 49.7753 30.333L50.1717 30.387ZM51.2139 29.569C53.353 29.7799 56.6903 29.9 60.1718 29.93L60.1752 29.53C56.6968 29.5 53.374 29.3801 51.2531 29.171L51.2139 29.569ZM60.3735 29.73V27.12H59.9735V29.73H60.3735ZM60.3735 27.12C60.3735 26.9614 60.4618 26.7556 60.6385 26.5853C60.8116 26.4185 61.0556 26.3 61.3435 26.3V25.9C60.9414 25.9 60.6005 26.0665 60.361 26.2972C60.1252 26.5244 59.9735 26.8286 59.9735 27.12H60.3735ZM61.3435 26.3C61.6271 26.3 61.9073 26.404 62.1144 26.5626C62.3247 26.7236 62.4335 26.9185 62.4335 27.09H62.8335C62.8335 26.7515 62.6273 26.4514 62.3576 26.2449C62.0847 26.036 61.7199 25.9 61.3435 25.9V26.3ZM62.4335 27.09V29.73H62.8335V27.09H62.4335ZM62.6335 29.93C66.1156 29.93 69.4547 29.81 71.5662 29.5687L71.5208 29.1713C69.4323 29.41 66.1114 29.53 62.6335 29.53V29.93ZM71.5705 29.5682C72.1269 29.4923 72.6102 29.8993 72.6338 30.37L73.0333 30.35C72.9968 29.6207 72.2801 29.0677 71.5165 29.1718L71.5705 29.5682ZM72.6345 30.3799C72.6582 30.6166 72.5699 30.8573 72.4063 31.053C72.2423 31.2492 72.0139 31.3859 71.7823 31.4224L71.8447 31.8176C72.1831 31.7641 72.4948 31.5708 72.7132 31.3095C72.9321 31.0477 73.0689 30.7034 73.0325 30.3401L72.6345 30.3799ZM71.7879 31.4217C70.0621 31.6448 65.8817 31.7875 61.6166 31.8025C57.3507 31.8175 53.0299 31.7046 51.0214 31.422L50.9656 31.818C53.0071 32.1054 57.3563 32.2175 61.618 32.2025C65.8803 32.1875 70.0849 32.0452 71.8392 31.8183L71.7879 31.4217ZM80.0129 10.65L79.8156 10.6171L79.8156 10.6171L80.0129 10.65ZM79.8029 16.35L79.6035 16.3656L79.6039 16.3699L79.8029 16.35ZM80.0729 16.98L79.9834 17.1589L79.9904 17.1624L79.9976 17.1653L80.0729 16.98ZM93.5129 16.65L93.5745 16.8403L93.5761 16.8397L93.5129 16.65ZM94.8629 17.34L94.6721 17.4003L94.6741 17.4061L94.8629 17.34ZM94.3829 18.72L94.462 18.9038L94.4667 18.9016L94.3829 18.72ZM79.0829 19.08L79.1578 18.8945L79.1531 18.8927L79.0829 19.08ZM77.5229 17.43L77.3252 17.4604L77.3258 17.464L77.5229 17.43ZM77.7029 10.38L77.5063 10.3431L77.5063 10.3431L77.7029 10.38ZM79.0829 9.57L79.1187 9.37323L79.1099 9.37163L79.101 9.37082L79.0829 9.57ZM75.6029 24.63L75.5746 24.828L75.575 24.828L75.6029 24.63ZM74.5829 23.37L74.7807 23.3997L74.7811 23.397L74.5829 23.37ZM75.8429 22.38L75.8132 22.5781L75.824 22.5791L75.8429 22.38ZM96.1529 22.38L96.1758 22.5787L96.1799 22.5782L96.1529 22.38ZM97.4429 23.37L97.2429 23.38L97.2439 23.3899L97.4429 23.37ZM96.4229 24.63L96.4486 24.8284L96.4541 24.8276L96.4229 24.63ZM79.8629 27.18L80.0599 27.2158L80.0611 27.2064L79.8629 27.18ZM79.6829 31.17H79.8829V31.157L79.8812 31.1441L79.6829 31.17ZM79.9229 31.38L79.9983 31.1943L79.9861 31.1903L79.9229 31.38ZM94.2629 31.05L94.3245 31.2403L94.3332 31.2375L94.3417 31.2338L94.2629 31.05ZM95.6129 31.71L95.4203 31.765L95.4241 31.7761L95.6129 31.71ZM95.1329 33.09L95.212 33.2738L95.2167 33.2716L95.1329 33.09ZM86.4929 34.32V34.52L86.4951 34.52L86.4929 34.32ZM78.9329 33.45L79.0078 33.2645L79.0031 33.2627L78.9329 33.45ZM77.3729 31.8L77.1751 31.8299L77.1758 31.834L77.3729 31.8ZM77.5529 26.82L77.3563 26.7831L77.3563 26.7831L77.5529 26.82ZM78.9329 26.01L78.9687 25.8132L78.9687 25.8132L78.9329 26.01ZM79.8156 10.6171C79.6027 11.8945 79.4823 14.8208 79.6035 16.3656L80.0023 16.3344C79.8834 14.8192 80.0031 11.9255 80.2102 10.6829L79.8156 10.6171ZM79.6039 16.3699C79.6173 16.5041 79.6266 16.6625 79.6687 16.7937C79.7174 16.9453 79.8111 17.0727 79.9834 17.1589L80.1623 16.8011C80.0946 16.7673 80.0683 16.7297 80.0495 16.6713C80.0242 16.5925 80.0185 16.4959 80.0019 16.3301L79.6039 16.3699ZM79.9976 17.1653C80.5016 17.3701 81.332 17.5526 82.3112 17.6845C83.2949 17.8169 84.4439 17.9 85.5929 17.9V17.5C84.4619 17.5 83.3308 17.4181 82.3646 17.288C81.3938 17.1574 80.6041 16.9799 80.1482 16.7947L79.9976 17.1653ZM85.5929 17.9C88.366 17.9 91.5083 17.5088 93.5745 16.8403L93.4513 16.4597C91.4375 17.1112 88.3398 17.5 85.5929 17.5V17.9ZM93.5761 16.8397C93.742 16.7844 93.9811 16.8026 94.205 16.9064C94.4262 17.009 94.6031 17.1814 94.6722 17.4002L95.0536 17.2798C94.9427 16.9286 94.6696 16.681 94.3733 16.5436C94.0797 16.4074 93.7338 16.3656 93.4496 16.4603L93.5761 16.8397ZM94.6741 17.4061C94.8532 17.9176 94.5873 18.4054 94.2991 18.5384L94.4667 18.9016C94.9585 18.6746 95.2926 17.9624 95.0517 17.2739L94.6741 17.4061ZM94.3038 18.5363C93.2512 18.9895 91.7522 19.2869 90.1674 19.4701C88.5867 19.6528 86.9371 19.72 85.5929 19.72V20.12C86.9487 20.12 88.6141 20.0522 90.2134 19.8674C91.8086 19.6831 93.3546 19.3805 94.462 18.9037L94.3038 18.5363ZM85.5929 19.72C82.8653 19.72 80.6792 19.509 79.1578 18.8946L79.008 19.2654C80.6066 19.911 82.8605 20.12 85.5929 20.12V19.72ZM79.1531 18.8927C78.4635 18.6341 77.8525 18.1649 77.72 17.396L77.3258 17.464C77.4932 18.4351 78.2623 18.9859 79.0127 19.2673L79.1531 18.8927ZM77.7206 17.3996C77.6036 16.6394 77.5803 15.253 77.6216 13.8659C77.6628 12.48 77.7675 11.1206 77.8995 10.4169L77.5063 10.3431C77.3683 11.0794 77.263 12.465 77.2217 13.8541C77.1805 15.242 77.2022 16.6606 77.3252 17.4604L77.7206 17.3996ZM77.8995 10.4169C77.9307 10.2501 78.0627 10.0749 78.2817 9.94422C78.4977 9.81523 78.7782 9.74312 79.0648 9.76918L79.101 9.37082C78.7276 9.33688 78.3631 9.42977 78.0766 9.60077C77.7931 9.77007 77.565 10.0299 77.5063 10.3431L77.8995 10.4169ZM79.0471 9.76677C79.3229 9.81692 79.5277 9.96645 79.6579 10.14C79.7926 10.3196 79.8342 10.5055 79.8156 10.6171L80.2102 10.6829C80.2516 10.4345 80.1582 10.1404 79.9779 9.9C79.7931 9.65355 79.5029 9.44308 79.1187 9.37323L79.0471 9.76677ZM75.6312 24.432C75.0932 24.3552 74.7097 23.8729 74.7807 23.3997L74.3851 23.3403C74.2761 24.0671 74.8526 24.7248 75.5746 24.828L75.6312 24.432ZM74.7811 23.397C74.8567 22.8425 75.3285 22.5051 75.8132 22.5778L75.8726 22.1822C75.1573 22.0749 74.4891 22.5775 74.3847 23.343L74.7811 23.397ZM75.824 22.5791C80.5742 23.0301 91.4787 23.1207 96.1758 22.5787L96.13 22.1813C91.4671 22.7193 80.5916 22.6299 75.8618 22.1809L75.824 22.5791ZM96.1799 22.5782C96.7363 22.5023 97.2196 22.9093 97.2431 23.38L97.6426 23.36C97.6062 22.6307 96.8895 22.0777 96.1259 22.1818L96.1799 22.5782ZM97.2439 23.3899C97.2676 23.6266 97.1793 23.8673 97.0157 24.063C96.8516 24.2592 96.6233 24.3959 96.3917 24.4324L96.4541 24.8276C96.7925 24.7741 97.1042 24.5808 97.3226 24.3195C97.5415 24.0577 97.6782 23.7134 97.6419 23.3501L97.2439 23.3899ZM96.3972 24.4317C94.6715 24.6548 90.4911 24.7975 86.2259 24.8125C81.9601 24.8275 77.6393 24.7146 75.6308 24.432L75.575 24.828C77.6165 25.1154 81.9657 25.2275 86.2273 25.2125C90.4897 25.1975 94.6943 25.0552 96.4485 24.8283L96.3972 24.4317ZM79.6661 27.1442C79.4241 28.4753 79.3009 29.7877 79.4846 31.1959L79.8812 31.1441C79.7049 29.7923 79.8217 28.5247 80.0597 27.2158L79.6661 27.1442ZM79.4829 31.17C79.4829 31.2701 79.5208 31.3622 79.6016 31.4349C79.6704 31.4969 79.7625 31.5374 79.8596 31.5697L79.9861 31.1903C79.9469 31.1772 79.9188 31.1656 79.8989 31.1556C79.8788 31.1456 79.8708 31.1391 79.8692 31.1376C79.8685 31.137 79.8737 31.1417 79.8782 31.1519C79.8803 31.1567 79.8815 31.1611 79.8822 31.1647C79.8829 31.1682 79.8829 31.1701 79.8829 31.17H79.4829ZM79.8476 31.5653C80.1084 31.6712 80.5142 31.7678 80.9988 31.8539C81.4876 31.9408 82.07 32.0192 82.6918 32.0851C83.9351 32.217 85.3448 32.3 86.4929 32.3V31.9C85.361 31.9 83.9657 31.818 82.734 31.6874C82.1183 31.6221 81.5457 31.5448 81.0688 31.4601C80.5878 31.3747 80.2174 31.2838 79.9982 31.1947L79.8476 31.5653ZM86.4929 32.3C89.2671 32.3 92.2591 31.9085 94.3245 31.2403L94.2013 30.8597C92.1867 31.5115 89.2387 31.9 86.4929 31.9V32.3ZM94.3417 31.2338C94.4925 31.1692 94.728 31.1685 94.9513 31.261C95.1693 31.3513 95.3506 31.5199 95.4206 31.7649L95.8052 31.6551C95.6952 31.2701 95.4115 31.0187 95.1044 30.8915C94.8028 30.7665 94.4533 30.7508 94.1841 30.8662L94.3417 31.2338ZM95.4241 31.7761C95.6032 32.2876 95.3373 32.7754 95.0491 32.9084L95.2167 33.2716C95.7085 33.0446 96.0426 32.3324 95.8017 31.6439L95.4241 31.7761ZM95.0538 32.9063C94.0004 33.3599 92.5456 33.6572 91.0026 33.8439C89.4632 34.0303 87.8508 34.1051 86.4907 34.12L86.4951 34.52C87.8649 34.5049 89.4926 34.4297 91.0507 34.2411C92.6052 34.0528 94.1054 33.7501 95.212 33.2737L95.0538 32.9063ZM86.4929 34.12C85.133 34.12 83.64 34.0602 82.2945 33.9223C80.9437 33.7838 79.7601 33.5684 79.0078 33.2646L78.858 33.6354C79.6657 33.9616 80.897 34.1812 82.2537 34.3202C83.6157 34.4598 85.1227 34.52 86.4929 34.52V34.12ZM79.0031 33.2627C78.3135 33.0041 77.7025 32.5349 77.57 31.766L77.1758 31.834C77.3432 32.8051 78.1123 33.3559 78.8627 33.6373L79.0031 33.2627ZM77.5707 31.7701C77.3351 30.2096 77.482 28.2835 77.7495 26.8569L77.3563 26.7831C77.0838 28.2365 76.9307 30.2104 77.1751 31.8299L77.5707 31.7701ZM77.7495 26.8569C77.7815 26.6858 77.9178 26.4959 78.1354 26.3595C78.3495 26.2252 78.6219 26.1567 78.8971 26.2068L78.9687 25.8132C78.5839 25.7433 78.2112 25.8398 77.9229 26.0205C77.638 26.1991 77.4142 26.4742 77.3563 26.7831L77.7495 26.8569ZM78.8971 26.2068C79.4483 26.307 79.711 26.8055 79.6646 27.1536L80.0611 27.2064C80.1347 26.6545 79.7375 25.953 78.9687 25.8132L78.8971 26.2068ZM112.095 19.35L112.068 19.1516L112.062 19.1527L112.095 19.35ZM110.805 18.42L110.606 18.4448L110.607 18.4529L110.805 18.42ZM111.615 17.16L111.577 16.963L111.564 16.9666L111.615 17.16ZM119.235 12.18L119.432 12.2129L119.471 11.98H119.235V12.18ZM121.725 12.18V11.98H121.539L121.525 12.1647L121.725 12.18ZM123.495 14.4L123.572 14.2157L123.571 14.2151L123.495 14.4ZM129.675 17.01L129.755 16.8268L129.752 16.8258L129.675 17.01ZM130.185 18.6L130.36 18.6958L130.362 18.6923L130.185 18.6ZM128.565 19.08L128.643 18.8962L128.642 18.8954L128.565 19.08ZM122.445 16.53L122.361 16.7117L122.368 16.7146L122.445 16.53ZM121.875 14.85L121.7 14.7516L121.699 14.7552L121.875 14.85ZM110.115 22.74L110.144 22.5422L110.143 22.542L110.115 22.74ZM109.095 21.48L109.292 21.5097L109.293 21.507L109.095 21.48ZM110.355 20.52L110.335 20.719L110.336 20.7191L110.355 20.52ZM130.665 20.52L130.646 20.3209L130.642 20.3213L130.665 20.52ZM131.955 21.48L131.755 21.4895L131.756 21.4999L131.955 21.48ZM130.935 22.74L130.96 22.9384L130.966 22.9376L130.935 22.74ZM121.755 23.13L121.753 22.93L121.555 22.9315V23.13H121.755ZM121.755 25.17H121.555V25.3626L121.747 25.3699L121.755 25.17ZM110.835 29.88L111.035 29.8833V29.88H110.835ZM119.295 25.17L119.302 25.3699L119.495 25.3626V25.17H119.295ZM119.295 23.13H119.495V22.9316L119.296 22.93L119.295 23.13ZM112.062 19.1527C111.859 19.1865 111.612 19.1139 111.398 18.9592C111.184 18.8045 111.036 18.5914 111.002 18.3871L110.607 18.4529C110.663 18.7886 110.89 19.0855 111.164 19.2833C111.437 19.4811 111.79 19.6035 112.127 19.5473L112.062 19.1527ZM111.003 18.3952C110.979 18.203 111.027 17.9695 111.146 17.7675C111.263 17.5674 111.441 17.4124 111.666 17.3534L111.564 16.9666C111.218 17.0576 110.961 17.2926 110.801 17.565C110.642 17.8355 110.57 18.157 110.606 18.4448L111.003 18.3952ZM111.652 17.3565C113.566 16.9949 115.376 16.4646 116.774 15.6529C118.174 14.8396 119.179 13.7312 119.432 12.2129L119.037 12.1471C118.81 13.5088 117.91 14.5304 116.573 15.3071C115.233 16.0854 113.474 16.6051 111.577 16.9635L111.652 17.3565ZM119.235 11.98H112.725V12.38H119.235V11.98ZM112.725 11.98C112.561 11.98 112.363 11.8786 112.199 11.6943C112.036 11.5121 111.935 11.2802 111.935 11.07H111.535C111.535 11.3998 111.688 11.7229 111.9 11.9607C112.111 12.1964 112.408 12.38 112.725 12.38V11.98ZM111.935 11.07C111.935 10.8562 112.032 10.6234 112.186 10.4427C112.343 10.2598 112.532 10.16 112.695 10.16V9.76C112.377 9.76 112.086 9.94524 111.883 10.1823C111.678 10.4216 111.535 10.7438 111.535 11.07H111.935ZM112.695 10.16H128.295V9.76H112.695V10.16ZM128.295 10.16C128.454 10.16 128.661 10.2489 128.832 10.4202C129 10.5883 129.115 10.817 129.115 11.07H129.515C129.515 10.693 129.344 10.3667 129.115 10.1373C128.889 9.9111 128.585 9.76 128.295 9.76V10.16ZM129.115 11.07C129.115 11.2838 129.018 11.5166 128.863 11.6973C128.706 11.8802 128.517 11.98 128.355 11.98V12.38C128.672 12.38 128.963 12.1948 129.166 11.9577C129.372 11.7184 129.515 11.3962 129.515 11.07H129.115ZM128.355 11.98H121.725V12.38H128.355V11.98ZM121.525 12.1647C121.367 14.2265 120.084 15.8277 118.286 16.9921C116.487 18.1571 114.192 18.8696 112.068 19.1517L112.121 19.5483C114.287 19.2604 116.642 18.5329 118.503 17.3279C120.365 16.1223 121.753 14.4235 121.924 12.1953L121.525 12.1647ZM123.417 14.5842L129.597 17.1942L129.752 16.8258L123.572 14.2158L123.417 14.5842ZM129.594 17.1932C129.79 17.2788 129.976 17.4523 130.071 17.6798C130.164 17.9009 130.176 18.1838 130.007 18.5077L130.362 18.6923C130.584 18.2662 130.58 17.8591 130.44 17.5252C130.303 17.1977 130.039 16.9512 129.755 16.8268L129.594 17.1932ZM130.009 18.5042C129.864 18.7703 129.622 18.9073 129.359 18.9587C129.09 19.0111 128.816 18.9702 128.643 18.8962L128.486 19.2638C128.733 19.3698 129.089 19.4189 129.435 19.3513C129.787 19.2827 130.145 19.0897 130.36 18.6958L130.009 18.5042ZM128.642 18.8954L122.522 16.3454L122.368 16.7146L128.488 19.2646L128.642 18.8954ZM122.528 16.3484C122.379 16.2792 122.163 16.0892 122.036 15.8274C121.912 15.5745 121.876 15.2684 122.051 14.9448L121.699 14.7552C121.453 15.2116 121.507 15.6555 121.676 16.0026C121.841 16.3408 122.121 16.6008 122.361 16.7116L122.528 16.3484ZM122.049 14.9484C122.213 14.6572 122.439 14.5267 122.675 14.4844C122.92 14.4405 123.188 14.4898 123.418 14.5849L123.571 14.2151C123.292 14.1002 122.945 14.0295 122.604 14.0906C122.255 14.1533 121.926 14.3528 121.7 14.7516L122.049 14.9484ZM110.143 22.542C109.605 22.4652 109.221 21.9829 109.292 21.5097L108.897 21.4503C108.788 22.1771 109.364 22.8348 110.086 22.938L110.143 22.542ZM109.293 21.507C109.366 20.9691 109.826 20.6681 110.335 20.719L110.375 20.321C109.684 20.2519 109.003 20.6709 108.896 21.453L109.293 21.507ZM110.336 20.7191C115.086 21.1701 125.99 21.2607 130.688 20.7187L130.642 20.3213C125.979 20.8593 115.103 20.7699 110.374 20.3209L110.336 20.7191ZM130.684 20.7191C131.241 20.666 131.732 21.0107 131.755 21.4895L132.154 21.4705C132.117 20.6893 131.349 20.254 130.646 20.3209L130.684 20.7191ZM131.756 21.4999C131.779 21.7366 131.691 21.9773 131.527 22.173C131.363 22.3692 131.135 22.5059 130.903 22.5424L130.966 22.9376C131.304 22.8841 131.616 22.6908 131.834 22.4295C132.053 22.1677 132.19 21.8234 132.154 21.4601L131.756 21.4999ZM130.909 22.5417C129.302 22.7499 125.654 22.9 121.753 22.93L121.756 23.33C125.656 23.3 129.327 23.1501 130.96 22.9383L130.909 22.5417ZM121.555 23.13V25.17H121.955V23.13H121.555ZM121.747 25.3699C124.123 25.4595 126.205 25.8032 127.686 26.5236C128.424 26.8827 129.005 27.3316 129.401 27.8814C129.796 28.4291 130.015 29.087 130.015 29.88H130.415C130.415 29.008 130.172 28.2672 129.726 27.6476C129.281 27.0303 128.641 26.5435 127.861 26.1639C126.304 25.4068 124.156 25.0605 121.762 24.9701L121.747 25.3699ZM130.015 29.88C130.015 30.7521 129.757 31.4613 129.295 32.04C128.831 32.6218 128.152 33.0826 127.296 33.4377C125.578 34.1498 123.187 34.42 120.525 34.42V34.82C123.202 34.82 125.657 34.5502 127.449 33.8073C128.347 33.4349 129.089 32.9395 129.608 32.2894C130.129 31.6362 130.415 30.8379 130.415 29.88H130.015ZM120.525 34.42C117.863 34.42 115.457 34.135 113.732 33.4154C112.871 33.0564 112.19 32.5936 111.729 32.0148C111.27 31.4393 111.02 30.7387 111.035 29.8833L110.635 29.8767C110.619 30.8213 110.898 31.6132 111.416 32.264C111.932 32.9114 112.676 33.4086 113.578 33.7846C115.377 34.535 117.846 34.82 120.525 34.82V34.42ZM111.035 29.88C111.035 28.3419 111.893 27.2685 113.364 26.5458C114.845 25.8179 116.927 25.4595 119.302 25.3699L119.287 24.9701C116.892 25.0605 114.744 25.4221 113.188 26.1867C111.621 26.9565 110.635 28.1481 110.635 29.88H111.035ZM119.495 25.17V23.13H119.095V25.17H119.495ZM119.296 22.93C115.512 22.9 111.927 22.8097 110.144 22.5422L110.085 22.9378C111.902 23.2103 115.518 23.3 119.293 23.33L119.296 22.93ZM127.955 29.91C127.955 29.3591 127.75 28.9027 127.371 28.5371C126.998 28.1772 126.465 27.912 125.813 27.716C124.512 27.3244 122.672 27.19 120.495 27.19V27.59C122.667 27.59 124.457 27.7256 125.698 28.099C126.318 28.2855 126.784 28.5266 127.093 28.8248C127.396 29.1173 127.555 29.4709 127.555 29.91H127.955ZM120.495 27.19C118.332 27.19 116.507 27.3244 115.217 27.7161C114.571 27.9122 114.042 28.1776 113.672 28.5377C113.297 28.9035 113.095 29.3598 113.095 29.91H113.495C113.495 29.4702 113.652 29.1165 113.952 28.8241C114.257 28.5261 114.719 28.2853 115.333 28.0989C116.562 27.7256 118.337 27.59 120.495 27.59V27.19ZM113.095 29.91C113.095 30.4406 113.3 30.8823 113.675 31.237C114.044 31.5861 114.572 31.8463 115.217 32.0403C116.507 32.428 118.331 32.57 120.495 32.57V32.17C118.338 32.17 116.563 32.027 115.332 31.6572C114.717 31.4724 114.255 31.2358 113.95 30.9464C113.65 30.6627 113.495 30.3244 113.495 29.91H113.095ZM120.495 32.57C122.671 32.57 124.511 32.4431 125.812 32.0632C126.463 31.8731 126.996 31.6149 127.369 31.2624C127.749 30.904 127.955 30.4545 127.955 29.91H127.555C127.555 30.3405 127.397 30.686 127.095 30.9717C126.786 31.2632 126.32 31.4981 125.7 31.6793C124.458 32.0419 122.668 32.17 120.495 32.17V32.57ZM137.664 31.92L137.862 31.9483L137.863 31.9409L137.664 31.92ZM136.374 32.91L136.346 33.108L136.355 33.1093L136.363 33.1097L136.374 32.91ZM135.234 30.63L135.034 30.6395L135.035 30.6453L135.234 30.63ZM137.664 30.51L137.464 30.5205L137.465 30.5281L137.664 30.51ZM137.466 31.8917C137.394 32.3968 136.875 32.7361 136.384 32.7103L136.363 33.1097C137.013 33.1439 137.754 32.7032 137.862 31.9483L137.466 31.8917ZM136.402 32.712C135.822 32.6291 135.464 32.2579 135.464 31.92H135.064C135.064 32.5421 135.666 33.0109 136.346 33.108L136.402 32.712ZM135.464 31.92C135.464 31.4721 135.464 31.0138 135.433 30.6147L135.035 30.6453C135.064 31.0262 135.064 31.4679 135.064 31.92H135.464ZM135.434 30.6205C135.41 30.1266 135.895 29.69 136.404 29.69V29.29C135.713 29.29 134.998 29.8734 135.034 30.6395L135.434 30.6205ZM136.404 29.69C136.989 29.69 137.441 30.0856 137.464 30.5205L137.864 30.4995C137.827 29.7944 137.139 29.29 136.404 29.29V29.69ZM137.465 30.5281C137.494 30.8519 137.523 31.3474 137.465 31.8991L137.863 31.9409C137.925 31.3526 137.894 30.8281 137.863 30.4919L137.465 30.5281ZM144.9 31.92L145.098 31.9483L145.099 31.9409L144.9 31.92ZM143.61 32.91L143.582 33.108L143.591 33.1093L143.6 33.1097L143.61 32.91ZM142.47 30.63L142.27 30.6395L142.271 30.6453L142.47 30.63ZM144.9 30.51L144.7 30.5205L144.701 30.5281L144.9 30.51ZM144.702 31.8917C144.63 32.3968 144.112 32.7361 143.621 32.7103L143.6 33.1097C144.249 33.1439 144.99 32.7032 145.098 31.9483L144.702 31.8917ZM143.639 32.712C143.058 32.6291 142.7 32.2579 142.7 31.92H142.3C142.3 32.5421 142.903 33.0109 143.582 33.108L143.639 32.712ZM142.7 31.92C142.7 31.4721 142.7 31.0138 142.67 30.6147L142.271 30.6453C142.3 31.0262 142.3 31.4679 142.3 31.92H142.7ZM142.67 30.6205C142.647 30.1266 143.131 29.69 143.64 29.69V29.29C142.949 29.29 142.234 29.8734 142.271 30.6395L142.67 30.6205ZM143.64 29.69C144.225 29.69 144.678 30.0856 144.701 30.5205L145.1 30.4995C145.063 29.7944 144.375 29.29 143.64 29.29V29.69ZM144.701 30.5281C144.731 30.8519 144.759 31.3474 144.701 31.8991L145.099 31.9409C145.161 31.3526 145.13 30.8281 145.099 30.4919L144.701 30.5281ZM152.137 31.92L152.335 31.9483L152.336 31.9409L152.137 31.92ZM150.847 32.91L150.818 33.108L150.827 33.1093L150.836 33.1097L150.847 32.91ZM149.707 30.63L149.507 30.6395L149.507 30.6453L149.707 30.63ZM152.137 30.51L151.937 30.5205L151.937 30.5281L152.137 30.51ZM151.939 31.8917C151.866 32.3968 151.348 32.7361 150.857 32.7103L150.836 33.1097C151.485 33.1439 152.227 32.7032 152.335 31.9483L151.939 31.8917ZM150.875 32.712C150.294 32.6291 149.937 32.2579 149.937 31.92H149.537C149.537 32.5421 150.139 33.0109 150.818 33.108L150.875 32.712ZM149.937 31.92C149.937 31.4721 149.937 31.0138 149.906 30.6147L149.507 30.6453C149.537 31.0262 149.537 31.4679 149.537 31.92H149.937ZM149.906 30.6205C149.883 30.1266 150.367 29.69 150.877 29.69V29.29C150.186 29.29 149.47 29.8734 149.507 30.6395L149.906 30.6205ZM150.877 29.69C151.462 29.69 151.914 30.0856 151.937 30.5205L152.336 30.4995C152.299 29.7944 151.611 29.29 150.877 29.29V29.69ZM151.937 30.5281C151.967 30.8519 151.996 31.3474 151.938 31.8991L152.336 31.9409C152.397 31.3526 152.366 30.8281 152.336 30.4919L151.937 30.5281Z" fill="#35241E" mask="url(#path-1-outside-1_767_1670)"/>
<path d="M199.385 18.4018C201.558 20.9714 201.106 24.116 201.106 26.8889C201.106 34.5273 190.806 36.6667 185.501 36.6667C180.195 36.6667 169.895 34.5273 169.895 26.8889C169.895 24.116 169.444 20.9714 171.616 18.4018M199.385 18.4018C199.004 17.952 198.544 17.5218 197.985 17.1112ZM199.385 18.4018C200.754 19.1899 201.104 16.2409 201.106 15.2768V11.6121C201.106 8.43435 198.922 7.33337 197.048 7.33337C195.177 7.33337 191.43 10.3899 190.182 10.3899C188.684 10.3899 188.395 10.0829 185.501 10.0829C182.607 10.0829 182.317 10.3899 180.819 10.3899C179.572 10.3899 175.825 7.33337 173.953 7.33337C172.082 7.33337 169.895 8.43435 169.895 11.6121V15.2788C169.899 16.2409 170.247 19.1899 171.616 18.4018M171.616 18.4018C171.998 17.952 172.457 17.5218 173.016 17.1112Z" fill="#FFB59D"/>
<path d="M199.385 18.4018C201.558 20.9714 201.106 24.116 201.106 26.8889C201.106 34.5273 190.806 36.6667 185.501 36.6667C180.195 36.6667 169.895 34.5273 169.895 26.8889C169.895 24.116 169.444 20.9714 171.616 18.4018M199.385 18.4018C199.004 17.952 198.544 17.5218 197.985 17.1112M199.385 18.4018C200.754 19.1899 201.104 16.2409 201.106 15.2768V11.6121C201.106 8.43435 198.922 7.33337 197.048 7.33337C195.177 7.33337 191.43 10.3899 190.182 10.3899C188.684 10.3899 188.395 10.0829 185.501 10.0829C182.607 10.0829 182.317 10.3899 180.819 10.3899C179.572 10.3899 175.825 7.33337 173.953 7.33337C172.082 7.33337 169.895 8.43435 169.895 11.6121V15.2788C169.899 16.2409 170.247 19.1899 171.616 18.4018M171.616 18.4018C171.998 17.952 172.457 17.5218 173.016 17.1112" stroke="#E55737" stroke-width="2.5" stroke-linecap="round"/>
<path d="M187.116 28.8445C187.116 29.1828 186.41 29.4566 185.538 29.4566C184.668 29.4566 183.962 29.1828 183.962 28.8445C183.962 28.5062 184.668 28.2344 185.538 28.2344C186.408 28.2344 187.116 28.5082 187.116 28.8445ZM192.345 24.1395C192.345 24.9823 191.921 25.6668 191.399 25.6668C190.876 25.6668 190.452 24.9823 190.452 24.1395C190.452 23.2966 190.876 22.6122 191.399 22.6122C191.921 22.6122 192.345 23.2986 192.345 24.1395ZM180.612 24.1395C180.612 24.9823 180.187 25.6668 179.665 25.6668C179.143 25.6668 178.719 24.9823 178.719 24.1395C178.719 23.2966 179.143 22.6122 179.665 22.6122C180.187 22.6122 180.612 23.2986 180.612 24.1395Z" fill="#35241E" stroke="#35241E" stroke-width="1.5"/>
<path d="M205.055 27.806C204.111 27.1939 200.01 25.6666 198.432 25.6666ZM201.901 32.6949C200.955 32.0828 198.747 30.5555 197.169 30.5555ZM165.944 27.806C166.891 27.1939 170.99 25.6666 172.568 25.6666ZM169.099 32.6949C170.045 32.0828 172.253 30.5555 173.831 30.5555Z" fill="#FFB59D"/>
<path d="M205.055 27.806C204.111 27.1939 200.01 25.6666 198.432 25.6666M201.901 32.6949C200.955 32.0828 198.747 30.5555 197.169 30.5555M165.944 27.806C166.891 27.1939 170.99 25.6666 172.568 25.6666M169.099 32.6949C170.045 32.0828 172.253 30.5555 173.831 30.5555" stroke="#E55737" stroke-width="2.5" stroke-linecap="round"/>
</svg>
