<svg width="182" height="44" viewBox="0 0 182 44" fill="none" xmlns="http://www.w3.org/2000/svg">
<mask id="path-1-outside-1_472_1943" maskUnits="userSpaceOnUse" x="0" y="8.5" width="128" height="27" fill="black">
<rect fill="white" y="8.5" width="128" height="27"/>
<path d="M5.76 19.38C5.67 19.92 5.67 21.84 5.82 22.5C5.85 22.62 5.91 22.68 6.06 22.74C7.02 23.13 10.5 23.46 13.02 23.46C15.54 23.46 17.91 23.07 19.95 22.41C20.4 22.23 21.12 22.53 21.3 23.13C21.51 23.73 21.21 24.3 20.82 24.48C18.66 25.41 15.51 25.68 12.78 25.71C10.05 25.71 6.63 25.47 5.07 24.84C4.32 24.54 3.72 24.06 3.51 23.19C3.21 21.99 3.36 19.14 3.54 18.3C3.66 17.85 4.08 17.19 4.71 17.19H18.21C18.33 16.53 18.36 15.24 18.21 14.19C18.18 13.95 18.18 13.65 17.76 13.65H4.8C4.35 13.65 3.84 13.08 3.84 12.54C3.84 12 4.32 11.46 4.83 11.46H18.6C19.38 11.46 20.28 11.88 20.46 12.78C20.73 14.04 20.67 17.13 20.43 18.18C20.28 18.75 19.77 19.38 18.84 19.38H5.76ZM1.89 31.62C1.26 31.53 0.78 30.96 0.87 30.36C0.96 29.7 1.53 29.28 2.13 29.37C4.26 29.58 7.59 29.7 11.07 29.73V27.42C11.07 26.97 11.55 26.4 12.24 26.4C12.9 26.4 13.53 26.88 13.53 27.39V29.73C17.01 29.73 20.34 29.61 22.44 29.37C23.1 29.28 23.7 29.76 23.73 30.36C23.79 30.96 23.28 31.53 22.71 31.62C19.23 32.07 5.94 32.19 1.89 31.62ZM44.6494 25.08C44.5294 25.5 44.0194 25.95 43.2994 25.83C42.5794 25.71 42.2794 25.11 42.3394 24.66C42.7294 21.81 42.9694 17.04 42.7294 14.19C42.6994 13.77 42.5494 13.68 42.2794 13.68H29.0194C28.5394 13.68 28.0594 13.05 28.0594 12.51C28.0594 11.91 28.6594 11.46 29.0794 11.46H43.4194C44.1994 11.46 44.8894 11.91 45.0394 12.78C45.3994 15.21 45.2494 22.65 44.6494 25.08ZM26.4994 31.62C25.8694 31.53 25.3894 30.96 25.4794 30.36C25.5694 29.7 26.1394 29.28 26.7394 29.37C31.4794 29.82 42.3694 29.91 47.0494 29.37C47.7094 29.28 48.3094 29.76 48.3394 30.36C48.3994 30.96 47.8894 31.53 47.3194 31.62C43.8394 32.07 30.5494 32.19 26.4994 31.62ZM64.1588 16.65C64.1588 21.09 61.2788 23.76 57.3188 23.76C53.4188 23.76 50.4788 20.85 50.4788 16.65C50.4788 12.39 53.5688 9.54 57.3188 9.54C61.2188 9.54 64.1588 12.48 64.1588 16.65ZM61.7288 16.68C61.7288 13.5 59.9888 11.79 57.2888 11.79C54.9488 11.79 52.9088 13.44 52.9088 16.68C52.9088 19.71 54.9188 21.51 57.2888 21.51C59.8688 21.51 61.7288 19.95 61.7288 16.68ZM71.5988 10.86C71.9888 14.19 71.9288 22.71 71.5988 25.95C71.5088 26.55 70.8488 26.97 70.2488 26.91C69.6188 26.88 69.1388 26.37 69.1688 25.74C69.4988 22.17 69.4688 14.97 69.1688 11.07C69.1388 10.44 69.5888 9.99 70.2188 9.9C70.8488 9.84 71.5088 10.2 71.5988 10.86ZM71.6888 33.09C69.5288 34.02 65.9588 34.29 63.2288 34.32C60.5288 34.32 56.5988 34.08 55.0388 33.45C54.3188 33.15 53.6588 32.67 53.4788 31.8C53.2088 30.6 53.2388 28.05 53.4188 26.43C53.4488 26.01 53.8988 25.47 54.6488 25.47C55.3688 25.47 55.8188 26.07 55.7888 26.52C55.6388 27.69 55.5488 29.97 55.7888 31.14C55.8188 31.26 55.8788 31.32 56.0288 31.38C56.9888 31.77 60.9188 32.1 63.4688 32.1C65.9888 32.1 68.7788 31.71 70.8188 31.05C71.2388 30.87 71.9888 31.08 72.1688 31.71C72.3788 32.31 72.0788 32.91 71.6888 33.09ZM86.9852 19.35C86.4452 19.44 85.7852 18.96 85.6952 18.42C85.6352 17.94 85.9352 17.31 86.5052 17.16C90.3152 16.44 93.6452 15.06 94.1252 12.18H87.6152C87.1352 12.18 86.6252 11.61 86.6252 11.07C86.6252 10.53 87.1052 9.96 87.5852 9.96H103.185C103.635 9.96 104.205 10.44 104.205 11.07C104.205 11.61 103.725 12.18 103.245 12.18H96.6152C96.2852 16.47 91.2752 18.78 86.9852 19.35ZM98.3852 14.4L104.565 17.01C105.045 17.22 105.465 17.85 105.075 18.6C104.715 19.26 103.875 19.26 103.455 19.08L97.3352 16.53C96.9452 16.35 96.3452 15.63 96.7652 14.85C97.1552 14.16 97.8752 14.19 98.3852 14.4ZM85.0052 22.74C84.3752 22.65 83.8952 22.08 83.9852 21.48C84.0752 20.82 84.6452 20.46 85.2452 20.52C89.9852 20.97 100.875 21.06 105.555 20.52C106.185 20.46 106.815 20.85 106.845 21.48C106.905 22.08 106.395 22.65 105.825 22.74C104.205 22.95 100.545 23.1 96.6452 23.13V25.17C101.415 25.35 105.105 26.55 105.105 29.88C105.105 33.54 100.755 34.62 95.4152 34.62C90.0752 34.62 85.6652 33.48 85.7252 29.88C85.7252 26.61 89.4152 25.35 94.1852 25.17V23.13C90.4052 23.1 86.8052 23.01 85.0052 22.74ZM102.645 29.91C102.645 27.93 99.7352 27.39 95.3852 27.39C91.0652 27.39 88.1852 27.93 88.1852 29.91C88.1852 31.8 91.0652 32.37 95.3852 32.37C99.7352 32.37 102.645 31.86 102.645 29.91ZM112.555 31.92C112.465 32.55 111.835 32.94 111.265 32.91C110.635 32.82 110.155 32.4 110.155 31.92C110.155 31.47 110.155 31.02 110.125 30.63C110.095 30 110.695 29.49 111.295 29.49C111.955 29.49 112.525 29.94 112.555 30.51C112.585 30.84 112.615 31.35 112.555 31.92ZM119.791 31.92C119.701 32.55 119.071 32.94 118.501 32.91C117.871 32.82 117.391 32.4 117.391 31.92C117.391 31.47 117.391 31.02 117.361 30.63C117.331 30 117.931 29.49 118.531 29.49C119.191 29.49 119.761 29.94 119.791 30.51C119.821 30.84 119.851 31.35 119.791 31.92ZM127.027 31.92C126.937 32.55 126.307 32.94 125.737 32.91C125.107 32.82 124.627 32.4 124.627 31.92C124.627 31.47 124.627 31.02 124.597 30.63C124.567 30 125.167 29.49 125.767 29.49C126.427 29.49 126.997 29.94 127.027 30.51C127.057 30.84 127.087 31.35 127.027 31.92Z"/>
</mask>
<path d="M5.76 19.38C5.67 19.92 5.67 21.84 5.82 22.5C5.85 22.62 5.91 22.68 6.06 22.74C7.02 23.13 10.5 23.46 13.02 23.46C15.54 23.46 17.91 23.07 19.95 22.41C20.4 22.23 21.12 22.53 21.3 23.13C21.51 23.73 21.21 24.3 20.82 24.48C18.66 25.41 15.51 25.68 12.78 25.71C10.05 25.71 6.63 25.47 5.07 24.84C4.32 24.54 3.72 24.06 3.51 23.19C3.21 21.99 3.36 19.14 3.54 18.3C3.66 17.85 4.08 17.19 4.71 17.19H18.21C18.33 16.53 18.36 15.24 18.21 14.19C18.18 13.95 18.18 13.65 17.76 13.65H4.8C4.35 13.65 3.84 13.08 3.84 12.54C3.84 12 4.32 11.46 4.83 11.46H18.6C19.38 11.46 20.28 11.88 20.46 12.78C20.73 14.04 20.67 17.13 20.43 18.18C20.28 18.75 19.77 19.38 18.84 19.38H5.76ZM1.89 31.62C1.26 31.53 0.78 30.96 0.87 30.36C0.96 29.7 1.53 29.28 2.13 29.37C4.26 29.58 7.59 29.7 11.07 29.73V27.42C11.07 26.97 11.55 26.4 12.24 26.4C12.9 26.4 13.53 26.88 13.53 27.39V29.73C17.01 29.73 20.34 29.61 22.44 29.37C23.1 29.28 23.7 29.76 23.73 30.36C23.79 30.96 23.28 31.53 22.71 31.62C19.23 32.07 5.94 32.19 1.89 31.62ZM44.6494 25.08C44.5294 25.5 44.0194 25.95 43.2994 25.83C42.5794 25.71 42.2794 25.11 42.3394 24.66C42.7294 21.81 42.9694 17.04 42.7294 14.19C42.6994 13.77 42.5494 13.68 42.2794 13.68H29.0194C28.5394 13.68 28.0594 13.05 28.0594 12.51C28.0594 11.91 28.6594 11.46 29.0794 11.46H43.4194C44.1994 11.46 44.8894 11.91 45.0394 12.78C45.3994 15.21 45.2494 22.65 44.6494 25.08ZM26.4994 31.62C25.8694 31.53 25.3894 30.96 25.4794 30.36C25.5694 29.7 26.1394 29.28 26.7394 29.37C31.4794 29.82 42.3694 29.91 47.0494 29.37C47.7094 29.28 48.3094 29.76 48.3394 30.36C48.3994 30.96 47.8894 31.53 47.3194 31.62C43.8394 32.07 30.5494 32.19 26.4994 31.62ZM64.1588 16.65C64.1588 21.09 61.2788 23.76 57.3188 23.76C53.4188 23.76 50.4788 20.85 50.4788 16.65C50.4788 12.39 53.5688 9.54 57.3188 9.54C61.2188 9.54 64.1588 12.48 64.1588 16.65ZM61.7288 16.68C61.7288 13.5 59.9888 11.79 57.2888 11.79C54.9488 11.79 52.9088 13.44 52.9088 16.68C52.9088 19.71 54.9188 21.51 57.2888 21.51C59.8688 21.51 61.7288 19.95 61.7288 16.68ZM71.5988 10.86C71.9888 14.19 71.9288 22.71 71.5988 25.95C71.5088 26.55 70.8488 26.97 70.2488 26.91C69.6188 26.88 69.1388 26.37 69.1688 25.74C69.4988 22.17 69.4688 14.97 69.1688 11.07C69.1388 10.44 69.5888 9.99 70.2188 9.9C70.8488 9.84 71.5088 10.2 71.5988 10.86ZM71.6888 33.09C69.5288 34.02 65.9588 34.29 63.2288 34.32C60.5288 34.32 56.5988 34.08 55.0388 33.45C54.3188 33.15 53.6588 32.67 53.4788 31.8C53.2088 30.6 53.2388 28.05 53.4188 26.43C53.4488 26.01 53.8988 25.47 54.6488 25.47C55.3688 25.47 55.8188 26.07 55.7888 26.52C55.6388 27.69 55.5488 29.97 55.7888 31.14C55.8188 31.26 55.8788 31.32 56.0288 31.38C56.9888 31.77 60.9188 32.1 63.4688 32.1C65.9888 32.1 68.7788 31.71 70.8188 31.05C71.2388 30.87 71.9888 31.08 72.1688 31.71C72.3788 32.31 72.0788 32.91 71.6888 33.09ZM86.9852 19.35C86.4452 19.44 85.7852 18.96 85.6952 18.42C85.6352 17.94 85.9352 17.31 86.5052 17.16C90.3152 16.44 93.6452 15.06 94.1252 12.18H87.6152C87.1352 12.18 86.6252 11.61 86.6252 11.07C86.6252 10.53 87.1052 9.96 87.5852 9.96H103.185C103.635 9.96 104.205 10.44 104.205 11.07C104.205 11.61 103.725 12.18 103.245 12.18H96.6152C96.2852 16.47 91.2752 18.78 86.9852 19.35ZM98.3852 14.4L104.565 17.01C105.045 17.22 105.465 17.85 105.075 18.6C104.715 19.26 103.875 19.26 103.455 19.08L97.3352 16.53C96.9452 16.35 96.3452 15.63 96.7652 14.85C97.1552 14.16 97.8752 14.19 98.3852 14.4ZM85.0052 22.74C84.3752 22.65 83.8952 22.08 83.9852 21.48C84.0752 20.82 84.6452 20.46 85.2452 20.52C89.9852 20.97 100.875 21.06 105.555 20.52C106.185 20.46 106.815 20.85 106.845 21.48C106.905 22.08 106.395 22.65 105.825 22.74C104.205 22.95 100.545 23.1 96.6452 23.13V25.17C101.415 25.35 105.105 26.55 105.105 29.88C105.105 33.54 100.755 34.62 95.4152 34.62C90.0752 34.62 85.6652 33.48 85.7252 29.88C85.7252 26.61 89.4152 25.35 94.1852 25.17V23.13C90.4052 23.1 86.8052 23.01 85.0052 22.74ZM102.645 29.91C102.645 27.93 99.7352 27.39 95.3852 27.39C91.0652 27.39 88.1852 27.93 88.1852 29.91C88.1852 31.8 91.0652 32.37 95.3852 32.37C99.7352 32.37 102.645 31.86 102.645 29.91ZM112.555 31.92C112.465 32.55 111.835 32.94 111.265 32.91C110.635 32.82 110.155 32.4 110.155 31.92C110.155 31.47 110.155 31.02 110.125 30.63C110.095 30 110.695 29.49 111.295 29.49C111.955 29.49 112.525 29.94 112.555 30.51C112.585 30.84 112.615 31.35 112.555 31.92ZM119.791 31.92C119.701 32.55 119.071 32.94 118.501 32.91C117.871 32.82 117.391 32.4 117.391 31.92C117.391 31.47 117.391 31.02 117.361 30.63C117.331 30 117.931 29.49 118.531 29.49C119.191 29.49 119.761 29.94 119.791 30.51C119.821 30.84 119.851 31.35 119.791 31.92ZM127.027 31.92C126.937 32.55 126.307 32.94 125.737 32.91C125.107 32.82 124.627 32.4 124.627 31.92C124.627 31.47 124.627 31.02 124.597 30.63C124.567 30 125.167 29.49 125.767 29.49C126.427 29.49 126.997 29.94 127.027 30.51C127.057 30.84 127.087 31.35 127.027 31.92Z" fill="#35241E"/>
<path d="M5.76 19.38V19.18H5.59057L5.56272 19.3471L5.76 19.38ZM5.82 22.5L5.62493 22.5443L5.62597 22.5485L5.82 22.5ZM6.06 22.74L6.13528 22.5547L6.13428 22.5543L6.06 22.74ZM19.95 22.41L20.0117 22.6007L20.0243 22.5957L19.95 22.41ZM21.3 23.13L21.1082 23.1875L21.1112 23.1961L21.3 23.13ZM20.82 24.48L20.8991 24.6638L20.9038 24.6616L20.82 24.48ZM12.78 25.71L12.78 25.91L12.7822 25.91L12.78 25.71ZM5.07 24.84L5.14489 24.6546L5.14428 24.6543L5.07 24.84ZM3.51 23.19L3.70442 23.1431L3.70403 23.1415L3.51 23.19ZM3.54 18.3L3.34652 18.2484L3.34444 18.2581L3.54 18.3ZM18.21 17.19V17.39H18.3769L18.4068 17.2258L18.21 17.19ZM18.21 14.19L18.0115 14.2148L18.012 14.2183L18.21 14.19ZM20.46 12.78L20.2639 12.8192L20.2644 12.8219L20.46 12.78ZM20.43 18.18L20.6235 18.2309L20.625 18.2246L20.43 18.18ZM1.89 31.62L1.86172 31.818L1.86213 31.818L1.89 31.62ZM0.87 30.36L1.0678 30.3897L1.06817 30.387L0.87 30.36ZM2.13 29.37L2.10029 29.568L2.11038 29.569L2.13 29.37ZM11.07 29.73L11.0683 29.93L11.27 29.9317V29.73H11.07ZM13.53 29.73H13.33V29.93H13.53V29.73ZM22.44 29.37L22.4627 29.5688L22.467 29.5682L22.44 29.37ZM23.73 30.36L23.53 30.37L23.531 30.3799L23.73 30.36ZM22.71 31.62L22.7357 31.8184L22.7412 31.8176L22.71 31.62ZM5.56272 19.3471C5.51447 19.6366 5.49252 20.2679 5.50001 20.8974C5.5075 21.5258 5.54464 22.1909 5.62497 22.5443L6.01503 22.4557C5.94536 22.1491 5.9075 21.5242 5.89999 20.8926C5.89248 20.2621 5.91553 19.6634 5.95728 19.4129L5.56272 19.3471ZM5.62597 22.5485C5.64722 22.6335 5.68392 22.7143 5.75358 22.7839C5.81907 22.8494 5.90061 22.8917 5.98572 22.9257L6.13428 22.5543C6.06939 22.5283 6.04593 22.5106 6.03642 22.5011C6.03108 22.4957 6.02278 22.4865 6.01403 22.4515L5.62597 22.5485ZM5.98472 22.9253C6.24633 23.0316 6.66234 23.1281 7.16435 23.2142C7.6709 23.301 8.27949 23.3793 8.93499 23.4452C10.2458 23.5771 11.7525 23.66 13.02 23.66V23.26C11.7675 23.26 10.2742 23.1779 8.97501 23.0473C8.32551 22.9819 7.7266 22.9047 7.2319 22.8199C6.73266 22.7344 6.35367 22.6434 6.13528 22.5547L5.98472 22.9253ZM13.02 23.66C15.5601 23.66 17.951 23.267 20.0116 22.6003L19.8884 22.2197C17.869 22.873 15.5199 23.26 13.02 23.26V23.66ZM20.0243 22.5957C20.1833 22.5321 20.4155 22.5473 20.6378 22.6569C20.8566 22.7647 21.0373 22.9504 21.1084 23.1875L21.4916 23.0725C21.3827 22.7096 21.1134 22.4453 20.8147 22.2981C20.5195 22.1527 20.1667 22.1079 19.8757 22.2243L20.0243 22.5957ZM21.1112 23.1961C21.289 23.7039 21.0278 24.1638 20.7362 24.2984L20.9038 24.6616C21.3922 24.4362 21.731 23.7561 21.4888 23.0639L21.1112 23.1961ZM20.7409 24.2963C18.6205 25.2093 15.5057 25.48 12.7778 25.51L12.7822 25.91C15.5143 25.88 18.6995 25.6107 20.8991 24.6637L20.7409 24.2963ZM12.78 25.51C11.4201 25.51 9.88941 25.4502 8.5061 25.3122C7.11684 25.1737 5.89647 24.9581 5.14489 24.6546L4.99511 25.0254C5.80353 25.3519 7.07316 25.5713 8.4664 25.7103C9.86559 25.8498 11.4099 25.91 12.78 25.91V25.51ZM5.14428 24.6543C4.43082 24.3689 3.89409 23.9289 3.70442 23.1431L3.31558 23.2369C3.54591 24.1911 4.20918 24.7111 4.99572 25.0257L5.14428 24.6543ZM3.70403 23.1415C3.56121 22.5702 3.52245 21.5819 3.54495 20.6146C3.56738 19.6498 3.64966 18.7428 3.73556 18.3419L3.34444 18.2581C3.25034 18.6972 3.16762 19.6352 3.14505 20.6053C3.12255 21.5731 3.15879 22.6098 3.31597 23.2385L3.70403 23.1415ZM3.73325 18.3515C3.78586 18.1542 3.90674 17.9056 4.08253 17.7099C4.25772 17.5149 4.4702 17.39 4.71 17.39V16.99C4.3198 16.99 4.00728 17.1951 3.78497 17.4426C3.56326 17.6894 3.41414 17.9958 3.34675 18.2485L3.73325 18.3515ZM4.71 17.39H18.21V16.99H4.71V17.39ZM18.4068 17.2258C18.5312 16.5416 18.5606 15.2297 18.408 14.1617L18.012 14.2183C18.1594 15.2503 18.1288 16.5184 18.0132 17.1542L18.4068 17.2258ZM18.4085 14.1652C18.4022 14.1152 18.395 14.038 18.3831 13.97C18.3707 13.8987 18.3501 13.815 18.3075 13.7356C18.2632 13.6528 18.1963 13.5771 18.0977 13.5243C18.0015 13.4728 17.8881 13.45 17.76 13.45V13.85C17.8419 13.85 17.886 13.8647 17.9089 13.8769C17.9294 13.8879 17.943 13.9022 17.955 13.9244C17.9686 13.95 17.9799 13.9863 17.9891 14.0387C17.9988 14.0945 18.0028 14.1448 18.0115 14.2148L18.4085 14.1652ZM17.76 13.45H4.8V13.85H17.76V13.45ZM4.8 13.45C4.65454 13.45 4.4648 13.3521 4.30177 13.1658C4.1417 12.9829 4.04 12.7504 4.04 12.54H3.64C3.64 12.8696 3.7933 13.1921 4.00073 13.4292C4.2052 13.6629 4.49547 13.85 4.8 13.85V13.45ZM4.04 12.54C4.04 12.3274 4.13595 12.1037 4.29186 11.9319C4.44838 11.7594 4.64555 11.66 4.83 11.66V11.26C4.50445 11.26 4.20662 11.4306 3.99564 11.6631C3.78405 11.8963 3.64 12.2126 3.64 12.54H4.04ZM4.83 11.66H18.6V11.26H4.83V11.66ZM18.6 11.66C19.3306 11.66 20.1103 12.0514 20.2639 12.8192L20.6561 12.7408C20.4497 11.7086 19.4294 11.26 18.6 11.26V11.66ZM20.2644 12.8219C20.3945 13.4286 20.4475 14.4971 20.4363 15.5566C20.425 16.6166 20.3499 17.633 20.235 18.1354L20.625 18.2246C20.7501 17.677 20.825 16.6234 20.8362 15.5609C20.8475 14.4979 20.7955 13.3914 20.6556 12.7381L20.2644 12.8219ZM20.2366 18.1291C20.1044 18.6315 19.6597 19.18 18.84 19.18V19.58C19.8803 19.58 20.4556 18.8685 20.6234 18.2309L20.2366 18.1291ZM18.84 19.18H5.76V19.58H18.84V19.18ZM1.91828 31.422C1.38031 31.3452 0.996809 30.8629 1.06779 30.3897L0.672213 30.3303C0.563191 31.0571 1.13969 31.7148 1.86172 31.818L1.91828 31.422ZM1.06817 30.387C1.14379 29.8325 1.61556 29.4951 2.10033 29.5678L2.15967 29.1722C1.44444 29.0649 0.776213 29.5675 0.671834 30.333L1.06817 30.387ZM2.11038 29.569C4.24953 29.7799 7.58674 29.9 11.0683 29.93L11.0717 29.53C7.59326 29.5 4.27047 29.3801 2.14962 29.171L2.11038 29.569ZM11.27 29.73V27.42H10.87V29.73H11.27ZM11.27 27.42C11.27 27.2614 11.3583 27.0556 11.535 26.8853C11.708 26.7185 11.9521 26.6 12.24 26.6V26.2C11.8379 26.2 11.497 26.3665 11.2575 26.5972C11.0217 26.8244 10.87 27.1286 10.87 27.42H11.27ZM12.24 26.6C12.5236 26.6 12.8038 26.704 13.0109 26.8626C13.2212 27.0236 13.33 27.2185 13.33 27.39H13.73C13.73 27.0515 13.5238 26.7514 13.2541 26.5449C12.9812 26.336 12.6164 26.2 12.24 26.2V26.6ZM13.33 27.39V29.73H13.73V27.39H13.33ZM13.53 29.93C17.0121 29.93 20.3512 29.81 22.4627 29.5687L22.4173 29.1713C20.3288 29.41 17.0079 29.53 13.53 29.53V29.93ZM22.467 29.5682C23.0234 29.4923 23.5067 29.8993 23.5302 30.37L23.9298 30.35C23.8933 29.6207 23.1766 29.0677 22.413 29.1718L22.467 29.5682ZM23.531 30.3799C23.5547 30.6166 23.4664 30.8573 23.3028 31.053C23.1387 31.2492 22.9104 31.3859 22.6788 31.4224L22.7412 31.8176C23.0796 31.7641 23.3913 31.5708 23.6097 31.3095C23.8286 31.0477 23.9653 30.7034 23.929 30.3401L23.531 30.3799ZM22.6844 31.4217C20.9586 31.6448 16.7782 31.7875 12.513 31.8025C8.24719 31.8175 3.92639 31.7046 1.91787 31.422L1.86213 31.818C3.90361 32.1054 8.25281 32.2175 12.5145 32.2025C16.7768 32.1875 20.9814 32.0452 22.7356 31.8183L22.6844 31.4217ZM44.6494 25.08L44.8418 25.135L44.8435 25.1279L44.6494 25.08ZM43.2994 25.83L43.3323 25.6327L43.3323 25.6327L43.2994 25.83ZM42.3394 24.66L42.1412 24.6329L42.1411 24.6336L42.3394 24.66ZM42.7294 14.19L42.5299 14.2042L42.5301 14.2068L42.7294 14.19ZM45.0394 12.78L45.2373 12.7507L45.2365 12.746L45.0394 12.78ZM26.4994 31.62L26.4711 31.818L26.4715 31.818L26.4994 31.62ZM25.4794 30.36L25.6772 30.3897L25.6775 30.387L25.4794 30.36ZM26.7394 29.37L26.7097 29.5681L26.7205 29.5691L26.7394 29.37ZM47.0494 29.37L47.0723 29.5687L47.0764 29.5682L47.0494 29.37ZM48.3394 30.36L48.1394 30.37L48.1404 30.3799L48.3394 30.36ZM47.3194 31.62L47.345 31.8184L47.3506 31.8176L47.3194 31.62ZM44.4571 25.0251C44.3641 25.3505 43.9487 25.7355 43.3323 25.6327L43.2665 26.0273C44.0901 26.1645 44.6947 25.6495 44.8417 25.1349L44.4571 25.0251ZM43.3323 25.6327C42.7252 25.5315 42.491 25.0361 42.5376 24.6864L42.1411 24.6336C42.0678 25.1839 42.4336 25.8885 43.2665 26.0273L43.3323 25.6327ZM42.5375 24.6871C42.9289 21.8269 43.1702 17.0417 42.9287 14.1732L42.5301 14.2068C42.7685 17.0383 42.5298 21.7931 42.1412 24.6329L42.5375 24.6871ZM42.9289 14.1758C42.9129 13.9523 42.8632 13.7635 42.7358 13.6361C42.6032 13.5035 42.4299 13.48 42.2794 13.48V13.88C42.3988 13.88 42.4355 13.9015 42.453 13.9189C42.4756 13.9415 42.5158 14.0077 42.5299 14.2042L42.9289 14.1758ZM42.2794 13.48H29.0194V13.88H42.2794V13.48ZM29.0194 13.48C28.8648 13.48 28.6763 13.3735 28.5155 13.1726C28.3577 12.9753 28.2594 12.7256 28.2594 12.51H27.8594C27.8594 12.8344 28.001 13.1697 28.2032 13.4224C28.4025 13.6715 28.6939 13.88 29.0194 13.88V13.48ZM28.2594 12.51C28.2594 12.2791 28.3751 12.0666 28.5478 11.9068C28.7238 11.7438 28.9324 11.66 29.0794 11.66V11.26C28.8063 11.26 28.505 11.4012 28.276 11.6132C28.0436 11.8284 27.8594 12.1409 27.8594 12.51H28.2594ZM29.0794 11.66H43.4194V11.26H29.0794V11.66ZM43.4194 11.66C44.1186 11.66 44.7115 12.0553 44.8423 12.814L45.2365 12.746C45.0673 11.7646 44.2802 11.26 43.4194 11.26V11.66ZM44.8415 12.8093C45.0187 14.0054 45.0719 16.4576 45.0045 18.9245C44.9369 21.3937 44.7493 23.8408 44.4552 25.0321L44.8435 25.1279C45.1494 23.8892 45.3368 21.4013 45.4043 18.9355C45.4718 16.4674 45.42 13.9846 45.2372 12.7507L44.8415 12.8093ZM26.5277 31.422C25.9897 31.3452 25.6062 30.8629 25.6772 30.3897L25.2816 30.3303C25.1726 31.0571 25.7491 31.7148 26.4711 31.818L26.5277 31.422ZM25.6775 30.387C25.7532 29.8325 26.2249 29.4951 26.7097 29.5678L26.769 29.1722C26.0538 29.0649 25.3856 29.5675 25.2812 30.333L25.6775 30.387ZM26.7205 29.5691C31.4707 30.0201 42.3752 30.1107 47.0723 29.5687L47.0265 29.1713C42.3636 29.7093 31.488 29.6199 26.7583 29.1709L26.7205 29.5691ZM47.0764 29.5682C47.6328 29.4923 48.1161 29.8993 48.1396 30.37L48.5391 30.35C48.5027 29.6207 47.786 29.0677 47.0224 29.1718L47.0764 29.5682ZM48.1404 30.3799C48.164 30.6166 48.0758 30.8573 47.9122 31.053C47.7481 31.2492 47.5198 31.3859 47.2882 31.4224L47.3506 31.8176C47.689 31.7641 48.0006 31.5708 48.2191 31.3095C48.4379 31.0477 48.5747 30.7034 48.5384 30.3401L48.1404 30.3799ZM47.2937 31.4217C45.568 31.6448 41.3876 31.7875 37.1224 31.8025C32.8566 31.8175 28.5358 31.7046 26.5272 31.422L26.4715 31.818C28.513 32.1054 32.8622 32.2175 37.1238 32.2025C41.3861 32.1875 45.5908 32.0452 47.345 31.8183L47.2937 31.4217ZM71.5988 10.86L71.7974 10.8367L71.7969 10.833L71.5988 10.86ZM71.5988 25.95L71.7968 25.9797L71.7977 25.9703L71.5988 25.95ZM70.2488 26.91L70.2687 26.7107L70.2583 26.7102L70.2488 26.91ZM69.1688 25.74L68.9694 25.7216L68.969 25.7305L69.1688 25.74ZM69.1688 11.07L68.9689 11.0795L68.9693 11.0853L69.1688 11.07ZM70.2188 9.9L70.1998 9.70068L70.1905 9.70201L70.2188 9.9ZM71.6888 33.09L71.7679 33.2738L71.7726 33.2716L71.6888 33.09ZM63.2288 34.32V34.52L63.2309 34.52L63.2288 34.32ZM55.0388 33.45L54.9618 33.6346L54.9639 33.6354L55.0388 33.45ZM53.4788 31.8L53.6746 31.7595L53.6739 31.7561L53.4788 31.8ZM53.4188 26.43L53.6177 26.4521L53.6182 26.4442L53.4188 26.43ZM55.7888 26.52L55.9875 26.5455L55.9883 26.5333L55.7888 26.52ZM55.7888 31.14L55.5927 31.1802L55.5947 31.1885L55.7888 31.14ZM56.0288 31.38L56.104 31.1947L56.103 31.1943L56.0288 31.38ZM70.8188 31.05L70.8803 31.2403L70.8891 31.2375L70.8975 31.2338L70.8188 31.05ZM72.1688 31.71L71.9761 31.765L71.98 31.7761L72.1688 31.71ZM63.9588 16.65C63.9588 18.8257 63.2541 20.5496 62.0819 21.729C60.9094 22.9087 59.253 23.56 57.3188 23.56V23.96C59.3445 23.96 61.1081 23.2763 62.3656 22.011C63.6234 20.7454 64.3588 18.9143 64.3588 16.65H63.9588ZM57.3188 23.56C53.5338 23.56 50.6788 20.7441 50.6788 16.65H50.2788C50.2788 20.9559 53.3037 23.96 57.3188 23.96V23.56ZM50.6788 16.65C50.6788 12.4999 53.6798 9.74 57.3188 9.74V9.34C53.4577 9.34 50.2788 12.2801 50.2788 16.65H50.6788ZM57.3188 9.74C61.1032 9.74 63.9588 12.5853 63.9588 16.65H64.3588C64.3588 12.3747 61.3343 9.34 57.3188 9.34V9.74ZM61.9288 16.68C61.9288 15.0546 61.4837 13.7777 60.6672 12.9058C59.8494 12.0323 58.6819 11.59 57.2888 11.59V11.99C58.5956 11.99 59.6481 12.4027 60.3753 13.1792C61.1038 13.9573 61.5288 15.1254 61.5288 16.68H61.9288ZM57.2888 11.59C56.0714 11.59 54.9229 12.0198 54.0785 12.8799C53.2333 13.7409 52.7088 15.0168 52.7088 16.68H53.1088C53.1088 15.1032 53.6042 13.9341 54.364 13.1601C55.1246 12.3852 56.1661 11.99 57.2888 11.99V11.59ZM52.7088 16.68C52.7088 18.2405 53.2272 19.4997 54.066 20.37C54.9043 21.2398 56.0521 21.71 57.2888 21.71V21.31C56.1554 21.31 55.1132 20.8802 54.354 20.0925C53.5953 19.3053 53.1088 18.1495 53.1088 16.68H52.7088ZM57.2888 21.71C58.6188 21.71 59.7851 21.3071 60.6187 20.4617C61.4523 19.6161 61.9288 18.3527 61.9288 16.68H61.5288C61.5288 18.2773 61.0752 19.4289 60.3338 20.1808C59.5924 20.9329 58.5387 21.31 57.2888 21.31V21.71ZM71.4001 10.8833C71.7881 14.1962 71.7286 22.7014 71.3998 25.9297L71.7977 25.9703C72.1289 22.7186 72.1894 14.1838 71.7974 10.8367L71.4001 10.8833ZM71.401 25.9203C71.3659 26.1544 71.2174 26.3646 71.0018 26.5126C70.7858 26.6609 70.5174 26.7359 70.2687 26.711L70.2289 27.109C70.5801 27.1441 70.9417 27.0391 71.2282 26.8424C71.5151 26.6454 71.7417 26.3456 71.7965 25.9797L71.401 25.9203ZM70.2583 26.7102C69.7346 26.6853 69.344 26.2652 69.3685 25.7495L68.969 25.7305C68.9335 26.4748 69.5029 27.0747 70.2392 27.1098L70.2583 26.7102ZM69.3679 25.7584C69.6992 22.1749 69.6688 14.9633 69.3682 11.0547L68.9693 11.0853C69.2687 14.9767 69.2984 22.1651 68.9696 25.7216L69.3679 25.7584ZM69.3685 11.0605C69.3444 10.5532 69.6985 10.1764 70.247 10.098L70.1905 9.70201C69.479 9.80364 68.9331 10.3268 68.969 11.0795L69.3685 11.0605ZM70.2377 10.0991C70.7979 10.0457 71.3296 10.3666 71.4006 10.887L71.7969 10.833C71.6879 10.0334 70.8996 9.63425 70.1998 9.7009L70.2377 10.0991ZM71.6097 32.9063C70.5554 33.3602 69.1448 33.6574 67.6478 33.844C66.1537 34.0303 64.5866 34.1051 63.2266 34.12L63.2309 34.52C64.6009 34.5049 66.1838 34.4297 67.6972 34.241C69.2077 34.0526 70.6621 33.7498 71.7678 33.2737L71.6097 32.9063ZM63.2288 34.12C61.8838 34.12 60.2325 34.0602 58.7245 33.9221C57.2084 33.7832 55.8632 33.5672 55.1136 33.2646L54.9639 33.6354C55.7743 33.9628 57.1741 34.1818 58.688 34.3204C60.21 34.4598 61.8737 34.52 63.2288 34.52V34.12ZM55.1157 33.2654C54.4209 32.9759 53.8349 32.5343 53.6746 31.7595L53.2829 31.8405C53.4826 32.8057 54.2166 33.3241 54.9618 33.6346L55.1157 33.2654ZM53.6739 31.7561C53.5439 31.1785 53.4837 30.2592 53.48 29.2717C53.4763 28.2882 53.5285 27.2534 53.6175 26.4521L53.22 26.4079C53.129 27.2266 53.0762 28.2768 53.08 29.2733C53.0838 30.2658 53.1436 31.2215 53.2836 31.8439L53.6739 31.7561ZM53.6182 26.4442C53.6402 26.1364 53.996 25.67 54.6488 25.67V25.27C53.8015 25.27 53.2573 25.8836 53.2193 26.4158L53.6182 26.4442ZM54.6488 25.67C55.2589 25.67 55.6111 26.1778 55.5892 26.5067L55.9883 26.5333C56.0264 25.9622 55.4786 25.27 54.6488 25.27V25.67ZM55.5904 26.4946C55.5142 27.0885 55.4538 27.9588 55.4425 28.8274C55.4312 29.6927 55.4683 30.5731 55.5928 31.1802L55.9847 31.0998C55.8692 30.5369 55.8313 29.6923 55.8425 28.8326C55.8537 27.9762 55.9133 27.1215 55.9871 26.5454L55.5904 26.4946ZM55.5947 31.1885C55.616 31.2735 55.6527 31.3543 55.7223 31.4239C55.7878 31.4894 55.8694 31.5317 55.9545 31.5657L56.103 31.1943C56.0381 31.1683 56.0147 31.1506 56.0052 31.1411C55.9998 31.1357 55.9915 31.1265 55.9828 31.0915L55.5947 31.1885ZM55.9535 31.5653C56.2171 31.6724 56.6635 31.7689 57.2065 31.8546C57.7554 31.9413 58.4209 32.0195 59.1341 32.0854C60.5604 32.2171 62.1866 32.3 63.4688 32.3V31.9C62.2009 31.9 60.5871 31.8179 59.1709 31.6871C58.4629 31.6217 57.8065 31.5444 57.2688 31.4595C56.7252 31.3736 56.3204 31.2826 56.104 31.1947L55.9535 31.5653ZM63.4688 32.3C66.0053 32.3 68.8167 31.9079 70.8803 31.2403L70.7572 30.8597C68.7408 31.5121 65.9722 31.9 63.4688 31.9V32.3ZM70.8975 31.2338C71.0484 31.1692 71.2839 31.1685 71.5072 31.261C71.7252 31.3513 71.9064 31.5199 71.9764 31.7649L72.3611 31.6551C72.2511 31.2701 71.9674 31.0187 71.6603 30.8915C71.3586 30.7665 71.0091 30.7508 70.74 30.8662L70.8975 31.2338ZM71.98 31.7761C72.159 32.2876 71.8931 32.7754 71.6049 32.9084L71.7726 33.2716C72.2644 33.0446 72.5985 32.3324 72.3575 31.6439L71.98 31.7761ZM86.9852 19.35L86.9589 19.1516L86.9524 19.1527L86.9852 19.35ZM85.6952 18.42L85.4966 18.4448L85.498 18.4529L85.6952 18.42ZM86.5052 17.16L86.468 16.963L86.4543 16.9666L86.5052 17.16ZM94.1252 12.18L94.3225 12.2129L94.3613 11.98H94.1252V12.18ZM96.6152 12.18V11.98H96.43L96.4158 12.1647L96.6152 12.18ZM98.3852 14.4L98.463 14.2157L98.4614 14.2151L98.3852 14.4ZM104.565 17.01L104.645 16.8268L104.643 16.8258L104.565 17.01ZM105.075 18.6L105.251 18.6958L105.253 18.6923L105.075 18.6ZM103.455 19.08L103.534 18.8962L103.532 18.8954L103.455 19.08ZM97.3352 16.53L97.2514 16.7117L97.2583 16.7146L97.3352 16.53ZM96.7652 14.85L96.5911 14.7516L96.5891 14.7552L96.7652 14.85ZM85.0052 22.74L85.0349 22.5422L85.0335 22.542L85.0052 22.74ZM83.9852 21.48L84.183 21.5097L84.1834 21.507L83.9852 21.48ZM85.2452 20.52L85.2253 20.719L85.2263 20.7191L85.2452 20.52ZM105.555 20.52L105.536 20.3209L105.532 20.3213L105.555 20.52ZM106.845 21.48L106.645 21.4895L106.646 21.4999L106.845 21.48ZM105.825 22.74L105.851 22.9384L105.856 22.9376L105.825 22.74ZM96.6452 23.13L96.6437 22.93L96.4452 22.9315V23.13H96.6452ZM96.6452 25.17H96.4452V25.3626L96.6377 25.3699L96.6452 25.17ZM85.7252 29.88L85.9252 29.8833V29.88H85.7252ZM94.1852 25.17L94.1928 25.3699L94.3852 25.3626V25.17H94.1852ZM94.1852 23.13H94.3852V22.9316L94.1868 22.93L94.1852 23.13ZM86.9524 19.1527C86.7496 19.1865 86.5027 19.1139 86.2887 18.9592C86.0747 18.8045 85.9266 18.5914 85.8925 18.3871L85.498 18.4529C85.5539 18.7886 85.7808 19.0855 86.0543 19.2833C86.3278 19.4811 86.6809 19.6035 87.0181 19.5473L86.9524 19.1527ZM85.8937 18.3952C85.8697 18.203 85.9178 17.9695 86.0364 17.7675C86.154 17.5674 86.3319 17.4124 86.5561 17.3534L86.4543 16.9666C86.1086 17.0576 85.8515 17.2926 85.6915 17.565C85.5326 17.8355 85.4608 18.157 85.4968 18.4448L85.8937 18.3952ZM86.5424 17.3565C88.4562 16.9949 90.267 16.4646 91.6644 15.6529C93.0647 14.8396 94.0695 13.7312 94.3225 12.2129L93.928 12.1471C93.701 13.5088 92.8008 14.5304 91.4635 15.3071C90.1235 16.0854 88.3643 16.6051 86.4681 16.9635L86.5424 17.3565ZM94.1252 11.98H87.6152V12.38H94.1252V11.98ZM87.6152 11.98C87.4514 11.98 87.254 11.8786 87.0894 11.6943C86.9267 11.5121 86.8252 11.2802 86.8252 11.07H86.4252C86.4252 11.3998 86.5787 11.7229 86.791 11.9607C87.0015 12.1964 87.2991 12.38 87.6152 12.38V11.98ZM86.8252 11.07C86.8252 10.8562 86.9221 10.6234 87.0771 10.4427C87.2339 10.2598 87.423 10.16 87.5852 10.16V9.76C87.2674 9.76 86.9766 9.94524 86.7734 10.1823C86.5683 10.4216 86.4252 10.7438 86.4252 11.07H86.8252ZM87.5852 10.16H103.185V9.76H87.5852V10.16ZM103.185 10.16C103.345 10.16 103.551 10.2489 103.723 10.4202C103.891 10.5883 104.005 10.817 104.005 11.07H104.405C104.405 10.693 104.235 10.3667 104.005 10.1373C103.779 9.9111 103.476 9.76 103.185 9.76V10.16ZM104.005 11.07C104.005 11.2838 103.908 11.5166 103.753 11.6973C103.597 11.8802 103.407 11.98 103.245 11.98V12.38C103.563 12.38 103.854 12.1948 104.057 11.9577C104.262 11.7184 104.405 11.3962 104.405 11.07H104.005ZM103.245 11.98H96.6152V12.38H103.245V11.98ZM96.4158 12.1647C96.2572 14.2265 94.9748 15.8277 93.1765 16.9921C91.3774 18.1571 89.0826 18.8696 86.9589 19.1517L87.0116 19.5483C89.1779 19.2604 91.5331 18.5329 93.3939 17.3279C95.2557 16.1223 96.6432 14.4235 96.8146 12.1953L96.4158 12.1647ZM98.3074 14.5842L104.487 17.1942L104.643 16.8258L98.463 14.2158L98.3074 14.5842ZM104.485 17.1932C104.681 17.2788 104.867 17.4523 104.962 17.6798C105.055 17.9009 105.066 18.1838 104.898 18.5077L105.253 18.6923C105.474 18.2662 105.471 17.8591 105.331 17.5252C105.194 17.1977 104.93 16.9512 104.645 16.8268L104.485 17.1932ZM104.9 18.5042C104.755 18.7703 104.513 18.9073 104.249 18.9587C103.981 19.0111 103.707 18.9702 103.534 18.8962L103.376 19.2638C103.624 19.3698 103.98 19.4189 104.326 19.3513C104.678 19.2827 105.036 19.0897 105.251 18.6958L104.9 18.5042ZM103.532 18.8954L97.4122 16.3454L97.2583 16.7146L103.378 19.2646L103.532 18.8954ZM97.419 16.3484C97.2691 16.2792 97.0539 16.0892 96.9263 15.8274C96.803 15.5745 96.7671 15.2684 96.9413 14.9448L96.5891 14.7552C96.3434 15.2116 96.3975 15.6555 96.5667 16.0026C96.7315 16.3408 97.0113 16.6008 97.2514 16.7116L97.419 16.3484ZM96.9393 14.9484C97.1039 14.6572 97.3294 14.5267 97.5656 14.4844C97.8102 14.4405 98.0781 14.4898 98.3091 14.5849L98.4614 14.2151C98.1823 14.1002 97.8353 14.0295 97.4949 14.0906C97.146 14.1533 96.8165 14.3528 96.5911 14.7516L96.9393 14.9484ZM85.0335 22.542C84.4955 22.4652 84.112 21.9829 84.183 21.5097L83.7874 21.4503C83.6784 22.1771 84.2549 22.8348 84.977 22.938L85.0335 22.542ZM84.1834 21.507C84.2568 20.9691 84.7163 20.6681 85.2253 20.719L85.2651 20.321C84.5742 20.2519 83.8937 20.6709 83.7871 21.453L84.1834 21.507ZM85.2263 20.7191C89.9766 21.1701 100.881 21.2607 105.578 20.7187L105.532 20.3213C100.869 20.8593 89.9939 20.7699 85.2641 20.3209L85.2263 20.7191ZM105.574 20.7191C106.131 20.666 106.623 21.0107 106.645 21.4895L107.045 21.4705C107.008 20.6893 106.239 20.254 105.536 20.3209L105.574 20.7191ZM106.646 21.4999C106.67 21.7366 106.582 21.9773 106.418 22.173C106.254 22.3692 106.026 22.5059 105.794 22.5424L105.856 22.9376C106.195 22.8841 106.506 22.6908 106.725 22.4295C106.944 22.1677 107.081 21.8234 107.044 21.4601L106.646 21.4999ZM105.8 22.5417C104.193 22.7499 100.544 22.9 96.6437 22.93L96.6468 23.33C100.546 23.3 104.217 23.1501 105.851 22.9383L105.8 22.5417ZM96.4452 23.13V25.17H96.8452V23.13H96.4452ZM96.6377 25.3699C99.0138 25.4595 101.095 25.8032 102.577 26.5236C103.315 26.8827 103.896 27.3316 104.292 27.8814C104.686 28.4291 104.905 29.087 104.905 29.88H105.305C105.305 29.008 105.063 28.2672 104.616 27.6476C104.172 27.0303 103.532 26.5435 102.751 26.1639C101.195 25.4068 99.0466 25.0605 96.6528 24.9701L96.6377 25.3699ZM104.905 29.88C104.905 30.7521 104.647 31.4613 104.186 32.04C103.722 32.6218 103.043 33.0826 102.186 33.4377C100.468 34.1498 98.0779 34.42 95.4152 34.42V34.82C98.0925 34.82 100.547 34.5502 102.339 33.8073C103.237 33.4349 103.98 32.9395 104.498 32.2894C105.019 31.6362 105.305 30.8379 105.305 29.88H104.905ZM95.4152 34.42C92.7535 34.42 90.3478 34.135 88.6222 33.4154C87.7612 33.0564 87.0806 32.5936 86.6195 32.0148C86.161 31.4393 85.911 30.7387 85.9252 29.8833L85.5253 29.8767C85.5095 30.8213 85.7882 31.6132 86.3066 32.264C86.8223 32.9114 87.5667 33.4086 88.4683 33.7846C90.2676 34.535 92.7369 34.82 95.4152 34.82V34.42ZM85.9252 29.88C85.9252 28.3419 86.7837 27.2685 88.2547 26.5458C89.736 25.8179 91.8178 25.4595 94.1928 25.3699L94.1777 24.9701C91.7827 25.0605 89.6345 25.4221 88.0783 26.1867C86.5118 26.9565 85.5252 28.1481 85.5252 29.88H85.9252ZM94.3852 25.17V23.13H93.9852V25.17H94.3852ZM94.1868 22.93C90.4021 22.9 86.8179 22.8097 85.0349 22.5422L84.9756 22.9378C86.7925 23.2103 90.4083 23.3 94.1836 23.33L94.1868 22.93ZM102.845 29.91C102.845 29.3591 102.64 28.9027 102.262 28.5371C101.889 28.1772 101.355 27.912 100.704 27.716C99.4028 27.3244 97.5625 27.19 95.3852 27.19V27.59C97.558 27.59 99.3477 27.7256 100.589 28.099C101.209 28.2855 101.675 28.5266 101.984 28.8248C102.287 29.1173 102.445 29.4709 102.445 29.91H102.845ZM95.3852 27.19C93.223 27.19 91.3975 27.3244 90.1071 27.7161C89.4612 27.9122 88.9325 28.1776 88.5631 28.5377C88.1879 28.9035 87.9852 29.3598 87.9852 29.91H88.3852C88.3852 29.4702 88.5425 29.1165 88.8424 28.8241C89.148 28.5261 89.6093 28.2853 90.2233 28.0989C91.453 27.7256 93.2275 27.59 95.3852 27.59V27.19ZM87.9852 29.91C87.9852 30.4406 88.1902 30.8823 88.5653 31.237C88.9344 31.5861 89.4624 31.8463 90.1077 32.0403C91.3973 32.428 93.2221 32.57 95.3852 32.57V32.17C93.2283 32.17 91.4531 32.027 90.2228 31.6572C89.6081 31.4724 89.1461 31.2358 88.8402 30.9464C88.5402 30.6627 88.3852 30.3244 88.3852 29.91H87.9852ZM95.3852 32.57C97.562 32.57 99.4018 32.4431 100.703 32.0632C101.353 31.8731 101.887 31.6149 102.26 31.2624C102.639 30.904 102.845 30.4545 102.845 29.91H102.445C102.445 30.3405 102.287 30.686 101.985 30.9717C101.677 31.2632 101.211 31.4981 100.59 31.6793C99.3487 32.0419 97.5585 32.17 95.3852 32.17V32.57ZM112.555 31.92L112.753 31.9483L112.754 31.9409L112.555 31.92ZM111.265 32.91L111.236 33.108L111.245 33.1093L111.254 33.1097L111.265 32.91ZM110.125 30.63L109.925 30.6395L109.925 30.6453L110.125 30.63ZM112.555 30.51L112.355 30.5205L112.355 30.5281L112.555 30.51ZM112.357 31.8917C112.284 32.3968 111.766 32.7361 111.275 32.7103L111.254 33.1097C111.903 33.1439 112.645 32.7032 112.753 31.9483L112.357 31.8917ZM111.293 32.712C110.712 32.6291 110.355 32.2579 110.355 31.92H109.955C109.955 32.5421 110.557 33.0109 111.236 33.108L111.293 32.712ZM110.355 31.92C110.355 31.4721 110.355 31.0138 110.324 30.6147L109.925 30.6453C109.954 31.0262 109.955 31.4679 109.955 31.92H110.355ZM110.324 30.6205C110.301 30.1266 110.785 29.69 111.295 29.69V29.29C110.604 29.29 109.888 29.8734 109.925 30.6395L110.324 30.6205ZM111.295 29.69C111.88 29.69 112.332 30.0856 112.355 30.5205L112.754 30.4995C112.717 29.7944 112.029 29.29 111.295 29.29V29.69ZM112.355 30.5281C112.385 30.8519 112.414 31.3474 112.356 31.8991L112.754 31.9409C112.815 31.3526 112.784 30.8281 112.754 30.4919L112.355 30.5281ZM119.791 31.92L119.989 31.9483L119.99 31.9409L119.791 31.92ZM118.501 32.91L118.473 33.108L118.482 33.1093L118.49 33.1097L118.501 32.91ZM117.361 30.63L117.161 30.6395L117.162 30.6453L117.361 30.63ZM119.791 30.51L119.591 30.5205L119.592 30.5281L119.791 30.51ZM119.593 31.8917C119.521 32.3968 119.002 32.7361 118.511 32.7103L118.49 33.1097C119.14 33.1439 119.881 32.7032 119.989 31.9483L119.593 31.8917ZM118.529 32.712C117.949 32.6291 117.591 32.2579 117.591 31.92H117.191C117.191 32.5421 117.793 33.0109 118.473 33.108L118.529 32.712ZM117.591 31.92C117.591 31.4721 117.591 31.0138 117.56 30.6147L117.162 30.6453C117.191 31.0262 117.191 31.4679 117.191 31.92H117.591ZM117.561 30.6205C117.537 30.1266 118.022 29.69 118.531 29.69V29.29C117.84 29.29 117.125 29.8734 117.161 30.6395L117.561 30.6205ZM118.531 29.69C119.116 29.69 119.568 30.0856 119.591 30.5205L119.991 30.4995C119.954 29.7944 119.266 29.29 118.531 29.29V29.69ZM119.592 30.5281C119.621 30.8519 119.65 31.3474 119.592 31.8991L119.99 31.9409C120.052 31.3526 120.021 30.8281 119.99 30.4919L119.592 30.5281ZM127.027 31.92L127.225 31.9483L127.226 31.9409L127.027 31.92ZM125.737 32.91L125.709 33.108L125.718 33.1093L125.727 33.1097L125.737 32.91ZM124.597 30.63L124.397 30.6395L124.398 30.6453L124.597 30.63ZM127.027 30.51L126.827 30.5205L126.828 30.5281L127.027 30.51ZM126.829 31.8917C126.757 32.3968 126.239 32.7361 125.748 32.7103L125.727 33.1097C126.376 33.1439 127.117 32.7032 127.225 31.9483L126.829 31.8917ZM125.766 32.712C125.185 32.6291 124.827 32.2579 124.827 31.92H124.427C124.427 32.5421 125.03 33.0109 125.709 33.108L125.766 32.712ZM124.827 31.92C124.827 31.4721 124.827 31.0138 124.797 30.6147L124.398 30.6453C124.427 31.0262 124.427 31.4679 124.427 31.92H124.827ZM124.797 30.6205C124.774 30.1266 125.258 29.69 125.767 29.69V29.29C125.076 29.29 124.361 29.8734 124.397 30.6395L124.797 30.6205ZM125.767 29.69C126.352 29.69 126.805 30.0856 126.828 30.5205L127.227 30.4995C127.19 29.7944 126.502 29.29 125.767 29.29V29.69ZM126.828 30.5281C126.858 30.8519 126.886 31.3474 126.828 31.8991L127.226 31.9409C127.288 31.3526 127.257 30.8281 127.226 30.4919L126.828 30.5281Z" fill="#35241E" mask="url(#path-1-outside-1_472_1943)"/>
<path d="M173.885 18.4017C176.058 20.9713 175.606 24.1158 175.606 26.8888C175.606 34.5272 165.306 36.6666 160.001 36.6666C154.695 36.6666 144.395 34.5272 144.395 26.8888C144.395 24.1158 143.944 20.9713 146.116 18.4017M173.885 18.4017C173.504 17.9519 173.044 17.5217 172.485 17.111ZM173.885 18.4017C175.254 19.1898 175.604 16.2408 175.606 15.2767V11.612C175.606 8.43423 173.422 7.33325 171.548 7.33325C169.677 7.33325 165.93 10.3898 164.682 10.3898C163.184 10.3898 162.895 10.0828 160.001 10.0828C157.107 10.0828 156.817 10.3898 155.319 10.3898C154.072 10.3898 150.325 7.33325 148.453 7.33325C146.582 7.33325 144.395 8.43423 144.395 11.612V15.2787C144.399 16.2408 144.747 19.1898 146.116 18.4017M146.116 18.4017C146.498 17.9519 146.957 17.5217 147.516 17.111Z" fill="#FFB59D"/>
<path d="M173.885 18.4017C176.058 20.9713 175.606 24.1158 175.606 26.8888C175.606 34.5272 165.306 36.6666 160.001 36.6666C154.695 36.6666 144.395 34.5272 144.395 26.8888C144.395 24.1158 143.944 20.9713 146.116 18.4017M173.885 18.4017C173.504 17.9519 173.044 17.5217 172.485 17.111M173.885 18.4017C175.254 19.1898 175.604 16.2408 175.606 15.2767V11.612C175.606 8.43423 173.422 7.33325 171.548 7.33325C169.677 7.33325 165.93 10.3898 164.682 10.3898C163.184 10.3898 162.895 10.0828 160.001 10.0828C157.107 10.0828 156.817 10.3898 155.319 10.3898C154.072 10.3898 150.325 7.33325 148.453 7.33325C146.582 7.33325 144.395 8.43423 144.395 11.612V15.2787C144.399 16.2408 144.747 19.1898 146.116 18.4017M146.116 18.4017C146.498 17.9519 146.957 17.5217 147.516 17.111" stroke="#E55737" stroke-width="2.5" stroke-linecap="round"/>
<path d="M161.616 28.8444C161.616 29.1827 160.91 29.4565 160.038 29.4565C159.168 29.4565 158.462 29.1827 158.462 28.8444C158.462 28.5061 159.168 28.2343 160.038 28.2343C160.908 28.2343 161.616 28.5081 161.616 28.8444ZM166.845 24.1393C166.845 24.9822 166.421 25.6666 165.899 25.6666C165.376 25.6666 164.952 24.9822 164.952 24.1393C164.952 23.2965 165.376 22.6121 165.899 22.6121C166.421 22.6121 166.845 23.2985 166.845 24.1393ZM155.112 24.1393C155.112 24.9822 154.687 25.6666 154.165 25.6666C153.643 25.6666 153.219 24.9822 153.219 24.1393C153.219 23.2965 153.643 22.6121 154.165 22.6121C154.687 22.6121 155.112 23.2985 155.112 24.1393Z" fill="#35241E" stroke="#35241E" stroke-width="1.5"/>
<path d="M179.555 27.8059C178.611 27.1938 174.51 25.6665 172.932 25.6665ZM176.401 32.6948C175.455 32.0827 173.247 30.5554 171.669 30.5554ZM140.444 27.8059C141.391 27.1938 145.49 25.6665 147.068 25.6665ZM143.599 32.6948C144.545 32.0827 146.753 30.5554 148.331 30.5554Z" fill="#FFB59D"/>
<path d="M179.555 27.8059C178.611 27.1938 174.51 25.6665 172.932 25.6665M176.401 32.6948C175.455 32.0827 173.247 30.5554 171.669 30.5554M140.444 27.8059C141.391 27.1938 145.49 25.6665 147.068 25.6665M143.599 32.6948C144.545 32.0827 146.753 30.5554 148.331 30.5554" stroke="#E55737" stroke-width="2.5" stroke-linecap="round"/>
</svg>
