<svg width="26" height="27" viewBox="0 0 26 27" fill="none" xmlns="http://www.w3.org/2000/svg">
<g clip-path="url(#clip0_174_1551)">
<path d="M22.2303 11.6497C23.6745 13.3578 23.3742 15.4482 23.3742 17.2916C23.3742 22.3693 16.5272 23.7915 13.0004 23.7915C9.47351 23.7915 2.62649 22.3693 2.62649 17.2916C2.62649 15.4482 2.32619 13.3578 3.77048 11.6497M22.2303 11.6497C21.9768 11.3507 21.6713 11.0647 21.2995 10.7917L22.2303 11.6497ZM22.2303 11.6497C23.1403 12.1736 23.3729 10.2132 23.3742 9.57229V7.13611C23.3742 5.02364 21.9222 4.29175 20.6768 4.29175C19.4327 4.29175 16.9419 6.32362 16.1125 6.32362C15.1167 6.32362 14.9243 6.11953 13.0004 6.11953C11.0764 6.11953 10.884 6.32362 9.88821 6.32362C9.05882 6.32362 6.56804 4.29175 5.32396 4.29175C4.07987 4.29175 2.62649 5.02364 2.62649 7.13611V9.57359C2.62909 10.2132 2.86049 12.1736 3.77048 11.6497M3.77048 11.6497C4.02397 11.3507 4.32947 11.0647 4.70127 10.7917L3.77048 11.6497Z" fill="#FFB59D"/>
<path d="M22.2303 11.6497C23.6745 13.3578 23.3742 15.4482 23.3742 17.2916C23.3742 22.3693 16.5272 23.7915 13.0004 23.7915C9.47351 23.7915 2.62649 22.3693 2.62649 17.2916C2.62649 15.4482 2.32619 13.3578 3.77048 11.6497M22.2303 11.6497C21.9768 11.3507 21.6713 11.0647 21.2995 10.7917M22.2303 11.6497C23.1403 12.1736 23.3729 10.2132 23.3742 9.57229V7.13611C23.3742 5.02364 21.9222 4.29175 20.6768 4.29175C19.4327 4.29175 16.9419 6.32362 16.1125 6.32362C15.1167 6.32362 14.9243 6.11953 13.0004 6.11953C11.0764 6.11953 10.884 6.32362 9.88821 6.32362C9.05882 6.32362 6.56804 4.29175 5.32396 4.29175C4.07987 4.29175 2.62649 5.02364 2.62649 7.13611V9.57359C2.62909 10.2132 2.86049 12.1736 3.77048 11.6497M3.77048 11.6497C4.02397 11.3507 4.32947 11.0647 4.70127 10.7917" stroke="#E55737" stroke-width="1.5" stroke-linecap="round"/>
<path d="M14.0738 18.5915C14.0738 18.8164 13.6045 18.9984 13.0247 18.9984C12.4463 18.9984 11.977 18.8164 11.977 18.5915C11.977 18.3666 12.4463 18.1859 13.0247 18.1859C13.6032 18.1859 14.0738 18.3679 14.0738 18.5915ZM17.55 15.4638C17.55 16.0241 17.2679 16.4791 16.9208 16.4791C16.5737 16.4791 16.2916 16.0241 16.2916 15.4638C16.2916 14.9035 16.5737 14.4485 16.9208 14.4485C17.2679 14.4485 17.55 14.9048 17.55 15.4638ZM9.75008 15.4638C9.75008 16.0241 9.46799 16.4791 9.12089 16.4791C8.7738 16.4791 8.4917 16.0241 8.4917 15.4638C8.4917 14.9035 8.7738 14.4485 9.12089 14.4485C9.46799 14.4485 9.75008 14.9048 9.75008 15.4638Z" fill="#35241E" stroke="#35241E"/>
<path d="M26.0002 17.9012C25.3723 17.4943 22.6462 16.479 21.5971 16.479L26.0002 17.9012ZM23.9033 21.1511C23.2741 20.7443 21.8064 19.729 20.7573 19.729L23.9033 21.1511ZM0.000488281 17.9012C0.629681 17.4943 3.35445 16.479 4.40354 16.479L0.000488281 17.9012ZM2.09736 21.1511C2.72656 20.7443 4.19424 19.729 5.24333 19.729L2.09736 21.1511Z" fill="#FFB59D"/>
<path d="M26.0002 17.9012C25.3723 17.4943 22.6462 16.479 21.5971 16.479M23.9033 21.1511C23.2741 20.7443 21.8064 19.729 20.7573 19.729M0.000488281 17.9012C0.629681 17.4943 3.35445 16.479 4.40354 16.479M2.09736 21.1511C2.72656 20.7443 4.19424 19.729 5.24333 19.729" stroke="#E55737" stroke-width="1.5" stroke-linecap="round"/>
</g>
<defs>
<clipPath id="clip0_174_1551">
<rect width="26" height="26" fill="white" transform="translate(0 0.5)"/>
</clipPath>
</defs>
</svg>
