<svg width="24" height="25" viewBox="0 0 24 25" fill="none" xmlns="http://www.w3.org/2000/svg">
<path d="M3.5117 11.6615C3.19944 12.8696 3.0417 14.1124 3.04224 15.3602C3.04224 20.0235 7.04607 22.5631 11.9844 22.5631C16.9226 22.5631 20.9265 20.0235 20.9265 15.3602C20.9209 14.1073 20.7353 12.8616 20.3754 11.6615" fill="#FFB59D"/>
<path d="M3.5117 11.6615C3.19944 12.8696 3.0417 14.1124 3.04224 15.3602C3.04224 20.0235 7.04607 22.5631 11.9844 22.5631C16.9226 22.5631 20.9265 20.0235 20.9265 15.3602C20.9209 14.1073 20.7353 12.8616 20.3754 11.6615" stroke="#E55737" stroke-width="1.5" stroke-linecap="round" stroke-linejoin="round"/>
<rect x="5.27783" y="7.71271" width="13.4132" height="5.74851" fill="#FFB59D"/>
<path d="M8.07212 8.59101C7.6429 9.76466 6.86158 10.8578 5.45208 11.3854C3.29368 12.1924 1.45495 11.0534 1.36553 10.2677C1.23922 9.1566 2.68114 2.96865 5.83659 2.4433C7.98605 2.0845 9.91755 3.38781 9.91755 4.94151C11.3313 4.58261 12.8142 4.59879 14.2198 4.98845C14.2198 3.43476 16.281 2.0845 18.4304 2.4433C21.5859 2.96865 23.0278 9.1566 22.9015 10.2677C22.8121 11.0534 20.9734 12.1924 18.815 11.3854C17.4055 10.8578 16.7415 9.76466 16.3123 8.59101" fill="#FFB59D"/>
<path d="M8.07212 8.59101C7.6429 9.76466 6.86158 10.8578 5.45208 11.3854C3.29368 12.1924 1.45495 11.0534 1.36553 10.2677C1.23922 9.1566 2.68114 2.96865 5.83659 2.4433C7.98605 2.0845 9.91755 3.38781 9.91755 4.94151C11.3313 4.58261 12.8142 4.59879 14.2198 4.98845C14.2198 3.43476 16.281 2.0845 18.4304 2.4433C21.5859 2.96865 23.0278 9.1566 22.9015 10.2677C22.8121 11.0534 20.9734 12.1924 18.815 11.3854C17.4055 10.8578 16.7415 9.76466 16.3123 8.59101" stroke="#E55737" stroke-width="1.5" stroke-linecap="round" stroke-linejoin="round"/>
<path d="M11.146 17.2537H12.8226L11.9843 18.092L11.146 17.2537Z" stroke="#35241E" stroke-width="2" stroke-linecap="round" stroke-linejoin="round"/>
<path d="M16.4556 14.7386V15.2975" stroke="#35241E" stroke-width="2" stroke-linecap="round" stroke-linejoin="round"/>
<path d="M7.51343 14.7388V15.2977" stroke="#35241E" stroke-width="2" stroke-linecap="round" stroke-linejoin="round"/>
</svg>
