<svg width="74" height="23" viewBox="0 0 74 23" fill="none" xmlns="http://www.w3.org/2000/svg">
<mask id="path-1-outside-1_111_365" maskUnits="userSpaceOnUse" x="0" y="-0.5" width="75" height="23" fill="black">
<rect fill="white" y="-0.5" width="75" height="23"/>
<path d="M7.228 5.566H8.892C9.308 5.566 9.776 5.878 9.776 6.528C9.776 7.126 9.36 7.49 8.944 7.49H7.306C4.29 7.49 2.73 9.414 2.73 11.832C2.73 14.354 4.004 16.096 7.176 16.096H10.036C10.374 16.096 10.348 15.836 10.374 15.68C10.66 11 10.556 5.02 10.426 1.276C10.426 0.963999 10.712 0.314 11.466 0.314C12.35 0.314 12.506 1.042 12.506 1.302C12.61 3.642 12.688 14.77 12.376 16.876C12.246 17.63 11.622 18.02 10.972 18.02H7.228C3.042 17.994 0.702 15.602 0.702 11.832C0.702 8.634 2.86 5.54 7.228 5.566ZM21.2164 18.28C17.6284 18.28 14.7684 15.81 14.7684 11.858C14.7684 7.776 17.7584 5.358 21.2164 5.358C24.6484 5.358 27.6384 7.776 27.6384 11.858C27.6384 15.81 24.7784 18.28 21.2164 18.28ZM21.2164 16.278C23.6604 16.278 25.5584 14.744 25.5584 11.832C25.5584 8.712 23.5304 7.36 21.2164 7.36C18.9024 7.36 16.8484 8.712 16.8484 11.832C16.8484 14.744 18.6944 16.278 21.2164 16.278ZM31.8707 17.084C31.8707 17.37 31.5847 18.02 30.8567 18.02C29.9727 18.02 29.8167 17.292 29.8167 17.058C29.7647 13.704 29.7387 9.518 29.8167 6.476C29.8167 6.216 29.9727 5.488 30.8567 5.488C31.5847 5.488 31.8707 6.138 31.8707 6.45C31.7927 9.362 31.7667 13.002 31.8707 17.084ZM38.7867 11.858C38.7867 9.336 37.7467 7.49 34.7567 7.49H33.3787C32.9627 7.49 32.5467 7.126 32.5467 6.528C32.5467 5.93 33.0147 5.566 33.4307 5.566H34.5487C39.2027 5.566 40.8407 8.426 40.8407 11.806C40.8407 13.444 40.7887 15.602 40.7627 17.058C40.7627 17.292 40.6067 18.02 39.7227 18.02C38.9687 18.02 38.6827 17.37 38.6827 17.084C38.7347 15.394 38.7867 13.34 38.7867 11.858ZM48.8546 22.284C47.3466 22.258 46.2026 21.998 45.2926 21.478C44.9806 21.322 44.5386 20.932 44.6686 20.334C44.7726 19.736 45.5786 19.45 45.9426 19.632C46.9826 20.1 47.4766 20.334 48.7766 20.334C50.5966 20.334 52.3646 19.762 52.5206 16.408C52.6246 13.86 52.4946 10.506 52.3386 7.906C52.3126 7.724 52.3386 7.49 52.0006 7.49H49.4006C46.2546 7.49 44.9546 9.492 44.9546 11.39C44.9546 13.392 46.5146 15.316 49.5306 15.316H50.9086C51.3246 15.316 51.7406 15.68 51.7406 16.304C51.7406 16.902 51.2726 17.266 50.8566 17.266H49.4526C45.0846 17.292 42.9266 14.302 42.9266 11.39C42.9266 8.374 45.2406 5.592 49.4526 5.566H52.9366C53.5866 5.566 54.2106 5.956 54.3406 6.736C54.5226 7.932 54.6786 12.898 54.5486 16.408C54.3926 20.568 51.9226 22.362 48.8546 22.284ZM59.4945 1.172C59.7545 4.656 59.7545 13.028 59.4945 17.188C59.4685 17.708 58.8705 18.072 58.3765 18.02C57.8305 17.994 57.4405 17.526 57.4665 17.006C57.5965 12.976 57.6745 5.436 57.4665 1.354C57.4405 0.807999 57.8045 0.391999 58.3765 0.314C58.8445 0.261999 59.4685 0.599999 59.4945 1.172ZM61.8934 11.832C61.8934 7.802 64.5454 5.358 68.0554 5.358C70.3174 5.358 73.6714 6.84 73.8014 11.052C73.8274 12.17 72.9694 12.69 72.4234 12.69H65.7154C65.3254 12.69 64.8574 12.352 64.8574 11.78C64.8574 11.182 65.2734 10.766 65.6894 10.766H71.7474C71.6694 8.426 69.9794 7.334 68.0554 7.334C65.7674 7.334 63.9994 8.738 63.9994 11.858C63.9994 14.848 65.8194 16.174 68.1854 16.304C69.4334 16.382 70.4474 16.096 71.5654 15.498C71.9554 15.316 72.7354 15.628 72.8394 16.226C72.9694 16.824 72.5274 17.214 72.2154 17.396C71.2274 17.916 69.6154 18.358 68.1074 18.28C64.4934 18.124 61.8934 15.576 61.8934 11.832Z"/>
</mask>
<path d="M7.228 5.566H8.892C9.308 5.566 9.776 5.878 9.776 6.528C9.776 7.126 9.36 7.49 8.944 7.49H7.306C4.29 7.49 2.73 9.414 2.73 11.832C2.73 14.354 4.004 16.096 7.176 16.096H10.036C10.374 16.096 10.348 15.836 10.374 15.68C10.66 11 10.556 5.02 10.426 1.276C10.426 0.963999 10.712 0.314 11.466 0.314C12.35 0.314 12.506 1.042 12.506 1.302C12.61 3.642 12.688 14.77 12.376 16.876C12.246 17.63 11.622 18.02 10.972 18.02H7.228C3.042 17.994 0.702 15.602 0.702 11.832C0.702 8.634 2.86 5.54 7.228 5.566ZM21.2164 18.28C17.6284 18.28 14.7684 15.81 14.7684 11.858C14.7684 7.776 17.7584 5.358 21.2164 5.358C24.6484 5.358 27.6384 7.776 27.6384 11.858C27.6384 15.81 24.7784 18.28 21.2164 18.28ZM21.2164 16.278C23.6604 16.278 25.5584 14.744 25.5584 11.832C25.5584 8.712 23.5304 7.36 21.2164 7.36C18.9024 7.36 16.8484 8.712 16.8484 11.832C16.8484 14.744 18.6944 16.278 21.2164 16.278ZM31.8707 17.084C31.8707 17.37 31.5847 18.02 30.8567 18.02C29.9727 18.02 29.8167 17.292 29.8167 17.058C29.7647 13.704 29.7387 9.518 29.8167 6.476C29.8167 6.216 29.9727 5.488 30.8567 5.488C31.5847 5.488 31.8707 6.138 31.8707 6.45C31.7927 9.362 31.7667 13.002 31.8707 17.084ZM38.7867 11.858C38.7867 9.336 37.7467 7.49 34.7567 7.49H33.3787C32.9627 7.49 32.5467 7.126 32.5467 6.528C32.5467 5.93 33.0147 5.566 33.4307 5.566H34.5487C39.2027 5.566 40.8407 8.426 40.8407 11.806C40.8407 13.444 40.7887 15.602 40.7627 17.058C40.7627 17.292 40.6067 18.02 39.7227 18.02C38.9687 18.02 38.6827 17.37 38.6827 17.084C38.7347 15.394 38.7867 13.34 38.7867 11.858ZM48.8546 22.284C47.3466 22.258 46.2026 21.998 45.2926 21.478C44.9806 21.322 44.5386 20.932 44.6686 20.334C44.7726 19.736 45.5786 19.45 45.9426 19.632C46.9826 20.1 47.4766 20.334 48.7766 20.334C50.5966 20.334 52.3646 19.762 52.5206 16.408C52.6246 13.86 52.4946 10.506 52.3386 7.906C52.3126 7.724 52.3386 7.49 52.0006 7.49H49.4006C46.2546 7.49 44.9546 9.492 44.9546 11.39C44.9546 13.392 46.5146 15.316 49.5306 15.316H50.9086C51.3246 15.316 51.7406 15.68 51.7406 16.304C51.7406 16.902 51.2726 17.266 50.8566 17.266H49.4526C45.0846 17.292 42.9266 14.302 42.9266 11.39C42.9266 8.374 45.2406 5.592 49.4526 5.566H52.9366C53.5866 5.566 54.2106 5.956 54.3406 6.736C54.5226 7.932 54.6786 12.898 54.5486 16.408C54.3926 20.568 51.9226 22.362 48.8546 22.284ZM59.4945 1.172C59.7545 4.656 59.7545 13.028 59.4945 17.188C59.4685 17.708 58.8705 18.072 58.3765 18.02C57.8305 17.994 57.4405 17.526 57.4665 17.006C57.5965 12.976 57.6745 5.436 57.4665 1.354C57.4405 0.807999 57.8045 0.391999 58.3765 0.314C58.8445 0.261999 59.4685 0.599999 59.4945 1.172ZM61.8934 11.832C61.8934 7.802 64.5454 5.358 68.0554 5.358C70.3174 5.358 73.6714 6.84 73.8014 11.052C73.8274 12.17 72.9694 12.69 72.4234 12.69H65.7154C65.3254 12.69 64.8574 12.352 64.8574 11.78C64.8574 11.182 65.2734 10.766 65.6894 10.766H71.7474C71.6694 8.426 69.9794 7.334 68.0554 7.334C65.7674 7.334 63.9994 8.738 63.9994 11.858C63.9994 14.848 65.8194 16.174 68.1854 16.304C69.4334 16.382 70.4474 16.096 71.5654 15.498C71.9554 15.316 72.7354 15.628 72.8394 16.226C72.9694 16.824 72.5274 17.214 72.2154 17.396C71.2274 17.916 69.6154 18.358 68.1074 18.28C64.4934 18.124 61.8934 15.576 61.8934 11.832Z" fill="white"/>
<path d="M7.228 5.566L7.22681 5.766H7.228V5.566ZM10.374 15.68L10.5713 15.7129L10.573 15.7026L10.5736 15.6922L10.374 15.68ZM10.426 1.276H10.2259L10.2261 1.28294L10.426 1.276ZM12.506 1.302H12.3058L12.3062 1.31088L12.506 1.302ZM12.376 16.876L12.5731 16.91L12.5738 16.9053L12.376 16.876ZM7.228 18.02L7.22676 18.22H7.228V18.02ZM7.228 5.766H8.892V5.366H7.228V5.766ZM8.892 5.766C9.20891 5.766 9.576 5.99949 9.576 6.528H9.976C9.976 5.75651 9.40709 5.366 8.892 5.366V5.766ZM9.576 6.528C9.576 7.02714 9.23829 7.29 8.944 7.29V7.69C9.48171 7.69 9.976 7.22486 9.976 6.528H9.576ZM8.944 7.29H7.306V7.69H8.944V7.29ZM7.306 7.29C5.75403 7.29 4.55507 7.78617 3.7441 8.61432C2.93436 9.44121 2.53 10.5802 2.53 11.832H2.93C2.93 10.6658 3.30564 9.63379 4.0299 8.89418C4.75293 8.15583 5.84197 7.69 7.306 7.69V7.29ZM2.53 11.832C2.53 13.1241 2.85641 14.2473 3.61867 15.0477C4.3827 15.8499 5.55411 16.296 7.176 16.296V15.896C5.62589 15.896 4.5743 15.4711 3.90833 14.7718C3.24059 14.0707 2.93 13.0619 2.93 11.832H2.53ZM7.176 16.296H10.036V15.896H7.176V16.296ZM10.036 16.296C10.1455 16.296 10.2449 16.275 10.3293 16.2252C10.4158 16.1743 10.4702 16.1027 10.5036 16.0303C10.5354 15.9615 10.5484 15.8915 10.5558 15.8386C10.5596 15.8118 10.5624 15.7854 10.5647 15.7647C10.5671 15.7423 10.569 15.7263 10.5713 15.7129L10.1767 15.6471C10.1725 15.6727 10.1695 15.699 10.1671 15.7207C10.1645 15.7441 10.1624 15.7635 10.1597 15.783C10.1541 15.8228 10.1476 15.847 10.1404 15.8627C10.1348 15.8748 10.1307 15.878 10.1262 15.8806C10.1196 15.8845 10.0955 15.896 10.036 15.896V16.296ZM10.5736 15.6922C10.8602 11.0023 10.7559 5.01456 10.6259 1.26906L10.2261 1.28294C10.3561 5.02544 10.4598 10.9977 10.1744 15.6678L10.5736 15.6922ZM10.626 1.276C10.626 1.16876 10.6798 0.97267 10.8177 0.805054C10.9491 0.645383 11.1542 0.513999 11.466 0.513999V0.114C11.0238 0.114 10.709 0.307616 10.5088 0.550945C10.3152 0.786329 10.226 1.07123 10.226 1.276H10.626ZM11.466 0.513999C11.8429 0.513999 12.0415 0.664305 12.1534 0.824858C12.2736 0.997341 12.306 1.20119 12.306 1.302H12.706C12.706 1.14281 12.6604 0.852658 12.4816 0.596141C12.2945 0.327694 11.9731 0.114 11.466 0.114V0.513999ZM12.3062 1.31088C12.358 2.47584 12.4035 5.8388 12.397 9.17636C12.3905 12.522 12.3315 15.8119 12.1782 16.8467L12.5738 16.9053C12.7325 15.8341 12.7905 12.507 12.797 9.17714C12.8035 5.8392 12.758 2.46815 12.7058 1.29312L12.3062 1.31088ZM12.1789 16.842C12.0685 17.4826 11.5435 17.82 10.972 17.82V18.22C11.7005 18.22 12.4235 17.7774 12.5731 16.91L12.1789 16.842ZM10.972 17.82H7.228V18.22H10.972V17.82ZM7.22924 17.82C5.17358 17.8072 3.59655 17.2142 2.53433 16.1863C1.47297 15.1592 0.902 13.675 0.902 11.832H0.502C0.502 13.759 1.10103 15.3558 2.25617 16.4737C3.41045 17.5908 5.09642 18.2068 7.22676 18.22L7.22924 17.82ZM0.902 11.832C0.902 10.2766 1.42681 8.75432 2.47362 7.62603C3.51756 6.50082 5.09361 5.7533 7.22681 5.766L7.22919 5.366C4.99439 5.3527 3.30744 6.13918 2.18038 7.35397C1.05619 8.56568 0.502 10.1894 0.502 11.832H0.902ZM21.2164 18.08C19.4684 18.08 17.9076 17.4788 16.7851 16.4064C15.6639 15.3353 14.9684 13.7834 14.9684 11.858H14.5684C14.5684 13.8846 15.303 15.5437 16.5088 16.6956C17.7132 17.8462 19.3764 18.48 21.2164 18.48V18.08ZM14.9684 11.858C14.9684 7.89698 17.858 5.558 21.2164 5.558V5.158C17.6588 5.158 14.5684 7.65501 14.5684 11.858H14.9684ZM21.2164 5.558C24.5482 5.558 27.4384 7.89648 27.4384 11.858H27.8384C27.8384 7.65552 24.7486 5.158 21.2164 5.158V5.558ZM27.4384 11.858C27.4384 13.7834 26.7429 15.3354 25.6248 16.4066C24.5054 17.479 22.951 18.08 21.2164 18.08V18.48C23.0438 18.48 24.7005 17.846 25.9015 16.6954C27.1039 15.5436 27.8384 13.8846 27.8384 11.858H27.4384ZM21.2164 16.478C22.4798 16.478 23.6183 16.081 24.4423 15.2914C25.2679 14.5002 25.7584 13.3332 25.7584 11.832H25.3584C25.3584 13.2428 24.8999 14.2988 24.1655 15.0026C23.4295 15.708 22.397 16.078 21.2164 16.078V16.478ZM25.7584 11.832C25.7584 10.2263 25.2349 9.05079 24.3901 8.27839C23.5486 7.50899 22.4106 7.16 21.2164 7.16V7.56C22.3362 7.56 23.3692 7.88701 24.1202 8.57361C24.8679 9.25721 25.3584 10.3177 25.3584 11.832H25.7584ZM21.2164 7.16C20.0223 7.16 18.8782 7.50892 18.0303 8.27785C17.1789 9.04994 16.6484 10.2255 16.6484 11.832H17.0484C17.0484 10.3185 17.5449 9.25806 18.299 8.57415C19.0566 7.88708 20.0965 7.56 21.2164 7.56V7.16ZM16.6484 11.832C16.6484 13.3316 17.1249 14.499 17.948 15.2911C18.7696 16.0818 19.9153 16.478 21.2164 16.478V16.078C19.9955 16.078 18.9572 15.7072 18.2253 15.0029C17.4949 14.3 17.0484 13.2444 17.0484 11.832H16.6484ZM31.8707 17.084H32.0708L32.0707 17.0789L31.8707 17.084ZM29.8167 17.058H30.0167L30.0167 17.0549L29.8167 17.058ZM29.8167 6.476L30.0167 6.48113V6.476H29.8167ZM31.8707 6.45L32.0707 6.45536V6.45H31.8707ZM40.7627 17.058L40.5627 17.0544V17.058H40.7627ZM38.6827 17.084L38.4827 17.0778V17.084H38.6827ZM31.6707 17.084C31.6707 17.1759 31.6185 17.366 31.482 17.5325C31.3524 17.6906 31.1532 17.82 30.8567 17.82V18.22C31.2883 18.22 31.596 18.0244 31.7914 17.786C31.98 17.556 32.0707 17.2781 32.0707 17.084H31.6707ZM30.8567 17.82C30.4797 17.82 30.2805 17.6695 30.1685 17.5112C30.0481 17.3411 30.0167 17.1436 30.0167 17.058H29.6167C29.6167 17.2064 29.6634 17.4899 29.842 17.7423C30.0289 18.0065 30.3498 18.22 30.8567 18.22V17.82ZM30.0167 17.0549C29.9647 13.7015 29.9388 9.51887 30.0167 6.48113L29.6168 6.47087C29.5387 9.51713 29.5647 13.7065 29.6167 17.0611L30.0167 17.0549ZM30.0167 6.476C30.0167 6.37519 30.0491 6.17134 30.1693 5.99886C30.2812 5.83831 30.4798 5.688 30.8567 5.688V5.288C30.3497 5.288 30.0282 5.50169 29.8411 5.77014C29.6624 6.02666 29.6167 6.31681 29.6167 6.476H30.0167ZM30.8567 5.688C31.153 5.688 31.3517 5.8172 31.481 5.97755C31.6167 6.14574 31.6707 6.34249 31.6707 6.45H32.0707C32.0707 6.24551 31.9818 5.96126 31.7924 5.72645C31.5967 5.4838 31.2884 5.288 30.8567 5.288V5.688ZM31.6708 6.44464C31.5927 9.35981 31.5667 13.0033 31.6708 17.0891L32.0707 17.0789C31.9668 13.0007 31.9927 9.36419 32.0706 6.45535L31.6708 6.44464ZM38.9867 11.858C38.9867 10.5745 38.7229 9.42904 38.0479 8.60181C37.3667 7.76688 36.295 7.29 34.7567 7.29V7.69C36.2085 7.69 37.1517 8.13612 37.738 8.85468C38.3306 9.58096 38.5867 10.6195 38.5867 11.858H38.9867ZM34.7567 7.29H33.3787V7.69H34.7567V7.29ZM33.3787 7.29C33.0844 7.29 32.7467 7.02714 32.7467 6.528H32.3467C32.3467 7.22486 32.841 7.69 33.3787 7.69V7.29ZM32.7467 6.528C32.7467 6.0441 33.1215 5.766 33.4307 5.766V5.366C32.9079 5.366 32.3467 5.8159 32.3467 6.528H32.7467ZM33.4307 5.766H34.5487V5.366H33.4307V5.766ZM34.5487 5.766C36.833 5.766 38.3448 6.4662 39.2892 7.5499C40.2379 8.63861 40.6407 10.1449 40.6407 11.806H41.0407C41.0407 10.0871 40.6245 8.47339 39.5908 7.2871C38.5526 6.0958 36.9184 5.366 34.5487 5.366V5.766ZM40.6407 11.806C40.6407 13.4416 40.5888 15.5962 40.5628 17.0544L40.9627 17.0616C40.9886 15.6078 41.0407 13.4464 41.0407 11.806H40.6407ZM40.5627 17.058C40.5627 17.1436 40.5314 17.3411 40.411 17.5112C40.2989 17.6695 40.0998 17.82 39.7227 17.82V18.22C40.2297 18.22 40.5505 18.0065 40.7375 17.7423C40.9161 17.4899 40.9627 17.2064 40.9627 17.058H40.5627ZM39.7227 17.82C39.4108 17.82 39.2051 17.6884 39.0734 17.531C38.9347 17.3651 38.8827 17.1756 38.8827 17.084H38.4827C38.4827 17.2784 38.5737 17.5569 38.7665 17.7875C38.9664 18.0266 39.2806 18.22 39.7227 18.22V17.82ZM38.8826 17.0902C38.9346 15.4 38.9867 13.3433 38.9867 11.858H38.5867C38.5867 13.3367 38.5348 15.388 38.4828 17.0778L38.8826 17.0902ZM48.8546 22.284L48.8597 22.0841L48.8581 22.084L48.8546 22.284ZM45.2926 21.478L45.392 21.3041L45.3821 21.2991L45.2926 21.478ZM44.6686 20.334L44.8642 20.3765L44.8657 20.3683L44.6686 20.334ZM45.9426 19.632L45.8531 19.811L45.8605 19.8144L45.9426 19.632ZM52.5206 16.408L52.7204 16.4173L52.7204 16.4162L52.5206 16.408ZM52.3386 7.906L52.5382 7.89402L52.5378 7.88583L52.5366 7.87772L52.3386 7.906ZM49.4526 17.266V17.066L49.4514 17.066L49.4526 17.266ZM49.4526 5.566V5.366L49.4514 5.366L49.4526 5.566ZM54.3406 6.736L54.5384 6.70591L54.5379 6.70312L54.3406 6.736ZM54.5486 16.408L54.7485 16.4155L54.7485 16.4154L54.5486 16.408ZM48.8581 22.084C47.3701 22.0584 46.2627 21.802 45.3918 21.3044L45.1934 21.6516C46.1425 22.194 47.3231 22.4576 48.8512 22.484L48.8581 22.084ZM45.3821 21.2991C45.0985 21.1573 44.7638 20.8378 44.864 20.3765L44.4732 20.2915C44.3135 21.0262 44.8628 21.4867 45.2032 21.6569L45.3821 21.2991ZM44.8657 20.3683C44.9029 20.154 45.0705 19.9773 45.2939 19.8712C45.5253 19.7612 45.7483 19.7585 45.8532 19.8109L46.0321 19.4531C45.7729 19.3235 45.4109 19.3728 45.1223 19.5098C44.8257 19.6507 44.5383 19.916 44.4716 20.2997L44.8657 20.3683ZM45.8605 19.8144C46.3763 20.0465 46.7746 20.2291 47.208 20.351C47.646 20.4742 48.1136 20.534 48.7766 20.534V20.134C48.1396 20.134 47.7102 20.0768 47.3163 19.966C46.9176 19.8539 46.549 19.6855 46.0247 19.4496L45.8605 19.8144ZM48.7766 20.534C49.7015 20.534 50.656 20.3901 51.3991 19.7837C52.1478 19.1727 52.6409 18.127 52.7204 16.4173L52.3208 16.3987C52.2443 18.043 51.7754 18.9603 51.1462 19.4738C50.5112 19.9919 49.6718 20.134 48.7766 20.134V20.534ZM52.7204 16.4162C52.8249 13.8577 52.6943 10.4955 52.5382 7.89402L52.139 7.91798C52.2949 10.5165 52.4244 13.8623 52.3208 16.3998L52.7204 16.4162ZM52.5366 7.87772C52.534 7.85954 52.5319 7.83987 52.5294 7.81551C52.5271 7.79248 52.5243 7.76488 52.5205 7.73712C52.5131 7.68277 52.4999 7.612 52.4669 7.5432C52.4317 7.46991 52.3751 7.40121 52.288 7.35377C52.2044 7.30822 52.1069 7.29 52.0006 7.29V7.69C52.0634 7.69 52.0893 7.70103 52.0967 7.70504C52.1006 7.70716 52.1025 7.70833 52.1063 7.7163C52.1123 7.72875 52.1186 7.7506 52.1242 7.79132C52.1269 7.81109 52.129 7.83162 52.1315 7.85623C52.1339 7.87951 52.1367 7.90696 52.1406 7.93428L52.5366 7.87772ZM52.0006 7.29H49.4006V7.69H52.0006V7.29ZM49.4006 7.29C47.7832 7.29 46.6166 7.80598 45.8546 8.58873C45.0949 9.36905 44.7546 10.3967 44.7546 11.39H45.1546C45.1546 10.4853 45.4643 9.56295 46.1412 8.86776C46.8156 8.17502 47.8721 7.69 49.4006 7.69V7.29ZM44.7546 11.39C44.7546 12.4433 45.1653 13.4779 45.9736 14.2485C46.7829 15.0201 47.9788 15.516 49.5306 15.516V15.116C48.0665 15.116 46.9743 14.6499 46.2496 13.959C45.5239 13.2671 45.1546 12.3387 45.1546 11.39H44.7546ZM49.5306 15.516H50.9086V15.116H49.5306V15.516ZM50.9086 15.516C51.1994 15.516 51.5406 15.7751 51.5406 16.304H51.9406C51.9406 15.5849 51.4498 15.116 50.9086 15.116V15.516ZM51.5406 16.304C51.5406 16.7879 51.1658 17.066 50.8566 17.066V17.466C51.3794 17.466 51.9406 17.0161 51.9406 16.304H51.5406ZM50.8566 17.066H49.4526V17.466H50.8566V17.066ZM49.4514 17.066C47.3159 17.0787 45.7383 16.3555 44.6945 15.2898C43.6483 14.2217 43.1266 12.7976 43.1266 11.39H42.7266C42.7266 12.8944 43.2839 14.4213 44.4087 15.5697C45.5359 16.7205 47.2213 17.4793 49.4538 17.466L49.4514 17.066ZM43.1266 11.39C43.1266 8.49013 45.3456 5.79136 49.4538 5.766L49.4514 5.366C45.1357 5.39264 42.7266 8.25787 42.7266 11.39H43.1266ZM49.4526 5.766H52.9366V5.366H49.4526V5.766ZM52.9366 5.766C53.5058 5.766 54.032 6.10111 54.1433 6.76888L54.5379 6.70312C54.3892 5.81089 53.6675 5.366 52.9366 5.366V5.766ZM54.1429 6.76609C54.3219 7.94263 54.4787 12.8931 54.3487 16.4006L54.7485 16.4154C54.8786 12.9029 54.7233 7.92137 54.5383 6.70591L54.1429 6.76609ZM54.3488 16.4005C54.2722 18.4419 53.6297 19.8753 52.6567 20.7895C51.6829 21.7043 50.3538 22.1221 48.8597 22.0841L48.8495 22.4839C50.4234 22.5239 51.8633 22.0837 52.9306 21.081C53.9985 20.0777 54.669 18.5341 54.7485 16.4155L54.3488 16.4005ZM59.4945 1.172L59.2946 1.18108L59.2951 1.18688L59.4945 1.172ZM59.4945 17.188L59.2949 17.1755L59.2948 17.178L59.4945 17.188ZM58.3765 18.02L58.3975 17.8208L58.386 17.8202L58.3765 18.02ZM57.4665 17.006L57.6663 17.016L57.6664 17.0124L57.4665 17.006ZM57.4665 1.354L57.2667 1.36351L57.2668 1.36418L57.4665 1.354ZM58.3765 0.314L58.3544 0.115161L58.3495 0.115834L58.3765 0.314ZM59.2951 1.18688C59.5543 4.66024 59.5544 13.023 59.2949 17.1755L59.6941 17.2005C59.9546 13.033 59.9547 4.65176 59.6939 1.15712L59.2951 1.18688ZM59.2948 17.178C59.2857 17.3598 59.1755 17.5297 58.9966 17.6544C58.8171 17.7795 58.5915 17.8415 58.3974 17.8211L58.3556 18.2189C58.6555 18.2505 58.9759 18.1565 59.2254 17.9826C59.4755 17.8083 59.6773 17.5362 59.6943 17.198L59.2948 17.178ZM58.386 17.8202C57.9567 17.7998 57.6455 17.4318 57.6663 17.016L57.2668 16.996C57.2355 17.6202 57.7043 18.1882 58.367 18.2198L58.386 17.8202ZM57.6664 17.0124C57.7964 12.9808 57.8747 5.43423 57.6662 1.34382L57.2668 1.36418C57.4743 5.43777 57.3966 12.9712 57.2666 16.9996L57.6664 17.0124ZM57.6663 1.34449C57.6456 0.910919 57.9251 0.577398 58.4035 0.512166L58.3495 0.115834C57.6839 0.2066 57.2354 0.705081 57.2667 1.36351L57.6663 1.34449ZM58.3986 0.512776C58.5806 0.492553 58.8062 0.548995 58.988 0.673879C59.1672 0.796863 59.2852 0.972017 59.2947 1.18108L59.6943 1.16292C59.6778 0.799981 59.4708 0.520135 59.2145 0.344119C58.9608 0.170002 58.6404 0.0834451 58.3544 0.115223L58.3986 0.512776ZM73.8014 11.052L74.0014 11.0473L74.0013 11.0458L73.8014 11.052ZM71.7474 10.766V10.966H71.9542L71.9473 10.7593L71.7474 10.766ZM68.1854 16.304L68.1979 16.1044L68.1964 16.1043L68.1854 16.304ZM71.5654 15.498L71.4807 15.3165L71.4711 15.3216L71.5654 15.498ZM72.8394 16.226L72.6422 16.2603L72.644 16.2685L72.8394 16.226ZM72.2154 17.396L72.3086 17.5732L72.3162 17.5688L72.2154 17.396ZM68.1074 18.28L68.1177 18.0803L68.116 18.0802L68.1074 18.28ZM62.0934 11.832C62.0934 9.86207 62.7407 8.29659 63.8004 7.22434C64.8605 6.15176 66.3477 5.558 68.0554 5.558V5.158C66.2531 5.158 64.6593 5.78624 63.5159 6.94316C62.3722 8.10041 61.6934 9.77193 61.6934 11.832H62.0934ZM68.0554 5.558C69.1478 5.558 70.5065 5.91705 71.6041 6.78255C72.695 7.64284 73.5383 9.01104 73.6015 11.0582L74.0013 11.0458C73.9345 8.88096 73.0358 7.40216 71.8517 6.46845C70.6743 5.53995 69.225 5.158 68.0554 5.158V5.558ZM73.6015 11.0567C73.6246 12.0514 72.8685 12.49 72.4234 12.49V12.89C73.0703 12.89 74.0302 12.2886 74.0014 11.0473L73.6015 11.0567ZM72.4234 12.49H65.7154V12.89H72.4234V12.49ZM65.7154 12.49C65.4243 12.49 65.0574 12.2303 65.0574 11.78H64.6574C64.6574 12.4737 65.2265 12.89 65.7154 12.89V12.49ZM65.0574 11.78C65.0574 11.266 65.4086 10.966 65.6894 10.966V10.566C65.1382 10.566 64.6574 11.098 64.6574 11.78H65.0574ZM65.6894 10.966H71.7474V10.566H65.6894V10.966ZM71.9473 10.7593C71.9066 9.53845 71.4428 8.62499 70.7224 8.0194C70.0059 7.41717 69.0534 7.134 68.0554 7.134V7.534C68.9814 7.534 69.8359 7.79682 70.465 8.3256C71.09 8.85101 71.5102 9.65355 71.5475 10.7727L71.9473 10.7593ZM68.0554 7.134C66.8707 7.134 65.8006 7.49819 65.0267 8.28584C64.2528 9.07364 63.7994 10.2604 63.7994 11.858H64.1994C64.1994 10.3356 64.6301 9.26036 65.3121 8.56616C65.9943 7.8718 66.9521 7.534 68.0554 7.534V7.134ZM63.7994 11.858C63.7994 13.3954 64.2687 14.5309 65.0666 15.2977C65.8615 16.0616 66.9589 16.4369 68.1744 16.5037L68.1964 16.1043C67.0459 16.0411 66.0503 15.6884 65.3437 15.0093C64.6402 14.3331 64.1994 13.3106 64.1994 11.858H63.7994ZM68.1729 16.5036C69.4657 16.5844 70.5165 16.2859 71.6597 15.6744L71.4711 15.3216C70.3783 15.9061 69.4011 16.1796 68.1979 16.1044L68.1729 16.5036ZM71.65 15.6792C71.7688 15.6238 71.9932 15.6335 72.2193 15.7479C72.4387 15.859 72.6044 16.0418 72.6424 16.2603L73.0364 16.1917C72.9704 15.8122 72.6941 15.54 72.4 15.3911C72.1126 15.2455 71.7521 15.1902 71.4808 15.3168L71.65 15.6792ZM72.644 16.2685C72.7443 16.7301 72.4109 17.0504 72.1146 17.2232L72.3162 17.5688C72.6439 17.3776 73.1945 16.9179 73.0348 16.1835L72.644 16.2685ZM72.1223 17.219C71.1632 17.7238 69.5867 18.1562 68.1177 18.0803L68.0971 18.4797C69.6441 18.5597 71.2916 18.1082 72.3086 17.573L72.1223 17.219ZM68.116 18.0802C66.3545 18.0042 64.8507 17.3462 63.788 16.2615C62.7258 15.1774 62.0934 13.656 62.0934 11.832H61.6934C61.6934 13.752 62.361 15.3766 63.5023 16.5415C64.6431 17.7058 66.2463 18.3999 68.0988 18.4798L68.116 18.0802Z" fill="white" mask="url(#path-1-outside-1_111_365)"/>
</svg>
